<?xml version="1.0" encoding="UTF-8" standalone="no"?>
<!DOCTYPE svg PUBLIC "-//W3C//DTD SVG 1.1//EN" "http://www.w3.org/Graphics/SVG/1.1/DTD/svg11.dtd">
<svg xmlns="http://www.w3.org/2000/svg" version="1.1" viewBox="0 0 500 200">
<g stroke-width="2.00" fill="none" stroke-linecap="butt">
<path stroke="#525a80" stroke-opacity="0.961" vector-effect="non-scaling-stroke" d="
  M 264.54 68.00
  L 263.50 68.29"
/>
<path stroke="#c4c3cb" stroke-opacity="0.961" vector-effect="non-scaling-stroke" d="
  M 252.71 60.25
  Q 250.09 55.11 245.03 52.46
  Q 244.60 52.23 244.33 51.82
  C 242.31 48.65 233.73 58.03 232.04 60.25"
/>
<path stroke="#525a80" stroke-opacity="0.961" vector-effect="non-scaling-stroke" d="
  M 230.50 60.54
  L 229.84 60.84
  A 0.35 0.34 67.5 0 1 229.37 60.64
  L 229.25 60.29"
/>
<path stroke="#1d1e49" vector-effect="non-scaling-stroke" d="
  M 277.00 79.96
  Q 276.17 79.88 275.57 79.34
  A 0.41 0.41 0.0 0 0 274.95 79.43
  L 274.29 80.50"
/>
<path stroke="#1d1e49" vector-effect="non-scaling-stroke" d="
  M 211.25 79.54
  C 210.78 79.33 210.51 79.20 210.02 79.45
  Q 206.52 81.26 206.64 84.96"
/>
<path stroke="#f2a4e7" vector-effect="non-scaling-stroke" d="
  M 253.29 61.25
  C 252.07 61.89 244.64 54.65 243.14 53.46
  A 0.60 0.60 0.0 0 0 242.38 53.46
  L 229.92 63.82"
/>
<path stroke="#85409f" vector-effect="non-scaling-stroke" d="
  M 273.50 80.04
  L 274.29 80.50"
/>
<path stroke="#7e2879" vector-effect="non-scaling-stroke" d="
  M 274.29 80.50
  C 274.26 81.56 264.64 84.07 263.21 84.50"
/>
<path stroke="#823188" vector-effect="non-scaling-stroke" d="
  M 263.21 84.50
  L 252.50 87.79"
/>
<path stroke="#85409f" vector-effect="non-scaling-stroke" d="
  M 252.50 87.79
  Q 248.49 88.80 244.48 89.81
  C 241.81 90.49 240.07 89.61 237.54 89.00"
/>
<path stroke="#823188" vector-effect="non-scaling-stroke" d="
  M 237.54 89.00
  L 221.50 84.21"
/>
<path stroke="#7e2879" vector-effect="non-scaling-stroke" d="
  M 221.50 84.21
  L 212.07 81.27
  A 0.47 0.46 -81.7 0 1 211.74 80.82
  L 211.75 80.54"
/>
<path stroke="#1a1032" vector-effect="non-scaling-stroke" d="
  M 221.50 84.21
  C 216.18 87.43 220.68 91.21 219.13 92.69
  A 0.35 0.35 0.0 0 0 219.16 93.22
  L 221.38 94.85"
/>
<path stroke="#2e4d78" vector-effect="non-scaling-stroke" d="
  M 221.38 94.85
  Q 226.09 98.47 231.60 101.19
  A 0.73 0.73 0.0 0 1 231.95 102.14
  Q 231.87 102.35 231.50 102.29"
/>
<path stroke="#7f5580" vector-effect="non-scaling-stroke" d="
  M 231.50 102.29
  Q 222.01 97.68 212.39 93.34
  C 211.92 93.12 211.68 92.75 211.25 92.46"
/>
<path stroke="#7f2362" vector-effect="non-scaling-stroke" d="
  M 211.25 92.46
  L 211.00 92.21"
/>
<path stroke="#1d1e49" vector-effect="non-scaling-stroke" d="
  M 211.00 92.21
  Q 210.08 90.40 208.25 89.54"
/>
<path stroke="#4b4158" stroke-opacity="0.961" vector-effect="non-scaling-stroke" d="
  M 275.04 91.50
  L 274.64 91.40
  A 0.80 0.79 33.4 0 0 273.95 91.54
  Q 273.27 92.07 273.29 93.00"
/>
<path stroke="#7f5580" vector-effect="non-scaling-stroke" d="
  M 273.29 93.00
  Q 269.76 95.37 265.75 96.79"
/>
<path stroke="#4b4158" stroke-opacity="0.961" vector-effect="non-scaling-stroke" d="
  M 265.75 96.79
  L 263.67 97.66
  Q 263.31 97.81 263.64 98.03
  L 263.96 98.25"
/>
<path stroke="#312738" stroke-opacity="0.765" vector-effect="non-scaling-stroke" d="
  M 263.96 98.25
  L 263.25 98.46"
/>
<path stroke="#4b4158" stroke-opacity="0.961" vector-effect="non-scaling-stroke" d="
  M 263.25 98.46
  C 262.83 97.41 257.67 100.54 256.75 100.96"
/>
<path stroke="#127178" vector-effect="non-scaling-stroke" d="
  M 256.75 100.96
  L 254.04 102.00"
/>
<path stroke="#1d1e49" vector-effect="non-scaling-stroke" d="
  M 254.04 102.00
  Q 253.85 101.39 254.34 101.11
  Q 260.01 97.97 265.46 94.30"
/>
<path stroke="#1a1032" vector-effect="non-scaling-stroke" d="
  M 265.46 94.30
  L 268.99 92.69
  A 0.44 0.43 -11.0 0 0 269.25 92.31
  L 269.25 92.02
  Q 269.27 91.58 268.89 91.79
  L 266.17 93.32
  A 0.63 0.63 0.0 0 1 265.29 93.03
  L 264.82 91.97
  A 0.68 0.68 0.0 0 1 265.07 91.11
  Q 266.98 89.89 267.32 87.66
  A 1.27 1.26 -61.1 0 0 267.04 86.67
  Q 265.98 85.40 264.26 85.78
  A 0.78 0.77 69.0 0 1 263.44 85.41
  Q 263.19 84.98 263.21 84.50"
/>
<path stroke="#4127ad" vector-effect="non-scaling-stroke" d="
  M 253.00 89.71
  L 243.66 94.86
  A 1.19 1.18 39.3 0 1 242.74 94.95
  C 240.97 94.42 238.46 92.25 236.83 92.52
  Q 236.24 92.62 236.76 92.93
  L 241.84 96.00
  A 1.92 1.90 45.3 0 0 243.76 96.02
  L 251.71 91.50"
/>
<path stroke="#19899f" vector-effect="non-scaling-stroke" d="
  M 252.75 93.75
  Q 250.55 92.86 249.48 94.37
  A 0.87 0.86 -64.5 0 0 249.95 95.71
  Q 251.79 96.22 253.05 94.73
  A 0.57 0.57 0.0 0 0 253.08 94.03
  Q 252.95 93.87 252.75 93.75"
/>
<path stroke="#212858" vector-effect="non-scaling-stroke" d="
  M 237.54 89.00
  Q 238.10 90.57 236.65 91.32
  A 0.99 0.96 -42.5 0 1 235.70 91.29
  L 231.90 88.99
  Q 231.88 88.98 231.86 89.00
  L 231.68 89.23
  A 0.46 0.45 -48.0 0 0 231.71 89.84
  L 232.65 90.77
  A 0.59 0.59 0.0 0 1 232.76 91.45
  Q 231.65 93.64 232.56 95.97
  A 1.58 1.57 -86.7 0 0 233.26 96.76
  Q 235.53 97.96 238.13 97.74
  A 1.58 1.57 -30.2 0 1 239.12 98.00
  L 242.99 100.58
  A 0.98 0.97 49.6 0 0 243.93 100.66
  Q 245.54 99.92 246.56 98.43
  A 1.38 1.34 -79.0 0 1 247.37 97.87
  C 248.61 97.56 252.66 97.12 253.32 96.17
  Q 253.88 95.37 253.81 94.24
  A 0.52 0.52 0.0 0 0 253.30 93.75
  L 252.75 93.75
  L 251.71 91.50"
/>
<path stroke="#3e1896" vector-effect="non-scaling-stroke" d="
  M 251.71 91.50
  L 253.88 89.80
  Q 254.40 89.40 253.74 89.45
  Q 253.36 89.47 253.00 89.71"
/>
<path stroke="#212858" vector-effect="non-scaling-stroke" d="
  M 253.00 89.71
  L 252.50 87.79"
/>
<path stroke="#212858" vector-effect="non-scaling-stroke" d="
  M 265.46 94.30
  Q 256.85 98.29 248.75 103.21"
/>
<path stroke="#167a88" vector-effect="non-scaling-stroke" d="
  M 248.75 103.21
  Q 245.91 105.01 242.68 105.67
  A 1.42 1.38 52.6 0 1 241.74 105.53
  L 238.50 103.79"
/>
<path stroke="#325688" vector-effect="non-scaling-stroke" d="
  M 238.50 103.79
  L 221.38 94.85"
/>
<path stroke="#29b7ce" vector-effect="non-scaling-stroke" d="
  M 238.50 103.79
  L 238.25 104.15
  A 0.58 0.57 -46.9 0 0 238.27 104.85
  Q 239.47 106.37 241.25 107.21"
/>
<path stroke="#35659f" vector-effect="non-scaling-stroke" d="
  M 241.25 107.21
  L 240.46 108.00"
/>
<path stroke="#979cd6" vector-effect="non-scaling-stroke" d="
  M 231.50 102.29
  Q 236.66 104.16 240.46 108.00"
/>
<path stroke="#866da6" vector-effect="non-scaling-stroke" d="
  M 240.46 108.00
  Q 240.23 109.18 241.04 109.75"
/>
<path stroke="#835f8f" vector-effect="non-scaling-stroke" d="
  M 241.04 109.75
  L 240.83 112.86"
/>
<path stroke="#e777d6" vector-effect="non-scaling-stroke" d="
  M 240.83 112.86
  Q 239.55 111.24 238.32 109.56
  Q 237.04 107.81 235.35 106.76
  Q 226.73 101.44 217.50 97.21"
/>
<path stroke="#e872bf" vector-effect="non-scaling-stroke" d="
  M 211.25 92.46
  L 210.74 92.52
  Q 209.86 92.63 210.55 93.17
  Q 213.88 95.78 217.50 97.21"
/>
<path stroke="#e744b8" vector-effect="non-scaling-stroke" d="
  M 217.50 97.21
  Q 217.78 98.79 216.64 99.75
  A 0.39 0.38 46.3 0 0 216.63 100.33
  L 218.05 101.64"
/>
<path stroke="#863b88" vector-effect="non-scaling-stroke" d="
  M 211.00 92.21
  L 209.25 91.79"
/>
<path stroke="#19899f" vector-effect="non-scaling-stroke" d="
  M 254.04 102.00
  Q 253.39 102.94 252.24 102.84
  A 1.08 1.05 26.3 0 0 251.41 103.11
  Q 250.28 104.12 248.75 103.21"
/>
<path stroke="#b994ba" stroke-opacity="0.957" vector-effect="non-scaling-stroke" d="
  M 275.00 92.54
  L 273.29 93.00"
/>
<path stroke="#86ede7" vector-effect="non-scaling-stroke" d="
  M 248.21 106.50
  Q 246.78 105.67 245.54 107.00"
/>
<path stroke="#19899f" vector-effect="non-scaling-stroke" d="
  M 245.54 107.00
  Q 244.41 107.03 243.50 107.68
  A 0.90 0.89 38.3 0 1 242.62 107.78
  L 241.25 107.21"
/>
<path stroke="#e777d6" vector-effect="non-scaling-stroke" d="
  M 266.00 98.29
  L 264.50 98.71"
/>
<path stroke="#bb8fb3" stroke-opacity="0.765" vector-effect="non-scaling-stroke" d="
  M 264.50 98.71
  L 264.79 98.25"
/>
<path stroke="#b994ba" stroke-opacity="0.957" vector-effect="non-scaling-stroke" d="
  M 264.79 98.25
  L 265.75 96.79"
/>
<path stroke="#46b0b2" stroke-opacity="0.961" vector-effect="non-scaling-stroke" d="
  M 257.50 102.29
  L 256.75 100.96"
/>
<path stroke="#212858" vector-effect="non-scaling-stroke" d="
  M 243.97 114.30
  Q 243.43 112.34 243.87 110.19
  A 0.70 0.69 20.7 0 0 243.53 109.45
  Q 242.31 108.80 241.04 109.75"
/>
<path stroke="#823188" vector-effect="non-scaling-stroke" d="
  M 240.83 112.86
  L 241.79 118.25"
/>
<path stroke="#f2a4e7" vector-effect="non-scaling-stroke" d="
  M 241.79 118.25
  L 242.29 120.25"
/>
<path stroke="#e777d6" vector-effect="non-scaling-stroke" d="
  M 242.54 123.50
  Q 242.17 124.49 242.51 125.31
  A 0.34 0.34 0.0 0 0 243.09 125.39
  Q 243.98 124.29 242.96 123.00"
/>
<path stroke="#f2a4e7" vector-effect="non-scaling-stroke" d="
  M 242.79 119.75
  Q 244.84 118.61 243.50 116.71"
/>
<path stroke="#823188" vector-effect="non-scaling-stroke" d="
  M 243.50 116.71
  Q 244.58 115.61 243.97 114.30"
/>
<path stroke="#85409f" vector-effect="non-scaling-stroke" d="
  M 243.97 114.30
  Q 244.36 113.68 244.71 113.50"
/>
<path stroke="#f2a4e7" vector-effect="non-scaling-stroke" d="
  M 244.71 113.50
  Q 244.84 113.62 244.98 113.66
  A 0.36 0.36 0.0 0 0 245.42 113.45
  L 246.93 109.88
  A 1.34 1.31 -88.6 0 1 247.65 109.18
  Q 249.57 108.43 249.75 106.46"
/>
<path stroke="#7992cf" vector-effect="non-scaling-stroke" d="
  M 254.50 103.29
  Q 256.18 103.56 257.50 102.29"
/>
<path stroke="#b764b2" stroke-opacity="0.961" vector-effect="non-scaling-stroke" d="
  M 257.50 102.29
  L 258.25 102.04"
/>
<path stroke="#b853a9" stroke-opacity="0.765" vector-effect="non-scaling-stroke" d="
  M 258.25 102.04
  L 260.79 100.25"
/>
<path stroke="#b853a9" stroke-opacity="0.765" vector-effect="non-scaling-stroke" d="
  M 263.29 99.25
  L 264.50 98.71"
/>
<path stroke="#7e2879" vector-effect="non-scaling-stroke" d="
  M 251.75 110.96
  Q 250.56 112.62 250.46 114.75"
/>
<path stroke="#b764b2" stroke-opacity="0.961" vector-effect="non-scaling-stroke" d="
  M 255.00 118.21
  L 255.75 118.46"
/>
<path stroke="#e777d6" vector-effect="non-scaling-stroke" d="
  M 246.04 129.75
  L 246.00 130.46"
/>
<path stroke="#e777d6" vector-effect="non-scaling-stroke" d="
  M 240.21 130.75
  Q 240.56 129.63 239.50 129.46"
/>
<path stroke="#e777d6" vector-effect="non-scaling-stroke" d="
  M 237.50 121.79
  Q 237.44 120.77 236.71 120.00"
/>
<path stroke="#e777d6" vector-effect="non-scaling-stroke" d="
  M 236.71 119.00
  Q 236.78 116.18 235.25 113.79"
/>
<path stroke="#7e2879" vector-effect="non-scaling-stroke" d="
  M 235.25 113.79
  L 234.71 113.00"
/>
<path stroke="#b764b2" stroke-opacity="0.961" vector-effect="non-scaling-stroke" d="
  M 234.71 113.00
  Q 234.64 111.29 233.50 110.04"
/>
<path stroke="#8f8ca0" vector-effect="non-scaling-stroke" d="
  M 243.50 116.71
  Q 242.01 116.76 241.79 118.25"
/>
<path stroke="#e872bf" vector-effect="non-scaling-stroke" d="
  M 199.50 91.29
  Q 197.18 91.50 196.71 93.75"
/>
<path stroke="#929bb7" vector-effect="non-scaling-stroke" d="
  M 244.71 113.50
  L 245.54 107.00"
/>
<path stroke="#e872bf" vector-effect="non-scaling-stroke" d="
  M 288.50 91.04
  L 287.73 91.29
  Q 287.22 91.45 287.65 91.76
  Q 288.74 92.54 289.25 93.71"
/>
<path stroke="#e744b8" vector-effect="non-scaling-stroke" d="
  M 268.29 101.50
  Q 267.57 100.74 266.56 100.68
  A 0.41 0.41 0.0 0 1 266.18 100.20
  Q 266.34 99.22 266.00 98.29"
/>
<path stroke="#e872bf" vector-effect="non-scaling-stroke" d="
  M 266.00 98.29
  C 268.14 97.33 275.04 94.26 275.25 92.46"
/>
<path stroke="#b994ba" stroke-opacity="0.957" vector-effect="non-scaling-stroke" d="
  M 213.75 108.79
  L 214.29 109.25"
/>
<path stroke="#f4d2ef" vector-effect="non-scaling-stroke" d="
  M 214.29 109.25
  Q 214.26 110.05 214.56 110.74
  A 0.81 0.80 -39.7 0 1 214.48 111.54
  Q 213.29 113.24 213.12 115.33
  A 1.24 1.23 27.7 0 0 213.41 116.25
  Q 216.91 120.46 221.75 122.96"
/>
<path stroke="#b994ba" stroke-opacity="0.957" vector-effect="non-scaling-stroke" d="
  M 221.75 122.96
  L 223.25 123.71"
/>
<path stroke="#bb8fb3" stroke-opacity="0.765" vector-effect="non-scaling-stroke" d="
  M 223.25 123.71
  L 223.46 123.75"
/>
<path stroke="#4b4158" stroke-opacity="0.961" vector-effect="non-scaling-stroke" d="
  M 234.71 113.00
  Q 231.79 109.89 227.74 107.89
  Q 225.71 106.89 225.57 109.15
  Q 225.50 110.34 226.58 111.28
  C 229.29 113.67 230.13 115.99 234.50 115.29"
/>
<path stroke="#b994ba" stroke-opacity="0.957" vector-effect="non-scaling-stroke" d="
  M 234.50 115.29
  L 234.50 115.96"
/>
<path stroke="#bb8fb3" stroke-opacity="0.765" vector-effect="non-scaling-stroke" d="
  M 228.25 118.46
  Q 226.95 118.16 226.04 119.25"
/>
<path stroke="#1d1e49" vector-effect="non-scaling-stroke" d="
  M 261.25 112.29
  Q 259.39 111.89 258.04 113.00"
/>
<path stroke="#7f5580" vector-effect="non-scaling-stroke" d="
  M 235.25 113.79
  Q 235.41 114.84 234.50 115.29"
/>
<path stroke="#c4c3cb" stroke-opacity="0.961" vector-effect="non-scaling-stroke" d="
  M 219.50 108.54
  L 222.46 110.25"
/>
<path stroke="#f4d2ef" vector-effect="non-scaling-stroke" d="
  M 225.04 113.25
  Q 223.94 115.83 226.28 117.11
  A 0.69 0.69 0.0 0 1 226.63 117.84
  Q 226.49 118.58 226.04 119.25"
/>
<path stroke="#c9cac8" stroke-opacity="0.765" vector-effect="non-scaling-stroke" d="
  M 226.04 119.25
  L 223.71 121.25"
/>
<path stroke="#c4c3cb" stroke-opacity="0.961" vector-effect="non-scaling-stroke" d="
  M 223.71 121.25
  L 221.75 122.96"
/>
<path stroke="#c4c3cb" stroke-opacity="0.961" vector-effect="non-scaling-stroke" d="
  M 215.50 109.21
  L 214.29 109.25"
/>
<path stroke="#46b0b2" stroke-opacity="0.961" vector-effect="non-scaling-stroke" d="
  M 224.04 107.50
  L 223.75 108.04"
/>
<path stroke="#2bb3a8" stroke-opacity="0.765" vector-effect="non-scaling-stroke" d="
  M 223.75 108.04
  L 219.76 107.66"
/>
<path stroke="#c9cac8" stroke-opacity="0.765" vector-effect="non-scaling-stroke" d="
  M 219.50 108.54
  Q 217.26 108.01 215.50 109.21"
/>
<path stroke="#1d1e49" vector-effect="non-scaling-stroke" d="
  M 263.04 110.00
  Q 263.00 108.65 262.00 107.79"
/>
<path stroke="#525a80" stroke-opacity="0.961" vector-effect="non-scaling-stroke" d="
  M 265.50 107.54
  L 262.00 107.79"
/>
<path stroke="#4b4158" stroke-opacity="0.961" vector-effect="non-scaling-stroke" d="
  M 262.00 107.79
  L 257.50 107.71"
/>
<path stroke="#3679dc" vector-effect="non-scaling-stroke" d="
  M 155.25 150.71
  L 131.91 150.91
  A 0.48 0.47 -1.8 0 0 131.44 151.40
  Q 132.00 163.19 131.40 175.05"
/>
<path stroke="#ac0f7a" vector-effect="non-scaling-stroke" d="
  M 157.00 151.04
  Q 156.34 153.74 156.92 156.83"
/>
<path stroke="#ac0f7a" vector-effect="non-scaling-stroke" d="
  M 139.04 157.00
  L 138.05 157.04
  A 0.54 0.53 88.4 0 0 137.54 157.59
  L 137.75 168.96"
/>
<path stroke="#5255dc" vector-effect="non-scaling-stroke" d="
  M 137.75 168.96
  Q 137.44 169.14 137.47 169.45
  A 0.59 0.59 0.0 0 0 138.07 169.99
  L 151.27 169.82"
/>
<path stroke="#ac0f7a" vector-effect="non-scaling-stroke" d="
  M 156.75 170.29
  L 156.64 175.97"
/>
<path stroke="#a04d6c" vector-effect="non-scaling-stroke" d="
  M 138.75 169.09
  L 137.75 168.96"
/>
<path stroke="#3679dc" vector-effect="non-scaling-stroke" d="
  M 183.75 150.46
  L 183.44 150.70
  A 1.34 1.30 25.0 0 1 182.61 150.99
  L 160.46 151.25"
/>
<path stroke="#10c4c0" stroke-opacity="0.973" vector-effect="non-scaling-stroke" d="
  M 160.46 151.25
  L 160.18 151.22
  A 0.44 0.43 -4.7 0 1 159.80 150.91
  L 159.58 150.18"
/>
<path stroke="#3a5fce" stroke-opacity="0.973" vector-effect="non-scaling-stroke" d="
  M 160.46 151.25
  L 160.50 173.92
  A 0.80 0.80 0.0 0 1 160.22 174.53
  L 159.96 174.75"
/>
<path stroke="#ac0f7a" vector-effect="non-scaling-stroke" d="
  M 185.47 151.04
  L 185.25 175.71"
/>
<path stroke="#3a5fce" stroke-opacity="0.973" vector-effect="non-scaling-stroke" d="
  M 193.50 150.46
  Q 191.88 151.32 190.71 151.10
  A 1.03 1.03 0.0 0 0 189.49 152.10
  L 189.26 175.26"
/>
<path stroke="#ac0f7a" vector-effect="non-scaling-stroke" d="
  M 195.25 151.04
  Q 194.23 153.96 196.71 155.50"
/>
<path stroke="#4127ad" vector-effect="non-scaling-stroke" d="
  M 196.71 155.50
  Q 197.43 157.42 199.50 157.21"
/>
<path stroke="#ac0f7a" vector-effect="non-scaling-stroke" d="
  M 214.50 151.04
  Q 213.91 151.57 214.25 152.17
  Q 214.49 152.60 214.50 153.08
  C 214.54 160.48 214.95 168.45 214.39 175.79"
/>
<path stroke="#3a5fce" stroke-opacity="0.973" vector-effect="non-scaling-stroke" d="
  M 208.25 175.04
  Q 209.48 173.28 208.25 171.78
  A 0.77 0.76 70.1 0 0 207.66 171.50
  L 207.29 171.50"
/>
<path stroke="#ac0f7a" vector-effect="non-scaling-stroke" d="
  M 196.50 163.54
  Q 196.19 163.24 195.63 163.23
  A 0.72 0.71 86.9 0 0 194.91 164.04
  Q 195.78 170.26 194.75 175.96"
/>
<path stroke="#3679dc" vector-effect="non-scaling-stroke" d="
  M 213.25 150.71
  Q 211.30 151.24 209.58 150.99
  A 1.01 1.00 -86.9 0 0 208.44 152.02
  L 208.78 163.58
  Q 208.81 164.60 207.97 164.02
  Q 206.95 163.31 207.21 162.00"
/>
<path stroke="#8f1e3c" vector-effect="non-scaling-stroke" d="
  M 196.79 155.25
  L 196.71 155.50"
/>
<path stroke="#3a5fce" stroke-opacity="0.973" vector-effect="non-scaling-stroke" d="
  M 222.75 150.46
  Q 222.04 151.20 219.52 150.76
  A 1.16 1.15 5.0 0 0 218.16 151.89
  L 218.13 175.32"
/>
<path stroke="#ac0f7a" vector-effect="non-scaling-stroke" d="
  M 224.25 151.04
  L 223.99 153.94
  A 0.98 0.96 21.8 0 0 224.37 154.80
  L 228.81 158.10
  Q 229.12 158.34 229.38 158.63
  Q 230.26 159.64 231.75 159.46"
/>
<path stroke="#ac0f7a" vector-effect="non-scaling-stroke" d="
  M 233.75 161.21
  Q 234.45 162.64 235.96 163.25"
/>
<path stroke="#ac0f7a" vector-effect="non-scaling-stroke" d="
  M 243.00 151.04
  L 243.00 175.96"
/>
<path stroke="#3a5fce" stroke-opacity="0.973" vector-effect="non-scaling-stroke" d="
  M 236.96 175.00
  Q 238.61 172.63 236.25 171.29"
/>
<path stroke="#ac0f7a" vector-effect="non-scaling-stroke" d="
  M 225.75 164.04
  Q 225.13 163.29 224.56 163.46
  A 0.73 0.72 81.2 0 0 224.06 164.15
  L 224.00 175.96"
/>
<path stroke="#3679dc" vector-effect="non-scaling-stroke" d="
  M 242.00 150.54
  Q 240.13 151.40 237.95 150.91
  A 0.57 0.57 0.0 0 0 237.25 151.46
  L 237.25 163.26
  A 0.52 0.52 0.0 0 1 236.74 163.78
  Q 236.19 163.78 235.96 163.25"
/>
<path stroke="#84716c" vector-effect="non-scaling-stroke" d="
  M 235.96 163.25
  Q 235.94 162.73 236.13 162.28"
/>
<path stroke="#3679dc" vector-effect="non-scaling-stroke" d="
  M 270.54 150.50
  C 270.19 151.33 249.96 151.01 247.55 151.01
  A 0.57 0.56 90.0 0 0 246.99 151.58
  L 247.04 174.14
  A 0.58 0.55 -23.8 0 1 246.87 174.54
  Q 246.73 174.68 246.71 175.00"
/>
<path stroke="#ac0f7a" vector-effect="non-scaling-stroke" d="
  M 272.25 151.04
  Q 271.90 153.80 272.66 156.83"
/>
<path stroke="#ac0f7a" vector-effect="non-scaling-stroke" d="
  M 254.29 157.00
  C 253.07 156.08 252.49 158.38 253.50 159.29"
/>
<path stroke="#3a5fce" stroke-opacity="0.973" vector-effect="non-scaling-stroke" d="
  M 253.46 159.50
  Q 253.09 159.88 253.27 160.36
  A 0.71 0.70 77.1 0 0 253.98 160.81
  Q 262.82 160.17 269.75 160.77
  Q 270.36 160.82 270.56 159.96"
/>
<path stroke="#ac0f7a" vector-effect="non-scaling-stroke" d="
  M 272.50 160.54
  Q 271.68 163.19 272.71 166.57"
/>
<path stroke="#ac0f7a" vector-effect="non-scaling-stroke" d="
  M 254.29 166.75
  L 253.87 166.62
  A 0.53 0.53 0.0 0 0 253.25 166.85
  Q 252.48 168.07 253.46 169.25"
/>
<path stroke="#4127ad" vector-effect="non-scaling-stroke" d="
  M 253.46 169.25
  C 253.13 171.07 269.25 170.10 271.00 169.96"
/>
<path stroke="#ac0f7a" vector-effect="non-scaling-stroke" d="
  M 272.25 170.29
  L 272.14 176.06"
/>
<path stroke="#8f1e3c" vector-effect="non-scaling-stroke" d="
  M 253.96 168.50
  L 253.46 169.25"
/>
<path stroke="#3679dc" vector-effect="non-scaling-stroke" d="
  M 282.50 150.71
  Q 279.54 151.37 275.62 150.84"
/>
<path stroke="#ac0f7a" vector-effect="non-scaling-stroke" d="
  M 283.94 150.85
  Q 285.06 155.00 287.27 158.40
  A 0.41 0.41 0.0 0 0 287.87 158.50
  L 288.21 158.25"
/>
<path stroke="#ac0f7a" vector-effect="non-scaling-stroke" d="
  M 300.50 151.04
  L 296.62 159.45"
/>
<path stroke="#5255dc" vector-effect="non-scaling-stroke" d="
  M 296.62 159.45
  Q 296.95 162.24 299.50 160.29"
/>
<path stroke="#ac0f7a" vector-effect="non-scaling-stroke" d="
  M 301.74 160.65
  Q 300.33 161.34 301.00 162.00
  Q 301.00 168.98 301.00 175.96"
/>
<path stroke="#3679dc" vector-effect="non-scaling-stroke" d="
  M 294.71 175.00
  C 294.80 174.40 295.82 165.49 293.97 166.74"
/>
<path stroke="#ac0f7a" vector-effect="non-scaling-stroke" d="
  M 283.25 166.79
  L 282.52 166.37
  A 0.49 0.49 0.0 0 0 281.78 166.76
  Q 281.42 171.30 282.16 176.06"
/>
<path stroke="#3a5fce" stroke-opacity="0.973" vector-effect="non-scaling-stroke" d="
  M 275.34 174.62
  Q 276.21 168.11 275.51 161.80
  A 1.03 1.02 88.1 0 1 276.57 160.66
  L 279.90 160.78
  A 0.47 0.47 0.0 0 0 280.35 160.11
  L 279.25 157.71"
/>
<path stroke="#5255dc" vector-effect="non-scaling-stroke" d="
  M 279.25 157.71
  L 277.28 153.20
  A 0.20 0.20 0.0 0 0 276.99 153.12
  L 276.75 153.29"
/>
<path stroke="#3679dc" vector-effect="non-scaling-stroke" d="
  M 299.25 150.71
  L 293.88 151.04
  A 0.90 0.89 -78.5 0 0 293.13 151.54
  L 288.86 160.04
  A 0.37 0.37 0.0 0 1 288.25 160.12
  Q 287.60 159.38 288.21 158.25"
/>
<path stroke="#84716c" vector-effect="non-scaling-stroke" d="
  M 288.21 158.25
  L 288.29 158.00"
/>
<path stroke="#2d9fc0" stroke-opacity="0.973" vector-effect="non-scaling-stroke" d="
  M 279.25 157.71
  L 278.79 157.50"
/>
<path stroke="#a04d6c" vector-effect="non-scaling-stroke" d="
  M 297.25 159.54
  L 296.62 159.45"
/>
<path stroke="#3679dc" vector-effect="non-scaling-stroke" d="
  M 309.25 150.71
  L 305.44 151.13
  A 0.63 0.63 0.0 0 0 304.89 151.69
  L 304.46 155.75"
/>
<path stroke="#ac0f7a" vector-effect="non-scaling-stroke" d="
  M 311.00 151.04
  L 310.76 156.95"
/>
<path stroke="#3679dc" vector-effect="non-scaling-stroke" d="
  M 338.25 150.71
  L 315.26 151.07
  A 0.81 0.80 11.6 0 0 314.54 151.54
  Q 314.08 152.53 314.46 153.75"
/>
<path stroke="#10c4c0" stroke-opacity="0.973" vector-effect="non-scaling-stroke" d="
  M 314.46 153.75
  Q 313.57 153.78 313.54 152.75"
/>
<path stroke="#ac0f7a" vector-effect="non-scaling-stroke" d="
  M 339.47 151.04
  L 339.25 175.71"
/>
<path stroke="#3a5fce" stroke-opacity="0.973" vector-effect="non-scaling-stroke" d="
  M 313.96 175.00
  L 314.17 174.66
  A 0.93 0.90 -29.2 0 0 314.32 174.16
  L 314.46 153.75"
/>
<path stroke="#3679dc" vector-effect="non-scaling-stroke" d="
  M 347.59 150.63
  L 343.29 151.50"
/>
<path stroke="#10c4c0" stroke-opacity="0.973" vector-effect="non-scaling-stroke" d="
  M 343.29 151.50
  Q 342.28 151.29 342.50 150.29"
/>
<path stroke="#3a5fce" stroke-opacity="0.973" vector-effect="non-scaling-stroke" d="
  M 343.29 151.50
  L 343.46 157.00"
/>
<path stroke="#2d9fc0" stroke-opacity="0.973" vector-effect="non-scaling-stroke" d="
  M 342.79 168.50
  L 342.50 174.71"
/>
<path stroke="#ac0f7a" vector-effect="non-scaling-stroke" d="
  M 349.25 151.04
  Q 348.01 154.11 350.71 155.75"
/>
<path stroke="#704ac0" stroke-opacity="0.961" vector-effect="non-scaling-stroke" d="
  M 350.71 155.75
  Q 351.97 157.72 354.25 157.96"
/>
<path stroke="#704ac0" stroke-opacity="0.961" vector-effect="non-scaling-stroke" d="
  M 354.54 158.25
  Q 355.17 160.20 357.03 159.79"
/>
<path stroke="#ac0f7a" vector-effect="non-scaling-stroke" d="
  M 369.00 150.96
  L 368.67 150.99
  A 0.39 0.39 0.0 0 0 368.32 151.39
  Q 368.82 163.68 368.25 175.96"
/>
<path stroke="#3679dc" vector-effect="non-scaling-stroke" d="
  M 362.50 175.29
  Q 363.50 172.31 361.00 171.04"
/>
<path stroke="#ac0f7a" vector-effect="non-scaling-stroke" d="
  M 350.17 163.45
  C 347.79 162.21 349.47 174.63 349.64 176.01"
/>
<path stroke="#5255dc" vector-effect="non-scaling-stroke" d="
  M 342.96 175.00
  Q 343.79 173.08 343.46 171.00"
/>
<path stroke="#5a14e0" stroke-opacity="0.941" vector-effect="non-scaling-stroke" d="
  M 343.46 171.00
  Q 343.36 167.69 346.49 167.94
  A 0.78 0.78 0.0 0 0 347.25 167.50
  Q 348.81 164.23 346.17 161.83
  A 1.03 1.02 -29.1 0 0 345.28 161.58
  C 342.84 162.05 343.51 158.45 343.46 157.00"
/>
<path stroke="#4d56d1" stroke-opacity="0.941" vector-effect="non-scaling-stroke" d="
  M 343.46 171.00
  L 343.18 168.35
  Q 343.15 168.08 342.98 168.29
  L 342.79 168.50"
/>
<path stroke="#3679dc" vector-effect="non-scaling-stroke" d="
  M 367.25 150.71
  L 363.06 151.12
  A 0.66 0.66 0.0 0 0 362.47 151.79
  L 362.60 163.47
  A 0.51 0.51 0.0 0 1 362.14 163.99
  C 361.41 164.07 360.98 163.22 361.00 162.54"
/>
<path stroke="#c2414b" stroke-opacity="0.957" vector-effect="non-scaling-stroke" d="
  M 350.79 155.50
  L 350.71 155.75"
/>
<path stroke="#3a5fce" stroke-opacity="0.973" vector-effect="non-scaling-stroke" d="
  M 309.50 158.46
  Q 307.99 159.25 306.21 158.66
  A 1.21 1.21 0.0 0 0 304.63 159.80
  L 304.46 174.75"
/>
<path stroke="#ac0f7a" vector-effect="non-scaling-stroke" d="
  M 311.25 158.71
  L 311.00 158.98
  A 1.03 1.02 68.2 0 0 310.73 159.62
  Q 310.42 167.60 311.22 175.88"
/>
<path stroke="#85409f" vector-effect="non-scaling-stroke" d="
  M 235.00 86.71
  C 240.30 87.87 242.15 89.51 247.71 87.44"
/>
<path stroke="#823188" vector-effect="non-scaling-stroke" d="
  M 247.71 87.44
  L 270.11 80.92
  Q 271.39 80.55 270.38 79.67
  L 243.41 56.09
  A 0.84 0.84 0.0 0 0 242.32 56.08
  L 214.80 79.82
  Q 213.89 80.61 215.04 80.94
  L 235.00 86.71"
/>
<path stroke="#212858" vector-effect="non-scaling-stroke" d="
  M 247.71 87.44
  Q 245.30 85.83 247.69 84.31
  A 0.65 0.63 -25.6 0 0 247.96 83.58
  C 247.45 81.94 247.50 80.47 246.67 79.10
  Q 244.58 75.65 240.77 77.10
  Q 239.48 77.58 238.60 78.63
  Q 236.64 80.94 237.01 83.65
  A 1.20 1.19 60.6 0 1 236.76 84.56
  L 235.00 86.71"
/>
<path stroke="#212858" vector-effect="non-scaling-stroke" d="
  M 248.25 66.29
  C 248.76 66.73 253.10 70.50 253.42 70.19
  A 0.27 0.27 0.0 0 0 253.40 69.79
  L 248.54 65.75"
/>
<path stroke="#3e1896" vector-effect="non-scaling-stroke" d="
  M 248.54 65.75
  L 244.33 61.71
  A 1.94 1.93 -44.0 0 0 241.70 61.67
  L 232.05 70.28
  Q 229.20 72.83 232.24 70.51
  Q 237.31 66.64 242.15 62.49
  A 1.04 1.04 0.0 0 1 243.47 62.47
  L 248.25 66.29"
/>
<path stroke="#4127ad" vector-effect="non-scaling-stroke" d="
  M 248.54 65.75
  L 248.25 66.29"
/>
<path stroke="#19899f" vector-effect="non-scaling-stroke" d="
  M 246.77 81.97
  A 3.93 3.93 0.0 0 0 242.84 78.04
  A 3.93 3.93 0.0 0 0 238.91 81.97
  A 3.93 3.93 0.0 0 0 242.84 85.90
  A 3.93 3.93 0.0 0 0 246.77 81.97"
/>
<path stroke="#325688" vector-effect="non-scaling-stroke" d="
  M 225.25 88.96
  Q 226.44 89.49 227.70 89.47
  Q 228.26 89.46 227.87 89.05
  Q 227.15 88.31 226.04 88.25"
/>
<path stroke="#167a88" vector-effect="non-scaling-stroke" d="
  M 226.04 88.25
  Q 223.59 85.82 220.82 87.18
  A 0.92 0.91 -12.1 0 0 220.32 87.94
  C 220.20 89.59 224.32 89.15 225.25 88.96"
/>
<path stroke="#29b7ce" vector-effect="non-scaling-stroke" d="
  M 226.04 88.25
  L 225.25 88.96"
/>
<path stroke="#196077" stroke-opacity="0.973" vector-effect="non-scaling-stroke" d="
  M 265.31 87.24
  Q 261.49 86.00 258.57 88.90
  Q 257.69 89.77 258.83 89.29
  Q 260.47 88.61 261.97 89.47
  A 1.09 1.08 47.2 0 0 262.97 89.51
  L 265.39 88.33
  Q 266.71 87.69 265.31 87.24"
/>
<path stroke="#19899f" vector-effect="non-scaling-stroke" d="
  M 236.41 94.57
  Q 234.98 92.80 232.92 93.94
  A 0.47 0.47 0.0 0 0 232.83 94.69
  Q 234.83 96.54 237.47 96.37
  A 0.42 0.42 0.0 0 0 237.82 95.78
  Q 237.63 95.36 237.27 95.13
  Q 236.44 94.61 236.41 94.57"
/>
<path stroke="#19899f" vector-effect="non-scaling-stroke" d="
  M 242.4759 99.6224
  A 1.04 1.00 120.9 0 0 243.8681 99.2435
  A 1.04 1.00 120.9 0 0 243.5441 97.8376
  A 1.04 1.00 120.9 0 0 242.1519 98.2165
  A 1.04 1.00 120.9 0 0 242.4759 99.6224"
/>
<path stroke="#2e4d78" vector-effect="non-scaling-stroke" d="
  M 230.94 111.82
  Q 230.03 111.00 228.83 110.99
  Q 228.02 110.98 228.52 111.62
  Q 229.81 113.30 231.98 113.24
  Q 232.56 113.23 232.19 112.78
  Q 232.00 112.56 231.76 112.41
  Q 231.18 112.03 230.94 111.82"
/>
<path stroke="#2e4d78" vector-effect="non-scaling-stroke" d="
  M 257.6557 111.1420
  A 2.29 0.68 -27.8 0 0 255.3129 111.6085
  A 2.29 0.68 -27.8 0 0 253.6043 113.2780
  A 2.29 0.68 -27.8 0 0 255.9471 112.8115
  A 2.29 0.68 -27.8 0 0 257.6557 111.1420"
/>
<path stroke="#4127ad" vector-effect="non-scaling-stroke" d="
  M 166.35 169.39
  Q 172.06 170.65 177.75 170.04"
/>
<path stroke="#3679dc" vector-effect="non-scaling-stroke" d="
  M 177.75 170.04
  L 178.79 169.97
  A 0.73 0.72 4.3 0 0 179.44 169.42
  C 179.86 167.61 179.34 165.91 179.54 164.26
  Q 179.98 160.49 178.75 156.96"
/>
<path stroke="#ac0f7a" vector-effect="non-scaling-stroke" d="
  M 168.00 157.04
  Q 167.38 156.64 166.90 156.82
  A 0.77 0.77 0.0 0 0 166.41 157.54
  L 166.35 169.39"
/>
<path stroke="#8f1e3c" vector-effect="non-scaling-stroke" d="
  M 167.71 168.75
  L 166.35 169.39"
/>
<path stroke="#19899f" vector-effect="non-scaling-stroke" d="
  M 177.75 170.04
  L 176.20 169.96
  Q 175.81 169.94 176.03 169.61
  L 176.25 169.29"
/>
<path stroke="#5a14e0" stroke-opacity="0.941" vector-effect="non-scaling-stroke" d="
  M 268.69 163.81
  L 267.63 161.97
  A 0.96 0.95 74.4 0 0 266.81 161.50
  L 254.19 161.50
  A 0.52 0.52 0.0 0 0 253.67 161.99
  L 253.56 164.50
  A 0.53 0.53 0.0 0 0 254.05 165.05
  Q 261.27 165.59 268.50 164.90
  A 0.56 0.55 -3.4 0 0 269.01 164.34
  L 268.99 163.52
  Q 268.98 162.96 268.83 163.50
  L 268.74 163.81
  Q 268.72 163.87 268.69 163.81"
/>
<path stroke="#4127ad" vector-effect="non-scaling-stroke" d="
  M 320.18 169.36
  Q 326.14 170.95 332.25 170.04"
/>
<path stroke="#3a5fce" stroke-opacity="0.973" vector-effect="non-scaling-stroke" d="
  M 332.25 170.04
  Q 332.70 170.05 333.10 169.84
  A 0.98 0.97 79.5 0 0 333.61 169.09
  Q 334.28 162.99 332.98 156.99"
/>
<path stroke="#ac0f7a" vector-effect="non-scaling-stroke" d="
  M 322.04 157.00
  Q 321.31 156.51 320.75 156.87
  A 0.95 0.93 -16.6 0 0 320.31 157.66
  L 320.18 169.36"
/>
<path stroke="#8f1e3c" vector-effect="non-scaling-stroke" d="
  M 321.71 168.75
  L 320.18 169.36"
/>
<path stroke="#1c6f8f" stroke-opacity="0.973" vector-effect="non-scaling-stroke" d="
  M 332.25 170.04
  L 330.75 169.54"
/>
</g>
<path fill="#848293" fill-opacity="0.918" d="
  M 264.54 68.00
  L 263.50 68.29
  Q 258.88 63.47 253.25 59.91
  A 0.29 0.28 31.8 0 0 252.85 60.00
  L 252.71 60.25
  Q 250.09 55.11 245.03 52.46
  Q 244.60 52.23 244.33 51.82
  C 242.31 48.65 233.73 58.03 232.04 60.25
  Q 231.23 59.90 230.50 60.54
  L 229.84 60.84
  A 0.35 0.34 67.5 0 1 229.37 60.64
  L 229.25 60.29
  Q 233.53 56.12 238.28 52.51
  C 239.75 51.39 240.71 49.50 242.52 48.50
  A 0.71 0.70 -38.0 0 1 243.34 48.59
  L 264.54 68.00
  Z"
/>
<path fill="#ffffff" d="
  M 252.71 60.25
  L 253.29 61.25
  C 252.07 61.89 244.64 54.65 243.14 53.46
  A 0.60 0.60 0.0 0 0 242.38 53.46
  L 229.92 63.82
  Q 230.67 61.61 232.04 60.25
  C 233.73 58.03 242.31 48.65 244.33 51.82
  Q 244.60 52.23 245.03 52.46
  Q 250.09 55.11 252.71 60.25
  Z"
/>
<path fill="#e549cf" d="
  M 253.29 61.25
  Q 262.21 71.23 272.55 79.72
  A 1.25 1.16 -19.1 0 0 273.16 79.99
  L 273.50 80.04
  L 274.29 80.50
  C 274.26 81.56 264.64 84.07 263.21 84.50
  L 252.50 87.79
  Q 248.49 88.80 244.48 89.81
  C 241.81 90.49 240.07 89.61 237.54 89.00
  L 221.50 84.21
  L 212.07 81.27
  A 0.47 0.46 -81.7 0 1 211.74 80.82
  L 211.75 80.54
  Q 221.49 72.73 229.92 63.82
  L 242.38 53.46
  A 0.60 0.60 0.0 0 1 243.14 53.46
  C 244.64 54.65 252.07 61.89 253.29 61.25
  Z
  M 235.00 86.71
  C 240.30 87.87 242.15 89.51 247.71 87.44
  L 270.11 80.92
  Q 271.39 80.55 270.38 79.67
  L 243.41 56.09
  A 0.84 0.84 0.0 0 0 242.32 56.08
  L 214.80 79.82
  Q 213.89 80.61 215.04 80.94
  L 235.00 86.71
  Z"
/>
<path fill="#1e1941" d="
  M 247.71 87.44
  Q 245.30 85.83 247.69 84.31
  A 0.65 0.63 -25.6 0 0 247.96 83.58
  C 247.45 81.94 247.50 80.47 246.67 79.10
  Q 244.58 75.65 240.77 77.10
  Q 239.48 77.58 238.60 78.63
  Q 236.64 80.94 237.01 83.65
  A 1.20 1.19 60.6 0 1 236.76 84.56
  L 235.00 86.71
  L 215.04 80.94
  Q 213.89 80.61 214.80 79.82
  L 242.32 56.08
  A 0.84 0.84 0.0 0 1 243.41 56.09
  L 270.38 79.67
  Q 271.39 80.55 270.11 80.92
  L 247.71 87.44
  Z
  M 248.25 66.29
  C 248.76 66.73 253.10 70.50 253.42 70.19
  A 0.27 0.27 0.0 0 0 253.40 69.79
  L 248.54 65.75
  L 244.33 61.71
  A 1.94 1.93 -44.0 0 0 241.70 61.67
  L 232.05 70.28
  Q 229.20 72.83 232.24 70.51
  Q 237.31 66.64 242.15 62.49
  A 1.04 1.04 0.0 0 1 243.47 62.47
  L 248.25 66.29
  Z"
/>
<path fill="#646661" fill-opacity="0.529" d="
  M 264.19 57.81
  Q 263.70 57.72 263.55 57.05
  Q 263.41 56.43 263.87 56.87
  L 266.28 59.14
  Q 267.18 59.99 266.04 59.53
  Q 264.78 59.02 264.19 57.81
  Z"
/>
<ellipse fill="#848293" fill-opacity="0.918" cx="0.00" cy="0.00" transform="translate(220.57,58.41) rotate(134.5)" rx="1.91" ry="0.49"/>
<path fill="#24366f" d="
  M 229.25 60.29
  L 229.37 60.64
  A 0.35 0.34 67.5 0 0 229.84 60.84
  L 230.50 60.54
  L 230.50 60.81
  A 0.41 0.40 70.4 0 1 230.36 61.12
  Q 220.35 69.86 211.25 79.54
  C 210.78 79.33 210.51 79.20 210.02 79.45
  Q 206.52 81.26 206.64 84.96
  C 205.71 83.70 205.77 82.74 206.89 81.59
  Q 217.63 70.49 229.25 60.29
  Z"
/>
<path fill="#5e17ea" d="
  M 248.54 65.75
  L 248.25 66.29
  L 243.47 62.47
  A 1.04 1.04 0.0 0 0 242.15 62.49
  Q 237.31 66.64 232.24 70.51
  Q 229.20 72.83 232.05 70.28
  L 241.70 61.67
  A 1.94 1.93 -44.0 0 1 244.33 61.71
  L 248.54 65.75
  Z"
/>
<path fill="#e9a5de" fill-opacity="0.996" d="
  M 209.14 74.28
  C 210.62 71.00 213.89 66.59 217.37 64.14
  A 0.40 0.40 0.0 0 1 218.00 64.39
  C 218.10 64.89 210.23 73.29 209.27 74.37
  Q 208.92 74.77 209.14 74.28
  Z"
/>
<path fill="#848293" fill-opacity="0.918" d="
  M 268.46 64.50
  Q 273.36 68.48 276.44 73.99
  Q 276.70 74.45 276.31 74.10
  Q 271.68 69.88 268.33 64.62
  Q 268.05 64.17 268.46 64.50
  Z"
/>
<path fill="#24366f" d="
  M 248.54 65.75
  L 253.40 69.79
  A 0.27 0.27 0.0 0 1 253.42 70.19
  C 253.10 70.50 248.76 66.73 248.25 66.29
  L 248.54 65.75
  Z"
/>
<path fill="#24366f" d="
  M 264.54 68.00
  L 277.00 79.96
  Q 276.17 79.88 275.57 79.34
  A 0.41 0.41 0.0 0 0 274.95 79.43
  L 274.29 80.50
  L 273.50 80.04
  Q 270.95 75.57 266.81 72.44
  Q 265.80 71.67 263.50 68.29
  L 264.54 68.00
  Z"
/>
<path fill="#24366f" d="
  M 247.71 87.44
  C 242.15 89.51 240.30 87.87 235.00 86.71
  L 236.76 84.56
  A 1.20 1.19 60.6 0 0 237.01 83.65
  Q 236.64 80.94 238.60 78.63
  Q 239.48 77.58 240.77 77.10
  Q 244.58 75.65 246.67 79.10
  C 247.50 80.47 247.45 81.94 247.96 83.58
  A 0.65 0.63 -25.6 0 1 247.69 84.31
  Q 245.30 85.83 247.71 87.44
  Z
  M 246.77 81.97
  A 3.93 3.93 0.0 0 0 242.84 78.04
  A 3.93 3.93 0.0 0 0 238.91 81.97
  A 3.93 3.93 0.0 0 0 242.84 85.90
  A 3.93 3.93 0.0 0 0 246.77 81.97
  Z"
/>
<circle fill="#0ddbce" cx="242.84" cy="81.97" r="3.93"/>
<path fill="#160622" d="
  M 277.00 79.96
  L 279.27 82.26
  A 0.96 0.96 0.0 0 1 279.53 83.14
  C 278.67 86.92 277.98 89.71 275.04 91.50
  L 274.64 91.40
  A 0.80 0.79 33.4 0 0 273.95 91.54
  Q 273.27 92.07 273.29 93.00
  Q 269.76 95.37 265.75 96.79
  L 263.67 97.66
  Q 263.31 97.81 263.64 98.03
  L 263.96 98.25
  L 263.25 98.46
  C 262.83 97.41 257.67 100.54 256.75 100.96
  L 254.04 102.00
  Q 253.85 101.39 254.34 101.11
  Q 260.01 97.97 265.46 94.30
  L 268.99 92.69
  A 0.44 0.43 -11.0 0 0 269.25 92.31
  L 269.25 92.02
  Q 269.27 91.58 268.89 91.79
  L 266.17 93.32
  A 0.63 0.63 0.0 0 1 265.29 93.03
  L 264.82 91.97
  A 0.68 0.68 0.0 0 1 265.07 91.11
  Q 266.98 89.89 267.32 87.66
  A 1.27 1.26 -61.1 0 0 267.04 86.67
  Q 265.98 85.40 264.26 85.78
  A 0.78 0.77 69.0 0 1 263.44 85.41
  Q 263.19 84.98 263.21 84.50
  C 264.64 84.07 274.26 81.56 274.29 80.50
  L 274.95 79.43
  A 0.41 0.41 0.0 0 1 275.57 79.34
  Q 276.17 79.88 277.00 79.96
  Z"
/>
<path fill="#160622" d="
  M 211.25 79.54
  L 211.75 80.54
  L 211.74 80.82
  A 0.47 0.46 -81.7 0 0 212.07 81.27
  L 221.50 84.21
  C 216.18 87.43 220.68 91.21 219.13 92.69
  A 0.35 0.35 0.0 0 0 219.16 93.22
  L 221.38 94.85
  Q 226.09 98.47 231.60 101.19
  A 0.73 0.73 0.0 0 1 231.95 102.14
  Q 231.87 102.35 231.50 102.29
  Q 222.01 97.68 212.39 93.34
  C 211.92 93.12 211.68 92.75 211.25 92.46
  L 211.00 92.21
  Q 210.08 90.40 208.25 89.54
  L 206.64 84.96
  Q 206.52 81.26 210.02 79.45
  C 210.51 79.20 210.78 79.33 211.25 79.54
  Z"
/>
<path fill="#1e1941" d="
  M 221.50 84.21
  L 237.54 89.00
  Q 238.10 90.57 236.65 91.32
  A 0.99 0.96 -42.5 0 1 235.70 91.29
  L 231.90 88.99
  Q 231.88 88.98 231.86 89.00
  L 231.68 89.23
  A 0.46 0.45 -48.0 0 0 231.71 89.84
  L 232.65 90.77
  A 0.59 0.59 0.0 0 1 232.76 91.45
  Q 231.65 93.64 232.56 95.97
  A 1.58 1.57 -86.7 0 0 233.26 96.76
  Q 235.53 97.96 238.13 97.74
  A 1.58 1.57 -30.2 0 1 239.12 98.00
  L 242.99 100.58
  A 0.98 0.97 49.6 0 0 243.93 100.66
  Q 245.54 99.92 246.56 98.43
  A 1.38 1.34 -79.0 0 1 247.37 97.87
  C 248.61 97.56 252.66 97.12 253.32 96.17
  Q 253.88 95.37 253.81 94.24
  A 0.52 0.52 0.0 0 0 253.30 93.75
  L 252.75 93.75
  L 251.71 91.50
  L 253.88 89.80
  Q 254.40 89.40 253.74 89.45
  Q 253.36 89.47 253.00 89.71
  L 252.50 87.79
  L 263.21 84.50
  Q 263.19 84.98 263.44 85.41
  A 0.78 0.77 69.0 0 0 264.26 85.78
  Q 265.98 85.40 267.04 86.67
  A 1.27 1.26 -61.1 0 1 267.32 87.66
  Q 266.98 89.89 265.07 91.11
  A 0.68 0.68 0.0 0 0 264.82 91.97
  L 265.29 93.03
  A 0.63 0.63 0.0 0 0 266.17 93.32
  L 268.89 91.79
  Q 269.27 91.58 269.25 92.02
  L 269.25 92.31
  A 0.44 0.43 -11.0 0 1 268.99 92.69
  L 265.46 94.30
  Q 256.85 98.29 248.75 103.21
  Q 245.91 105.01 242.68 105.67
  A 1.42 1.38 52.6 0 1 241.74 105.53
  L 238.50 103.79
  L 221.38 94.85
  L 219.16 93.22
  A 0.35 0.35 0.0 0 1 219.13 92.69
  C 220.68 91.21 216.18 87.43 221.50 84.21
  Z
  M 225.25 88.96
  Q 226.44 89.49 227.70 89.47
  Q 228.26 89.46 227.87 89.05
  Q 227.15 88.31 226.04 88.25
  Q 223.59 85.82 220.82 87.18
  A 0.92 0.91 -12.1 0 0 220.32 87.94
  C 220.20 89.59 224.32 89.15 225.25 88.96
  Z
  M 265.31 87.24
  Q 261.49 86.00 258.57 88.90
  Q 257.69 89.77 258.83 89.29
  Q 260.47 88.61 261.97 89.47
  A 1.09 1.08 47.2 0 0 262.97 89.51
  L 265.39 88.33
  Q 266.71 87.69 265.31 87.24
  Z"
/>
<path fill="#0ddbce" d="
  M 226.04 88.25
  L 225.25 88.96
  C 224.32 89.15 220.20 89.59 220.32 87.94
  A 0.92 0.91 -12.1 0 1 220.82 87.18
  Q 223.59 85.82 226.04 88.25
  Z"
/>
<path fill="#14acb1" fill-opacity="0.945" d="
  M 265.31 87.24
  Q 266.71 87.69 265.39 88.33
  L 262.97 89.51
  A 1.09 1.08 47.2 0 1 261.97 89.47
  Q 260.47 88.61 258.83 89.29
  Q 257.69 89.77 258.57 88.90
  Q 261.49 86.00 265.31 87.24
  Z"
/>
<path fill="#24366f" d="
  M 252.50 87.79
  L 253.00 89.71
  L 243.66 94.86
  A 1.19 1.18 39.3 0 1 242.74 94.95
  C 240.97 94.42 238.46 92.25 236.83 92.52
  Q 236.24 92.62 236.76 92.93
  L 241.84 96.00
  A 1.92 1.90 45.3 0 0 243.76 96.02
  L 251.71 91.50
  L 252.75 93.75
  Q 250.55 92.86 249.48 94.37
  A 0.87 0.86 -64.5 0 0 249.95 95.71
  Q 251.79 96.22 253.05 94.73
  A 0.57 0.57 0.0 0 0 253.08 94.03
  Q 252.95 93.87 252.75 93.75
  L 253.30 93.75
  A 0.52 0.52 0.0 0 1 253.81 94.24
  Q 253.88 95.37 253.32 96.17
  C 252.66 97.12 248.61 97.56 247.37 97.87
  A 1.38 1.34 -79.0 0 0 246.56 98.43
  Q 245.54 99.92 243.93 100.66
  A 0.98 0.97 49.6 0 1 242.99 100.58
  L 239.12 98.00
  A 1.58 1.57 -30.2 0 0 238.13 97.74
  Q 235.53 97.96 233.26 96.76
  A 1.58 1.57 -86.7 0 1 232.56 95.97
  Q 231.65 93.64 232.76 91.45
  A 0.59 0.59 0.0 0 0 232.65 90.77
  L 231.71 89.84
  A 0.46 0.45 -48.0 0 1 231.68 89.23
  L 231.86 89.00
  Q 231.88 88.98 231.90 88.99
  L 235.70 91.29
  A 0.99 0.96 -42.5 0 0 236.65 91.32
  Q 238.10 90.57 237.54 89.00
  C 240.07 89.61 241.81 90.49 244.48 89.81
  Q 248.49 88.80 252.50 87.79
  Z
  M 236.41 94.57
  Q 234.98 92.80 232.92 93.94
  A 0.47 0.47 0.0 0 0 232.83 94.69
  Q 234.83 96.54 237.47 96.37
  A 0.42 0.42 0.0 0 0 237.82 95.78
  Q 237.63 95.36 237.27 95.13
  Q 236.44 94.61 236.41 94.57
  Z
  M 242.4759 99.6224
  A 1.04 1.00 120.9 0 0 243.8681 99.2435
  A 1.04 1.00 120.9 0 0 243.5441 97.8376
  A 1.04 1.00 120.9 0 0 242.1519 98.2165
  A 1.04 1.00 120.9 0 0 242.4759 99.6224
  Z"
/>
<path fill="#4593ce" d="
  M 226.04 88.25
  Q 227.15 88.31 227.87 89.05
  Q 228.26 89.46 227.70 89.47
  Q 226.44 89.49 225.25 88.96
  L 226.04 88.25
  Z"
/>
<path fill="#5e17ea" d="
  M 251.71 91.50
  L 243.76 96.02
  A 1.92 1.90 45.3 0 1 241.84 96.00
  L 236.76 92.93
  Q 236.24 92.62 236.83 92.52
  C 238.46 92.25 240.97 94.42 242.74 94.95
  A 1.19 1.18 39.3 0 0 243.66 94.86
  L 253.00 89.71
  Q 253.36 89.47 253.74 89.45
  Q 254.40 89.40 253.88 89.80
  L 251.71 91.50
  Z"
/>
<path fill="#24366f" d="
  M 208.25 89.54
  Q 210.08 90.40 211.00 92.21
  L 209.25 91.79
  L 209.50 91.65
  A 0.26 0.26 0.0 0 0 209.57 91.27
  L 208.25 89.54
  Z"
/>
<path fill="#e83fa1" d="
  M 288.50 91.04
  L 287.73 91.29
  Q 287.22 91.45 287.65 91.76
  Q 288.74 92.54 289.25 93.71
  L 268.29 101.50
  Q 267.57 100.74 266.56 100.68
  A 0.41 0.41 0.0 0 1 266.18 100.20
  Q 266.34 99.22 266.00 98.29
  C 268.14 97.33 275.04 94.26 275.25 92.46
  C 277.33 91.61 278.34 90.79 280.77 90.85
  Q 284.63 90.95 288.50 91.04
  Z"
/>
<path fill="#e9a5de" fill-opacity="0.996" d="
  M 199.50 91.29
  Q 197.18 91.50 196.71 93.75
  L 190.27 91.66
  Q 189.65 91.46 190.30 91.37
  Q 194.89 90.73 199.50 91.29
  Z"
/>
<path fill="#e83fa1" d="
  M 209.25 91.79
  L 211.00 92.21
  L 211.25 92.46
  L 210.74 92.52
  Q 209.86 92.63 210.55 93.17
  Q 213.88 95.78 217.50 97.21
  Q 217.78 98.79 216.64 99.75
  A 0.39 0.38 46.3 0 0 216.63 100.33
  L 218.05 101.64
  L 196.71 93.75
  Q 197.18 91.50 199.50 91.29
  Q 204.43 90.45 209.25 91.79
  Z"
/>
<path fill="#e9a5de" fill-opacity="0.996" d="
  M 288.50 91.04
  Q 292.02 90.69 295.46 91.34
  Q 296.08 91.46 295.48 91.66
  L 289.25 93.71
  Q 288.74 92.54 287.65 91.76
  Q 287.22 91.45 287.73 91.29
  L 288.50 91.04
  Z"
/>
<path fill="#848293" fill-opacity="0.918" d="
  M 275.04 91.50
  L 274.67 92.02
  A 0.26 0.26 0.0 0 0 274.75 92.40
  L 275.00 92.54
  L 273.29 93.00
  Q 273.27 92.07 273.95 91.54
  A 0.80 0.79 33.4 0 1 274.64 91.40
  L 275.04 91.50
  Z"
/>
<path fill="#e9a5de" fill-opacity="0.996" d="
  M 211.25 92.46
  C 211.68 92.75 211.92 93.12 212.39 93.34
  Q 222.01 97.68 231.50 102.29
  Q 236.66 104.16 240.46 108.00
  Q 240.23 109.18 241.04 109.75
  L 240.83 112.86
  Q 239.55 111.24 238.32 109.56
  Q 237.04 107.81 235.35 106.76
  Q 226.73 101.44 217.50 97.21
  Q 213.88 95.78 210.55 93.17
  Q 209.86 92.63 210.74 92.52
  L 211.25 92.46
  Z"
/>
<path fill="#e9a5de" fill-opacity="0.996" d="
  M 275.00 92.54
  L 275.25 92.46
  C 275.04 94.26 268.14 97.33 266.00 98.29
  L 264.50 98.71
  L 264.79 98.25
  L 265.75 96.79
  Q 269.76 95.37 273.29 93.00
  L 275.00 92.54
  Z"
/>
<path fill="#0ddbce" d="
  M 237.27 95.13
  Q 237.63 95.36 237.82 95.78
  A 0.42 0.42 0.0 0 1 237.47 96.37
  Q 234.83 96.54 232.83 94.69
  A 0.47 0.47 0.0 0 1 232.92 93.94
  Q 234.98 92.80 236.41 94.57
  Q 236.44 94.61 237.27 95.13
  Z"
/>
<path fill="#0ddbce" d="
  M 252.75 93.75
  Q 252.95 93.87 253.08 94.03
  A 0.57 0.57 0.0 0 1 253.05 94.73
  Q 251.79 96.22 249.95 95.71
  A 0.87 0.86 -64.5 0 1 249.48 94.37
  Q 250.55 92.86 252.75 93.75
  Z"
/>
<path fill="#24366f" d="
  M 265.46 94.30
  Q 260.01 97.97 254.34 101.11
  Q 253.85 101.39 254.04 102.00
  Q 253.39 102.94 252.24 102.84
  A 1.08 1.05 26.3 0 0 251.41 103.11
  Q 250.28 104.12 248.75 103.21
  Q 256.85 98.29 265.46 94.30
  Z"
/>
<path fill="#4593ce" d="
  M 221.38 94.85
  L 238.50 103.79
  L 238.25 104.15
  A 0.58 0.57 -46.9 0 0 238.27 104.85
  Q 239.47 106.37 241.25 107.21
  L 240.46 108.00
  Q 236.66 104.16 231.50 102.29
  Q 231.87 102.35 231.95 102.14
  A 0.73 0.73 0.0 0 0 231.60 101.19
  Q 226.09 98.47 221.38 94.85
  Z"
/>
<path fill="#848293" fill-opacity="0.918" d="
  M 265.75 96.79
  L 264.79 98.25
  L 263.96 98.25
  L 263.64 98.03
  Q 263.31 97.81 263.67 97.66
  L 265.75 96.79
  Z"
/>
<path fill="#e549cf" d="
  M 217.50 97.21
  Q 226.73 101.44 235.35 106.76
  Q 237.04 107.81 238.32 109.56
  Q 239.55 111.24 240.83 112.86
  L 241.79 118.25
  L 242.29 120.25
  L 242.54 123.50
  Q 242.17 124.49 242.51 125.31
  A 0.34 0.34 0.0 0 0 243.09 125.39
  Q 243.98 124.29 242.96 123.00
  Q 243.67 121.26 242.79 119.75
  Q 244.84 118.61 243.50 116.71
  Q 244.58 115.61 243.97 114.30
  Q 244.36 113.68 244.71 113.50
  Q 244.84 113.62 244.98 113.66
  A 0.36 0.36 0.0 0 0 245.42 113.45
  L 246.93 109.88
  A 1.34 1.31 -88.6 0 1 247.65 109.18
  Q 249.57 108.43 249.75 106.46
  Q 252.45 105.31 254.50 103.29
  Q 256.18 103.56 257.50 102.29
  L 258.25 102.04
  L 260.79 100.25
  Q 262.28 100.34 263.29 99.25
  L 264.50 98.71
  L 266.00 98.29
  Q 266.34 99.22 266.18 100.20
  A 0.41 0.41 0.0 0 0 266.56 100.68
  Q 267.57 100.74 268.29 101.50
  C 263.44 103.56 252.69 107.38 251.75 110.96
  Q 250.56 112.62 250.46 114.75
  L 248.74 120.05
  Q 248.53 120.69 249.16 120.45
  L 255.00 118.21
  L 255.75 118.46
  Q 252.65 120.73 248.91 121.59
  A 1.20 1.17 9.1 0 0 248.16 122.12
  Q 245.96 125.58 246.04 129.75
  L 246.00 130.46
  Q 243.94 133.61 243.46 137.43
  A 0.37 0.37 0.0 0 1 243.07 137.76
  L 242.77 137.75
  A 0.40 0.39 -8.6 0 1 242.41 137.49
  L 240.21 130.75
  Q 240.56 129.63 239.50 129.46
  Q 239.58 125.32 237.50 121.79
  Q 237.44 120.77 236.71 120.00
  L 236.71 119.00
  Q 236.78 116.18 235.25 113.79
  L 234.71 113.00
  Q 234.64 111.29 233.50 110.04
  C 229.06 106.18 223.38 103.99 218.05 101.64
  L 216.63 100.33
  A 0.39 0.38 46.3 0 1 216.64 99.75
  Q 217.78 98.79 217.50 97.21
  Z"
/>
<ellipse fill="#0ddbce" cx="0.00" cy="0.00" transform="translate(243.01,98.73) rotate(120.9)" rx="1.04" ry="1.00"/>
<path fill="#848293" fill-opacity="0.918" d="
  M 263.25 98.46
  L 263.00 98.71
  Q 261.51 98.73 260.75 100.04
  Q 259.07 100.47 257.74 101.54
  Q 257.34 101.87 257.84 102.03
  Q 258.01 102.08 258.25 102.04
  L 257.50 102.29
  L 256.75 100.96
  C 257.67 100.54 262.83 97.41 263.25 98.46
  Z"
/>
<path fill="#646661" fill-opacity="0.529" d="
  M 264.79 98.25
  L 264.50 98.71
  L 263.29 99.25
  L 263.00 98.71
  L 263.25 98.46
  L 263.96 98.25
  L 264.79 98.25
  Z"
/>
<path fill="#e9a5de" fill-opacity="0.996" d="
  M 213.75 108.79
  L 214.29 109.25
  Q 214.26 110.05 214.56 110.74
  A 0.81 0.80 -39.7 0 1 214.48 111.54
  Q 213.29 113.24 213.12 115.33
  A 1.24 1.23 27.7 0 0 213.41 116.25
  Q 216.91 120.46 221.75 122.96
  L 223.25 123.71
  L 223.46 123.75
  Q 230.82 128.43 239.50 129.46
  Q 240.56 129.63 240.21 130.75
  Q 230.37 129.18 227.27 127.71
  Q 209.06 119.11 202.18 100.28
  C 201.96 99.68 202.17 99.46 202.80 99.49
  A 0.82 0.81 -9.2 0 1 203.53 100.01
  Q 206.15 106.85 210.61 112.62
  A 0.51 0.50 47.1 0 0 211.38 112.65
  L 212.70 111.19
  A 0.51 0.51 0.0 0 0 212.72 110.55
  C 211.75 109.30 210.39 107.83 210.74 107.02
  A 0.37 0.37 0.0 0 1 211.30 106.88
  L 213.75 108.79
  Z"
/>
<path fill="#e9a5de" fill-opacity="0.996" d="
  M 246.00 130.46
  L 246.04 129.75
  Q 272.72 125.08 282.25 99.96
  A 0.75 0.74 -78.4 0 1 282.97 99.48
  L 283.32 99.50
  A 0.27 0.26 10.3 0 1 283.57 99.85
  C 277.68 116.57 263.80 128.70 246.00 130.46
  Z"
/>
<path fill="#646661" fill-opacity="0.529" d="
  M 260.75 100.04
  L 260.79 100.25
  L 258.25 102.04
  Q 258.01 102.08 257.84 102.03
  Q 257.34 101.87 257.74 101.54
  Q 259.07 100.47 260.75 100.04
  Z"
/>
<path fill="#0ddbce" d="
  M 256.75 100.96
  L 257.50 102.29
  Q 256.18 103.56 254.50 103.29
  Q 250.70 103.69 248.21 106.50
  Q 246.78 105.67 245.54 107.00
  Q 244.41 107.03 243.50 107.68
  A 0.90 0.89 38.3 0 1 242.62 107.78
  L 241.25 107.21
  Q 239.47 106.37 238.27 104.85
  A 0.58 0.57 -46.9 0 1 238.25 104.15
  L 238.50 103.79
  L 241.74 105.53
  A 1.42 1.38 52.6 0 0 242.68 105.67
  Q 245.91 105.01 248.75 103.21
  Q 250.28 104.12 251.41 103.11
  A 1.08 1.05 26.3 0 1 252.24 102.84
  Q 253.39 102.94 254.04 102.00
  L 256.75 100.96
  Z"
/>
<path fill="#848293" fill-opacity="0.918" d="
  M 265.50 107.54
  L 262.00 107.79
  L 257.50 107.71
  Q 261.95 107.29 266.01 105.50
  A 0.36 0.36 0.0 0 1 266.51 105.83
  Q 266.51 106.81 265.50 107.54
  Z"
/>
<path fill="#0ddbce" d="
  M 224.04 107.50
  L 223.75 108.04
  L 219.76 107.66
  Q 218.76 106.98 218.90 106.08
  A 0.59 0.59 0.0 0 1 219.52 105.58
  Q 222.09 105.73 224.04 107.50
  Z"
/>
<path fill="#ffffff" d="
  M 248.21 106.50
  L 249.75 106.46
  Q 249.57 108.43 247.65 109.18
  A 1.34 1.31 -88.6 0 0 246.93 109.88
  L 245.42 113.45
  A 0.36 0.36 0.0 0 1 244.98 113.66
  Q 244.84 113.62 244.71 113.50
  L 245.54 107.00
  Q 246.78 105.67 248.21 106.50
  Z"
/>
<path fill="#24366f" d="
  M 245.54 107.00
  L 244.71 113.50
  Q 244.36 113.68 243.97 114.30
  Q 243.43 112.34 243.87 110.19
  A 0.70 0.69 20.7 0 0 243.53 109.45
  Q 242.31 108.80 241.04 109.75
  Q 240.23 109.18 240.46 108.00
  L 241.25 107.21
  L 242.62 107.78
  A 0.90 0.89 38.3 0 0 243.50 107.68
  Q 244.41 107.03 245.54 107.00
  Z"
/>
<path fill="#848293" fill-opacity="0.918" d="
  M 233.50 110.04
  Q 234.64 111.29 234.71 113.00
  Q 231.79 109.89 227.74 107.89
  Q 225.71 106.89 225.57 109.15
  Q 225.50 110.34 226.58 111.28
  C 229.29 113.67 230.13 115.99 234.50 115.29
  L 234.50 115.96
  C 232.35 116.60 231.30 115.55 229.69 114.84
  Q 225.87 113.16 224.90 109.09
  C 224.74 108.43 224.43 108.15 223.75 108.21
  L 223.75 108.04
  L 224.04 107.50
  Q 225.34 107.91 226.55 107.07
  A 0.84 0.84 0.0 0 1 227.45 107.04
  L 233.30 110.39
  A 0.15 0.14 -67.7 0 0 233.51 110.30
  Q 233.54 110.19 233.50 110.04
  Z"
/>
<path fill="#646661" fill-opacity="0.529" d="
  M 219.76 107.66
  L 223.75 108.04
  L 223.75 108.21
  L 222.10 108.34
  Q 221.60 108.37 222.05 108.61
  Q 222.43 108.82 222.46 109.25
  Q 220.90 109.26 219.50 108.54
  Q 217.26 108.01 215.50 109.21
  L 215.21 108.62
  A 0.29 0.29 0.0 0 0 214.78 108.51
  L 214.50 108.71
  L 214.49 108.39
  A 0.59 0.58 -9.6 0 1 214.91 107.81
  Q 217.27 107.15 219.76 107.66
  Z"
/>
<path fill="#24366f" d="
  M 265.50 107.54
  Q 264.73 109.22 263.04 110.00
  Q 263.00 108.65 262.00 107.79
  L 265.50 107.54
  Z"
/>
<path fill="#160622" d="
  M 234.71 113.00
  L 235.25 113.79
  Q 235.41 114.84 234.50 115.29
  C 230.13 115.99 229.29 113.67 226.58 111.28
  Q 225.50 110.34 225.57 109.15
  Q 225.71 106.89 227.74 107.89
  Q 231.79 109.89 234.71 113.00
  Z
  M 230.94 111.82
  Q 230.03 111.00 228.83 110.99
  Q 228.02 110.98 228.52 111.62
  Q 229.81 113.30 231.98 113.24
  Q 232.56 113.23 232.19 112.78
  Q 232.00 112.56 231.76 112.41
  Q 231.18 112.03 230.94 111.82
  Z"
/>
<path fill="#160622" d="
  M 257.50 107.71
  L 262.00 107.79
  Q 263.00 108.65 263.04 110.00
  L 261.25 112.29
  Q 259.39 111.89 258.04 113.00
  C 256.06 115.17 253.31 118.74 250.46 114.75
  Q 250.56 112.62 251.75 110.96
  L 257.50 107.71
  Z
  M 257.6557 111.1420
  A 2.29 0.68 -27.8 0 0 255.3129 111.6085
  A 2.29 0.68 -27.8 0 0 253.6043 113.2780
  A 2.29 0.68 -27.8 0 0 255.9471 112.8115
  A 2.29 0.68 -27.8 0 0 257.6557 111.1420
  Z"
/>
<ellipse fill="#848293" fill-opacity="0.918" cx="0.00" cy="0.00" transform="translate(272.43,109.81) rotate(131.4)" rx="2.59" ry="0.45"/>
<path fill="#848293" fill-opacity="0.918" d="
  M 215.50 109.21
  L 214.29 109.25
  L 213.75 108.79
  L 214.50 108.71
  L 214.78 108.51
  A 0.29 0.29 0.0 0 1 215.21 108.62
  L 215.50 109.21
  Z"
/>
<path fill="#ffffff" d="
  M 219.50 108.54
  L 222.46 110.25
  Q 224.28 111.34 225.04 113.25
  Q 223.94 115.83 226.28 117.11
  A 0.69 0.69 0.0 0 1 226.63 117.84
  Q 226.49 118.58 226.04 119.25
  L 223.71 121.25
  L 221.75 122.96
  Q 216.91 120.46 213.41 116.25
  A 1.24 1.23 27.7 0 1 213.12 115.33
  Q 213.29 113.24 214.48 111.54
  A 0.81 0.80 -39.7 0 0 214.56 110.74
  Q 214.26 110.05 214.29 109.25
  L 215.50 109.21
  Q 217.26 108.01 219.50 108.54
  Z"
/>
<path fill="#848293" fill-opacity="0.918" d="
  M 219.50 108.54
  Q 220.90 109.26 222.46 109.25
  L 222.46 110.25
  L 219.50 108.54
  Z"
/>
<path fill="#1e1941" d="
  M 243.97 114.30
  Q 244.58 115.61 243.50 116.71
  Q 242.01 116.76 241.79 118.25
  L 240.83 112.86
  L 241.04 109.75
  Q 242.31 108.80 243.53 109.45
  A 0.70 0.69 20.7 0 1 243.87 110.19
  Q 243.43 112.34 243.97 114.30
  Z"
/>
<path fill="#4593ce" d="
  M 231.76 112.41
  Q 232.00 112.56 232.19 112.78
  Q 232.56 113.23 231.98 113.24
  Q 229.81 113.30 228.52 111.62
  Q 228.02 110.98 228.83 110.99
  Q 230.03 111.00 230.94 111.82
  Q 231.18 112.03 231.76 112.41
  Z"
/>
<ellipse fill="#4593ce" cx="0.00" cy="0.00" transform="translate(255.63,112.21) rotate(-27.8)" rx="2.29" ry="0.68"/>
<path fill="#24366f" d="
  M 261.25 112.29
  Q 259.93 113.48 258.04 113.00
  Q 259.39 111.89 261.25 112.29
  Z"
/>
<path fill="#e9a5de" fill-opacity="0.996" d="
  M 225.04 113.25
  C 225.90 114.14 226.12 115.10 227.10 115.82
  Q 231.42 118.99 236.71 120.00
  Q 237.44 120.77 237.50 121.79
  L 228.25 118.46
  Q 226.95 118.16 226.04 119.25
  Q 226.49 118.58 226.63 117.84
  A 0.69 0.69 0.0 0 0 226.28 117.11
  Q 223.94 115.83 225.04 113.25
  Z"
/>
<path fill="#e9a5de" fill-opacity="0.996" d="
  M 235.25 113.79
  Q 236.78 116.18 236.71 119.00
  L 235.52 116.43
  A 0.76 0.76 0.0 0 0 234.88 115.99
  L 234.50 115.96
  L 234.50 115.29
  Q 235.41 114.84 235.25 113.79
  Z"
/>
<path fill="#848293" fill-opacity="0.918" d="
  M 255.75 118.46
  L 255.00 118.21
  L 259.23 116.27
  Q 259.73 116.04 259.33 116.42
  Q 257.81 117.87 255.75 118.46
  Z"
/>
<path fill="#ffffff" d="
  M 243.50 116.71
  Q 244.84 118.61 242.79 119.75
  L 242.29 120.25
  L 241.79 118.25
  Q 242.01 116.76 243.50 116.71
  Z"
/>
<path fill="#646661" fill-opacity="0.529" d="
  M 228.25 118.46
  Q 225.45 120.73 223.46 123.75
  L 223.25 123.71
  L 223.71 121.25
  L 226.04 119.25
  Q 226.95 118.16 228.25 118.46
  Z"
/>
<path fill="#848293" fill-opacity="0.918" d="
  M 223.71 121.25
  L 223.25 123.71
  L 221.75 122.96
  L 223.71 121.25
  Z"
/>
<path fill="#e9a5de" fill-opacity="0.996" d="
  M 242.96 123.00
  Q 243.98 124.29 243.09 125.39
  A 0.34 0.34 0.0 0 1 242.51 125.31
  Q 242.17 124.49 242.54 123.50
  L 242.96 123.00
  Z"
/>
<path fill="#0ddbce" d="
  M 155.25 150.71
  L 131.91 150.91
  A 0.48 0.47 -1.8 0 0 131.44 151.40
  Q 132.00 163.19 131.40 175.05
  C 130.74 174.98 130.30 174.73 130.29 173.99
  Q 130.14 162.42 130.35 150.60
  A 0.51 0.51 0.0 0 1 130.86 150.10
  C 133.76 150.05 154.47 149.43 155.25 150.71
  Z"
/>
<path fill="#0ddbce" d="
  M 183.75 150.46
  L 183.44 150.70
  A 1.34 1.30 25.0 0 1 182.61 150.99
  L 160.46 151.25
  L 160.18 151.22
  A 0.44 0.43 -4.7 0 1 159.80 150.91
  L 159.58 150.18
  Q 171.84 149.52 183.75 150.46
  Z"
/>
<path fill="#14acb1" fill-opacity="0.945" d="
  M 193.50 150.46
  Q 191.88 151.32 190.71 151.10
  A 1.03 1.03 0.0 0 0 189.49 152.10
  L 189.26 175.26
  C 188.71 175.11 188.27 174.95 188.26 174.30
  Q 188.23 162.58 188.26 150.78
  A 0.64 0.63 -6.2 0 1 188.76 150.16
  Q 191.20 149.59 193.50 150.46
  Z"
/>
<path fill="#0ddbce" d="
  M 213.25 150.71
  Q 211.30 151.24 209.58 150.99
  A 1.01 1.00 -86.9 0 0 208.44 152.02
  L 208.78 163.58
  Q 208.81 164.60 207.97 164.02
  Q 206.95 163.31 207.21 162.00
  L 207.12 151.35
  A 1.28 1.27 81.1 0 1 208.01 150.12
  Q 210.57 149.30 213.25 150.71
  Z"
/>
<path fill="#14acb1" fill-opacity="0.945" d="
  M 222.75 150.46
  Q 222.04 151.20 219.52 150.76
  A 1.16 1.15 5.0 0 0 218.16 151.89
  L 218.13 175.32
  Q 216.80 173.61 216.98 171.25
  Q 217.76 161.01 216.99 150.69
  A 0.51 0.49 -9.3 0 1 217.38 150.16
  Q 220.06 149.52 222.75 150.46
  Z"
/>
<path fill="#0ddbce" d="
  M 242.00 150.54
  Q 240.13 151.40 237.95 150.91
  A 0.57 0.57 0.0 0 0 237.25 151.46
  L 237.25 163.26
  A 0.52 0.52 0.0 0 1 236.74 163.78
  Q 236.19 163.78 235.96 163.25
  Q 235.94 162.73 236.13 162.28
  L 236.14 150.72
  A 0.62 0.61 84.3 0 1 236.63 150.11
  Q 239.47 149.52 242.00 150.54
  Z"
/>
<path fill="#0ddbce" d="
  M 270.54 150.50
  C 270.19 151.33 249.96 151.01 247.55 151.01
  A 0.57 0.56 90.0 0 0 246.99 151.58
  L 247.04 174.14
  A 0.58 0.55 -23.8 0 1 246.87 174.54
  Q 246.73 174.68 246.71 175.00
  C 245.27 174.29 246.22 153.95 246.37 150.40
  A 0.42 0.42 0.0 0 1 246.79 150.00
  L 269.55 150.00
  A 1.14 1.11 65.2 0 1 270.29 150.28
  L 270.54 150.50
  Z"
/>
<path fill="#0ddbce" d="
  M 282.50 150.71
  Q 279.54 151.37 275.62 150.84
  Q 278.94 148.82 282.50 150.71
  Z"
/>
<path fill="#0ddbce" d="
  M 299.25 150.71
  L 293.88 151.04
  A 0.90 0.89 -78.5 0 0 293.13 151.54
  L 288.86 160.04
  A 0.37 0.37 0.0 0 1 288.25 160.12
  Q 287.60 159.38 288.21 158.25
  L 288.29 158.00
  Q 288.98 158.17 289.14 157.67
  Q 290.43 153.70 292.26 150.70
  A 1.22 1.20 -81.0 0 1 293.00 150.15
  Q 296.27 149.37 299.25 150.71
  Z"
/>
<path fill="#0ddbce" d="
  M 309.25 150.71
  L 305.44 151.13
  A 0.63 0.63 0.0 0 0 304.89 151.69
  L 304.46 155.75
  Q 303.19 153.34 303.81 150.67
  A 0.83 0.80 -89.2 0 1 304.42 150.06
  Q 306.96 149.47 309.25 150.71
  Z"
/>
<path fill="#0ddbce" d="
  M 338.25 150.71
  L 315.26 151.07
  A 0.81 0.80 11.6 0 0 314.54 151.54
  Q 314.08 152.53 314.46 153.75
  Q 313.57 153.78 313.54 152.75
  Q 313.05 151.64 313.38 150.48
  A 0.65 0.65 0.0 0 1 314.01 150.00
  L 336.71 150.00
  A 1.55 1.55 0.0 0 1 337.57 150.26
  L 338.25 150.71
  Z"
/>
<path fill="#0ddbce" d="
  M 347.59 150.63
  L 343.29 151.50
  Q 342.28 151.29 342.50 150.29
  Q 345.02 149.37 347.59 150.63
  Z"
/>
<path fill="#0ddbce" d="
  M 367.25 150.71
  L 363.06 151.12
  A 0.66 0.66 0.0 0 0 362.47 151.79
  L 362.60 163.47
  A 0.51 0.51 0.0 0 1 362.14 163.99
  C 361.41 164.07 360.98 163.22 361.00 162.54
  C 361.64 162.63 361.15 151.97 361.13 150.73
  A 0.64 0.64 0.0 0 1 361.62 150.11
  Q 364.68 149.41 367.25 150.71
  Z"
/>
<path fill="#14acb1" fill-opacity="0.945" d="
  M 159.58 150.18
  L 159.80 150.91
  A 0.44 0.43 -4.7 0 0 160.18 151.22
  L 160.46 151.25
  L 160.50 173.92
  A 0.80 0.80 0.0 0 1 160.22 174.53
  L 159.96 174.75
  L 159.75 174.49
  A 1.00 1.00 0.0 0 1 159.51 173.84
  C 159.50 165.96 159.66 158.06 159.58 150.18
  Z"
/>
<path fill="#14acb1" fill-opacity="0.945" d="
  M 342.50 150.29
  Q 342.28 151.29 343.29 151.50
  L 343.46 157.00
  L 342.79 168.50
  L 342.50 174.71
  L 342.50 150.29
  Z"
/>
<path fill="#5e17ea" d="
  M 183.75 150.46
  L 185.47 151.04
  L 185.25 175.71
  Q 171.60 176.44 160.94 175.81
  Q 160.14 175.76 159.96 174.75
  L 160.22 174.53
  A 0.80 0.80 0.0 0 0 160.50 173.92
  L 160.46 151.25
  L 182.61 150.99
  A 1.34 1.30 25.0 0 0 183.44 150.70
  L 183.75 150.46
  Z
  M 166.35 169.39
  Q 172.06 170.65 177.75 170.04
  L 178.79 169.97
  A 0.73 0.72 4.3 0 0 179.44 169.42
  C 179.86 167.61 179.34 165.91 179.54 164.26
  Q 179.98 160.49 178.75 156.96
  L 168.00 157.04
  Q 167.38 156.64 166.90 156.82
  A 0.77 0.77 0.0 0 0 166.41 157.54
  L 166.35 169.39
  Z"
/>
<path fill="#5e17ea" d="
  M 193.50 150.46
  L 195.25 151.04
  Q 194.23 153.96 196.71 155.50
  Q 197.43 157.42 199.50 157.21
  L 206.29 161.99
  A 0.69 0.67 -34.6 0 0 206.89 162.09
  L 207.21 162.00
  Q 206.95 163.31 207.97 164.02
  Q 208.81 164.60 208.78 163.58
  L 208.44 152.02
  A 1.01 1.00 -86.9 0 1 209.58 150.99
  Q 211.30 151.24 213.25 150.71
  L 214.50 151.04
  Q 213.91 151.57 214.25 152.17
  Q 214.49 152.60 214.50 153.08
  C 214.54 160.48 214.95 168.45 214.39 175.79
  Q 210.85 176.80 208.25 175.04
  Q 209.48 173.28 208.25 171.78
  A 0.77 0.76 70.1 0 0 207.66 171.50
  L 207.29 171.50
  Q 202.20 167.11 196.50 163.54
  Q 196.19 163.24 195.63 163.23
  A 0.72 0.71 86.9 0 0 194.91 164.04
  Q 195.78 170.26 194.75 175.96
  Q 191.45 176.49 189.26 175.26
  L 189.49 152.10
  A 1.03 1.03 0.0 0 1 190.71 151.10
  Q 191.88 151.32 193.50 150.46
  Z"
/>
<path fill="#5e17ea" d="
  M 222.75 150.46
  L 224.25 151.04
  L 223.99 153.94
  A 0.98 0.96 21.8 0 0 224.37 154.80
  L 228.81 158.10
  Q 229.12 158.34 229.38 158.63
  Q 230.26 159.64 231.75 159.46
  L 233.75 161.21
  Q 234.45 162.64 235.96 163.25
  Q 236.19 163.78 236.74 163.78
  A 0.52 0.52 0.0 0 0 237.25 163.26
  L 237.25 151.46
  A 0.57 0.57 0.0 0 1 237.95 150.91
  Q 240.13 151.40 242.00 150.54
  L 243.00 151.04
  L 243.00 175.96
  Q 239.68 176.73 236.96 175.00
  Q 238.61 172.63 236.25 171.29
  L 225.75 164.04
  Q 225.13 163.29 224.56 163.46
  A 0.73 0.72 81.2 0 0 224.06 164.15
  L 224.00 175.96
  Q 220.62 176.52 218.13 175.32
  L 218.16 151.89
  A 1.16 1.15 5.0 0 1 219.52 150.76
  Q 222.04 151.20 222.75 150.46
  Z"
/>
<path fill="#5e17ea" d="
  M 270.54 150.50
  L 272.25 151.04
  Q 271.90 153.80 272.66 156.83
  L 254.29 157.00
  C 253.07 156.08 252.49 158.38 253.50 159.29
  L 253.46 159.50
  Q 253.09 159.88 253.27 160.36
  A 0.71 0.70 77.1 0 0 253.98 160.81
  Q 262.82 160.17 269.75 160.77
  Q 270.36 160.82 270.56 159.96
  L 272.50 160.54
  Q 271.68 163.19 272.71 166.57
  L 254.29 166.75
  L 253.87 166.62
  A 0.53 0.53 0.0 0 0 253.25 166.85
  Q 252.48 168.07 253.46 169.25
  C 253.13 171.07 269.25 170.10 271.00 169.96
  L 272.25 170.29
  L 272.14 176.06
  L 248.31 175.94
  A 1.35 1.31 -23.8 0 1 247.44 175.62
  L 246.71 175.00
  Q 246.73 174.68 246.87 174.54
  A 0.58 0.55 -23.8 0 0 247.04 174.14
  L 246.99 151.58
  A 0.57 0.56 90.0 0 1 247.55 151.01
  C 249.96 151.01 270.19 151.33 270.54 150.50
  Z
  M 268.69 163.81
  L 267.63 161.97
  A 0.96 0.95 74.4 0 0 266.81 161.50
  L 254.19 161.50
  A 0.52 0.52 0.0 0 0 253.67 161.99
  L 253.56 164.50
  A 0.53 0.53 0.0 0 0 254.05 165.05
  Q 261.27 165.59 268.50 164.90
  A 0.56 0.55 -3.4 0 0 269.01 164.34
  L 268.99 163.52
  Q 268.98 162.96 268.83 163.50
  L 268.74 163.81
  Q 268.72 163.87 268.69 163.81
  Z"
/>
<path fill="#5e17ea" d="
  M 347.59 150.63
  Q 348.37 150.64 349.25 151.04
  Q 348.01 154.11 350.71 155.75
  Q 351.97 157.72 354.25 157.96
  L 354.54 158.25
  Q 355.17 160.20 357.03 159.79
  L 361.00 162.54
  C 360.98 163.22 361.41 164.07 362.14 163.99
  A 0.51 0.51 0.0 0 0 362.60 163.47
  L 362.47 151.79
  A 0.66 0.66 0.0 0 1 363.06 151.12
  L 367.25 150.71
  L 369.00 150.96
  L 368.67 150.99
  A 0.39 0.39 0.0 0 0 368.32 151.39
  Q 368.82 163.68 368.25 175.96
  Q 365.21 176.55 362.50 175.29
  Q 363.50 172.31 361.00 171.04
  L 350.17 163.45
  C 347.79 162.21 349.47 174.63 349.64 176.01
  Q 345.48 176.67 342.96 175.00
  Q 343.79 173.08 343.46 171.00
  Q 343.36 167.69 346.49 167.94
  A 0.78 0.78 0.0 0 0 347.25 167.50
  Q 348.81 164.23 346.17 161.83
  A 1.03 1.02 -29.1 0 0 345.28 161.58
  C 342.84 162.05 343.51 158.45 343.46 157.00
  L 343.29 151.50
  L 347.59 150.63
  Z"
/>
<path fill="#5e17ea" d="
  M 155.25 150.71
  L 157.00 151.04
  Q 156.34 153.74 156.92 156.83
  L 139.04 157.00
  L 138.05 157.04
  A 0.54 0.53 88.4 0 0 137.54 157.59
  L 137.75 168.96
  Q 137.44 169.14 137.47 169.45
  A 0.59 0.59 0.0 0 0 138.07 169.99
  L 151.27 169.82
  Q 154.05 169.10 156.75 170.29
  L 156.64 175.97
  C 153.85 176.01 131.60 176.61 131.40 175.05
  Q 132.00 163.19 131.44 151.40
  A 0.48 0.47 -1.8 0 1 131.91 150.91
  L 155.25 150.71
  Z"
/>
<path fill="#5e17ea" d="
  M 282.50 150.71
  L 283.94 150.85
  Q 285.06 155.00 287.27 158.40
  A 0.41 0.41 0.0 0 0 287.87 158.50
  L 288.21 158.25
  Q 287.60 159.38 288.25 160.12
  A 0.37 0.37 0.0 0 0 288.86 160.04
  L 293.13 151.54
  A 0.90 0.89 -78.5 0 1 293.88 151.04
  L 299.25 150.71
  L 300.50 151.04
  L 296.62 159.45
  Q 296.95 162.24 299.50 160.29
  L 301.74 160.65
  Q 300.33 161.34 301.00 162.00
  Q 301.00 168.98 301.00 175.96
  Q 297.59 176.66 294.71 175.00
  C 294.80 174.40 295.82 165.49 293.97 166.74
  L 283.25 166.79
  L 282.52 166.37
  A 0.49 0.49 0.0 0 0 281.78 166.76
  Q 281.42 171.30 282.16 176.06
  Q 277.61 176.90 275.34 174.62
  Q 276.21 168.11 275.51 161.80
  A 1.03 1.02 88.1 0 1 276.57 160.66
  L 279.90 160.78
  A 0.47 0.47 0.0 0 0 280.35 160.11
  L 279.25 157.71
  L 277.28 153.20
  A 0.20 0.20 0.0 0 0 276.99 153.12
  L 276.75 153.29
  L 275.62 150.84
  Q 279.54 151.37 282.50 150.71
  Z"
/>
<path fill="#5e17ea" d="
  M 309.25 150.71
  L 311.00 151.04
  L 310.76 156.95
  L 305.91 156.99
  A 1.01 1.01 0.0 0 1 305.08 156.58
  L 304.46 155.75
  L 304.89 151.69
  A 0.63 0.63 0.0 0 1 305.44 151.13
  L 309.25 150.71
  Z"
/>
<path fill="#5e17ea" d="
  M 338.25 150.71
  L 339.47 151.04
  L 339.25 175.71
  Q 327.25 176.37 315.25 175.78
  A 1.38 1.36 -21.2 0 1 314.39 175.41
  L 313.96 175.00
  L 314.17 174.66
  A 0.93 0.90 -29.2 0 0 314.32 174.16
  L 314.46 153.75
  Q 314.08 152.53 314.54 151.54
  A 0.81 0.80 11.6 0 1 315.26 151.07
  L 338.25 150.71
  Z
  M 320.18 169.36
  Q 326.14 170.95 332.25 170.04
  Q 332.70 170.05 333.10 169.84
  A 0.98 0.97 79.5 0 0 333.61 169.09
  Q 334.28 162.99 332.98 156.99
  L 322.04 157.00
  Q 321.31 156.51 320.75 156.87
  A 0.95 0.93 -16.6 0 0 320.31 157.66
  L 320.18 169.36
  Z"
/>
<path fill="#fb0609" fill-opacity="0.996" d="
  M 157.00 151.04
  C 157.52 150.85 157.91 151.10 158.04 151.63
  Q 158.76 154.62 156.92 156.83
  Q 156.34 153.74 157.00 151.04
  Z"
/>
<path fill="#fb0609" fill-opacity="0.996" d="
  M 185.47 151.04
  Q 186.11 150.91 186.50 151.01
  A 0.66 0.65 -83.3 0 1 187.00 151.65
  L 187.00 175.28
  A 0.74 0.73 -11.4 0 1 186.54 175.96
  Q 185.89 176.21 185.25 175.71
  L 185.47 151.04
  Z"
/>
<path fill="#fb0609" fill-opacity="0.996" d="
  M 195.25 151.04
  Q 195.60 150.91 195.88 150.96
  A 0.67 0.67 0.0 0 1 196.41 151.55
  L 196.79 155.25
  L 196.71 155.50
  Q 194.23 153.96 195.25 151.04
  Z"
/>
<path fill="#fb0609" fill-opacity="0.996" d="
  M 214.50 151.04
  C 215.31 150.75 215.76 151.11 215.75 151.95
  Q 215.71 163.31 215.87 174.65
  C 215.89 175.61 215.30 176.26 214.39 175.79
  C 214.95 168.45 214.54 160.48 214.50 153.08
  Q 214.49 152.60 214.25 152.17
  Q 213.91 151.57 214.50 151.04
  Z"
/>
<path fill="#fb0609" fill-opacity="0.996" d="
  M 224.25 151.04
  Q 224.88 150.94 225.28 151.26
  A 0.81 0.79 25.4 0 1 225.56 152.01
  Q 225.30 153.46 225.73 154.80
  A 1.40 1.38 -81.4 0 0 226.25 155.52
  L 231.75 159.46
  Q 230.26 159.64 229.38 158.63
  Q 229.12 158.34 228.81 158.10
  L 224.37 154.80
  A 0.98 0.96 21.8 0 1 223.99 153.94
  L 224.25 151.04
  Z"
/>
<path fill="#fb0609" fill-opacity="0.996" d="
  M 243.00 151.04
  L 244.17 151.19
  A 0.68 0.67 3.8 0 1 244.77 151.87
  Q 244.66 163.82 244.91 174.50
  C 244.94 175.79 244.21 176.27 243.00 175.96
  L 243.00 151.04
  Z"
/>
<path fill="#fb0609" fill-opacity="0.996" d="
  M 272.25 151.04
  Q 272.68 151.04 273.11 151.23
  A 0.83 0.82 -79.0 0 1 273.59 151.95
  Q 273.64 154.47 272.66 156.83
  Q 271.90 153.80 272.25 151.04
  Z"
/>
<path fill="#fb0609" fill-opacity="0.996" d="
  M 283.94 150.85
  Q 286.91 153.89 288.29 158.00
  L 288.21 158.25
  L 287.87 158.50
  A 0.41 0.41 0.0 0 1 287.27 158.40
  Q 285.06 155.00 283.94 150.85
  Z"
/>
<path fill="#fb0609" fill-opacity="0.996" d="
  M 300.50 151.04
  Q 301.11 150.85 301.50 151.02
  A 0.52 0.51 -65.9 0 1 301.76 151.71
  L 298.68 158.39
  A 1.70 1.68 88.4 0 1 297.99 159.13
  L 297.25 159.54
  L 296.62 159.45
  L 300.50 151.04
  Z"
/>
<path fill="#fb0609" fill-opacity="0.996" d="
  M 311.00 151.04
  Q 313.70 154.19 310.76 156.95
  L 311.00 151.04
  Z"
/>
<path fill="#fb0609" fill-opacity="0.996" d="
  M 339.47 151.04
  Q 340.10 150.91 340.50 151.01
  A 0.66 0.65 -83.3 0 1 341.00 151.65
  L 341.00 175.28
  A 0.74 0.73 -11.4 0 1 340.54 175.96
  Q 339.89 176.21 339.25 175.71
  L 339.47 151.04
  Z"
/>
<path fill="#fb0609" fill-opacity="0.996" d="
  M 349.25 151.04
  C 351.07 150.63 350.47 154.26 350.79 155.50
  L 350.71 155.75
  Q 348.01 154.11 349.25 151.04
  Z"
/>
<path fill="#fb0609" fill-opacity="0.996" d="
  M 369.00 150.96
  C 369.65 150.87 369.98 151.35 369.99 151.96
  Q 370.01 163.59 370.00 175.26
  Q 370.00 176.57 368.25 175.96
  Q 368.82 163.68 368.32 151.39
  A 0.39 0.39 0.0 0 1 368.67 150.99
  L 369.00 150.96
  Z"
/>
<path fill="#14acb1" fill-opacity="0.945" d="
  M 313.54 152.75
  Q 313.57 153.78 314.46 153.75
  L 314.32 174.16
  A 0.93 0.90 -29.2 0 1 314.17 174.66
  L 313.96 175.00
  L 313.77 174.73
  A 1.08 1.06 27.7 0 1 313.57 174.11
  L 313.54 152.75
  Z"
/>
<path fill="#4593ce" d="
  M 279.25 157.71
  L 278.79 157.50
  L 276.75 153.29
  L 276.99 153.12
  A 0.20 0.20 0.0 0 1 277.28 153.20
  L 279.25 157.71
  Z"
/>
<path fill="#24366f" d="
  M 196.79 155.25
  L 199.50 157.21
  Q 197.43 157.42 196.71 155.50
  L 196.79 155.25
  Z"
/>
<path fill="#848293" fill-opacity="0.918" d="
  M 350.79 155.50
  L 354.25 157.96
  Q 351.97 157.72 350.71 155.75
  L 350.79 155.50
  Z"
/>
<path fill="#fb0609" fill-opacity="0.996" d="
  M 139.04 157.00
  L 138.75 169.09
  L 137.75 168.96
  L 137.54 157.59
  A 0.54 0.53 88.4 0 1 138.05 157.04
  L 139.04 157.00
  Z"
/>
<path fill="#fb0609" fill-opacity="0.996" d="
  M 168.00 157.04
  L 167.71 168.75
  L 166.35 169.39
  L 166.41 157.54
  A 0.77 0.77 0.0 0 1 166.90 156.82
  Q 167.38 156.64 168.00 157.04
  Z"
/>
<path fill="#0ddbce" d="
  M 177.75 170.04
  L 176.20 169.96
  Q 175.81 169.94 176.03 169.61
  L 176.25 169.29
  L 177.95 169.02
  A 0.60 0.60 0.0 0 0 178.45 168.44
  L 178.75 156.96
  Q 179.98 160.49 179.54 164.26
  C 179.34 165.91 179.86 167.61 179.44 169.42
  A 0.73 0.72 4.3 0 1 178.79 169.97
  L 177.75 170.04
  Z"
/>
<path fill="#fb0609" fill-opacity="0.996" d="
  M 254.29 157.00
  Q 254.56 158.46 253.50 159.29
  C 252.49 158.38 253.07 156.08 254.29 157.00
  Z"
/>
<path fill="#fb0609" fill-opacity="0.996" d="
  M 322.04 157.00
  L 321.71 168.75
  L 320.18 169.36
  L 320.31 157.66
  A 0.95 0.93 -16.6 0 1 320.75 156.87
  Q 321.31 156.51 322.04 157.00
  Z"
/>
<path fill="#14acb1" fill-opacity="0.945" d="
  M 332.98 156.99
  Q 334.28 162.99 333.61 169.09
  A 0.98 0.97 79.5 0 1 333.10 169.84
  Q 332.70 170.05 332.25 170.04
  L 330.75 169.54
  Q 331.42 169.58 331.96 169.29
  A 0.93 0.92 -13.3 0 0 332.43 168.54
  L 332.98 156.99
  Z"
/>
<path fill="#5511d4" fill-opacity="0.882" d="
  M 343.46 157.00
  C 343.51 158.45 342.84 162.05 345.28 161.58
  A 1.03 1.02 -29.1 0 1 346.17 161.83
  Q 348.81 164.23 347.25 167.50
  A 0.78 0.78 0.0 0 1 346.49 167.94
  Q 343.36 167.69 343.46 171.00
  L 343.18 168.35
  Q 343.15 168.08 342.98 168.29
  L 342.79 168.50
  L 343.46 157.00
  Z"
/>
<path fill="#14acb1" fill-opacity="0.945" d="
  M 278.79 157.50
  L 279.25 157.71
  L 280.35 160.11
  A 0.47 0.47 0.0 0 1 279.90 160.78
  L 276.57 160.66
  A 1.03 1.02 88.1 0 0 275.51 161.80
  Q 276.21 168.11 275.34 174.62
  L 275.17 160.28
  A 0.56 0.56 0.0 0 1 275.78 159.71
  L 278.69 159.92
  A 0.40 0.40 0.0 0 0 279.11 159.45
  L 278.79 157.50
  Z"
/>
<path fill="#14acb1" fill-opacity="0.945" d="
  M 309.50 158.46
  Q 307.99 159.25 306.21 158.66
  A 1.21 1.21 0.0 0 0 304.63 159.80
  L 304.46 174.75
  L 303.84 158.80
  A 0.62 0.61 -8.1 0 1 304.31 158.18
  Q 306.93 157.53 309.50 158.46
  Z"
/>
<path fill="#848293" fill-opacity="0.918" d="
  M 354.54 158.25
  L 357.03 159.79
  Q 355.17 160.20 354.54 158.25
  Z"
/>
<path fill="#5e17ea" d="
  M 309.50 158.46
  L 311.25 158.71
  L 311.00 158.98
  A 1.03 1.02 68.2 0 0 310.73 159.62
  Q 310.42 167.60 311.22 175.88
  L 306.02 176.00
  A 1.03 1.01 -20.6 0 1 305.19 175.63
  L 304.46 174.75
  L 304.63 159.80
  A 1.21 1.21 0.0 0 1 306.21 158.66
  Q 307.99 159.25 309.50 158.46
  Z"
/>
<path fill="#fb0609" fill-opacity="0.996" d="
  M 311.25 158.71
  Q 311.89 159.15 311.96 159.81
  Q 312.69 167.51 311.22 175.88
  Q 310.42 167.60 310.73 159.62
  A 1.03 1.02 68.2 0 1 311.00 158.98
  L 311.25 158.71
  Z"
/>
<path fill="#14acb1" fill-opacity="0.945" d="
  M 253.46 159.50
  Q 253.41 159.89 253.59 160.12
  A 0.11 0.11 0.0 0 0 253.75 160.13
  L 253.94 159.94
  A 0.14 0.06 -57.1 0 1 254.03 159.88
  L 270.56 159.96
  Q 270.36 160.82 269.75 160.77
  Q 262.82 160.17 253.98 160.81
  A 0.71 0.70 77.1 0 1 253.27 160.36
  Q 253.09 159.88 253.46 159.50
  Z"
/>
<path fill="#4593ce" d="
  M 296.62 159.45
  L 297.25 159.54
  L 299.50 160.29
  Q 296.95 162.24 296.62 159.45
  Z"
/>
<path fill="#fb0609" fill-opacity="0.996" d="
  M 272.50 160.54
  L 273.05 160.85
  A 0.76 0.76 0.0 0 1 273.44 161.62
  L 272.71 166.57
  Q 271.68 163.19 272.50 160.54
  Z"
/>
<path fill="#fb0609" fill-opacity="0.996" d="
  M 301.74 160.65
  Q 302.75 166.83 302.73 174.25
  Q 302.73 176.17 301.00 175.96
  Q 301.00 168.98 301.00 162.00
  Q 300.33 161.34 301.74 160.65
  Z"
/>
<path fill="#fb0609" fill-opacity="0.996" d="
  M 233.75 161.21
  L 236.13 162.28
  Q 235.94 162.73 235.96 163.25
  Q 234.45 162.64 233.75 161.21
  Z"
/>
<path fill="#5511d4" fill-opacity="0.882" d="
  M 268.74 163.81
  L 268.83 163.50
  Q 268.98 162.96 268.99 163.52
  L 269.01 164.34
  A 0.56 0.55 -3.4 0 1 268.50 164.90
  Q 261.27 165.59 254.05 165.05
  A 0.53 0.53 0.0 0 1 253.56 164.50
  L 253.67 161.99
  A 0.52 0.52 0.0 0 1 254.19 161.50
  L 266.81 161.50
  A 0.96 0.95 74.4 0 1 267.63 161.97
  L 268.69 163.81
  Q 268.72 163.87 268.74 163.81
  Z"
/>
<path fill="#fb0609" fill-opacity="0.996" d="
  M 350.17 163.45
  Q 351.23 170.01 349.64 176.01
  C 349.47 174.63 347.79 162.21 350.17 163.45
  Z"
/>
<path fill="#fb0609" fill-opacity="0.996" d="
  M 196.50 163.54
  L 196.44 175.18
  A 0.60 0.59 85.5 0 1 195.94 175.77
  L 194.75 175.96
  Q 195.78 170.26 194.91 164.04
  A 0.72 0.71 86.9 0 1 195.63 163.23
  Q 196.19 163.24 196.50 163.54
  Z"
/>
<path fill="#fb0609" fill-opacity="0.996" d="
  M 225.75 164.04
  C 224.88 165.50 225.71 172.67 225.75 174.79
  A 1.15 1.13 -22.2 0 1 225.38 175.65
  Q 224.82 176.15 224.00 175.96
  L 224.06 164.15
  A 0.73 0.72 81.2 0 1 224.56 163.46
  Q 225.13 163.29 225.75 164.04
  Z"
/>
<path fill="#fb0609" fill-opacity="0.996" d="
  M 283.25 166.79
  Q 284.09 171.79 282.16 176.06
  Q 281.42 171.30 281.78 166.76
  A 0.49 0.49 0.0 0 1 282.52 166.37
  L 283.25 166.79
  Z"
/>
<path fill="#fb0609" fill-opacity="0.996" d="
  M 254.29 166.75
  L 253.96 168.50
  L 253.46 169.25
  Q 252.48 168.07 253.25 166.85
  A 0.53 0.53 0.0 0 1 253.87 166.62
  L 254.29 166.75
  Z"
/>
<path fill="#0ddbce" d="
  M 294.71 175.00
  L 294.35 174.62
  A 1.30 1.28 -67.6 0 1 294.00 173.76
  L 293.97 166.74
  C 295.82 165.49 294.80 174.40 294.71 175.00
  Z"
/>
<path fill="#4593ce" d="
  M 343.46 171.00
  Q 343.79 173.08 342.96 175.00
  L 342.50 174.71
  L 342.79 168.50
  L 342.98 168.29
  Q 343.15 168.08 343.18 168.35
  L 343.46 171.00
  Z"
/>
<path fill="#24366f" d="
  M 253.96 168.50
  Q 254.26 169.87 256.00 169.70
  Q 263.52 168.98 271.00 169.96
  C 269.25 170.10 253.13 171.07 253.46 169.25
  L 253.96 168.50
  Z"
/>
<path fill="#4593ce" d="
  M 138.75 169.09
  L 151.27 169.82
  L 138.07 169.99
  A 0.59 0.59 0.0 0 1 137.47 169.45
  Q 137.44 169.14 137.75 168.96
  L 138.75 169.09
  Z"
/>
<path fill="#24366f" d="
  M 167.71 168.75
  C 168.52 170.03 174.65 169.35 176.25 169.29
  L 176.03 169.61
  Q 175.81 169.94 176.20 169.96
  L 177.75 170.04
  Q 172.06 170.65 166.35 169.39
  L 167.71 168.75
  Z"
/>
<path fill="#24366f" d="
  M 321.71 168.75
  L 322.18 169.13
  A 1.41 1.37 -24.7 0 0 323.06 169.44
  L 330.75 169.54
  L 332.25 170.04
  Q 326.14 170.95 320.18 169.36
  L 321.71 168.75
  Z"
/>
<path fill="#fb0609" fill-opacity="0.996" d="
  M 156.64 175.97
  L 156.75 170.29
  Q 156.88 170.06 157.14 170.04
  A 0.70 0.69 -13.2 0 1 157.86 170.48
  Q 159.17 173.86 156.64 175.97
  Z"
/>
<path fill="#fb0609" fill-opacity="0.996" d="
  M 272.14 176.06
  L 272.25 170.29
  Q 272.55 170.09 272.90 170.13
  A 0.77 0.77 0.0 0 1 273.56 170.71
  Q 274.42 173.99 272.14 176.06
  Z"
/>
<path fill="#0ddbce" d="
  M 361.00 171.04
  Q 363.50 172.31 362.50 175.29
  Q 360.57 173.78 361.00 171.04
  Z"
/>
<path fill="#14acb1" fill-opacity="0.945" d="
  M 236.25 171.29
  Q 238.61 172.63 236.96 175.00
  Q 235.75 173.40 236.25 171.29
  Z"
/>
<path fill="#14acb1" fill-opacity="0.945" d="
  M 207.29 171.50
  L 207.66 171.50
  A 0.77 0.76 70.1 0 1 208.25 171.78
  Q 209.48 173.28 208.25 175.04
  Q 206.78 173.63 207.29 171.50
  Z"
/>
</svg>
