<?xml version="1.0" encoding="UTF-8" standalone="no"?>
<!DOCTYPE svg PUBLIC "-//W3C//DTD SVG 1.1//EN" "http://www.w3.org/Graphics/SVG/1.1/DTD/svg11.dtd">
<svg xmlns="http://www.w3.org/2000/svg" version="1.1" viewBox="0 0 200 200">
<g stroke-width="2.00" fill="none" stroke-linecap="butt">
<path stroke="#485160" vector-effect="non-scaling-stroke" d="
  M 105.75 105.46
  Q 105.35 103.73 103.54 103.25"
/>
<path stroke="#034f71" vector-effect="non-scaling-stroke" d="
  M 103.54 103.25
  Q 102.22 99.86 102.38 97.43
  A 1.00 1.00 0.0 0 0 101.39 96.36
  Q 97.71 96.34 97.76 99.05
  A 1.02 1.01 -78.7 0 0 98.35 99.94
  Q 99.55 100.49 100.06 101.53
  Q 100.92 103.29 99.19 102.38
  Q 95.76 100.57 95.48 96.72
  C 95.08 91.08 100.48 93.96 102.79 95.26
  A 0.64 0.64 0.0 0 0 103.74 94.78
  L 103.87 93.73
  A 0.98 0.95 -60.2 0 0 103.69 93.03
  C 96.40 82.86 89.66 95.20 94.58 102.44
  Q 97.32 106.47 102.49 108.40
  A 1.00 1.00 0.0 0 0 103.82 107.65
  Q 104.13 106.06 103.29 104.50"
/>
<path stroke="#485160" vector-effect="non-scaling-stroke" d="
  M 103.29 104.50
  L 103.49 104.28
  Q 103.67 104.08 103.74 104.35
  Q 104.01 105.38 105.00 105.79"
/>
<path stroke="#7f6009" vector-effect="non-scaling-stroke" d="
  M 91.46 96.50
  Q 92.12 90.46 94.96 85.09
  A 1.00 1.00 0.0 0 1 96.45 84.76
  L 101.66 88.77
  Q 103.33 90.06 103.27 87.95
  L 102.94 76.39
  A 1.00 0.99 -72.0 0 0 102.55 75.62
  C 100.24 73.85 99.81 76.64 99.75 78.24
  Q 99.71 79.21 99.62 80.21
  A 1.00 1.00 0.0 0 1 98.11 80.98
  Q 96.59 80.06 95.19 78.94
  C 93.66 77.71 92.39 78.95 92.39 80.61
  Q 92.39 84.64 91.29 88.50"
/>
<path stroke="#4ba0d1" vector-effect="non-scaling-stroke" d="
  M 103.54 103.25
  L 103.29 104.50"
/>
<path stroke="#710e12" vector-effect="non-scaling-stroke" d="
  M 157.75 131.04
  Q 153.61 131.18 154.21 127.00"
/>
<path stroke="#005320" vector-effect="non-scaling-stroke" d="
  M 167.00 134.54
  L 163.21 132.50"
/>
<path stroke="#034f71" vector-effect="non-scaling-stroke" d="
  M 182.00 135.79
  Q 177.96 137.57 174.34 140.11
  Q 170.64 142.70 169.71 138.00"
/>
<path stroke="#710e12" vector-effect="non-scaling-stroke" d="
  M 164.50 160.54
  L 157.92 165.30
  Q 156.15 166.58 154.14 164.97
  C 151.59 162.92 142.63 156.89 142.96 153.75"
/>
<path stroke="#710e12" vector-effect="non-scaling-stroke" d="
  M 143.00 145.71
  Q 146.19 143.35 149.94 143.10"
/>
<path stroke="#710e12" vector-effect="non-scaling-stroke" d="
  M 155.65 143.40
  L 157.75 144.79"
/>
<path stroke="#710e12" vector-effect="non-scaling-stroke" d="
  M 157.71 148.50
  Q 154.80 149.88 151.56 149.57
  A 1.01 1.00 19.1 0 0 150.62 150.02
  Q 149.98 151.03 149.98 152.11"
/>
<path stroke="#710e12" vector-effect="non-scaling-stroke" d="
  M 161.79 153.75
  C 165.34 144.32 157.60 138.15 148.76 141.54
  Q 141.68 144.25 137.08 148.10"
/>
<path stroke="#710e12" vector-effect="non-scaling-stroke" d="
  M 142.00 157.04
  L 142.75 159.04"
/>
<path stroke="#710e12" vector-effect="non-scaling-stroke" d="
  M 148.75 184.71
  L 129.77 146.06
  A 1.00 1.00 0.0 0 1 129.88 145.01
  L 130.46 144.25"
/>
<path stroke="#5b616d" vector-effect="non-scaling-stroke" d="
  M 94.25 37.46
  Q 101.94 38.79 109.75 38.21"
/>
<path stroke="#485160" vector-effect="non-scaling-stroke" d="
  M 109.75 38.21
  L 112.65 37.66
  A 0.21 0.20 -17.3 0 0 112.80 37.38
  L 112.68 37.08
  A 0.41 0.41 0.0 0 0 112.22 36.84
  L 109.25 37.46"
/>
<path stroke="#5b616d" vector-effect="non-scaling-stroke" d="
  M 109.25 37.46
  L 103.89 37.11
  Q 103.63 37.09 103.40 37.19
  Q 101.35 38.13 99.96 36.87
  A 1.00 0.99 -42.0 0 0 98.70 36.81
  Q 96.72 38.28 94.54 36.75"
/>
<path stroke="#66686e" vector-effect="non-scaling-stroke" d="
  M 94.54 36.75
  Q 94.63 35.87 95.17 35.68
  A 0.51 0.51 0.0 0 0 95.37 34.85
  C 92.98 32.33 96.95 31.62 98.53 32.14
  Q 98.71 32.20 98.90 32.19
  L 107.75 31.74
  Q 109.49 31.65 108.69 33.20
  Q 108.37 33.81 108.42 34.33
  Q 108.61 36.23 109.40 34.49
  L 110.53 31.99
  Q 111.52 29.81 112.38 32.05
  L 114.17 36.74
  A 1.00 0.99 -16.3 0 0 115.31 37.36
  Q 117.64 36.86 119.85 35.84
  Q 122.98 34.38 119.86 32.83
  C 112.42 29.14 99.49 29.78 91.48 31.64
  C 81.18 34.02 91.41 37.13 94.25 37.46"
/>
<path stroke="#c1c9da" vector-effect="non-scaling-stroke" d="
  M 94.54 36.75
  L 94.25 37.46"
/>
<path stroke="#a3b2cd" vector-effect="non-scaling-stroke" d="
  M 109.25 37.46
  L 109.75 38.21"
/>
<path stroke="#485160" vector-effect="non-scaling-stroke" d="
  M 104.35 33.85
  C 104.93 31.39 101.90 33.63 103.39 35.45
  Q 104.35 36.61 104.52 35.12
  Q 104.56 34.83 104.40 34.46
  A 1.05 1.02 41.2 0 1 104.35 33.85"
/>
<path stroke="#5b616d" vector-effect="non-scaling-stroke" d="
  M 98.92 33.05
  Q 96.79 33.78 98.85 34.71
  A 0.65 0.64 12.8 0 0 99.76 34.14
  L 99.76 33.67
  A 0.64 0.64 0.0 0 0 98.92 33.05"
/>
<path stroke="#66686e" vector-effect="non-scaling-stroke" d="
  M 50.00 39.79
  C 40.49 39.27 31.97 39.62 25.28 43.05
  C 17.42 47.08 28.11 51.75 32.01 52.55
  Q 36.87 53.53 52.19 53.55
  Q 106.81 53.60 161.44 53.41
  C 169.07 53.39 181.00 53.32 184.65 46.77"
/>
<path stroke="#5b616d" vector-effect="non-scaling-stroke" d="
  M 184.65 46.77
  Q 182.27 41.60 176.33 40.79
  C 159.86 38.54 142.96 41.72 126.25 35.40
  A 0.99 0.98 37.3 0 0 125.32 35.52
  C 115.89 42.28 90.83 42.09 81.73 35.46
  A 1.01 1.01 0.0 0 0 80.75 35.35
  C 70.95 39.50 60.45 39.92 50.00 39.79"
/>
<path stroke="#c1c9da" vector-effect="non-scaling-stroke" d="
  M 184.65 46.77
  L 181.29 46.50"
/>
<path stroke="#5b616d" vector-effect="non-scaling-stroke" d="
  M 181.29 46.50
  C 178.31 42.08 171.71 41.19 167.00 41.19
  Q 103.00 41.22 39.00 41.21"
/>
<path stroke="#c1c9da" vector-effect="non-scaling-stroke" d="
  M 39.00 41.21
  L 46.74 41.03
  A 0.27 0.27 0.0 0 0 47.00 40.75
  L 46.99 40.48
  A 0.41 0.41 0.0 0 1 47.36 40.05
  L 50.00 39.79"
/>
<path stroke="#66686e" vector-effect="non-scaling-stroke" d="
  M 39.00 41.21
  Q 32.96 41.47 27.56 44.08
  Q 24.59 45.50 26.47 48.21
  C 28.04 50.46 34.99 51.55 37.75 51.58
  Q 104.00 52.16 170.25 51.56
  C 173.78 51.53 179.49 50.34 181.29 46.50"
/>
<path stroke="#66686e" vector-effect="non-scaling-stroke" d="
  M 54.00 44.54
  C 54.73 46.12 50.58 44.31 52.00 47.29"
/>
<path stroke="#485160" vector-effect="non-scaling-stroke" d="
  M 52.00 47.29
  Q 50.60 51.70 54.42 50.60
  A 0.99 0.98 88.5 0 0 55.11 49.87
  Q 55.39 48.71 54.96 47.50"
/>
<path stroke="#66686e" vector-effect="non-scaling-stroke" d="
  M 54.96 47.50
  Q 55.47 46.02 54.96 44.50"
/>
<path stroke="#808080" vector-effect="non-scaling-stroke" d="
  M 54.96 44.50
  Q 54.73 42.83 52.73 42.81
  C 48.96 42.78 36.41 42.00 37.50 44.05
  A 0.81 0.80 75.7 0 0 38.21 44.48
  L 54.00 44.54"
/>
<path stroke="#e5e8ed" vector-effect="non-scaling-stroke" d="
  M 54.96 44.50
  L 54.00 44.54"
/>
<path stroke="#aeb9ce" vector-effect="non-scaling-stroke" d="
  M 54.96 47.50
  L 52.00 47.29"
/>
<path stroke="#808080" vector-effect="non-scaling-stroke" d="
  M 68.9301 43.7321
  A 0.89 0.89 0.0 0 0 68.0495 42.8328
  L 57.9700 42.7273
  A 0.89 0.89 0.0 0 0 57.0707 43.6079
  L 57.0699 43.6879
  A 0.89 0.89 0.0 0 0 57.9505 44.5872
  L 68.0300 44.6927
  A 0.89 0.89 0.0 0 0 68.9293 43.8121
  L 68.9301 43.7321"
/>
<path stroke="#5b616d" vector-effect="non-scaling-stroke" d="
  M 70.79 44.50
  Q 69.46 48.57 72.92 47.61
  A 1.03 0.99 -82.2 0 0 73.53 47.13
  C 74.89 44.67 71.43 45.63 71.25 44.54"
/>
<path stroke="#66686e" vector-effect="non-scaling-stroke" d="
  M 71.25 44.54
  Q 76.90 44.70 82.58 44.79
  C 84.04 44.81 86.02 43.10 82.92 42.81
  Q 80.43 42.57 72.06 42.81
  Q 70.39 42.86 70.79 44.50"
/>
<path stroke="#c1c9da" vector-effect="non-scaling-stroke" d="
  M 71.25 44.54
  L 70.79 44.50"
/>
<path stroke="#5b616d" vector-effect="non-scaling-stroke" d="
  M 98.00 44.54
  Q 96.41 45.08 95.71 46.50"
/>
<path stroke="#485160" vector-effect="non-scaling-stroke" d="
  M 95.71 46.50
  Q 93.47 47.01 91.18 46.97
  C 90.56 46.96 89.90 47.39 90.03 48.05
  A 0.53 0.50 -2.1 0 0 90.49 48.46
  L 94.70 48.83
  A 0.98 0.97 -18.6 0 1 95.35 49.15
  Q 99.35 53.51 98.96 47.00"
/>
<path stroke="#5b616d" vector-effect="non-scaling-stroke" d="
  M 98.96 47.00
  L 98.71 44.50"
/>
<path stroke="#808080" vector-effect="non-scaling-stroke" d="
  M 98.71 44.50
  C 99.40 41.68 89.13 42.84 86.53 43.17
  A 0.32 0.32 0.0 0 0 86.24 43.49
  L 86.24 43.80
  A 0.81 0.81 0.0 0 0 87.05 44.60
  L 98.00 44.54"
/>
<path stroke="#dbe0ec" vector-effect="non-scaling-stroke" d="
  M 98.71 44.50
  L 98.00 44.54"
/>
<path stroke="#a3b2cd" vector-effect="non-scaling-stroke" d="
  M 98.96 47.00
  Q 97.08 47.87 95.71 46.50"
/>
<path stroke="#5b616d" vector-effect="non-scaling-stroke" d="
  M 119.75 44.54
  Q 116.59 45.06 117.46 47.35
  A 1.00 0.99 -15.1 0 1 116.68 48.69
  Q 113.51 49.20 110.55 49.11
  Q 108.67 49.05 108.00 47.54"
/>
<path stroke="#66686e" vector-effect="non-scaling-stroke" d="
  M 108.00 47.54
  Q 110.31 48.21 109.94 46.19
  A 1.03 1.01 -83.0 0 0 109.39 45.47
  Q 106.13 43.90 107.29 47.50"
/>
<path stroke="#5b616d" vector-effect="non-scaling-stroke" d="
  M 107.29 47.50
  L 107.15 49.43
  A 1.00 1.00 0.0 0 0 108.15 50.50
  L 119.15 50.45
  A 0.99 0.99 0.0 0 0 120.12 49.67
  Q 120.71 47.00 120.21 44.50"
/>
<path stroke="#808080" vector-effect="non-scaling-stroke" d="
  M 120.21 44.50
  C 120.98 41.80 110.53 42.71 107.36 42.79
  A 0.51 0.51 0.0 0 0 106.86 43.34
  L 106.89 43.67
  A 0.99 0.99 0.0 0 0 107.89 44.59
  L 119.75 44.54"
/>
<path stroke="#dbe0ec" vector-effect="non-scaling-stroke" d="
  M 120.21 44.50
  L 119.75 44.54"
/>
<path stroke="#c1c9da" vector-effect="non-scaling-stroke" d="
  M 107.29 47.50
  L 108.00 47.54"
/>
<path stroke="#485160" vector-effect="non-scaling-stroke" d="
  M 132.75 44.71
  L 133.50 44.96"
/>
<path stroke="#5b616d" vector-effect="non-scaling-stroke" d="
  M 133.50 44.96
  L 132.25 47.00"
/>
<path stroke="#485160" vector-effect="non-scaling-stroke" d="
  M 132.25 47.00
  C 131.42 46.83 126.73 46.41 127.05 48.06
  A 0.81 0.80 81.7 0 0 127.91 48.71
  C 131.39 48.38 131.65 50.46 134.03 50.79
  Q 134.46 50.85 134.88 50.80
  Q 136.88 50.58 135.49 49.12
  Q 134.49 48.07 132.83 47.94
  Q 132.05 47.88 132.25 47.00"
/>
<path stroke="#5b616d" vector-effect="non-scaling-stroke" d="
  M 132.25 47.00
  C 133.46 47.63 137.71 48.20 135.96 45.25"
/>
<path stroke="#485160" vector-effect="non-scaling-stroke" d="
  M 135.96 45.25
  L 135.71 44.50"
/>
<path stroke="#66686e" vector-effect="non-scaling-stroke" d="
  M 135.71 44.50
  C 136.50 41.21 122.53 42.87 123.02 44.09
  A 0.65 0.64 79.5 0 0 123.60 44.49
  L 132.75 44.71"
/>
<path stroke="#aeb9ce" vector-effect="non-scaling-stroke" d="
  M 135.71 44.50
  L 132.75 44.71"
/>
<path stroke="#a3b2cd" vector-effect="non-scaling-stroke" d="
  M 135.96 45.25
  L 133.50 44.96"
/>
<path stroke="#808080" vector-effect="non-scaling-stroke" d="
  M 141.4903 43.3438
  A 0.66 0.66 0.0 0 0 140.8054 42.7096
  L 138.6670 42.7917
  A 0.66 0.66 0.0 0 0 138.0328 43.4766
  L 138.0497 43.9162
  A 0.66 0.66 0.0 0 0 138.7346 44.5504
  L 140.8730 44.4683
  A 0.66 0.66 0.0 0 0 141.5072 43.7834
  L 141.4903 43.3438"
/>
<path stroke="#808080" vector-effect="non-scaling-stroke" d="
  M 146.06 42.94
  Q 141.36 42.07 143.60 44.04
  A 1.03 0.98 65.7 0 0 144.19 44.28
  L 146.18 44.41
  A 0.64 0.63 -8.9 0 0 146.82 43.54
  Q 146.62 43.04 146.06 42.94"
/>
<path stroke="#808080" vector-effect="non-scaling-stroke" d="
  M 156.9137 43.2159
  A 2.05 0.90 -10.8 0 0 154.7314 42.7159
  A 2.05 0.90 -10.8 0 0 152.8863 43.9841
  A 2.05 0.90 -10.8 0 0 155.0686 44.4841
  A 2.05 0.90 -10.8 0 0 156.9137 43.2159"
/>
<path stroke="#808080" vector-effect="non-scaling-stroke" d="
  M 170.3601 43.7319
  A 0.82 0.82 0.0 0 0 169.5487 42.9033
  L 159.3693 42.7967
  A 0.82 0.82 0.0 0 0 158.5407 43.6081
  L 158.5399 43.6881
  A 0.82 0.82 0.0 0 0 159.3513 44.5167
  L 169.5307 44.6233
  A 0.82 0.82 0.0 0 0 170.3593 43.8119
  L 170.3601 43.7319"
/>
<path stroke="#66686e" vector-effect="non-scaling-stroke" d="
  M 31.8797 46.1839
  A 2.07 1.77 -1.0 0 0 29.7791 44.4503
  A 2.07 1.77 -1.0 0 0 27.7403 46.2561
  A 2.07 1.77 -1.0 0 0 29.8409 47.9897
  A 2.07 1.77 -1.0 0 0 31.8797 46.1839"
/>
<path stroke="#66686e" vector-effect="non-scaling-stroke" d="
  M 177.08 47.45
  Q 178.85 48.13 179.05 46.15
  A 0.98 0.98 0.0 0 0 178.71 45.29
  Q 176.32 43.25 174.87 45.96
  A 1.00 0.98 46.9 0 0 174.85 46.86
  Q 175.37 47.95 176.27 47.49
  A 1.01 0.99 -47.2 0 1 177.08 47.45"
/>
<path stroke="#485160" vector-effect="non-scaling-stroke" d="
  M 86.29 47.25
  Q 84.57 51.92 88.74 50.44
  A 1.01 1.00 -4.1 0 0 89.40 49.68
  Q 89.59 48.60 89.21 47.50"
/>
<path stroke="#66686e" vector-effect="non-scaling-stroke" d="
  M 89.21 47.50
  Q 89.77 44.39 86.73 45.12
  A 0.98 0.98 0.0 0 0 85.99 45.87
  Q 85.83 46.56 86.29 47.25"
/>
<path stroke="#aeb9ce" vector-effect="non-scaling-stroke" d="
  M 89.21 47.50
  L 87.86 46.69
  A 0.52 0.51 -58.6 0 0 87.16 46.87
  Q 86.92 47.27 86.29 47.25"
/>
<path stroke="#485160" vector-effect="non-scaling-stroke" d="
  M 37.23 46.92
  L 37.56 49.79
  A 1.00 1.00 0.0 0 0 38.35 50.66
  Q 41.31 51.27 40.46 47.50"
/>
<path stroke="#66686e" vector-effect="non-scaling-stroke" d="
  M 40.46 47.50
  Q 39.84 42.72 37.23 46.92"
/>
<path stroke="#aeb9ce" vector-effect="non-scaling-stroke" d="
  M 40.46 47.50
  L 37.23 46.92"
/>
<path stroke="#485160" vector-effect="non-scaling-stroke" d="
  M 44.79 47.50
  L 44.56 49.50
  A 0.99 0.99 0.0 0 0 45.18 50.55
  Q 48.65 51.91 47.71 47.50"
/>
<path stroke="#5b616d" vector-effect="non-scaling-stroke" d="
  M 47.71 47.50
  Q 48.47 44.11 45.15 45.42
  A 1.01 0.99 -1.5 0 0 44.57 46.02
  Q 44.33 46.74 44.79 47.50"
/>
<path stroke="#a3b2cd" vector-effect="non-scaling-stroke" d="
  M 47.71 47.50
  L 44.79 47.50"
/>
<path stroke="#5b616d" vector-effect="non-scaling-stroke" d="
  M 67.56 45.94
  Q 60.57 45.49 58.28 45.27
  A 1.01 1.00 -87.7 0 0 57.18 46.29
  L 57.19 46.69
  A 0.81 0.81 0.0 0 0 58.01 47.48
  L 67.67 47.25
  A 0.65 0.63 -81.6 0 0 68.26 46.80
  Q 68.51 46.00 67.56 45.94"
/>
<path stroke="#485160" vector-effect="non-scaling-stroke" d="
  M 123.04 47.50
  L 122.81 49.35
  A 1.01 1.01 0.0 0 0 123.32 50.35
  Q 126.46 52.06 126.04 47.44"
/>
<path stroke="#5b616d" vector-effect="non-scaling-stroke" d="
  M 126.04 47.44
  Q 123.96 42.32 123.04 47.50"
/>
<path stroke="#a3b2cd" vector-effect="non-scaling-stroke" d="
  M 126.04 47.44
  L 123.04 47.50"
/>
<path stroke="#485160" vector-effect="non-scaling-stroke" d="
  M 138.29 47.50
  L 138.15 49.65
  A 1.00 1.00 0.0 0 0 138.91 50.69
  Q 142.42 51.55 141.25 47.54"
/>
<path stroke="#5b616d" vector-effect="non-scaling-stroke" d="
  M 141.25 47.54
  C 142.47 43.71 136.48 44.67 138.29 47.50"
/>
<path stroke="#a3b2cd" vector-effect="non-scaling-stroke" d="
  M 141.25 47.54
  Q 139.79 47.10 138.29 47.50"
/>
<path stroke="#808080" vector-effect="non-scaling-stroke" d="
  M 145.80 45.29
  C 143.85 44.52 145.05 48.34 147.98 47.36
  A 1.00 1.00 0.0 0 0 148.49 45.86
  Q 147.89 44.94 146.43 45.33
  A 1.05 1.04 48.2 0 1 145.80 45.29"
/>
<path stroke="#808080" vector-effect="non-scaling-stroke" d="
  M 152.81 45.44
  Q 151.35 45.10 151.06 46.21
  A 0.81 0.80 17.9 0 0 151.55 47.16
  Q 153.34 47.85 154.40 46.82
  Q 155.91 45.33 153.79 45.44
  Q 153.02 45.49 152.81 45.44"
/>
<path stroke="#808080" vector-effect="non-scaling-stroke" d="
  M 169.5496 46.0449
  A 0.28 0.28 0.0 0 0 169.2750 45.7596
  L 158.9169 45.5607
  A 0.28 0.28 0.0 0 0 158.6316 45.8353
  L 158.6104 46.9351
  A 0.28 0.28 0.0 0 0 158.8850 47.2204
  L 169.2431 47.4193
  A 0.28 0.28 0.0 0 0 169.5284 47.1447
  L 169.5496 46.0449"
/>
<path stroke="#485160" vector-effect="non-scaling-stroke" d="
  M 81.12 48.48
  C 80.34 49.21 74.42 48.67 73.24 48.32
  Q 72.46 48.10 71.66 48.18
  A 1.01 1.00 -21.0 0 0 70.95 49.76
  Q 71.05 49.90 71.17 50.02
  Q 71.61 50.47 72.62 50.56
  C 76.47 50.90 86.33 52.38 83.73 46.60
  A 1.00 0.99 83.4 0 0 83.02 46.03
  C 81.72 45.77 75.44 45.08 76.27 46.97
  A 0.64 0.64 0.0 0 0 76.82 47.35
  L 80.80 47.59
  Q 81.97 47.67 81.12 48.48"
/>
<path stroke="#485160" vector-effect="non-scaling-stroke" d="
  M 68.7953 49.7115
  A 0.79 0.79 0.0 0 0 68.0535 48.8760
  L 58.1510 48.2877
  A 0.79 0.79 0.0 0 0 57.3155 49.0294
  L 57.2847 49.5485
  A 0.79 0.79 0.0 0 0 58.0265 50.3840
  L 67.9290 50.9723
  A 0.79 0.79 0.0 0 0 68.7645 50.2306
  L 68.7953 49.7115"
/>
<path stroke="#485160" vector-effect="non-scaling-stroke" d="
  M 151.36 48.35
  Q 149.73 47.79 148.07 48.14
  A 1.00 1.00 0.0 0 0 147.53 49.78
  Q 149.02 51.47 151.57 50.51
  Q 152.73 50.07 153.09 48.58
  Q 153.30 47.73 152.51 48.11
  L 152.12 48.30
  A 0.96 0.95 -48.6 0 1 151.36 48.35"
/>
<path stroke="#66686e" vector-effect="non-scaling-stroke" d="
  M 170.1406 49.3557
  A 0.27 0.27 0.0 0 0 169.8841 49.0728
  L 159.1769 48.5492
  A 0.27 0.27 0.0 0 0 158.8941 48.8056
  L 158.8394 49.9243
  A 0.27 0.27 0.0 0 0 159.0959 50.2072
  L 169.8031 50.7308
  A 0.27 0.27 0.0 0 0 170.0859 50.4744
  L 170.1406 49.3557"
/>
<path stroke="#7f6009" vector-effect="non-scaling-stroke" d="
  M 107.14 83.52
  Q 107.18 82.97 107.66 82.62
  Q 110.46 80.57 112.09 79.09
  Q 114.03 77.33 111.41 77.35
  Q 110.12 77.35 108.87 77.93
  A 0.51 0.51 0.0 0 1 108.20 77.70
  L 108.06 77.43
  A 0.51 0.51 0.0 0 1 108.38 76.70
  Q 111.63 75.80 112.83 72.82
  Q 113.62 70.86 111.60 71.50
  L 104.77 73.63
  A 1.01 1.01 0.0 0 0 104.07 74.62
  L 104.53 89.73
  Q 104.59 91.82 106.18 90.45
  Q 108.51 88.46 111.54 86.29
  Q 112.94 85.30 112.23 84.23
  A 1.02 1.01 67.8 0 0 111.22 83.80
  L 108.08 84.37
  A 0.80 0.79 -2.5 0 1 107.14 83.52"
/>
<path stroke="#7f6009" vector-effect="non-scaling-stroke" d="
  M 119.91 75.89
  Q 115.19 74.36 113.40 80.17
  A 1.06 0.98 -48.2 0 0 113.41 80.81
  C 114.99 85.09 118.67 92.44 123.62 92.03
  A 1.00 0.96 17.9 0 0 124.28 91.71
  C 125.98 89.81 127.62 87.59 127.02 84.87
  C 126.17 80.98 123.79 77.15 119.91 75.89"
/>
<path stroke="#034f71" vector-effect="non-scaling-stroke" d="
  M 112.18 93.27
  L 114.48 94.16
  Q 114.70 94.25 114.95 94.22
  C 118.76 93.81 112.41 88.90 111.83 88.33
  A 1.00 1.00 0.0 0 0 110.31 88.48
  L 104.00 97.52
  Q 102.60 99.54 104.07 101.44
  L 108.11 106.64
  A 1.00 0.99 52.7 0 0 109.49 106.83
  L 109.87 106.56
  A 1.01 1.01 0.0 0 0 110.17 105.29
  L 107.60 100.29
  Q 106.81 98.74 108.55 98.83
  L 112.24 99.04
  Q 114.17 99.15 113.14 97.51
  L 111.21 94.44
  Q 109.92 92.39 112.18 93.27"
/>
<path stroke="#034f71" vector-effect="non-scaling-stroke" d="
  M 116.53 108.33
  A 1.00 0.99 -50.8 0 0 117.48 108.23
  C 122.50 104.82 128.96 100.82 125.41 93.45
  A 1.01 1.00 -15.3 0 0 124.42 92.89
  L 118.96 93.37
  A 1.02 1.01 17.8 0 0 118.31 93.70
  C 114.18 98.28 108.59 104.97 116.53 108.33"
/>
<path stroke="#7f6009" vector-effect="non-scaling-stroke" d="
  M 121.3066 79.9488
  A 0.77 0.56 -36.8 0 0 120.3545 79.9616
  A 0.77 0.56 -36.8 0 0 120.0734 80.8712
  A 0.77 0.56 -36.8 0 0 121.0255 80.8584
  A 0.77 0.56 -36.8 0 0 121.3066 79.9488"
/>
<path stroke="#7f6009" vector-effect="non-scaling-stroke" d="
  M 124.08 86.23
  L 122.07 88.00
  Q 120.63 89.28 122.42 88.55
  Q 123.83 87.97 124.58 86.63
  Q 125.53 84.94 124.08 86.23"
/>
<path stroke="#034f71" vector-effect="non-scaling-stroke" d="
  M 121.0068 96.5544
  A 1.09 0.89 -19.6 0 0 119.6814 96.0816
  A 1.09 0.89 -19.6 0 0 118.9532 97.2856
  A 1.09 0.89 -19.6 0 0 120.2786 97.7584
  A 1.09 0.89 -19.6 0 0 121.0068 96.5544"
/>
<path stroke="#034f71" vector-effect="non-scaling-stroke" d="
  M 119.9803 103.9213
  A 0.88 0.88 0.0 0 0 119.4485 102.7962
  L 116.5864 101.7714
  A 0.88 0.88 0.0 0 0 115.4613 102.3033
  L 115.3197 102.6987
  A 0.88 0.88 0.0 0 0 115.8515 103.8238
  L 118.7136 104.8486
  A 0.88 0.88 0.0 0 0 119.8387 104.3167
  L 119.9803 103.9213"
/>
<path stroke="#f18e92" vector-effect="non-scaling-stroke" d="
  M 65.99 132.91
  C 55.69 129.45 54.07 120.09 54.02 110.42
  C 54.01 109.03 52.48 106.32 52.03 110.27
  C 50.73 121.65 52.62 133.58 65.29 136.89
  A 1.00 1.00 0.0 0 0 66.54 135.98
  L 66.67 133.92
  A 1.01 0.99 11.4 0 0 65.99 132.91"
/>
<path stroke="#f18e92" vector-effect="non-scaling-stroke" d="
  M 44.16 109.47
  C 43.23 119.53 43.46 129.08 31.92 132.90
  A 1.00 1.00 0.0 0 0 31.24 133.89
  L 31.31 135.95
  A 1.00 1.00 0.0 0 0 32.55 136.88
  C 41.15 134.76 45.01 128.99 45.91 120.22
  C 46.10 118.41 46.87 105.89 44.38 108.93
  A 1.05 1.02 -23.6 0 0 44.16 109.47"
/>
<path stroke="#f18e92" vector-effect="non-scaling-stroke" d="
  M 50.9664 109.3666
  A 0.81 0.81 0.0 0 0 50.1550 108.5580
  L 47.8350 108.5620
  A 0.81 0.81 0.0 0 0 47.0264 109.3735
  L 47.0736 136.4134
  A 0.81 0.81 0.0 0 0 47.8850 137.2220
  L 50.2050 137.2180
  A 0.81 0.81 0.0 0 0 51.0136 136.4065
  L 50.9664 109.3666"
/>
<path stroke="#f18e92" vector-effect="non-scaling-stroke" d="
  M 66.4893 140.0209
  A 0.65 0.65 0.0 0 0 65.8325 139.3777
  L 65.3326 139.3830
  A 0.65 0.65 0.0 0 0 64.6894 140.0397
  L 64.8107 151.6191
  A 0.65 0.65 0.0 0 0 65.4675 152.2623
  L 65.9674 152.2570
  A 0.65 0.65 0.0 0 0 66.6106 151.6003
  L 66.4893 140.0209"
/>
<path stroke="#f18e92" vector-effect="non-scaling-stroke" d="
  M 32.10 151.49
  C 32.79 148.52 37.06 147.83 37.60 151.35
  A 1.01 1.00 -7.5 0 0 38.70 152.19
  L 39.12 152.14
  A 0.64 0.63 -12.1 0 0 39.66 151.31
  Q 38.07 146.49 36.75 141.59
  C 34.41 132.95 30.38 150.97 30.20 151.56
  A 0.51 0.51 0.0 0 0 30.63 152.22
  L 31.02 152.26
  A 1.00 0.99 -80.3 0 0 32.10 151.49"
/>
<path stroke="#f18e92" vector-effect="non-scaling-stroke" d="
  M 40.10 141.32
  A 1.01 1.00 85.9 0 1 41.23 142.30
  C 41.23 142.59 40.37 155.66 42.95 151.44
  A 0.96 0.92 61.1 0 0 43.09 150.91
  L 42.98 142.54
  A 1.01 1.00 81.7 0 1 43.71 141.56
  L 45.17 141.14
  A 0.80 0.80 0.0 0 0 45.74 140.50
  C 46.01 138.85 39.48 139.56 39.09 139.57
  A 0.80 0.80 0.0 0 0 38.45 140.79
  Q 38.88 141.49 40.10 141.32"
/>
<path stroke="#f18e92" vector-effect="non-scaling-stroke" d="
  M 48.00 140.71
  Q 46.31 145.80 44.76 150.96
  A 1.01 1.00 -80.4 0 0 45.67 152.25
  L 45.93 152.26
  A 0.64 0.63 -84.6 0 0 46.59 151.71
  Q 47.10 148.03 51.03 149.44
  A 0.98 0.97 0.7 0 1 51.64 150.06
  L 52.21 151.73
  A 0.97 0.96 -85.0 0 0 52.65 152.26
  C 55.73 154.09 51.21 141.89 51.00 141.20
  C 50.55 139.68 48.80 138.27 48.00 140.71"
/>
<path stroke="#f18e92" vector-effect="non-scaling-stroke" d="
  M 60.71 144.24
  L 58.43 146.17
  A 1.00 1.00 0.0 0 0 58.24 147.48
  L 61.20 152.03
  A 1.00 0.98 -9.5 0 0 61.83 152.47
  C 64.73 153.09 61.14 148.55 60.81 147.94
  A 1.01 1.01 0.0 0 1 61.07 146.68
  Q 64.25 144.12 61.76 140.23
  A 1.01 1.01 0.0 0 0 60.99 139.77
  L 56.58 139.43
  A 1.01 1.00 2.1 0 0 55.50 140.43
  L 55.50 151.62
  A 0.80 0.79 88.6 0 0 56.33 152.42
  C 58.15 152.34 57.52 143.92 57.55 142.36
  A 1.01 1.00 88.1 0 1 58.46 141.38
  Q 60.94 141.16 61.06 143.43
  A 1.02 1.01 68.5 0 1 60.71 144.24"
/>
<path stroke="#f18e92" vector-effect="non-scaling-stroke" d="
  M 33.95 144.67
  Q 32.85 147.04 35.10 147.50
  A 1.00 1.00 0.0 0 0 36.25 146.22
  L 35.81 144.80
  Q 35.04 142.32 33.95 144.67"
/>
<path stroke="#f18e92" vector-effect="non-scaling-stroke" d="
  M 49.24 147.58
  C 51.73 147.59 49.39 138.56 48.25 146.43
  A 1.01 1.01 0.0 0 0 49.24 147.58"
/>
</g>
<path fill="#000000" d="
  M 27.25 39.50
  C 44.05 35.73 60.98 40.56 77.65 34.78
  Q 79.01 34.31 85.43 31.07
  C 95.51 25.97 111.93 25.94 122.01 31.31
  C 137.02 39.31 149.65 38.13 168.29 38.02
  C 174.27 37.98 182.05 39.22 187.17 42.96
  A 1.06 1.06 0.0 0 1 187.52 43.42
  C 192.18 55.94 166.55 54.88 160.71 54.83
  C 124.26 54.51 86.07 55.19 40.72 54.84
  C 33.48 54.78 23.39 54.24 18.53 48.25
  Q 16.51 45.75 18.92 43.68
  Q 22.58 40.55 27.25 39.50
  Z
  M 94.25 37.46
  Q 101.94 38.79 109.75 38.21
  L 112.65 37.66
  A 0.21 0.20 -17.3 0 0 112.80 37.38
  L 112.68 37.08
  A 0.41 0.41 0.0 0 0 112.22 36.84
  L 109.25 37.46
  L 103.89 37.11
  Q 103.63 37.09 103.40 37.19
  Q 101.35 38.13 99.96 36.87
  A 1.00 0.99 -42.0 0 0 98.70 36.81
  Q 96.72 38.28 94.54 36.75
  Q 94.63 35.87 95.17 35.68
  A 0.51 0.51 0.0 0 0 95.37 34.85
  C 92.98 32.33 96.95 31.62 98.53 32.14
  Q 98.71 32.20 98.90 32.19
  L 107.75 31.74
  Q 109.49 31.65 108.69 33.20
  Q 108.37 33.81 108.42 34.33
  Q 108.61 36.23 109.40 34.49
  L 110.53 31.99
  Q 111.52 29.81 112.38 32.05
  L 114.17 36.74
  A 1.00 0.99 -16.3 0 0 115.31 37.36
  Q 117.64 36.86 119.85 35.84
  Q 122.98 34.38 119.86 32.83
  C 112.42 29.14 99.49 29.78 91.48 31.64
  C 81.18 34.02 91.41 37.13 94.25 37.46
  Z
  M 104.35 33.85
  C 104.93 31.39 101.90 33.63 103.39 35.45
  Q 104.35 36.61 104.52 35.12
  Q 104.56 34.83 104.40 34.46
  A 1.05 1.02 41.2 0 1 104.35 33.85
  Z
  M 98.92 33.05
  Q 96.79 33.78 98.85 34.71
  A 0.65 0.64 12.8 0 0 99.76 34.14
  L 99.76 33.67
  A 0.64 0.64 0.0 0 0 98.92 33.05
  Z
  M 50.00 39.79
  C 40.49 39.27 31.97 39.62 25.28 43.05
  C 17.42 47.08 28.11 51.75 32.01 52.55
  Q 36.87 53.53 52.19 53.55
  Q 106.81 53.60 161.44 53.41
  C 169.07 53.39 181.00 53.32 184.65 46.77
  Q 182.27 41.60 176.33 40.79
  C 159.86 38.54 142.96 41.72 126.25 35.40
  A 0.99 0.98 37.3 0 0 125.32 35.52
  C 115.89 42.28 90.83 42.09 81.73 35.46
  A 1.01 1.01 0.0 0 0 80.75 35.35
  C 70.95 39.50 60.45 39.92 50.00 39.79
  Z"
/>
<path fill="#cbd0db" d="
  M 94.54 36.75
  L 94.25 37.46
  C 91.41 37.13 81.18 34.02 91.48 31.64
  C 99.49 29.78 112.42 29.14 119.86 32.83
  Q 122.98 34.38 119.85 35.84
  Q 117.64 36.86 115.31 37.36
  A 1.00 0.99 -16.3 0 1 114.17 36.74
  L 112.38 32.05
  Q 111.52 29.81 110.53 31.99
  L 109.40 34.49
  Q 108.61 36.23 108.42 34.33
  Q 108.37 33.81 108.69 33.20
  Q 109.49 31.65 107.75 31.74
  L 98.90 32.19
  Q 98.71 32.20 98.53 32.14
  C 96.95 31.62 92.98 32.33 95.37 34.85
  A 0.51 0.51 0.0 0 1 95.17 35.68
  Q 94.63 35.87 94.54 36.75
  Z"
/>
<path fill="#90a2c0" d="
  M 104.40 34.46
  Q 104.56 34.83 104.52 35.12
  Q 104.35 36.61 103.39 35.45
  C 101.90 33.63 104.93 31.39 104.35 33.85
  A 1.05 1.02 41.2 0 0 104.40 34.46
  Z"
/>
<path fill="#b6c1d9" d="
  M 99.76 33.67
  L 99.76 34.14
  A 0.65 0.64 12.8 0 1 98.85 34.71
  Q 96.79 33.78 98.92 33.05
  A 0.64 0.64 0.0 0 1 99.76 33.67
  Z"
/>
<path fill="#b6c1d9" d="
  M 184.65 46.77
  L 181.29 46.50
  C 178.31 42.08 171.71 41.19 167.00 41.19
  Q 103.00 41.22 39.00 41.21
  L 46.74 41.03
  A 0.27 0.27 0.0 0 0 47.00 40.75
  L 46.99 40.48
  A 0.41 0.41 0.0 0 1 47.36 40.05
  L 50.00 39.79
  C 60.45 39.92 70.95 39.50 80.75 35.35
  A 1.01 1.01 0.0 0 1 81.73 35.46
  C 90.83 42.09 115.89 42.28 125.32 35.52
  A 0.99 0.98 37.3 0 1 126.25 35.40
  C 142.96 41.72 159.86 38.54 176.33 40.79
  Q 182.27 41.60 184.65 46.77
  Z"
/>
<path fill="#b6c1d9" d="
  M 109.25 37.46
  L 109.75 38.21
  Q 101.94 38.79 94.25 37.46
  L 94.54 36.75
  Q 96.72 38.28 98.70 36.81
  A 1.00 0.99 -42.0 0 1 99.96 36.87
  Q 101.35 38.13 103.40 37.19
  Q 103.63 37.09 103.89 37.11
  L 109.25 37.46
  Z"
/>
<path fill="#90a2c0" d="
  M 109.75 38.21
  L 109.25 37.46
  L 112.22 36.84
  A 0.41 0.41 0.0 0 1 112.68 37.08
  L 112.80 37.38
  A 0.21 0.20 -17.3 0 1 112.65 37.66
  L 109.75 38.21
  Z"
/>
<path fill="#cbd0db" d="
  M 50.00 39.79
  L 47.36 40.05
  A 0.41 0.41 0.0 0 0 46.99 40.48
  L 47.00 40.75
  A 0.27 0.27 0.0 0 1 46.74 41.03
  L 39.00 41.21
  Q 32.96 41.47 27.56 44.08
  Q 24.59 45.50 26.47 48.21
  C 28.04 50.46 34.99 51.55 37.75 51.58
  Q 104.00 52.16 170.25 51.56
  C 173.78 51.53 179.49 50.34 181.29 46.50
  L 184.65 46.77
  C 181.00 53.32 169.07 53.39 161.44 53.41
  Q 106.81 53.60 52.19 53.55
  Q 36.87 53.53 32.01 52.55
  C 28.11 51.75 17.42 47.08 25.28 43.05
  C 31.97 39.62 40.49 39.27 50.00 39.79
  Z"
/>
<path fill="#000000" d="
  M 181.29 46.50
  C 179.49 50.34 173.78 51.53 170.25 51.56
  Q 104.00 52.16 37.75 51.58
  C 34.99 51.55 28.04 50.46 26.47 48.21
  Q 24.59 45.50 27.56 44.08
  Q 32.96 41.47 39.00 41.21
  Q 103.00 41.22 167.00 41.19
  C 171.71 41.19 178.31 42.08 181.29 46.50
  Z
  M 54.00 44.54
  C 54.73 46.12 50.58 44.31 52.00 47.29
  Q 50.60 51.70 54.42 50.60
  A 0.99 0.98 88.5 0 0 55.11 49.87
  Q 55.39 48.71 54.96 47.50
  Q 55.47 46.02 54.96 44.50
  Q 54.73 42.83 52.73 42.81
  C 48.96 42.78 36.41 42.00 37.50 44.05
  A 0.81 0.80 75.7 0 0 38.21 44.48
  L 54.00 44.54
  Z
  M 68.9301 43.7321
  A 0.89 0.89 0.0 0 0 68.0495 42.8328
  L 57.9700 42.7273
  A 0.89 0.89 0.0 0 0 57.0707 43.6079
  L 57.0699 43.6879
  A 0.89 0.89 0.0 0 0 57.9505 44.5872
  L 68.0300 44.6927
  A 0.89 0.89 0.0 0 0 68.9293 43.8121
  L 68.9301 43.7321
  Z
  M 70.79 44.50
  Q 69.46 48.57 72.92 47.61
  A 1.03 0.99 -82.2 0 0 73.53 47.13
  C 74.89 44.67 71.43 45.63 71.25 44.54
  Q 76.90 44.70 82.58 44.79
  C 84.04 44.81 86.02 43.10 82.92 42.81
  Q 80.43 42.57 72.06 42.81
  Q 70.39 42.86 70.79 44.50
  Z
  M 98.00 44.54
  Q 96.41 45.08 95.71 46.50
  Q 93.47 47.01 91.18 46.97
  C 90.56 46.96 89.90 47.39 90.03 48.05
  A 0.53 0.50 -2.1 0 0 90.49 48.46
  L 94.70 48.83
  A 0.98 0.97 -18.6 0 1 95.35 49.15
  Q 99.35 53.51 98.96 47.00
  L 98.71 44.50
  C 99.40 41.68 89.13 42.84 86.53 43.17
  A 0.32 0.32 0.0 0 0 86.24 43.49
  L 86.24 43.80
  A 0.81 0.81 0.0 0 0 87.05 44.60
  L 98.00 44.54
  Z
  M 119.75 44.54
  Q 116.59 45.06 117.46 47.35
  A 1.00 0.99 -15.1 0 1 116.68 48.69
  Q 113.51 49.20 110.55 49.11
  Q 108.67 49.05 108.00 47.54
  Q 110.31 48.21 109.94 46.19
  A 1.03 1.01 -83.0 0 0 109.39 45.47
  Q 106.13 43.90 107.29 47.50
  L 107.15 49.43
  A 1.00 1.00 0.0 0 0 108.15 50.50
  L 119.15 50.45
  A 0.99 0.99 0.0 0 0 120.12 49.67
  Q 120.71 47.00 120.21 44.50
  C 120.98 41.80 110.53 42.71 107.36 42.79
  A 0.51 0.51 0.0 0 0 106.86 43.34
  L 106.89 43.67
  A 0.99 0.99 0.0 0 0 107.89 44.59
  L 119.75 44.54
  Z
  M 132.75 44.71
  L 133.50 44.96
  L 132.25 47.00
  C 131.42 46.83 126.73 46.41 127.05 48.06
  A 0.81 0.80 81.7 0 0 127.91 48.71
  C 131.39 48.38 131.65 50.46 134.03 50.79
  Q 134.46 50.85 134.88 50.80
  Q 136.88 50.58 135.49 49.12
  Q 134.49 48.07 132.83 47.94
  Q 132.05 47.88 132.25 47.00
  C 133.46 47.63 137.71 48.20 135.96 45.25
  L 135.71 44.50
  C 136.50 41.21 122.53 42.87 123.02 44.09
  A 0.65 0.64 79.5 0 0 123.60 44.49
  L 132.75 44.71
  Z
  M 141.4903 43.3438
  A 0.66 0.66 0.0 0 0 140.8054 42.7096
  L 138.6670 42.7917
  A 0.66 0.66 0.0 0 0 138.0328 43.4766
  L 138.0497 43.9162
  A 0.66 0.66 0.0 0 0 138.7346 44.5504
  L 140.8730 44.4683
  A 0.66 0.66 0.0 0 0 141.5072 43.7834
  L 141.4903 43.3438
  Z
  M 146.06 42.94
  Q 141.36 42.07 143.60 44.04
  A 1.03 0.98 65.7 0 0 144.19 44.28
  L 146.18 44.41
  A 0.64 0.63 -8.9 0 0 146.82 43.54
  Q 146.62 43.04 146.06 42.94
  Z
  M 156.9137 43.2159
  A 2.05 0.90 -10.8 0 0 154.7314 42.7159
  A 2.05 0.90 -10.8 0 0 152.8863 43.9841
  A 2.05 0.90 -10.8 0 0 155.0686 44.4841
  A 2.05 0.90 -10.8 0 0 156.9137 43.2159
  Z
  M 170.3601 43.7319
  A 0.82 0.82 0.0 0 0 169.5487 42.9033
  L 159.3693 42.7967
  A 0.82 0.82 0.0 0 0 158.5407 43.6081
  L 158.5399 43.6881
  A 0.82 0.82 0.0 0 0 159.3513 44.5167
  L 169.5307 44.6233
  A 0.82 0.82 0.0 0 0 170.3593 43.8119
  L 170.3601 43.7319
  Z
  M 31.8797 46.1839
  A 2.07 1.77 -1.0 0 0 29.7791 44.4503
  A 2.07 1.77 -1.0 0 0 27.7403 46.2561
  A 2.07 1.77 -1.0 0 0 29.8409 47.9897
  A 2.07 1.77 -1.0 0 0 31.8797 46.1839
  Z
  M 177.08 47.45
  Q 178.85 48.13 179.05 46.15
  A 0.98 0.98 0.0 0 0 178.71 45.29
  Q 176.32 43.25 174.87 45.96
  A 1.00 0.98 46.9 0 0 174.85 46.86
  Q 175.37 47.95 176.27 47.49
  A 1.01 0.99 -47.2 0 1 177.08 47.45
  Z
  M 86.29 47.25
  Q 84.57 51.92 88.74 50.44
  A 1.01 1.00 -4.1 0 0 89.40 49.68
  Q 89.59 48.60 89.21 47.50
  Q 89.77 44.39 86.73 45.12
  A 0.98 0.98 0.0 0 0 85.99 45.87
  Q 85.83 46.56 86.29 47.25
  Z
  M 37.23 46.92
  L 37.56 49.79
  A 1.00 1.00 0.0 0 0 38.35 50.66
  Q 41.31 51.27 40.46 47.50
  Q 39.84 42.72 37.23 46.92
  Z
  M 44.79 47.50
  L 44.56 49.50
  A 0.99 0.99 0.0 0 0 45.18 50.55
  Q 48.65 51.91 47.71 47.50
  Q 48.47 44.11 45.15 45.42
  A 1.01 0.99 -1.5 0 0 44.57 46.02
  Q 44.33 46.74 44.79 47.50
  Z
  M 67.56 45.94
  Q 60.57 45.49 58.28 45.27
  A 1.01 1.00 -87.7 0 0 57.18 46.29
  L 57.19 46.69
  A 0.81 0.81 0.0 0 0 58.01 47.48
  L 67.67 47.25
  A 0.65 0.63 -81.6 0 0 68.26 46.80
  Q 68.51 46.00 67.56 45.94
  Z
  M 123.04 47.50
  L 122.81 49.35
  A 1.01 1.01 0.0 0 0 123.32 50.35
  Q 126.46 52.06 126.04 47.44
  Q 123.96 42.32 123.04 47.50
  Z
  M 138.29 47.50
  L 138.15 49.65
  A 1.00 1.00 0.0 0 0 138.91 50.69
  Q 142.42 51.55 141.25 47.54
  C 142.47 43.71 136.48 44.67 138.29 47.50
  Z
  M 145.80 45.29
  C 143.85 44.52 145.05 48.34 147.98 47.36
  A 1.00 1.00 0.0 0 0 148.49 45.86
  Q 147.89 44.94 146.43 45.33
  A 1.05 1.04 48.2 0 1 145.80 45.29
  Z
  M 152.81 45.44
  Q 151.35 45.10 151.06 46.21
  A 0.81 0.80 17.9 0 0 151.55 47.16
  Q 153.34 47.85 154.40 46.82
  Q 155.91 45.33 153.79 45.44
  Q 153.02 45.49 152.81 45.44
  Z
  M 169.5496 46.0449
  A 0.28 0.28 0.0 0 0 169.2750 45.7596
  L 158.9169 45.5607
  A 0.28 0.28 0.0 0 0 158.6316 45.8353
  L 158.6104 46.9351
  A 0.28 0.28 0.0 0 0 158.8850 47.2204
  L 169.2431 47.4193
  A 0.28 0.28 0.0 0 0 169.5284 47.1447
  L 169.5496 46.0449
  Z
  M 81.12 48.48
  C 80.34 49.21 74.42 48.67 73.24 48.32
  Q 72.46 48.10 71.66 48.18
  A 1.01 1.00 -21.0 0 0 70.95 49.76
  Q 71.05 49.90 71.17 50.02
  Q 71.61 50.47 72.62 50.56
  C 76.47 50.90 86.33 52.38 83.73 46.60
  A 1.00 0.99 83.4 0 0 83.02 46.03
  C 81.72 45.77 75.44 45.08 76.27 46.97
  A 0.64 0.64 0.0 0 0 76.82 47.35
  L 80.80 47.59
  Q 81.97 47.67 81.12 48.48
  Z
  M 68.7953 49.7115
  A 0.79 0.79 0.0 0 0 68.0535 48.8760
  L 58.1510 48.2877
  A 0.79 0.79 0.0 0 0 57.3155 49.0294
  L 57.2847 49.5485
  A 0.79 0.79 0.0 0 0 58.0265 50.3840
  L 67.9290 50.9723
  A 0.79 0.79 0.0 0 0 68.7645 50.2306
  L 68.7953 49.7115
  Z
  M 151.36 48.35
  Q 149.73 47.79 148.07 48.14
  A 1.00 1.00 0.0 0 0 147.53 49.78
  Q 149.02 51.47 151.57 50.51
  Q 152.73 50.07 153.09 48.58
  Q 153.30 47.73 152.51 48.11
  L 152.12 48.30
  A 0.96 0.95 -48.6 0 1 151.36 48.35
  Z
  M 170.1406 49.3557
  A 0.27 0.27 0.0 0 0 169.8841 49.0728
  L 159.1769 48.5492
  A 0.27 0.27 0.0 0 0 158.8941 48.8056
  L 158.8394 49.9243
  A 0.27 0.27 0.0 0 0 159.0959 50.2072
  L 169.8031 50.7308
  A 0.27 0.27 0.0 0 0 170.0859 50.4744
  L 170.1406 49.3557
  Z"
/>
<path fill="#ffffff" d="
  M 54.96 44.50
  L 54.00 44.54
  L 38.21 44.48
  A 0.81 0.80 75.7 0 1 37.50 44.05
  C 36.41 42.00 48.96 42.78 52.73 42.81
  Q 54.73 42.83 54.96 44.50
  Z"
/>
<rect fill="#ffffff" x="-5.93" y="-0.93" transform="translate(63.00,43.71) rotate(0.6)" width="11.86" height="1.86" rx="0.89"/>
<path fill="#cbd0db" d="
  M 71.25 44.54
  L 70.79 44.50
  Q 70.39 42.86 72.06 42.81
  Q 80.43 42.57 82.92 42.81
  C 86.02 43.10 84.04 44.81 82.58 44.79
  Q 76.90 44.70 71.25 44.54
  Z"
/>
<path fill="#ffffff" d="
  M 98.71 44.50
  L 98.00 44.54
  L 87.05 44.60
  A 0.81 0.81 0.0 0 1 86.24 43.80
  L 86.24 43.49
  A 0.32 0.32 0.0 0 1 86.53 43.17
  C 89.13 42.84 99.40 41.68 98.71 44.50
  Z"
/>
<path fill="#ffffff" d="
  M 120.21 44.50
  L 119.75 44.54
  L 107.89 44.59
  A 0.99 0.99 0.0 0 1 106.89 43.67
  L 106.86 43.34
  A 0.51 0.51 0.0 0 1 107.36 42.79
  C 110.53 42.71 120.98 41.80 120.21 44.50
  Z"
/>
<path fill="#cbd0db" d="
  M 135.71 44.50
  L 132.75 44.71
  L 123.60 44.49
  A 0.65 0.64 79.5 0 1 123.02 44.09
  C 122.53 42.87 136.50 41.21 135.71 44.50
  Z"
/>
<rect fill="#ffffff" x="-1.73" y="-0.88" transform="translate(139.77,43.63) rotate(-2.2)" width="3.46" height="1.76" rx="0.66"/>
<path fill="#ffffff" d="
  M 146.06 42.94
  Q 146.62 43.04 146.82 43.54
  A 0.64 0.63 -8.9 0 1 146.18 44.41
  L 144.19 44.28
  A 1.03 0.98 65.7 0 1 143.60 44.04
  Q 141.36 42.07 146.06 42.94
  Z"
/>
<ellipse fill="#ffffff" cx="0.00" cy="0.00" transform="translate(154.90,43.60) rotate(-10.8)" rx="2.05" ry="0.90"/>
<rect fill="#ffffff" x="-5.91" y="-0.86" transform="translate(164.45,43.71) rotate(0.6)" width="11.82" height="1.72" rx="0.82"/>
<ellipse fill="#cbd0db" cx="0.00" cy="0.00" transform="translate(29.81,46.22) rotate(-1.0)" rx="2.07" ry="1.77"/>
<path fill="#cbd0db" d="
  M 54.00 44.54
  L 54.96 44.50
  Q 55.47 46.02 54.96 47.50
  L 52.00 47.29
  C 50.58 44.31 54.73 46.12 54.00 44.54
  Z"
/>
<path fill="#b6c1d9" d="
  M 70.79 44.50
  L 71.25 44.54
  C 71.43 45.63 74.89 44.67 73.53 47.13
  A 1.03 0.99 -82.2 0 1 72.92 47.61
  Q 69.46 48.57 70.79 44.50
  Z"
/>
<path fill="#b6c1d9" d="
  M 98.00 44.54
  L 98.71 44.50
  L 98.96 47.00
  Q 97.08 47.87 95.71 46.50
  Q 96.41 45.08 98.00 44.54
  Z"
/>
<path fill="#b6c1d9" d="
  M 119.75 44.54
  L 120.21 44.50
  Q 120.71 47.00 120.12 49.67
  A 0.99 0.99 0.0 0 1 119.15 50.45
  L 108.15 50.50
  A 1.00 1.00 0.0 0 1 107.15 49.43
  L 107.29 47.50
  L 108.00 47.54
  Q 108.67 49.05 110.55 49.11
  Q 113.51 49.20 116.68 48.69
  A 1.00 0.99 -15.1 0 0 117.46 47.35
  Q 116.59 45.06 119.75 44.54
  Z"
/>
<path fill="#90a2c0" d="
  M 135.71 44.50
  L 135.96 45.25
  L 133.50 44.96
  L 132.75 44.71
  L 135.71 44.50
  Z"
/>
<path fill="#cbd0db" d="
  M 176.27 47.49
  Q 175.37 47.95 174.85 46.86
  A 1.00 0.98 46.9 0 1 174.87 45.96
  Q 176.32 43.25 178.71 45.29
  A 0.98 0.98 0.0 0 1 179.05 46.15
  Q 178.85 48.13 177.08 47.45
  A 1.01 0.99 -47.2 0 0 176.27 47.49
  Z"
/>
<path fill="#cbd0db" d="
  M 89.21 47.50
  L 87.86 46.69
  A 0.52 0.51 -58.6 0 0 87.16 46.87
  Q 86.92 47.27 86.29 47.25
  Q 85.83 46.56 85.99 45.87
  A 0.98 0.98 0.0 0 1 86.73 45.12
  Q 89.77 44.39 89.21 47.50
  Z"
/>
<path fill="#cbd0db" d="
  M 108.00 47.54
  L 107.29 47.50
  Q 106.13 43.90 109.39 45.47
  A 1.03 1.01 -83.0 0 1 109.94 46.19
  Q 110.31 48.21 108.00 47.54
  Z"
/>
<path fill="#b6c1d9" d="
  M 133.50 44.96
  L 135.96 45.25
  C 137.71 48.20 133.46 47.63 132.25 47.00
  L 133.50 44.96
  Z"
/>
<path fill="#cbd0db" d="
  M 40.46 47.50
  L 37.23 46.92
  Q 39.84 42.72 40.46 47.50
  Z"
/>
<path fill="#b6c1d9" d="
  M 47.71 47.50
  L 44.79 47.50
  Q 44.33 46.74 44.57 46.02
  A 1.01 0.99 -1.5 0 1 45.15 45.42
  Q 48.47 44.11 47.71 47.50
  Z"
/>
<path fill="#b6c1d9" d="
  M 67.56 45.94
  Q 68.51 46.00 68.26 46.80
  A 0.65 0.63 -81.6 0 1 67.67 47.25
  L 58.01 47.48
  A 0.81 0.81 0.0 0 1 57.19 46.69
  L 57.18 46.29
  A 1.01 1.00 -87.7 0 1 58.28 45.27
  Q 60.57 45.49 67.56 45.94
  Z"
/>
<path fill="#b6c1d9" d="
  M 126.04 47.44
  L 123.04 47.50
  Q 123.96 42.32 126.04 47.44
  Z"
/>
<path fill="#b6c1d9" d="
  M 141.25 47.54
  Q 139.79 47.10 138.29 47.50
  C 136.48 44.67 142.47 43.71 141.25 47.54
  Z"
/>
<path fill="#ffffff" d="
  M 146.43 45.33
  Q 147.89 44.94 148.49 45.86
  A 1.00 1.00 0.0 0 1 147.98 47.36
  C 145.05 48.34 143.85 44.52 145.80 45.29
  A 1.05 1.04 48.2 0 0 146.43 45.33
  Z"
/>
<path fill="#ffffff" d="
  M 152.81 45.44
  Q 153.02 45.49 153.79 45.44
  Q 155.91 45.33 154.40 46.82
  Q 153.34 47.85 151.55 47.16
  A 0.81 0.80 17.9 0 1 151.06 46.21
  Q 151.35 45.10 152.81 45.44
  Z"
/>
<rect fill="#ffffff" x="-5.46" y="-0.83" transform="translate(164.08,46.49) rotate(1.1)" width="10.92" height="1.66" rx="0.28"/>
<path fill="#90a2c0" d="
  M 80.80 47.59
  L 76.82 47.35
  A 0.64 0.64 0.0 0 1 76.27 46.97
  C 75.44 45.08 81.72 45.77 83.02 46.03
  A 1.00 0.99 83.4 0 1 83.73 46.60
  C 86.33 52.38 76.47 50.90 72.62 50.56
  Q 71.61 50.47 71.17 50.02
  Q 71.05 49.90 70.95 49.76
  A 1.01 1.00 -21.0 0 1 71.66 48.18
  Q 72.46 48.10 73.24 48.32
  C 74.42 48.67 80.34 49.21 81.12 48.48
  Q 81.97 47.67 80.80 47.59
  Z"
/>
<path fill="#90a2c0" d="
  M 89.21 47.50
  Q 89.59 48.60 89.40 49.68
  A 1.01 1.00 -4.1 0 1 88.74 50.44
  Q 84.57 51.92 86.29 47.25
  Q 86.92 47.27 87.16 46.87
  A 0.52 0.51 -58.6 0 1 87.86 46.69
  L 89.21 47.50
  Z"
/>
<path fill="#90a2c0" d="
  M 95.71 46.50
  Q 97.08 47.87 98.96 47.00
  Q 99.35 53.51 95.35 49.15
  A 0.98 0.97 -18.6 0 0 94.70 48.83
  L 90.49 48.46
  A 0.53 0.50 -2.1 0 1 90.03 48.05
  C 89.90 47.39 90.56 46.96 91.18 46.97
  Q 93.47 47.01 95.71 46.50
  Z"
/>
<path fill="#90a2c0" d="
  M 132.25 47.00
  Q 132.05 47.88 132.83 47.94
  Q 134.49 48.07 135.49 49.12
  Q 136.88 50.58 134.88 50.80
  Q 134.46 50.85 134.03 50.79
  C 131.65 50.46 131.39 48.38 127.91 48.71
  A 0.81 0.80 81.7 0 1 127.05 48.06
  C 126.73 46.41 131.42 46.83 132.25 47.00
  Z"
/>
<path fill="#90a2c0" d="
  M 37.23 46.92
  L 40.46 47.50
  Q 41.31 51.27 38.35 50.66
  A 1.00 1.00 0.0 0 1 37.56 49.79
  L 37.23 46.92
  Z"
/>
<path fill="#90a2c0" d="
  M 52.00 47.29
  L 54.96 47.50
  Q 55.39 48.71 55.11 49.87
  A 0.99 0.98 88.5 0 1 54.42 50.60
  Q 50.60 51.70 52.00 47.29
  Z"
/>
<path fill="#90a2c0" d="
  M 141.25 47.54
  Q 142.42 51.55 138.91 50.69
  A 1.00 1.00 0.0 0 1 138.15 49.65
  L 138.29 47.50
  Q 139.79 47.10 141.25 47.54
  Z"
/>
<path fill="#90a2c0" d="
  M 44.79 47.50
  L 47.71 47.50
  Q 48.65 51.91 45.18 50.55
  A 0.99 0.99 0.0 0 1 44.56 49.50
  L 44.79 47.50
  Z"
/>
<path fill="#90a2c0" d="
  M 123.04 47.50
  L 126.04 47.44
  Q 126.46 52.06 123.32 50.35
  A 1.01 1.01 0.0 0 1 122.81 49.35
  L 123.04 47.50
  Z"
/>
<rect fill="#90a2c0" x="-5.75" y="-1.05" transform="translate(63.04,49.63) rotate(3.4)" width="11.50" height="2.10" rx="0.79"/>
<path fill="#90a2c0" d="
  M 152.12 48.30
  L 152.51 48.11
  Q 153.30 47.73 153.09 48.58
  Q 152.73 50.07 151.57 50.51
  Q 149.02 51.47 147.53 49.78
  A 1.00 1.00 0.0 0 1 148.07 48.14
  Q 149.73 47.79 151.36 48.35
  A 0.96 0.95 -48.6 0 0 152.12 48.30
  Z"
/>
<rect fill="#cbd0db" x="-5.63" y="-0.83" transform="translate(164.49,49.64) rotate(2.8)" width="11.26" height="1.66" rx="0.27"/>
<path fill="#000000" d="
  M 105.75 105.46
  Q 105.35 103.73 103.54 103.25
  Q 102.22 99.86 102.38 97.43
  A 1.00 1.00 0.0 0 0 101.39 96.36
  Q 97.71 96.34 97.76 99.05
  A 1.02 1.01 -78.7 0 0 98.35 99.94
  Q 99.55 100.49 100.06 101.53
  Q 100.92 103.29 99.19 102.38
  Q 95.76 100.57 95.48 96.72
  C 95.08 91.08 100.48 93.96 102.79 95.26
  A 0.64 0.64 0.0 0 0 103.74 94.78
  L 103.87 93.73
  A 0.98 0.95 -60.2 0 0 103.69 93.03
  C 96.40 82.86 89.66 95.20 94.58 102.44
  Q 97.32 106.47 102.49 108.40
  A 1.00 1.00 0.0 0 0 103.82 107.65
  Q 104.13 106.06 103.29 104.50
  L 103.49 104.28
  Q 103.67 104.08 103.74 104.35
  Q 104.01 105.38 105.00 105.79
  L 105.04 109.04
  A 1.00 1.00 0.0 0 1 103.79 110.02
  Q 93.50 107.33 91.46 96.50
  Q 92.12 90.46 94.96 85.09
  A 1.00 1.00 0.0 0 1 96.45 84.76
  L 101.66 88.77
  Q 103.33 90.06 103.27 87.95
  L 102.94 76.39
  A 1.00 0.99 -72.0 0 0 102.55 75.62
  C 100.24 73.85 99.81 76.64 99.75 78.24
  Q 99.71 79.21 99.62 80.21
  A 1.00 1.00 0.0 0 1 98.11 80.98
  Q 96.59 80.06 95.19 78.94
  C 93.66 77.71 92.39 78.95 92.39 80.61
  Q 92.39 84.64 91.29 88.50
  Q 90.73 83.61 91.75 78.74
  Q 92.35 75.85 94.51 77.24
  C 95.40 77.81 99.12 80.75 99.17 77.68
  Q 99.22 74.60 99.84 72.61
  A 1.01 1.01 0.0 0 1 101.06 71.94
  C 102.98 72.46 104.37 72.73 106.39 72.05
  Q 110.52 70.66 114.75 69.70
  A 1.00 1.00 0.0 0 1 115.96 70.53
  L 116.44 73.73
  A 0.99 0.99 0.0 0 0 117.26 74.57
  C 119.54 74.96 121.83 75.12 123.58 76.72
  Q 127.98 80.75 128.59 86.89
  A 0.98 0.98 0.0 0 1 128.39 87.59
  L 126.44 90.19
  A 1.02 1.00 54.8 0 0 126.29 91.12
  C 127.60 94.88 128.24 99.51 125.47 102.83
  C 122.39 106.53 118.26 110.26 113.07 107.93
  Q 110.31 106.69 111.22 109.75
  Q 111.48 110.62 110.91 110.91
  A 0.64 0.63 -32.6 0 1 110.13 110.74
  L 105.75 105.46
  Z
  M 107.14 83.52
  Q 107.18 82.97 107.66 82.62
  Q 110.46 80.57 112.09 79.09
  Q 114.03 77.33 111.41 77.35
  Q 110.12 77.35 108.87 77.93
  A 0.51 0.51 0.0 0 1 108.20 77.70
  L 108.06 77.43
  A 0.51 0.51 0.0 0 1 108.38 76.70
  Q 111.63 75.80 112.83 72.82
  Q 113.62 70.86 111.60 71.50
  L 104.77 73.63
  A 1.01 1.01 0.0 0 0 104.07 74.62
  L 104.53 89.73
  Q 104.59 91.82 106.18 90.45
  Q 108.51 88.46 111.54 86.29
  Q 112.94 85.30 112.23 84.23
  A 1.02 1.01 67.8 0 0 111.22 83.80
  L 108.08 84.37
  A 0.80 0.79 -2.5 0 1 107.14 83.52
  Z
  M 113.90 75.43
  C 114.59 76.42 114.88 73.40 113.28 74.45
  Q 112.71 74.82 113.06 74.94
  L 113.41 75.06
  A 1.03 0.96 -6.0 0 1 113.90 75.43
  Z
  M 119.91 75.89
  Q 115.19 74.36 113.40 80.17
  A 1.06 0.98 -48.2 0 0 113.41 80.81
  C 114.99 85.09 118.67 92.44 123.62 92.03
  A 1.00 0.96 17.9 0 0 124.28 91.71
  C 125.98 89.81 127.62 87.59 127.02 84.87
  C 126.17 80.98 123.79 77.15 119.91 75.89
  Z
  M 112.18 93.27
  L 114.48 94.16
  Q 114.70 94.25 114.95 94.22
  C 118.76 93.81 112.41 88.90 111.83 88.33
  A 1.00 1.00 0.0 0 0 110.31 88.48
  L 104.00 97.52
  Q 102.60 99.54 104.07 101.44
  L 108.11 106.64
  A 1.00 0.99 52.7 0 0 109.49 106.83
  L 109.87 106.56
  A 1.01 1.01 0.0 0 0 110.17 105.29
  L 107.60 100.29
  Q 106.81 98.74 108.55 98.83
  L 112.24 99.04
  Q 114.17 99.15 113.14 97.51
  L 111.21 94.44
  Q 109.92 92.39 112.18 93.27
  Z
  M 116.53 108.33
  A 1.00 0.99 -50.8 0 0 117.48 108.23
  C 122.50 104.82 128.96 100.82 125.41 93.45
  A 1.01 1.00 -15.3 0 0 124.42 92.89
  L 118.96 93.37
  A 1.02 1.01 17.8 0 0 118.31 93.70
  C 114.18 98.28 108.59 104.97 116.53 108.33
  Z"
/>
<path fill="#fec012" d="
  M 108.08 84.37
  L 111.22 83.80
  A 1.02 1.01 67.8 0 1 112.23 84.23
  Q 112.94 85.30 111.54 86.29
  Q 108.51 88.46 106.18 90.45
  Q 104.59 91.82 104.53 89.73
  L 104.07 74.62
  A 1.01 1.01 0.0 0 1 104.77 73.63
  L 111.60 71.50
  Q 113.62 70.86 112.83 72.82
  Q 111.63 75.80 108.38 76.70
  A 0.51 0.51 0.0 0 0 108.06 77.43
  L 108.20 77.70
  A 0.51 0.51 0.0 0 0 108.87 77.93
  Q 110.12 77.35 111.41 77.35
  Q 114.03 77.33 112.09 79.09
  Q 110.46 80.57 107.66 82.62
  Q 107.18 82.97 107.14 83.52
  A 0.80 0.79 -2.5 0 0 108.08 84.37
  Z"
/>
<path fill="#fec012" d="
  M 91.46 96.50
  Q 90.63 92.54 91.29 88.50
  Q 92.39 84.64 92.39 80.61
  C 92.39 78.95 93.66 77.71 95.19 78.94
  Q 96.59 80.06 98.11 80.98
  A 1.00 1.00 0.0 0 0 99.62 80.21
  Q 99.71 79.21 99.75 78.24
  C 99.81 76.64 100.24 73.85 102.55 75.62
  A 1.00 0.99 -72.0 0 1 102.94 76.39
  L 103.27 87.95
  Q 103.33 90.06 101.66 88.77
  L 96.45 84.76
  A 1.00 1.00 0.0 0 0 94.96 85.09
  Q 92.12 90.46 91.46 96.50
  Z"
/>
<path fill="#fec012" d="
  M 119.91 75.89
  C 123.79 77.15 126.17 80.98 127.02 84.87
  C 127.62 87.59 125.98 89.81 124.28 91.71
  A 1.00 0.96 17.9 0 1 123.62 92.03
  C 118.67 92.44 114.99 85.09 113.41 80.81
  A 1.06 0.98 -48.2 0 1 113.40 80.17
  Q 115.19 74.36 119.91 75.89
  Z
  M 121.3066 79.9488
  A 0.77 0.56 -36.8 0 0 120.3545 79.9616
  A 0.77 0.56 -36.8 0 0 120.0734 80.8712
  A 0.77 0.56 -36.8 0 0 121.0255 80.8584
  A 0.77 0.56 -36.8 0 0 121.3066 79.9488
  Z
  M 124.08 86.23
  L 122.07 88.00
  Q 120.63 89.28 122.42 88.55
  Q 123.83 87.97 124.58 86.63
  Q 125.53 84.94 124.08 86.23
  Z"
/>
<ellipse fill="#000000" cx="0.00" cy="0.00" transform="translate(120.69,80.41) rotate(-36.8)" rx="0.77" ry="0.56"/>
<path fill="#000000" d="
  M 124.08 86.23
  Q 125.53 84.94 124.58 86.63
  Q 123.83 87.97 122.42 88.55
  Q 120.63 89.28 122.07 88.00
  L 124.08 86.23
  Z"
/>
<path fill="#059de1" d="
  M 111.21 94.44
  L 113.14 97.51
  Q 114.17 99.15 112.24 99.04
  L 108.55 98.83
  Q 106.81 98.74 107.60 100.29
  L 110.17 105.29
  A 1.01 1.01 0.0 0 1 109.87 106.56
  L 109.49 106.83
  A 1.00 0.99 52.7 0 1 108.11 106.64
  L 104.07 101.44
  Q 102.60 99.54 104.00 97.52
  L 110.31 88.48
  A 1.00 1.00 0.0 0 1 111.83 88.33
  C 112.41 88.90 118.76 93.81 114.95 94.22
  Q 114.70 94.25 114.48 94.16
  L 112.18 93.27
  Q 109.92 92.39 111.21 94.44
  Z"
/>
<path fill="#059de1" d="
  M 103.54 103.25
  L 103.29 104.50
  Q 104.13 106.06 103.82 107.65
  A 1.00 1.00 0.0 0 1 102.49 108.40
  Q 97.32 106.47 94.58 102.44
  C 89.66 95.20 96.40 82.86 103.69 93.03
  A 0.98 0.95 -60.2 0 1 103.87 93.73
  L 103.74 94.78
  A 0.64 0.64 0.0 0 1 102.79 95.26
  C 100.48 93.96 95.08 91.08 95.48 96.72
  Q 95.76 100.57 99.19 102.38
  Q 100.92 103.29 100.06 101.53
  Q 99.55 100.49 98.35 99.94
  A 1.02 1.01 -78.7 0 1 97.76 99.05
  Q 97.71 96.34 101.39 96.36
  A 1.00 1.00 0.0 0 1 102.38 97.43
  Q 102.22 99.86 103.54 103.25
  Z"
/>
<path fill="#059de1" d="
  M 116.53 108.33
  C 108.59 104.97 114.18 98.28 118.31 93.70
  A 1.02 1.01 17.8 0 1 118.96 93.37
  L 124.42 92.89
  A 1.01 1.00 -15.3 0 1 125.41 93.45
  C 128.96 100.82 122.50 104.82 117.48 108.23
  A 1.00 0.99 -50.8 0 1 116.53 108.33
  Z
  M 121.0068 96.5544
  A 1.09 0.89 -19.6 0 0 119.6814 96.0816
  A 1.09 0.89 -19.6 0 0 118.9532 97.2856
  A 1.09 0.89 -19.6 0 0 120.2786 97.7584
  A 1.09 0.89 -19.6 0 0 121.0068 96.5544
  Z
  M 119.9803 103.9213
  A 0.88 0.88 0.0 0 0 119.4485 102.7962
  L 116.5864 101.7714
  A 0.88 0.88 0.0 0 0 115.4613 102.3033
  L 115.3197 102.6987
  A 0.88 0.88 0.0 0 0 115.8515 103.8238
  L 118.7136 104.8486
  A 0.88 0.88 0.0 0 0 119.8387 104.3167
  L 119.9803 103.9213
  Z"
/>
<ellipse fill="#000000" cx="0.00" cy="0.00" transform="translate(119.98,96.92) rotate(-19.6)" rx="1.09" ry="0.89"/>
<rect fill="#000000" x="-2.40" y="-1.09" transform="translate(117.65,103.31) rotate(19.7)" width="4.80" height="2.18" rx="0.88"/>
<path fill="#90a2c0" d="
  M 103.54 103.25
  Q 105.35 103.73 105.75 105.46
  L 105.00 105.79
  Q 104.01 105.38 103.74 104.35
  Q 103.67 104.08 103.49 104.28
  L 103.29 104.50
  L 103.54 103.25
  Z"
/>
<path fill="#e21c24" d="
  M 73.1972 155.4417
  A 1.59 1.59 0.0 0 1 71.6044 157.0289
  L 26.9444 156.9510
  A 1.59 1.59 0.0 0 1 25.3572 155.3582
  L 25.4428 106.2983
  A 1.59 1.59 0.0 0 1 27.0356 104.7111
  L 71.6956 104.7890
  A 1.59 1.59 0.0 0 1 73.2828 106.3818
  L 73.1972 155.4417
  Z
  M 65.99 132.91
  C 55.69 129.45 54.07 120.09 54.02 110.42
  C 54.01 109.03 52.48 106.32 52.03 110.27
  C 50.73 121.65 52.62 133.58 65.29 136.89
  A 1.00 1.00 0.0 0 0 66.54 135.98
  L 66.67 133.92
  A 1.01 0.99 11.4 0 0 65.99 132.91
  Z
  M 44.16 109.47
  C 43.23 119.53 43.46 129.08 31.92 132.90
  A 1.00 1.00 0.0 0 0 31.24 133.89
  L 31.31 135.95
  A 1.00 1.00 0.0 0 0 32.55 136.88
  C 41.15 134.76 45.01 128.99 45.91 120.22
  C 46.10 118.41 46.87 105.89 44.38 108.93
  A 1.05 1.02 -23.6 0 0 44.16 109.47
  Z
  M 50.9664 109.3666
  A 0.81 0.81 0.0 0 0 50.1550 108.5580
  L 47.8350 108.5620
  A 0.81 0.81 0.0 0 0 47.0264 109.3735
  L 47.0736 136.4134
  A 0.81 0.81 0.0 0 0 47.8850 137.2220
  L 50.2050 137.2180
  A 0.81 0.81 0.0 0 0 51.0136 136.4065
  L 50.9664 109.3666
  Z
  M 66.4893 140.0209
  A 0.65 0.65 0.0 0 0 65.8325 139.3777
  L 65.3326 139.3830
  A 0.65 0.65 0.0 0 0 64.6894 140.0397
  L 64.8107 151.6191
  A 0.65 0.65 0.0 0 0 65.4675 152.2623
  L 65.9674 152.2570
  A 0.65 0.65 0.0 0 0 66.6106 151.6003
  L 66.4893 140.0209
  Z
  M 32.10 151.49
  C 32.79 148.52 37.06 147.83 37.60 151.35
  A 1.01 1.00 -7.5 0 0 38.70 152.19
  L 39.12 152.14
  A 0.64 0.63 -12.1 0 0 39.66 151.31
  Q 38.07 146.49 36.75 141.59
  C 34.41 132.95 30.38 150.97 30.20 151.56
  A 0.51 0.51 0.0 0 0 30.63 152.22
  L 31.02 152.26
  A 1.00 0.99 -80.3 0 0 32.10 151.49
  Z
  M 40.10 141.32
  A 1.01 1.00 85.9 0 1 41.23 142.30
  C 41.23 142.59 40.37 155.66 42.95 151.44
  A 0.96 0.92 61.1 0 0 43.09 150.91
  L 42.98 142.54
  A 1.01 1.00 81.7 0 1 43.71 141.56
  L 45.17 141.14
  A 0.80 0.80 0.0 0 0 45.74 140.50
  C 46.01 138.85 39.48 139.56 39.09 139.57
  A 0.80 0.80 0.0 0 0 38.45 140.79
  Q 38.88 141.49 40.10 141.32
  Z
  M 48.00 140.71
  Q 46.31 145.80 44.76 150.96
  A 1.01 1.00 -80.4 0 0 45.67 152.25
  L 45.93 152.26
  A 0.64 0.63 -84.6 0 0 46.59 151.71
  Q 47.10 148.03 51.03 149.44
  A 0.98 0.97 0.7 0 1 51.64 150.06
  L 52.21 151.73
  A 0.97 0.96 -85.0 0 0 52.65 152.26
  C 55.73 154.09 51.21 141.89 51.00 141.20
  C 50.55 139.68 48.80 138.27 48.00 140.71
  Z
  M 60.71 144.24
  L 58.43 146.17
  A 1.00 1.00 0.0 0 0 58.24 147.48
  L 61.20 152.03
  A 1.00 0.98 -9.5 0 0 61.83 152.47
  C 64.73 153.09 61.14 148.55 60.81 147.94
  A 1.01 1.01 0.0 0 1 61.07 146.68
  Q 64.25 144.12 61.76 140.23
  A 1.01 1.01 0.0 0 0 60.99 139.77
  L 56.58 139.43
  A 1.01 1.00 2.1 0 0 55.50 140.43
  L 55.50 151.62
  A 0.80 0.79 88.6 0 0 56.33 152.42
  C 58.15 152.34 57.52 143.92 57.55 142.36
  A 1.01 1.00 88.1 0 1 58.46 141.38
  Q 60.94 141.16 61.06 143.43
  A 1.02 1.01 68.5 0 1 60.71 144.24
  Z"
/>
<path fill="#ffffff" d="
  M 66.67 133.92
  L 66.54 135.98
  A 1.00 1.00 0.0 0 1 65.29 136.89
  C 52.62 133.58 50.73 121.65 52.03 110.27
  C 52.48 106.32 54.01 109.03 54.02 110.42
  C 54.07 120.09 55.69 129.45 65.99 132.91
  A 1.01 0.99 11.4 0 1 66.67 133.92
  Z"
/>
<path fill="#ffffff" d="
  M 44.38 108.93
  C 46.87 105.89 46.10 118.41 45.91 120.22
  C 45.01 128.99 41.15 134.76 32.55 136.88
  A 1.00 1.00 0.0 0 1 31.31 135.95
  L 31.24 133.89
  A 1.00 1.00 0.0 0 1 31.92 132.90
  C 43.46 129.08 43.23 119.53 44.16 109.47
  A 1.05 1.02 -23.6 0 1 44.38 108.93
  Z"
/>
<rect fill="#ffffff" x="-1.97" y="-14.33" transform="translate(49.02,122.89) rotate(-0.1)" width="3.94" height="28.66" rx="0.81"/>
<path fill="#e21c24" d="
  M 157.75 131.04
  Q 153.61 131.18 154.21 127.00
  L 155.22 119.86
  A 1.01 1.00 5.6 0 1 156.27 119.00
  L 160.89 119.28
  A 1.00 0.99 12.1 0 1 161.77 120.63
  L 157.75 131.04
  Z"
/>
<path fill="#00a540" d="
  M 167.00 134.54
  L 163.21 132.50
  L 169.87 121.27
  A 1.00 1.00 0.0 0 1 171.34 120.99
  L 174.64 123.50
  A 1.01 1.00 38.3 0 1 174.81 124.93
  L 167.00 134.54
  Z"
/>
<path fill="#000000" d="
  M 154.21 127.00
  Q 153.61 131.18 157.75 131.04
  Q 156.68 133.55 154.25 132.73
  A 1.01 1.00 13.5 0 1 153.58 131.65
  L 154.21 127.00
  Z"
/>
<path fill="#059de1" d="
  M 182.00 135.79
  Q 177.96 137.57 174.34 140.11
  Q 170.64 142.70 169.71 138.00
  L 178.96 129.66
  A 1.00 1.00 0.0 0 1 180.48 129.87
  C 181.45 131.43 183.85 134.11 182.00 135.79
  Z"
/>
<path fill="#000000" d="
  M 163.21 132.50
  L 167.00 134.54
  C 164.98 138.39 160.34 134.81 163.21 132.50
  Z"
/>
<path fill="#e21c24" d="
  M 164.50 160.54
  L 157.92 165.30
  Q 156.15 166.58 154.14 164.97
  C 151.59 162.92 142.63 156.89 142.96 153.75
  L 145.61 146.67
  Q 146.28 144.87 144.42 145.35
  L 143.00 145.71
  Q 146.19 143.35 149.94 143.10
  Q 152.45 144.51 155.65 143.40
  L 157.75 144.79
  Q 158.16 146.68 157.71 148.50
  Q 154.80 149.88 151.56 149.57
  A 1.01 1.00 19.1 0 0 150.62 150.02
  Q 149.98 151.03 149.98 152.11
  C 148.28 155.29 154.06 158.20 156.22 159.48
  A 1.01 1.01 0.0 0 0 157.31 159.44
  Q 160.38 157.26 161.79 153.75
  C 165.34 144.32 157.60 138.15 148.76 141.54
  Q 141.68 144.25 137.08 148.10
  Q 138.68 153.81 142.00 157.04
  L 142.75 159.04
  C 142.45 161.46 152.33 179.32 154.05 182.74
  A 1.01 1.00 62.6 0 1 153.63 184.07
  Q 151.20 185.38 148.75 184.71
  L 129.77 146.06
  A 1.00 1.00 0.0 0 1 129.88 145.01
  L 130.46 144.25
  Q 137.78 140.63 145.18 137.14
  C 151.61 134.11 157.03 133.22 162.60 137.52
  C 170.01 143.22 169.93 153.29 164.50 160.54
  Z"
/>
<path fill="#000000" d="
  M 182.00 135.79
  Q 177.31 140.09 171.52 142.73
  A 1.00 0.99 -41.7 0 1 170.59 142.68
  Q 167.90 141.03 169.71 138.00
  Q 170.64 142.70 174.34 140.11
  Q 177.96 137.57 182.00 135.79
  Z"
/>
<rect fill="#ffffff" x="-0.90" y="-6.44" transform="translate(65.65,145.82) rotate(-0.6)" width="1.80" height="12.88" rx="0.65"/>
<path fill="#ffffff" d="
  M 37.60 151.35
  C 37.06 147.83 32.79 148.52 32.10 151.49
  A 1.00 0.99 -80.3 0 1 31.02 152.26
  L 30.63 152.22
  A 0.51 0.51 0.0 0 1 30.20 151.56
  C 30.38 150.97 34.41 132.95 36.75 141.59
  Q 38.07 146.49 39.66 151.31
  A 0.64 0.63 -12.1 0 1 39.12 152.14
  L 38.70 152.19
  A 1.01 1.00 -7.5 0 1 37.60 151.35
  Z
  M 33.95 144.67
  Q 32.85 147.04 35.10 147.50
  A 1.00 1.00 0.0 0 0 36.25 146.22
  L 35.81 144.80
  Q 35.04 142.32 33.95 144.67
  Z"
/>
<path fill="#ffffff" d="
  M 40.10 141.32
  Q 38.88 141.49 38.45 140.79
  A 0.80 0.80 0.0 0 1 39.09 139.57
  C 39.48 139.56 46.01 138.85 45.74 140.50
  A 0.80 0.80 0.0 0 1 45.17 141.14
  L 43.71 141.56
  A 1.01 1.00 81.7 0 0 42.98 142.54
  L 43.09 150.91
  A 0.96 0.92 61.1 0 1 42.95 151.44
  C 40.37 155.66 41.23 142.59 41.23 142.30
  A 1.01 1.00 85.9 0 0 40.10 141.32
  Z"
/>
<path fill="#ffffff" d="
  M 48.00 140.71
  C 48.80 138.27 50.55 139.68 51.00 141.20
  C 51.21 141.89 55.73 154.09 52.65 152.26
  A 0.97 0.96 -85.0 0 1 52.21 151.73
  L 51.64 150.06
  A 0.98 0.97 0.7 0 0 51.03 149.44
  Q 47.10 148.03 46.59 151.71
  A 0.64 0.63 -84.6 0 1 45.93 152.26
  L 45.67 152.25
  A 1.01 1.00 -80.4 0 1 44.76 150.96
  Q 46.31 145.80 48.00 140.71
  Z
  M 49.24 147.58
  C 51.73 147.59 49.39 138.56 48.25 146.43
  A 1.01 1.01 0.0 0 0 49.24 147.58
  Z"
/>
<path fill="#ffffff" d="
  M 61.06 143.43
  Q 60.94 141.16 58.46 141.38
  A 1.01 1.00 88.1 0 0 57.55 142.36
  C 57.52 143.92 58.15 152.34 56.33 152.42
  A 0.80 0.79 88.6 0 1 55.50 151.62
  L 55.50 140.43
  A 1.01 1.00 2.1 0 1 56.58 139.43
  L 60.99 139.77
  A 1.01 1.01 0.0 0 1 61.76 140.23
  Q 64.25 144.12 61.07 146.68
  A 1.01 1.01 0.0 0 0 60.81 147.94
  C 61.14 148.55 64.73 153.09 61.83 152.47
  A 1.00 0.98 -9.5 0 1 61.20 152.03
  L 58.24 147.48
  A 1.00 1.00 0.0 0 1 58.43 146.17
  L 60.71 144.24
  A 1.02 1.01 68.5 0 0 61.06 143.43
  Z"
/>
<path fill="#000000" d="
  M 161.79 153.75
  Q 162.24 148.97 159.49 145.21
  A 1.01 0.99 -17.1 0 0 158.70 144.80
  L 157.75 144.79
  L 155.65 143.40
  Q 152.99 141.79 149.94 143.10
  Q 146.19 143.35 143.00 145.71
  Q 140.48 147.36 137.08 148.10
  Q 141.68 144.25 148.76 141.54
  C 157.60 138.15 165.34 144.32 161.79 153.75
  Z"
/>
<path fill="#e21c24" d="
  M 49.24 147.58
  A 1.01 1.01 0.0 0 1 48.25 146.43
  C 49.39 138.56 51.73 147.59 49.24 147.58
  Z"
/>
<path fill="#e21c24" d="
  M 33.95 144.67
  Q 35.04 142.32 35.81 144.80
  L 36.25 146.22
  A 1.00 1.00 0.0 0 1 35.10 147.50
  Q 32.85 147.04 33.95 144.67
  Z"
/>
<path fill="#000000" d="
  M 130.46 144.25
  L 129.88 145.01
  A 1.00 1.00 0.0 0 0 129.77 146.06
  L 148.75 184.71
  Q 146.83 184.79 145.96 183.02
  Q 132.81 156.37 129.07 148.19
  Q 127.94 145.73 130.46 144.25
  Z"
/>
<path fill="#000000" d="
  M 157.71 148.50
  Q 157.48 150.21 156.17 151.26
  A 1.02 1.00 -59.1 0 1 155.36 151.47
  Q 152.51 150.93 149.98 152.11
  Q 149.98 151.03 150.62 150.02
  A 1.01 1.00 19.1 0 1 151.56 149.57
  Q 154.80 149.88 157.71 148.50
  Z"
/>
<path fill="#000000" d="
  M 142.96 153.75
  C 142.63 156.89 151.59 162.92 154.14 164.97
  Q 156.15 166.58 157.92 165.30
  L 164.50 160.54
  Q 161.11 165.79 155.06 167.83
  A 1.00 0.99 54.9 0 1 154.11 167.66
  L 143.48 158.89
  A 0.44 0.42 53.6 0 0 143.07 158.82
  Q 142.89 158.89 142.75 159.04
  L 142.00 157.04
  L 142.96 153.75
  Z"
/>
</svg>
