<?xml version="1.0" encoding="UTF-8" standalone="no"?>
<!DOCTYPE svg PUBLIC "-//W3C//DTD SVG 1.1//EN" "http://www.w3.org/Graphics/SVG/1.1/DTD/svg11.dtd">
<svg xmlns="http://www.w3.org/2000/svg" version="1.1" viewBox="0 0 500 200">
<g stroke-width="2.00" fill="none" stroke-linecap="butt">
<path stroke="#666a86" stroke-opacity="0.988" vector-effect="non-scaling-stroke" d="
  M 251.04 55.75
  L 250.25 56.29"
/>
<path stroke="#d5d5d8" stroke-opacity="0.988" vector-effect="non-scaling-stroke" d="
  M 250.25 56.29
  L 243.77 51.14
  A 1.68 1.67 47.0 0 0 241.78 51.07
  Q 235.88 55.11 231.86 60.57"
/>
<path stroke="#666a86" stroke-opacity="0.988" vector-effect="non-scaling-stroke" d="
  M 229.25 62.04
  L 228.21 61.50"
/>
<path stroke="#1b183e" vector-effect="non-scaling-stroke" d="
  M 271.00 74.21
  Q 270.65 74.29 270.45 74.54
  A 0.64 0.63 42.6 0 0 270.49 75.41
  L 274.45 79.18
  A 0.74 0.73 -56.0 0 1 274.61 80.02
  Q 274.48 80.29 274.21 80.50"
/>
<path stroke="#1b183e" vector-effect="non-scaling-stroke" d="
  M 211.25 79.54
  Q 210.70 79.19 210.19 79.43
  Q 206.35 81.23 206.72 85.21"
/>
<path stroke="#8f93ab" vector-effect="non-scaling-stroke" d="
  M 250.25 56.29
  L 252.04 59.25"
/>
<path stroke="#f1a3e7" vector-effect="non-scaling-stroke" d="
  M 253.15 61.60
  Q 248.08 58.16 243.71 53.71
  A 1.22 1.22 0.0 0 0 242.06 53.63
  L 229.93 63.82"
/>
<path stroke="#833a96" vector-effect="non-scaling-stroke" d="
  M 273.75 80.04
  L 274.21 80.50"
/>
<path stroke="#7d287a" vector-effect="non-scaling-stroke" d="
  M 274.21 80.50
  C 274.39 81.52 264.55 84.09 263.21 84.50"
/>
<path stroke="#813188" vector-effect="non-scaling-stroke" d="
  M 263.21 84.50
  L 253.75 87.29"
/>
<path stroke="#833a96" vector-effect="non-scaling-stroke" d="
  M 253.75 87.29
  C 249.98 88.31 244.57 90.72 240.71 89.72
  Q 236.86 88.71 233.00 87.71"
/>
<path stroke="#813188" vector-effect="non-scaling-stroke" d="
  M 233.00 87.71
  L 221.83 84.32"
/>
<path stroke="#7d287a" vector-effect="non-scaling-stroke" d="
  M 221.83 84.32
  C 220.86 83.97 211.51 81.73 211.50 80.46"
/>
<path stroke="#190f31" vector-effect="non-scaling-stroke" d="
  M 221.83 84.32
  L 219.25 86.83
  A 1.29 1.26 70.8 0 0 218.87 87.64
  L 218.52 91.68
  A 0.72 0.72 0.0 0 1 217.65 92.32
  L 216.38 92.04
  Q 215.94 91.94 216.16 92.34
  C 216.45 92.88 218.63 93.58 219.31 93.76"
/>
<path stroke="#0f7582" vector-effect="non-scaling-stroke" d="
  M 219.31 93.76
  L 231.91 101.65
  A 0.27 0.26 37.2 0 1 231.97 102.05
  L 231.75 102.29"
/>
<path stroke="#846088" stroke-opacity="0.996" vector-effect="non-scaling-stroke" d="
  M 231.75 102.29
  L 211.85 93.37"
/>
<path stroke="#7f2362" vector-effect="non-scaling-stroke" d="
  M 211.85 93.37
  Q 211.23 92.19 209.78 91.92"
/>
<path stroke="#7d287a" vector-effect="non-scaling-stroke" d="
  M 273.50 92.96
  L 270.46 95.50"
/>
<path stroke="#846088" stroke-opacity="0.996" vector-effect="non-scaling-stroke" d="
  M 270.46 95.50
  L 268.75 95.54"
/>
<path stroke="#7f2362" vector-effect="non-scaling-stroke" d="
  M 268.75 95.54
  L 267.50 96.29"
/>
<path stroke="#1b183e" vector-effect="non-scaling-stroke" d="
  M 267.50 96.29
  Q 261.76 97.74 256.75 100.96"
/>
<path stroke="#3a0f86" vector-effect="non-scaling-stroke" d="
  M 256.75 100.96
  L 254.23 101.76
  A 0.25 0.25 0.0 0 1 253.90 101.47
  C 253.99 101.05 261.79 96.93 265.93 94.61
  A 0.23 0.23 0.0 0 0 266.03 94.33
  L 265.92 94.05
  A 0.36 0.36 0.0 0 0 265.52 93.82
  Q 264.96 93.91 264.50 94.29"
/>
<path stroke="#190f31" vector-effect="non-scaling-stroke" d="
  M 264.50 94.29
  Q 263.03 91.22 265.94 89.99
  A 1.41 1.36 -87.7 0 0 266.64 89.32
  Q 267.58 87.38 266.11 86.09
  A 0.90 0.87 60.0 0 0 265.41 85.89
  Q 263.61 86.20 263.21 84.50"
/>
<path stroke="#1f204d" vector-effect="non-scaling-stroke" d="
  M 233.00 87.71
  Q 231.72 88.08 232.25 89.21"
/>
<path stroke="#3e1795" vector-effect="non-scaling-stroke" d="
  M 232.25 89.21
  L 231.78 89.39
  Q 231.31 89.56 231.72 89.86
  L 233.25 90.96"
/>
<path stroke="#1f204d" vector-effect="non-scaling-stroke" d="
  M 233.25 90.96
  Q 231.07 92.83 232.15 95.71
  A 1.41 1.38 -86.0 0 0 232.78 96.45
  Q 235.86 98.23 239.42 97.69
  A 0.75 0.74 70.1 0 1 240.18 98.05
  Q 241.32 100.05 243.46 99.75"
/>
<path stroke="#137d90" vector-effect="non-scaling-stroke" d="
  M 243.46 99.75
  L 243.96 99.25"
/>
<path stroke="#1f204d" vector-effect="non-scaling-stroke" d="
  M 243.96 99.25
  Q 244.04 99.46 244.26 99.52
  A 0.53 0.53 0.0 0 0 244.86 99.28
  Q 245.50 98.21 246.55 97.58
  Q 246.97 97.33 247.46 97.28
  L 252.43 96.87
  Q 255.16 96.64 254.00 94.16
  L 252.50 90.96"
/>
<path stroke="#3e1795" vector-effect="non-scaling-stroke" d="
  M 252.50 90.96
  Q 253.67 90.38 254.04 89.25"
/>
<path stroke="#1f204d" vector-effect="non-scaling-stroke" d="
  M 254.04 89.25
  L 253.75 87.29"
/>
<path stroke="#3e1795" vector-effect="non-scaling-stroke" d="
  M 264.50 94.29
  L 248.75 103.21"
/>
<path stroke="#137d90" vector-effect="non-scaling-stroke" d="
  M 248.75 103.21
  L 244.33 105.46
  A 2.99 2.97 45.2 0 1 241.57 105.44
  L 219.31 93.76"
/>
<path stroke="#4020a2" vector-effect="non-scaling-stroke" d="
  M 254.04 89.25
  L 243.80 94.80
  A 1.91 1.89 -44.1 0 1 241.96 94.78
  L 232.25 89.21"
/>
<path stroke="#7ed0e8" stroke-opacity="0.996" vector-effect="non-scaling-stroke" d="
  M 231.75 102.29
  L 240.46 107.50"
/>
<path stroke="#8a72a4" stroke-opacity="0.996" vector-effect="non-scaling-stroke" d="
  M 240.46 107.50
  Q 240.21 108.83 240.96 109.75"
/>
<path stroke="#846088" stroke-opacity="0.996" vector-effect="non-scaling-stroke" d="
  M 240.96 109.75
  L 241.46 116.00"
/>
<path stroke="#ec82e0" stroke-opacity="0.996" vector-effect="non-scaling-stroke" d="
  M 241.46 116.00
  C 240.52 116.20 239.68 111.81 239.17 110.78
  Q 238.95 110.34 238.55 110.06
  Q 236.63 108.74 235.79 106.50"
/>
<path stroke="#8a72a4" stroke-opacity="0.996" vector-effect="non-scaling-stroke" d="
  M 235.79 106.50
  L 237.70 107.44
  Q 238.07 107.62 237.84 107.27
  Q 236.76 105.65 234.75 105.35"
/>
<path stroke="#ec82e0" stroke-opacity="0.996" vector-effect="non-scaling-stroke" d="
  M 234.75 105.35
  Q 232.31 105.87 232.16 103.87
  A 0.47 0.47 0.0 0 0 231.65 103.44
  Q 229.54 103.63 227.75 102.40
  A 0.27 0.26 -64.2 0 1 227.65 102.09
  Q 227.79 101.70 227.75 101.27
  Q 227.72 100.91 227.46 101.16
  L 227.19 101.43
  A 0.78 0.76 35.4 0 1 226.29 101.57
  L 219.75 98.29"
/>
<path stroke="#ed7dc8" stroke-opacity="0.996" vector-effect="non-scaling-stroke" d="
  M 211.85 93.37
  Q 215.15 96.73 219.75 98.29"
/>
<path stroke="#e745ba" vector-effect="non-scaling-stroke" d="
  M 219.75 98.29
  Q 219.58 100.69 217.21 101.25"
/>
<path stroke="#e745ba" vector-effect="non-scaling-stroke" d="
  M 196.75 93.79
  L 198.00 91.29"
/>
<path stroke="#347de6" vector-effect="non-scaling-stroke" d="
  M 248.75 103.21
  L 249.72 103.62
  A 0.50 0.50 0.0 0 1 249.99 104.28
  L 249.79 104.75"
/>
<path stroke="#7ed0e8" stroke-opacity="0.996" vector-effect="non-scaling-stroke" d="
  M 247.00 108.29
  L 245.04 109.75"
/>
<path stroke="#15869e" vector-effect="non-scaling-stroke" d="
  M 245.04 109.75
  L 244.62 107.61
  A 0.40 0.40 0.0 0 0 244.00 107.36
  Q 242.36 108.56 241.03 106.88
  Q 240.63 106.38 240.48 106.99
  Q 240.41 107.24 240.46 107.50"
/>
<path stroke="#e745ba" vector-effect="non-scaling-stroke" d="
  M 266.00 102.46
  Q 265.12 101.56 264.00 101.98
  A 0.54 0.53 64.5 0 1 263.35 101.74
  Q 262.60 100.42 261.00 100.71"
/>
<path stroke="#85357e" vector-effect="non-scaling-stroke" d="
  M 264.54 98.50
  Q 266.44 97.85 267.50 96.29"
/>
<path stroke="#ed7dc8" stroke-opacity="0.996" vector-effect="non-scaling-stroke" d="
  M 268.75 95.54
  L 268.65 96.01
  A 0.43 0.43 0.0 0 0 269.04 96.53
  Q 269.88 96.61 270.50 95.96"
/>
<path stroke="#4020a2" vector-effect="non-scaling-stroke" d="
  M 256.75 100.96
  L 257.04 101.50"
/>
<path stroke="#e745ba" vector-effect="non-scaling-stroke" d="
  M 286.50 94.71
  Q 285.53 93.59 286.37 92.62
  A 0.27 0.26 25.9 0 0 286.22 92.19
  C 279.88 90.97 276.68 92.71 270.50 95.96"
/>
<path stroke="#ec82e0" stroke-opacity="0.996" vector-effect="non-scaling-stroke" d="
  M 270.50 95.96
  L 270.46 95.50"
/>
<path stroke="#15869e" vector-effect="non-scaling-stroke" d="
  M 243.96 99.25
  Q 244.07 98.72 243.90 98.26
  A 0.81 0.81 0.0 0 0 243.18 97.72
  C 241.57 97.62 241.56 100.04 243.46 99.75"
/>
<path stroke="#4020a2" vector-effect="non-scaling-stroke" d="
  M 252.50 90.96
  L 243.49 96.11
  A 1.45 1.43 -44.7 0 1 242.06 96.11
  L 233.25 90.96"
/>
<path stroke="#833a96" vector-effect="non-scaling-stroke" d="
  M 234.75 105.35
  L 235.79 106.50"
/>
<path stroke="#7d287a" vector-effect="non-scaling-stroke" d="
  M 241.46 116.00
  L 241.54 116.50"
/>
<path stroke="#c97ac2" stroke-opacity="0.988" vector-effect="non-scaling-stroke" d="
  M 241.54 116.50
  L 242.00 117.79"
/>
<path stroke="#f1a3e7" vector-effect="non-scaling-stroke" d="
  M 242.00 117.79
  L 242.29 120.75"
/>
<path stroke="#ec82e0" stroke-opacity="0.996" vector-effect="non-scaling-stroke" d="
  M 242.29 120.75
  L 242.29 121.00"
/>
<path stroke="#833a96" vector-effect="non-scaling-stroke" d="
  M 242.29 121.00
  L 242.54 123.25"
/>
<path stroke="#ec82e0" stroke-opacity="0.996" vector-effect="non-scaling-stroke" d="
  M 242.54 123.25
  Q 242.33 124.30 242.59 125.27
  Q 242.74 125.81 243.02 125.33
  Q 244.29 123.13 243.46 120.50"
/>
<path stroke="#f1a3e7" vector-effect="non-scaling-stroke" d="
  M 243.46 120.50
  L 243.70 117.99
  A 0.55 0.54 8.7 0 0 243.26 117.40
  L 242.54 117.25"
/>
<path stroke="#c97ac2" stroke-opacity="0.988" vector-effect="non-scaling-stroke" d="
  M 242.54 117.25
  L 243.25 116.79"
/>
<path stroke="#7d287a" vector-effect="non-scaling-stroke" d="
  M 243.25 116.79
  Q 244.65 115.83 243.98 114.28"
/>
<path stroke="#833a96" vector-effect="non-scaling-stroke" d="
  M 243.98 114.28
  L 244.71 113.25"
/>
<path stroke="#ec82e0" stroke-opacity="0.996" vector-effect="non-scaling-stroke" d="
  M 244.71 113.25
  L 244.78 114.05
  A 0.23 0.22 -1.4 0 0 245.00 114.25
  L 245.28 114.26
  A 0.31 0.30 -87.1 0 0 245.59 113.97
  Q 245.76 110.23 248.85 108.45
  C 249.43 108.12 249.83 107.51 249.25 106.96"
/>
<path stroke="#7d287a" vector-effect="non-scaling-stroke" d="
  M 251.79 110.75
  Q 250.54 112.64 250.50 114.96"
/>
<path stroke="#c97ac2" stroke-opacity="0.988" vector-effect="non-scaling-stroke" d="
  M 255.00 118.21
  L 255.50 118.71"
/>
<path stroke="#ec82e0" stroke-opacity="0.996" vector-effect="non-scaling-stroke" d="
  M 246.04 129.75
  Q 246.05 130.12 245.89 130.43"
/>
<path stroke="#ec82e0" stroke-opacity="0.996" vector-effect="non-scaling-stroke" d="
  M 239.75 130.54
  L 239.71 129.50"
/>
<path stroke="#ec82e0" stroke-opacity="0.996" vector-effect="non-scaling-stroke" d="
  M 237.21 121.50
  L 236.96 120.25"
/>
<path stroke="#7d287a" vector-effect="non-scaling-stroke" d="
  M 235.50 115.71
  L 234.71 113.00"
/>
<path stroke="#c97ac2" stroke-opacity="0.988" vector-effect="non-scaling-stroke" d="
  M 234.71 113.00
  Q 234.91 111.43 233.79 110.50"
/>
<path stroke="#8a72a4" stroke-opacity="0.996" vector-effect="non-scaling-stroke" d="
  M 245.04 109.75
  L 244.71 113.25"
/>
<path stroke="#1b183e" vector-effect="non-scaling-stroke" d="
  M 243.98 114.28
  L 243.69 109.54
  A 0.61 0.60 -88.3 0 0 243.16 108.97
  Q 241.89 108.80 240.96 109.75"
/>
<path stroke="#5f5869" stroke-opacity="0.988" vector-effect="non-scaling-stroke" d="
  M 243.25 116.79
  L 241.54 116.50"
/>
<path stroke="#f8dcf6" stroke-opacity="0.996" vector-effect="non-scaling-stroke" d="
  M 243.46 120.50
  L 242.29 120.75"
/>
<path stroke="#d5d5d8" stroke-opacity="0.988" vector-effect="non-scaling-stroke" d="
  M 242.54 117.25
  L 242.00 117.79"
/>
<path stroke="#8a72a4" stroke-opacity="0.996" vector-effect="non-scaling-stroke" d="
  M 242.54 123.25
  L 242.92 121.62
  A 0.44 0.43 16.1 0 0 242.64 121.12
  L 242.29 121.00"
/>
<path stroke="#1b183e" vector-effect="non-scaling-stroke" d="
  M 261.25 112.29
  Q 259.53 112.01 258.25 112.96"
/>
<path stroke="#1b183e" vector-effect="non-scaling-stroke" d="
  M 229.00 108.54
  L 233.21 111.50"
/>
<path stroke="#5f5869" stroke-opacity="0.988" vector-effect="non-scaling-stroke" d="
  M 233.21 111.50
  L 234.71 113.00"
/>
<path stroke="#1b183e" vector-effect="non-scaling-stroke" d="
  M 234.75 115.71
  L 234.89 115.49
  Q 235.02 115.30 234.79 115.34
  C 230.62 116.07 227.19 112.85 225.71 109.25"
/>
<path stroke="#d0b4d1" stroke-opacity="0.984" vector-effect="non-scaling-stroke" d="
  M 223.71 117.50
  L 222.25 117.21"
/>
<path stroke="#1b183e" vector-effect="non-scaling-stroke" d="
  M 263.04 110.00
  L 262.25 108.04"
/>
<path stroke="#666a86" stroke-opacity="0.988" vector-effect="non-scaling-stroke" d="
  M 265.50 107.54
  Q 263.77 107.14 262.25 108.04"
/>
<path stroke="#5f5869" stroke-opacity="0.988" vector-effect="non-scaling-stroke" d="
  M 262.25 108.04
  L 257.46 107.75"
/>
<path stroke="#5ac8cb" stroke-opacity="0.984" vector-effect="non-scaling-stroke" d="
  M 225.25 107.79
  L 225.50 108.54"
/>
<path stroke="#0f7582" vector-effect="non-scaling-stroke" d="
  M 225.50 108.54
  L 225.71 109.25"
/>
<path stroke="#15869e" vector-effect="non-scaling-stroke" d="
  M 225.71 109.25
  L 225.29 109.25"
/>
<path stroke="#666a86" stroke-opacity="0.988" vector-effect="non-scaling-stroke" d="
  M 229.54 108.25
  L 229.00 108.54"
/>
<path stroke="#5f5869" stroke-opacity="0.988" vector-effect="non-scaling-stroke" d="
  M 229.00 108.54
  Q 227.13 107.01 225.50 108.54"
/>
<path stroke="#666a86" stroke-opacity="0.988" vector-effect="non-scaling-stroke" d="
  M 233.71 110.75
  L 233.21 111.50"
/>
<path stroke="#f8dcf6" stroke-opacity="0.996" vector-effect="non-scaling-stroke" d="
  M 222.00 111.79
  Q 224.13 114.38 222.25 117.21"
/>
<path stroke="#d5d5d8" stroke-opacity="0.988" vector-effect="non-scaling-stroke" d="
  M 222.25 117.21
  Q 220.43 118.23 218.50 117.29"
/>
<path stroke="#8f93ab" vector-effect="non-scaling-stroke" d="
  M 218.50 117.29
  L 215.79 114.50"
/>
<path stroke="#8f93ab" vector-effect="non-scaling-stroke" d="
  M 215.46 113.75
  L 215.50 112.00"
/>
<path stroke="#d0b4d1" stroke-opacity="0.984" vector-effect="non-scaling-stroke" d="
  M 223.25 112.46
  L 222.00 111.79"
/>
<path stroke="#d5d5d8" stroke-opacity="0.988" vector-effect="non-scaling-stroke" d="
  M 222.00 111.79
  C 219.83 109.57 216.69 108.42 215.50 112.00"
/>
<path stroke="#d0b4d1" stroke-opacity="0.984" vector-effect="non-scaling-stroke" d="
  M 214.25 109.54
  Q 214.51 110.53 215.24 110.44
  A 0.35 0.35 0.0 0 1 215.63 110.83
  L 215.50 112.00"
/>
<path stroke="#8a72a4" stroke-opacity="0.996" vector-effect="non-scaling-stroke" d="
  M 215.50 112.00
  L 214.04 112.00"
/>
<path stroke="#666a86" stroke-opacity="0.988" vector-effect="non-scaling-stroke" d="
  M 218.50 117.29
  Q 217.40 117.53 216.72 116.60
  Q 216.35 116.10 216.33 116.72
  Q 216.33 116.96 216.46 117.25"
/>
<path stroke="#347de6" vector-effect="non-scaling-stroke" d="
  M 155.25 150.71
  Q 153.80 151.22 152.00 150.95
  A 1.06 1.05 -85.0 0 0 150.79 151.97
  C 150.76 153.04 150.93 163.87 150.53 163.98
  A 0.51 0.50 76.2 0 1 149.90 163.59
  L 149.54 161.75"
/>
<path stroke="#ad1077" vector-effect="non-scaling-stroke" d="
  M 137.75 150.96
  L 137.54 151.10
  A 0.67 0.66 73.9 0 0 137.25 151.63
  Q 137.21 155.40 140.60 157.09
  A 0.24 0.23 -62.3 0 0 140.91 156.99
  L 141.04 156.75"
/>
<path stroke="#ad1077" vector-effect="non-scaling-stroke" d="
  M 141.50 157.21
  Q 142.14 158.99 144.00 158.96"
/>
<path stroke="#ad1077" vector-effect="non-scaling-stroke" d="
  M 156.75 151.04
  L 156.46 175.75"
/>
<path stroke="#3965d6" stroke-opacity="0.980" vector-effect="non-scaling-stroke" d="
  M 150.46 175.00
  Q 151.67 172.66 149.75 171.29"
/>
<path stroke="#ad1077" vector-effect="non-scaling-stroke" d="
  M 138.30 163.24
  Q 136.89 169.52 137.50 175.96"
/>
<path stroke="#3965d6" stroke-opacity="0.980" vector-effect="non-scaling-stroke" d="
  M 136.25 150.71
  L 132.20 151.00
  A 0.78 0.76 -2.5 0 0 131.49 151.76
  L 131.44 175.10"
/>
<path stroke="#347de6" vector-effect="non-scaling-stroke" d="
  M 126.50 150.71
  L 122.44 151.13
  A 0.64 0.64 0.0 0 0 121.88 151.69
  L 121.46 155.50"
/>
<path stroke="#ad1077" vector-effect="non-scaling-stroke" d="
  M 128.18 150.92
  L 127.50 156.71"
/>
<path stroke="#3965d6" stroke-opacity="0.980" vector-effect="non-scaling-stroke" d="
  M 125.96 157.50
  L 124.29 157.50"
/>
<path stroke="#3965d6" stroke-opacity="0.980" vector-effect="non-scaling-stroke" d="
  M 126.50 158.46
  L 122.34 159.15
  A 0.63 0.63 0.0 0 0 121.82 159.76
  L 121.46 174.75"
/>
<path stroke="#ad1077" vector-effect="non-scaling-stroke" d="
  M 128.25 158.71
  L 128.00 158.98
  A 0.95 0.94 66.6 0 0 127.75 159.62
  L 127.71 175.75"
/>
<path stroke="#347de6" vector-effect="non-scaling-stroke" d="
  M 184.25 150.71
  C 179.73 150.98 162.44 150.08 160.46 151.25"
/>
<path stroke="#0dced2" stroke-opacity="0.980" vector-effect="non-scaling-stroke" d="
  M 160.46 151.25
  L 160.19 151.22
  A 0.44 0.43 -6.8 0 1 159.80 150.92
  L 159.55 150.15"
/>
<path stroke="#ad1077" vector-effect="non-scaling-stroke" d="
  M 185.75 151.04
  L 185.25 156.71"
/>
<path stroke="#ad1077" vector-effect="non-scaling-stroke" d="
  M 168.00 156.79
  C 165.96 156.20 166.26 158.08 166.29 159.25"
/>
<path stroke="#3965d6" stroke-opacity="0.980" vector-effect="non-scaling-stroke" d="
  M 166.29 159.25
  L 166.23 159.58
  A 0.86 0.85 -85.1 0 0 167.09 160.61
  C 171.50 160.49 182.48 161.35 184.50 160.29"
/>
<path stroke="#ad1077" vector-effect="non-scaling-stroke" d="
  M 186.00 160.54
  C 185.21 161.25 185.43 172.85 185.25 175.71"
/>
<path stroke="#3965d6" stroke-opacity="0.980" vector-effect="non-scaling-stroke" d="
  M 159.89 175.32
  Q 161.10 172.60 160.46 171.26
  A 0.88 0.87 77.3 0 1 161.25 170.01
  L 177.75 169.99
  Q 179.77 169.99 179.78 167.98
  Q 179.79 165.90 177.75 166.54"
/>
<path stroke="#3965d6" stroke-opacity="0.980" vector-effect="non-scaling-stroke" d="
  M 160.46 151.25
  L 160.41 165.52"
/>
<path stroke="#8a5e61" stroke-opacity="0.980" vector-effect="non-scaling-stroke" d="
  M 166.50 159.29
  L 166.29 159.25"
/>
<path stroke="#347de6" vector-effect="non-scaling-stroke" d="
  M 213.25 150.71
  L 190.37 150.93
  A 0.95 0.95 0.0 0 0 189.43 151.87
  L 188.98 175.56"
/>
<path stroke="#0dced2" stroke-opacity="0.980" vector-effect="non-scaling-stroke" d="
  M 188.29 171.00
  Q 189.40 167.50 188.29 164.00"
/>
<path stroke="#ad1077" vector-effect="non-scaling-stroke" d="
  M 214.50 151.04
  L 214.67 156.80"
/>
<path stroke="#ad1077" vector-effect="non-scaling-stroke" d="
  M 196.54 157.50
  Q 196.55 157.04 196.08 156.72
  Q 194.90 155.91 194.94 157.35
  L 195.26 168.48
  A 0.56 0.56 0.0 0 0 195.86 169.02
  Q 196.17 169.00 196.46 168.75"
/>
<path stroke="#ad1077" vector-effect="non-scaling-stroke" d="
  M 214.75 170.29
  L 214.43 175.89"
/>
<path stroke="#347de6" vector-effect="non-scaling-stroke" d="
  M 242.07 150.57
  Q 230.42 151.43 218.73 150.85
  A 0.55 0.54 -88.0 0 0 218.16 151.39
  L 217.72 175.31"
/>
<path stroke="#ad1077" vector-effect="non-scaling-stroke" d="
  M 243.00 151.04
  L 243.04 171.00"
/>
<path stroke="#ad1077" vector-effect="non-scaling-stroke" d="
  M 240.50 171.54
  Q 240.08 171.12 239.52 171.33
  A 0.44 0.44 0.0 0 0 239.34 172.02
  L 242.50 175.71"
/>
<path stroke="#ad1077" vector-effect="non-scaling-stroke" d="
  M 225.64 171.34
  Q 222.83 172.36 224.00 175.96"
/>
<path stroke="#347de6" vector-effect="non-scaling-stroke" d="
  M 251.25 150.54
  L 247.71 151.23
  A 0.66 0.65 88.2 0 0 247.19 151.79
  L 246.71 155.50"
/>
<path stroke="#ad1077" vector-effect="non-scaling-stroke" d="
  M 253.25 151.04
  Q 252.62 153.78 253.26 156.82"
/>
<path stroke="#347de6" vector-effect="non-scaling-stroke" d="
  M 280.52 150.56
  Q 268.87 151.33 257.25 150.99
  Q 256.66 150.97 256.46 151.50"
/>
<path stroke="#0dced2" stroke-opacity="0.980" vector-effect="non-scaling-stroke" d="
  M 256.46 151.50
  Q 256.04 151.03 255.82 150.17"
/>
<path stroke="#3965d6" stroke-opacity="0.980" vector-effect="non-scaling-stroke" d="
  M 256.46 151.50
  Q 257.12 163.17 256.51 175.10"
/>
<path stroke="#ad1077" vector-effect="non-scaling-stroke" d="
  M 282.24 150.98
  Q 281.38 161.16 281.75 171.21"
/>
<path stroke="#ad1077" vector-effect="non-scaling-stroke" d="
  M 264.09 171.23
  Q 261.28 172.33 262.50 175.96"
/>
<path stroke="#347de6" vector-effect="non-scaling-stroke" d="
  M 309.27 150.54
  L 286.27 151.07
  A 0.59 0.58 -88.9 0 0 285.71 151.61
  L 285.40 156.24"
/>
<path stroke="#ad1077" vector-effect="non-scaling-stroke" d="
  M 310.75 151.04
  L 310.97 156.89"
/>
<path stroke="#ad1077" vector-effect="non-scaling-stroke" d="
  M 302.50 157.04
  C 301.52 156.45 300.99 157.05 301.01 158.02
  Q 301.13 166.99 301.00 175.96"
/>
<path stroke="#347de6" vector-effect="non-scaling-stroke" d="
  M 294.96 175.00
  Q 296.03 165.95 294.38 156.94"
/>
<path stroke="#3965d6" stroke-opacity="0.980" vector-effect="non-scaling-stroke" d="
  M 319.25 150.71
  Q 317.68 151.23 315.93 150.97
  A 1.33 1.33 0.0 0 0 314.45 152.61
  Q 314.78 153.89 314.21 156.00"
/>
<path stroke="#ad1077" vector-effect="non-scaling-stroke" d="
  M 320.50 151.04
  L 320.25 156.71"
/>
<path stroke="#347de6" vector-effect="non-scaling-stroke" d="
  M 347.50 150.54
  C 347.22 151.29 327.07 151.01 324.89 151.02
  A 0.90 0.89 -0.0 0 0 323.99 151.91
  L 323.96 164.50"
/>
<path stroke="#ad1077" vector-effect="non-scaling-stroke" d="
  M 349.00 151.04
  L 349.00 175.96"
/>
<path stroke="#347de6" vector-effect="non-scaling-stroke" d="
  M 357.25 150.54
  Q 355.82 151.60 354.02 150.61
  A 1.01 1.01 0.0 0 0 352.52 151.48
  L 352.46 155.75"
/>
<path stroke="#ad1077" vector-effect="non-scaling-stroke" d="
  M 359.00 151.04
  Q 358.21 153.48 359.10 154.91
  Q 360.47 157.11 363.76 157.49"
/>
<path stroke="#ad1077" vector-effect="non-scaling-stroke" d="
  M 365.50 159.04
  Q 365.90 161.00 367.75 160.46"
/>
<path stroke="#ad1077" vector-effect="non-scaling-stroke" d="
  M 378.25 151.04
  L 378.00 175.96"
/>
<path stroke="#3965d6" stroke-opacity="0.980" vector-effect="non-scaling-stroke" d="
  M 371.71 174.75
  Q 372.76 172.58 371.00 171.29"
/>
<path stroke="#ad1077" vector-effect="non-scaling-stroke" d="
  M 360.29 164.00
  Q 359.94 163.19 359.37 163.17
  A 0.57 0.57 0.0 0 0 358.78 163.70
  Q 358.35 169.72 359.25 176.12"
/>
<path stroke="#3965d6" stroke-opacity="0.980" vector-effect="non-scaling-stroke" d="
  M 352.46 174.50
  Q 352.98 170.13 352.46 165.75"
/>
<path stroke="#347de6" vector-effect="non-scaling-stroke" d="
  M 376.75 150.71
  L 372.69 151.13
  A 0.70 0.69 2.3 0 0 372.09 151.68
  L 371.29 155.75"
/>
<path stroke="#347de6" vector-effect="non-scaling-stroke" d="
  M 319.54 158.50
  Q 317.77 159.32 315.70 158.62
  A 1.06 1.05 10.0 0 0 314.31 159.59
  L 313.89 175.16"
/>
<path stroke="#ad1077" vector-effect="non-scaling-stroke" d="
  M 320.46 158.52
  L 320.24 174.98
  A 0.46 0.45 -22.5 0 1 320.12 175.26
  L 319.87 175.49
  Q 319.71 175.66 319.93 175.71
  Q 320.19 175.76 320.25 175.96"
/>
<path stroke="#3965d6" stroke-opacity="0.980" vector-effect="non-scaling-stroke" d="
  M 251.30 158.50
  L 247.56 159.17
  A 0.62 0.61 -5.1 0 0 247.05 159.77
  L 246.98 175.14"
/>
<path stroke="#ad1077" vector-effect="non-scaling-stroke" d="
  M 253.36 158.95
  Q 252.37 167.54 253.48 176.01"
/>
<path stroke="#833a96" vector-effect="non-scaling-stroke" d="
  M 229.00 84.71
  Q 234.81 86.83 240.82 88.25
  C 244.77 89.20 251.19 86.50 255.04 85.25"
/>
<path stroke="#813188" vector-effect="non-scaling-stroke" d="
  M 255.04 85.25
  L 270.05 81.03
  Q 271.50 80.63 270.37 79.64
  L 243.54 56.21
  A 1.03 1.03 0.0 0 0 242.19 56.20
  L 214.79 79.83
  Q 213.83 80.66 215.06 80.99
  L 229.00 84.71"
/>
<path stroke="#1f204d" vector-effect="non-scaling-stroke" d="
  M 255.04 85.25
  C 252.27 80.25 247.76 71.97 240.48 74.53
  C 237.67 75.51 235.92 75.92 233.82 78.29
  C 231.73 80.66 230.55 81.86 229.00 84.71"
/>
<path stroke="#1f204d" vector-effect="non-scaling-stroke" d="
  M 248.25 66.29
  L 252.62 69.81
  A 0.25 0.24 -61.0 0 0 253.01 69.69
  C 253.09 69.43 249.05 66.25 248.54 65.75"
/>
<path stroke="#3e1795" vector-effect="non-scaling-stroke" d="
  M 248.54 65.75
  L 244.45 61.82
  Q 243.06 60.49 241.63 61.76
  L 231.90 70.42
  A 0.24 0.02 -40.9 0 0 231.74 70.58
  C 231.96 71.07 241.35 63.22 242.35 62.39
  A 0.66 0.65 -45.7 0 1 243.17 62.37
  L 248.25 66.29"
/>
<path stroke="#4020a2" vector-effect="non-scaling-stroke" d="
  M 248.54 65.75
  L 248.25 66.29"
/>
<path stroke="#4020a2" vector-effect="non-scaling-stroke" d="
  M 239.50 79.29
  Q 239.09 79.41 239.03 79.48
  C 233.60 85.66 243.19 89.10 247.46 84.64
  A 0.74 0.73 53.5 0 0 247.58 83.81
  Q 247.27 83.20 246.71 83.00"
/>
<path stroke="#15869e" vector-effect="non-scaling-stroke" d="
  M 246.71 83.00
  C 247.75 78.33 242.61 77.08 239.50 79.29"
/>
<path stroke="#347de6" vector-effect="non-scaling-stroke" d="
  M 246.71 83.00
  C 244.11 88.97 237.17 85.20 239.50 79.29"
/>
<path stroke="#3e1795" vector-effect="non-scaling-stroke" d="
  M 225.00 88.96
  L 227.68 89.44
  Q 228.37 89.57 227.88 89.06
  Q 227.16 88.31 226.04 88.25"
/>
<path stroke="#137d90" vector-effect="non-scaling-stroke" d="
  M 226.04 88.25
  Q 223.15 85.38 220.37 87.67
  A 0.41 0.40 43.4 0 0 220.39 88.31
  Q 222.42 89.80 225.00 88.96"
/>
<path stroke="#347de6" vector-effect="non-scaling-stroke" d="
  M 226.04 88.25
  L 225.00 88.96"
/>
<path stroke="#18657f" stroke-opacity="0.980" vector-effect="non-scaling-stroke" d="
  M 265.26 87.61
  C 262.09 85.70 260.76 87.66 258.00 88.98
  Q 257.57 89.18 258.04 89.13
  C 260.50 88.89 263.46 90.22 265.35 88.31
  A 0.45 0.45 0.0 0 0 265.26 87.61"
/>
<path stroke="#15869e" vector-effect="non-scaling-stroke" d="
  M 253.16 94.16
  Q 251.28 92.52 249.58 94.27
  Q 248.51 95.38 250.01 95.73
  Q 251.98 96.20 253.21 94.54
  A 0.29 0.28 38.0 0 0 253.16 94.16"
/>
<path stroke="#15869e" vector-effect="non-scaling-stroke" d="
  M 237.92 95.77
  C 236.73 94.34 234.84 92.89 232.90 93.98
  A 0.45 0.44 51.6 0 0 232.82 94.70
  Q 234.90 96.58 237.73 96.24
  Q 238.25 96.17 237.92 95.77"
/>
<path stroke="#145d70" stroke-opacity="0.980" vector-effect="non-scaling-stroke" d="
  M 231.8366 113.0422
  A 1.93 0.72 27.2 0 0 230.4491 111.5196
  A 1.93 0.72 27.2 0 0 228.4034 111.2778
  A 1.93 0.72 27.2 0 0 229.7909 112.8004
  A 1.93 0.72 27.2 0 0 231.8366 113.0422"
/>
<path stroke="#145d70" stroke-opacity="0.980" vector-effect="non-scaling-stroke" d="
  M 257.5223 111.1423
  A 2.23 0.65 -28.9 0 0 255.2559 111.6509
  A 2.23 0.65 -28.9 0 0 253.6177 113.2977
  A 2.23 0.65 -28.9 0 0 255.8841 112.7891
  A 2.23 0.65 -28.9 0 0 257.5223 111.1423"
/>
<path stroke="#8460cf" stroke-opacity="0.988" vector-effect="non-scaling-stroke" d="
  M 330.29 169.00
  L 330.80 169.61
  A 0.48 0.47 -34.8 0 0 331.42 169.72
  L 331.79 169.50"
/>
<path stroke="#347de6" vector-effect="non-scaling-stroke" d="
  M 341.41 169.50
  C 343.69 170.90 342.99 168.67 343.13 167.91
  Q 344.13 162.36 342.21 157.25"
/>
<path stroke="#ad1077" vector-effect="non-scaling-stroke" d="
  M 331.29 157.00
  Q 331.12 156.64 330.69 156.76
  A 0.87 0.87 0.0 0 0 330.07 157.61
  L 330.29 169.00"
/>
<path stroke="#d5595a" stroke-opacity="0.984" vector-effect="non-scaling-stroke" d="
  M 331.21 168.50
  L 330.29 169.00"
/>
<path stroke="#5a15e0" stroke-opacity="0.945" vector-effect="non-scaling-stroke" d="
  M 166.91 161.25
  L 164.96 161.25
  A 0.66 0.65 2.4 0 0 164.30 161.85
  Q 164.16 163.36 162.50 163.54
  A 0.52 0.51 -84.2 0 0 162.05 163.91
  L 161.91 164.38
  A 0.55 0.55 0.0 0 0 162.39 165.09
  C 164.48 165.29 178.46 166.87 180.76 163.89
  A 0.59 0.59 0.0 0 0 180.71 163.11
  C 178.35 160.77 170.26 161.40 166.64 160.79
  Q 165.36 160.58 166.60 160.95
  L 166.94 161.05
  Q 167.62 161.25 166.91 161.25"
/>
<path stroke="#347de6" vector-effect="non-scaling-stroke" d="
  M 224.50 164.29
  Q 224.43 164.59 224.51 164.95
  A 0.67 0.66 -7.0 0 0 225.17 165.46
  L 236.23 165.20
  A 1.04 1.03 4.0 0 0 237.23 164.34
  Q 237.86 160.43 236.48 156.97"
/>
<path stroke="#ad1077" vector-effect="non-scaling-stroke" d="
  M 225.23 156.94
  Q 222.65 160.23 224.50 164.29"
/>
<path stroke="#837673" stroke-opacity="0.996" vector-effect="non-scaling-stroke" d="
  M 225.46 163.75
  L 224.50 164.29"
/>
<path stroke="#347de6" vector-effect="non-scaling-stroke" d="
  M 262.54 164.00
  L 262.50 164.73
  A 0.48 0.48 0.0 0 0 262.98 165.25
  L 274.83 165.25
  A 0.90 0.90 0.0 0 0 275.73 164.28
  L 275.25 157.04"
/>
<path stroke="#ad1077" vector-effect="non-scaling-stroke" d="
  M 264.00 157.04
  Q 263.43 156.63 262.97 156.84
  A 0.80 0.79 78.1 0 0 262.50 157.57
  L 262.54 164.00"
/>
<path stroke="#837673" stroke-opacity="0.996" vector-effect="non-scaling-stroke" d="
  M 263.71 164.25
  L 262.54 164.00"
/>
</g>
<path fill="#acacb3" fill-opacity="0.973" d="
  M 251.04 55.75
  L 250.25 56.29
  L 243.77 51.14
  A 1.68 1.67 47.0 0 0 241.78 51.07
  Q 235.88 55.11 231.86 60.57
  Q 230.45 59.79 229.25 62.04
  L 228.21 61.50
  Q 232.71 56.71 237.94 52.74
  C 239.49 51.56 240.60 49.72 242.40 48.54
  A 0.66 0.66 0.0 0 1 243.22 48.61
  L 251.04 55.75
  Z"
/>
<path fill="#fcfcfc" d="
  M 250.25 56.29
  L 252.04 59.25
  L 253.15 61.60
  Q 248.08 58.16 243.71 53.71
  A 1.22 1.22 0.0 0 0 242.06 53.63
  L 229.93 63.82
  Q 230.55 62.03 231.86 60.57
  Q 235.88 55.11 241.78 51.07
  A 1.68 1.67 47.0 0 1 243.77 51.14
  L 250.25 56.29
  Z"
/>
<path fill="#e54ad1" d="
  M 253.15 61.60
  Q 257.06 65.49 270.00 77.50
  Q 272.09 79.44 273.75 80.04
  L 274.21 80.50
  C 274.39 81.52 264.55 84.09 263.21 84.50
  L 253.75 87.29
  C 249.98 88.31 244.57 90.72 240.71 89.72
  Q 236.86 88.71 233.00 87.71
  L 221.83 84.32
  C 220.86 83.97 211.51 81.73 211.50 80.46
  C 212.69 80.79 220.86 72.51 222.25 71.24
  Q 226.28 67.55 229.93 63.82
  L 242.06 53.63
  A 1.22 1.22 0.0 0 1 243.71 53.71
  Q 248.08 58.16 253.15 61.60
  Z
  M 229.00 84.71
  Q 234.81 86.83 240.82 88.25
  C 244.77 89.20 251.19 86.50 255.04 85.25
  L 270.05 81.03
  Q 271.50 80.63 270.37 79.64
  L 243.54 56.21
  A 1.03 1.03 0.0 0 0 242.19 56.20
  L 214.79 79.83
  Q 213.83 80.66 215.06 80.99
  L 229.00 84.71
  Z"
/>
<path fill="#21295a" d="
  M 251.04 55.75
  Q 261.38 64.59 271.00 74.21
  Q 270.65 74.29 270.45 74.54
  A 0.64 0.63 42.6 0 0 270.49 75.41
  L 274.45 79.18
  A 0.74 0.73 -56.0 0 1 274.61 80.02
  Q 274.48 80.29 274.21 80.50
  L 273.75 80.04
  Q 274.29 79.60 273.81 79.19
  Q 268.28 74.45 263.58 68.89
  C 259.57 64.14 256.42 62.50 252.68 58.98
  A 0.31 0.30 -49.3 0 0 252.23 59.02
  L 252.04 59.25
  L 250.25 56.29
  L 251.04 55.75
  Z"
/>
<path fill="#1d173f" d="
  M 255.04 85.25
  C 252.27 80.25 247.76 71.97 240.48 74.53
  C 237.67 75.51 235.92 75.92 233.82 78.29
  C 231.73 80.66 230.55 81.86 229.00 84.71
  L 215.06 80.99
  Q 213.83 80.66 214.79 79.83
  L 242.19 56.20
  A 1.03 1.03 0.0 0 1 243.54 56.21
  L 270.37 79.64
  Q 271.50 80.63 270.05 81.03
  L 255.04 85.25
  Z
  M 248.25 66.29
  L 252.62 69.81
  A 0.25 0.24 -61.0 0 0 253.01 69.69
  C 253.09 69.43 249.05 66.25 248.54 65.75
  L 244.45 61.82
  Q 243.06 60.49 241.63 61.76
  L 231.90 70.42
  A 0.24 0.02 -40.9 0 0 231.74 70.58
  C 231.96 71.07 241.35 63.22 242.35 62.39
  A 0.66 0.65 -45.7 0 1 243.17 62.37
  L 248.25 66.29
  Z"
/>
<path fill="#21295a" d="
  M 263.61 57.15
  Q 262.87 55.95 263.90 56.91
  L 266.33 59.17
  Q 268.73 61.40 265.94 59.55
  Q 264.51 58.61 263.61 57.15
  Z"
/>
<path fill="#acacb3" fill-opacity="0.973" d="
  M 221.49 57.98
  Q 220.98 59.18 219.80 59.47
  Q 219.24 59.60 219.50 59.09
  Q 220.29 57.55 221.84 57.04
  Q 222.68 56.77 222.03 57.37
  L 221.74 57.63
  Q 221.58 57.78 221.49 57.98
  Z"
/>
<path fill="#5e17ea" d="
  M 248.54 65.75
  L 248.25 66.29
  L 243.17 62.37
  A 0.66 0.65 -45.7 0 0 242.35 62.39
  C 241.35 63.22 231.96 71.07 231.74 70.58
  A 0.24 0.02 -40.9 0 1 231.90 70.42
  L 241.63 61.76
  Q 243.06 60.49 244.45 61.82
  L 248.54 65.75
  Z"
/>
<path fill="#21295a" d="
  M 228.21 61.50
  L 229.25 62.04
  Q 219.87 70.40 211.25 79.54
  Q 210.70 79.19 210.19 79.43
  Q 206.35 81.23 206.72 85.21
  C 205.83 83.99 205.72 82.94 206.83 81.75
  Q 216.89 70.96 228.21 61.50
  Z"
/>
<path fill="#f3bbef" fill-opacity="0.992" d="
  M 217.79 64.37
  C 217.85 65.13 210.40 73.06 209.29 74.29
  Q 208.20 75.50 209.03 74.10
  Q 212.35 68.50 217.16 64.12
  Q 217.72 63.61 217.79 64.37
  Z"
/>
<path fill="#acacb3" fill-opacity="0.973" d="
  M 276.38 74.23
  Q 276.77 74.95 276.23 74.34
  L 267.54 64.58
  A 0.18 0.18 0.0 0 1 267.54 64.33
  L 267.74 64.14
  A 0.07 0.06 -48.6 0 1 267.82 64.13
  Q 272.86 67.76 276.38 74.23
  Z"
/>
<path fill="#21295a" d="
  M 248.54 65.75
  C 249.05 66.25 253.09 69.43 253.01 69.69
  A 0.25 0.24 -61.0 0 1 252.62 69.81
  L 248.25 66.29
  L 248.54 65.75
  Z"
/>
<path fill="#21295a" d="
  M 255.04 85.25
  C 251.19 86.50 244.77 89.20 240.82 88.25
  Q 234.81 86.83 229.00 84.71
  C 230.55 81.86 231.73 80.66 233.82 78.29
  C 235.92 75.92 237.67 75.51 240.48 74.53
  C 247.76 71.97 252.27 80.25 255.04 85.25
  Z
  M 239.50 79.29
  Q 239.09 79.41 239.03 79.48
  C 233.60 85.66 243.19 89.10 247.46 84.64
  A 0.74 0.73 53.5 0 0 247.58 83.81
  Q 247.27 83.20 246.71 83.00
  C 247.75 78.33 242.61 77.08 239.50 79.29
  Z"
/>
<path fill="#150622" d="
  M 271.00 74.21
  L 279.34 82.26
  A 0.93 0.92 31.1 0 1 279.58 83.20
  L 277.80 88.81
  A 1.86 1.80 -13.1 0 1 277.25 89.66
  L 273.50 92.96
  L 270.46 95.50
  L 268.75 95.54
  L 267.50 96.29
  Q 261.76 97.74 256.75 100.96
  L 254.23 101.76
  A 0.25 0.25 0.0 0 1 253.90 101.47
  C 253.99 101.05 261.79 96.93 265.93 94.61
  A 0.23 0.23 0.0 0 0 266.03 94.33
  L 265.92 94.05
  A 0.36 0.36 0.0 0 0 265.52 93.82
  Q 264.96 93.91 264.50 94.29
  Q 263.03 91.22 265.94 89.99
  A 1.41 1.36 -87.7 0 0 266.64 89.32
  Q 267.58 87.38 266.11 86.09
  A 0.90 0.87 60.0 0 0 265.41 85.89
  Q 263.61 86.20 263.21 84.50
  C 264.55 84.09 274.39 81.52 274.21 80.50
  Q 274.48 80.29 274.61 80.02
  A 0.74 0.73 -56.0 0 0 274.45 79.18
  L 270.49 75.41
  A 0.64 0.63 42.6 0 1 270.45 74.54
  Q 270.65 74.29 271.00 74.21
  Z"
/>
<path fill="#09e4e2" fill-opacity="0.996" d="
  M 246.71 83.00
  C 244.11 88.97 237.17 85.20 239.50 79.29
  C 242.61 77.08 247.75 78.33 246.71 83.00
  Z"
/>
<path fill="#150622" d="
  M 211.25 79.54
  L 211.50 80.46
  C 211.51 81.73 220.86 83.97 221.83 84.32
  L 219.25 86.83
  A 1.29 1.26 70.8 0 0 218.87 87.64
  L 218.52 91.68
  A 0.72 0.72 0.0 0 1 217.65 92.32
  L 216.38 92.04
  Q 215.94 91.94 216.16 92.34
  C 216.45 92.88 218.63 93.58 219.31 93.76
  L 231.91 101.65
  A 0.27 0.26 37.2 0 1 231.97 102.05
  L 231.75 102.29
  L 211.85 93.37
  Q 211.23 92.19 209.78 91.92
  Q 207.48 88.95 206.72 85.21
  Q 206.35 81.23 210.19 79.43
  Q 210.70 79.19 211.25 79.54
  Z"
/>
<path fill="#5e17ea" d="
  M 239.50 79.29
  C 237.17 85.20 244.11 88.97 246.71 83.00
  Q 247.27 83.20 247.58 83.81
  A 0.74 0.73 53.5 0 1 247.46 84.64
  C 243.19 89.10 233.60 85.66 239.03 79.48
  Q 239.09 79.41 239.50 79.29
  Z"
/>
<path fill="#1d173f" d="
  M 221.83 84.32
  L 233.00 87.71
  Q 231.72 88.08 232.25 89.21
  L 231.78 89.39
  Q 231.31 89.56 231.72 89.86
  L 233.25 90.96
  Q 231.07 92.83 232.15 95.71
  A 1.41 1.38 -86.0 0 0 232.78 96.45
  Q 235.86 98.23 239.42 97.69
  A 0.75 0.74 70.1 0 1 240.18 98.05
  Q 241.32 100.05 243.46 99.75
  L 243.96 99.25
  Q 244.04 99.46 244.26 99.52
  A 0.53 0.53 0.0 0 0 244.86 99.28
  Q 245.50 98.21 246.55 97.58
  Q 246.97 97.33 247.46 97.28
  L 252.43 96.87
  Q 255.16 96.64 254.00 94.16
  L 252.50 90.96
  Q 253.67 90.38 254.04 89.25
  L 253.75 87.29
  L 263.21 84.50
  Q 263.61 86.20 265.41 85.89
  A 0.90 0.87 60.0 0 1 266.11 86.09
  Q 267.58 87.38 266.64 89.32
  A 1.41 1.36 -87.7 0 1 265.94 89.99
  Q 263.03 91.22 264.50 94.29
  L 248.75 103.21
  L 244.33 105.46
  A 2.99 2.97 45.2 0 1 241.57 105.44
  L 219.31 93.76
  C 218.63 93.58 216.45 92.88 216.16 92.34
  Q 215.94 91.94 216.38 92.04
  L 217.65 92.32
  A 0.72 0.72 0.0 0 0 218.52 91.68
  L 218.87 87.64
  A 1.29 1.26 70.8 0 1 219.25 86.83
  L 221.83 84.32
  Z
  M 225.00 88.96
  L 227.68 89.44
  Q 228.37 89.57 227.88 89.06
  Q 227.16 88.31 226.04 88.25
  Q 223.15 85.38 220.37 87.67
  A 0.41 0.40 43.4 0 0 220.39 88.31
  Q 222.42 89.80 225.00 88.96
  Z
  M 265.26 87.61
  C 262.09 85.70 260.76 87.66 258.00 88.98
  Q 257.57 89.18 258.04 89.13
  C 260.50 88.89 263.46 90.22 265.35 88.31
  A 0.45 0.45 0.0 0 0 265.26 87.61
  Z"
/>
<path fill="#09e4e2" fill-opacity="0.996" d="
  M 226.04 88.25
  L 225.00 88.96
  Q 222.42 89.80 220.39 88.31
  A 0.41 0.40 43.4 0 1 220.37 87.67
  Q 223.15 85.38 226.04 88.25
  Z"
/>
<path fill="#12b7c2" fill-opacity="0.961" d="
  M 265.26 87.61
  A 0.45 0.45 0.0 0 1 265.35 88.31
  C 263.46 90.22 260.50 88.89 258.04 89.13
  Q 257.57 89.18 258.00 88.98
  C 260.76 87.66 262.09 85.70 265.26 87.61
  Z"
/>
<path fill="#21295a" d="
  M 253.75 87.29
  L 254.04 89.25
  L 243.80 94.80
  A 1.91 1.89 -44.1 0 1 241.96 94.78
  L 232.25 89.21
  Q 231.72 88.08 233.00 87.71
  Q 236.86 88.71 240.71 89.72
  C 244.57 90.72 249.98 88.31 253.75 87.29
  Z"
/>
<path fill="#5e17ea" d="
  M 226.04 88.25
  Q 227.16 88.31 227.88 89.06
  Q 228.37 89.57 227.68 89.44
  L 225.00 88.96
  L 226.04 88.25
  Z"
/>
<path fill="#5e17ea" d="
  M 232.25 89.21
  L 241.96 94.78
  A 1.91 1.89 -44.1 0 0 243.80 94.80
  L 254.04 89.25
  Q 253.67 90.38 252.50 90.96
  L 243.49 96.11
  A 1.45 1.43 -44.7 0 1 242.06 96.11
  L 233.25 90.96
  L 231.72 89.86
  Q 231.31 89.56 231.78 89.39
  L 232.25 89.21
  Z"
/>
<path fill="#e840a2" d="
  M 209.78 91.92
  Q 211.23 92.19 211.85 93.37
  Q 215.15 96.73 219.75 98.29
  Q 219.58 100.69 217.21 101.25
  L 196.75 93.79
  L 198.00 91.29
  Q 203.92 90.44 209.78 91.92
  Z"
/>
<path fill="#21295a" d="
  M 233.25 90.96
  L 242.06 96.11
  A 1.45 1.43 -44.7 0 0 243.49 96.11
  L 252.50 90.96
  L 254.00 94.16
  Q 255.16 96.64 252.43 96.87
  L 247.46 97.28
  Q 246.97 97.33 246.55 97.58
  Q 245.50 98.21 244.86 99.28
  A 0.53 0.53 0.0 0 1 244.26 99.52
  Q 244.04 99.46 243.96 99.25
  Q 244.07 98.72 243.90 98.26
  A 0.81 0.81 0.0 0 0 243.18 97.72
  C 241.57 97.62 241.56 100.04 243.46 99.75
  Q 241.32 100.05 240.18 98.05
  A 0.75 0.74 70.1 0 0 239.42 97.69
  Q 235.86 98.23 232.78 96.45
  A 1.41 1.38 -86.0 0 1 232.15 95.71
  Q 231.07 92.83 233.25 90.96
  Z
  M 253.16 94.16
  Q 251.28 92.52 249.58 94.27
  Q 248.51 95.38 250.01 95.73
  Q 251.98 96.20 253.21 94.54
  A 0.29 0.28 38.0 0 0 253.16 94.16
  Z
  M 237.92 95.77
  C 236.73 94.34 234.84 92.89 232.90 93.98
  A 0.45 0.44 51.6 0 0 232.82 94.70
  Q 234.90 96.58 237.73 96.24
  Q 238.25 96.17 237.92 95.77
  Z"
/>
<path fill="#e54ad1" d="
  M 286.50 94.71
  Q 285.53 93.59 286.37 92.62
  A 0.27 0.26 25.9 0 0 286.22 92.19
  C 279.88 90.97 276.68 92.71 270.50 95.96
  L 270.46 95.50
  L 273.50 92.96
  C 275.98 92.33 277.59 91.11 280.19 91.02
  Q 287.80 90.78 295.49 91.26
  Q 296.08 91.30 295.53 91.50
  L 286.50 94.71
  Z"
/>
<path fill="#e54ad1" d="
  M 198.00 91.29
  L 196.75 93.79
  L 190.46 91.71
  Q 189.71 91.46 190.50 91.44
  L 198.00 91.29
  Z"
/>
<path fill="#e840a2" d="
  M 286.50 94.71
  Q 276.06 98.06 266.00 102.46
  Q 265.12 101.56 264.00 101.98
  A 0.54 0.53 64.5 0 1 263.35 101.74
  Q 262.60 100.42 261.00 100.71
  L 264.54 98.50
  Q 266.44 97.85 267.50 96.29
  L 268.75 95.54
  L 268.65 96.01
  A 0.43 0.43 0.0 0 0 269.04 96.53
  Q 269.88 96.61 270.50 95.96
  C 276.68 92.71 279.88 90.97 286.22 92.19
  A 0.27 0.26 25.9 0 1 286.37 92.62
  Q 285.53 93.59 286.50 94.71
  Z"
/>
<path fill="#f3bbef" fill-opacity="0.992" d="
  M 211.85 93.37
  L 231.75 102.29
  L 240.46 107.50
  Q 240.21 108.83 240.96 109.75
  L 241.46 116.00
  C 240.52 116.20 239.68 111.81 239.17 110.78
  Q 238.95 110.34 238.55 110.06
  Q 236.63 108.74 235.79 106.50
  L 237.70 107.44
  Q 238.07 107.62 237.84 107.27
  Q 236.76 105.65 234.75 105.35
  Q 232.31 105.87 232.16 103.87
  A 0.47 0.47 0.0 0 0 231.65 103.44
  Q 229.54 103.63 227.75 102.40
  A 0.27 0.26 -64.2 0 1 227.65 102.09
  Q 227.79 101.70 227.75 101.27
  Q 227.72 100.91 227.46 101.16
  L 227.19 101.43
  A 0.78 0.76 35.4 0 1 226.29 101.57
  L 219.75 98.29
  Q 215.15 96.73 211.85 93.37
  Z"
/>
<path fill="#09e4e2" fill-opacity="0.996" d="
  M 253.16 94.16
  A 0.29 0.28 38.0 0 1 253.21 94.54
  Q 251.98 96.20 250.01 95.73
  Q 248.51 95.38 249.58 94.27
  Q 251.28 92.52 253.16 94.16
  Z"
/>
<path fill="#09e4e2" fill-opacity="0.996" d="
  M 248.75 103.21
  L 249.72 103.62
  A 0.50 0.50 0.0 0 1 249.99 104.28
  L 249.79 104.75
  Q 247.80 105.85 246.65 107.74
  A 0.31 0.30 -59.5 0 0 246.75 108.15
  L 247.00 108.29
  L 245.04 109.75
  L 244.62 107.61
  A 0.40 0.40 0.0 0 0 244.00 107.36
  Q 242.36 108.56 241.03 106.88
  Q 240.63 106.38 240.48 106.99
  Q 240.41 107.24 240.46 107.50
  L 231.75 102.29
  L 231.97 102.05
  A 0.27 0.26 37.2 0 0 231.91 101.65
  L 219.31 93.76
  L 241.57 105.44
  A 2.99 2.97 45.2 0 0 244.33 105.46
  L 248.75 103.21
  Z"
/>
<path fill="#09e4e2" fill-opacity="0.996" d="
  M 232.90 93.98
  C 234.84 92.89 236.73 94.34 237.92 95.77
  Q 238.25 96.17 237.73 96.24
  Q 234.90 96.58 232.82 94.70
  A 0.45 0.44 51.6 0 1 232.90 93.98
  Z"
/>
<path fill="#5e17ea" d="
  M 256.75 100.96
  L 257.04 101.50
  Q 253.64 103.59 249.79 104.75
  L 249.99 104.28
  A 0.50 0.50 0.0 0 0 249.72 103.62
  L 248.75 103.21
  L 264.50 94.29
  Q 264.96 93.91 265.52 93.82
  A 0.36 0.36 0.0 0 1 265.92 94.05
  L 266.03 94.33
  A 0.23 0.23 0.0 0 1 265.93 94.61
  C 261.79 96.93 253.99 101.05 253.90 101.47
  A 0.25 0.25 0.0 0 0 254.23 101.76
  L 256.75 100.96
  Z"
/>
<path fill="#f3bbef" fill-opacity="0.992" d="
  M 270.46 95.50
  L 270.50 95.96
  Q 269.88 96.61 269.04 96.53
  A 0.43 0.43 0.0 0 1 268.65 96.01
  L 268.75 95.54
  L 270.46 95.50
  Z"
/>
<path fill="#21295a" d="
  M 267.50 96.29
  Q 266.44 97.85 264.54 98.50
  Q 264.55 98.33 264.51 98.22
  A 0.29 0.28 67.0 0 0 264.11 98.05
  L 257.04 101.50
  L 256.75 100.96
  Q 261.76 97.74 267.50 96.29
  Z"
/>
<path fill="#09e4e2" fill-opacity="0.996" d="
  M 243.96 99.25
  L 243.46 99.75
  C 241.56 100.04 241.57 97.62 243.18 97.72
  A 0.81 0.81 0.0 0 1 243.90 98.26
  Q 244.07 98.72 243.96 99.25
  Z"
/>
<path fill="#e54ad1" d="
  M 219.75 98.29
  L 226.29 101.57
  A 0.78 0.76 35.4 0 0 227.19 101.43
  L 227.46 101.16
  Q 227.72 100.91 227.75 101.27
  Q 227.79 101.70 227.65 102.09
  A 0.27 0.26 -64.2 0 0 227.75 102.40
  Q 229.54 103.63 231.65 103.44
  A 0.47 0.47 0.0 0 1 232.16 103.87
  Q 232.31 105.87 234.75 105.35
  L 235.79 106.50
  Q 236.63 108.74 238.55 110.06
  Q 238.95 110.34 239.17 110.78
  C 239.68 111.81 240.52 116.20 241.46 116.00
  L 241.54 116.50
  L 242.00 117.79
  L 242.29 120.75
  L 242.29 121.00
  L 242.54 123.25
  Q 242.33 124.30 242.59 125.27
  Q 242.74 125.81 243.02 125.33
  Q 244.29 123.13 243.46 120.50
  L 243.70 117.99
  A 0.55 0.54 8.7 0 0 243.26 117.40
  L 242.54 117.25
  L 243.25 116.79
  Q 244.65 115.83 243.98 114.28
  L 244.71 113.25
  L 244.78 114.05
  A 0.23 0.22 -1.4 0 0 245.00 114.25
  L 245.28 114.26
  A 0.31 0.30 -87.1 0 0 245.59 113.97
  Q 245.76 110.23 248.85 108.45
  C 249.43 108.12 249.83 107.51 249.25 106.96
  L 261.00 100.71
  Q 262.60 100.42 263.35 101.74
  A 0.54 0.53 64.5 0 0 264.00 101.98
  Q 265.12 101.56 266.00 102.46
  C 262.66 104.01 252.91 107.28 251.79 110.75
  Q 250.54 112.64 250.50 114.96
  Q 249.08 117.21 248.95 119.84
  A 0.38 0.38 0.0 0 0 249.46 120.21
  L 255.00 118.21
  L 255.50 118.71
  Q 252.62 120.69 249.22 121.41
  A 1.32 1.32 0.0 0 0 248.43 121.91
  Q 245.88 125.33 246.04 129.75
  Q 246.05 130.12 245.89 130.43
  L 243.25 137.25
  A 0.50 0.50 0.0 0 1 242.61 137.54
  C 242.60 137.54 240.13 131.16 239.75 130.54
  L 239.71 129.50
  Q 239.58 125.10 237.21 121.50
  L 236.96 120.25
  Q 236.76 117.81 235.50 115.71
  L 234.71 113.00
  Q 234.91 111.43 233.79 110.50
  C 232.09 107.02 220.97 103.01 217.21 101.25
  Q 219.58 100.69 219.75 98.29
  Z"
/>
<path fill="#f3bbef" fill-opacity="0.992" d="
  M 239.71 129.50
  L 239.75 130.54
  C 221.47 128.01 208.35 117.39 202.16 100.07
  Q 201.79 99.04 202.72 99.62
  L 203.02 99.80
  A 1.31 1.29 -86.1 0 1 203.51 100.37
  Q 207.11 108.65 212.80 115.71
  C 213.27 116.29 214.16 116.49 214.75 117.11
  Q 224.88 127.81 239.71 129.50
  Z"
/>
<path fill="#f3bbef" fill-opacity="0.992" d="
  M 245.89 130.43
  Q 246.05 130.12 246.04 129.75
  Q 272.70 125.08 282.24 99.96
  A 0.75 0.74 -78.4 0 1 282.96 99.48
  L 283.31 99.50
  A 0.25 0.25 0.0 0 1 283.54 99.84
  C 277.72 116.59 263.75 128.76 245.89 130.43
  Z"
/>
<path fill="#21295a" d="
  M 235.79 106.50
  L 234.75 105.35
  Q 236.76 105.65 237.84 107.27
  Q 238.07 107.62 237.70 107.44
  L 235.79 106.50
  Z"
/>
<path fill="#acacb3" fill-opacity="0.973" d="
  M 265.50 107.54
  Q 263.77 107.14 262.25 108.04
  L 257.46 107.75
  Q 261.93 107.30 266.01 105.50
  A 0.36 0.36 0.0 0 1 266.51 105.83
  Q 266.51 106.81 265.50 107.54
  Z"
/>
<path fill="#09e4e2" fill-opacity="0.996" d="
  M 225.25 107.79
  L 225.50 108.54
  L 225.71 109.25
  L 225.29 109.25
  Q 223.66 107.77 220.50 107.56
  Q 218.97 107.46 219.14 105.85
  A 0.41 0.41 0.0 0 1 219.70 105.51
  L 225.25 107.79
  Z"
/>
<path fill="#21295a" d="
  M 245.04 109.75
  L 244.71 113.25
  L 243.98 114.28
  L 243.69 109.54
  A 0.61 0.60 -88.3 0 0 243.16 108.97
  Q 241.89 108.80 240.96 109.75
  Q 240.21 108.83 240.46 107.50
  Q 240.41 107.24 240.48 106.99
  Q 240.63 106.38 241.03 106.88
  Q 242.36 108.56 244.00 107.36
  A 0.40 0.40 0.0 0 1 244.62 107.61
  L 245.04 109.75
  Z"
/>
<path fill="#f3bbef" fill-opacity="0.992" d="
  M 214.25 109.54
  Q 214.51 110.53 215.24 110.44
  A 0.35 0.35 0.0 0 1 215.63 110.83
  L 215.50 112.00
  L 214.04 112.00
  C 213.40 111.18 210.57 108.05 210.79 107.18
  A 0.32 0.32 0.0 0 1 211.31 107.01
  L 214.25 109.54
  Z"
/>
<path fill="#acacb3" fill-opacity="0.973" d="
  M 229.54 108.25
  L 229.00 108.54
  Q 227.13 107.01 225.50 108.54
  L 225.25 107.79
  Q 227.50 106.30 229.54 108.25
  Z"
/>
<path fill="#f3bbef" fill-opacity="0.992" d="
  M 249.25 106.96
  C 249.83 107.51 249.43 108.12 248.85 108.45
  Q 245.76 110.23 245.59 113.97
  A 0.31 0.30 -87.1 0 1 245.28 114.26
  L 245.00 114.25
  A 0.23 0.22 -1.4 0 1 244.78 114.05
  L 244.71 113.25
  L 245.04 109.75
  L 247.00 108.29
  Q 247.87 107.23 249.25 106.96
  Z"
/>
<path fill="#21295a" d="
  M 265.50 107.54
  Q 264.72 109.20 263.04 110.00
  L 262.25 108.04
  Q 263.77 107.14 265.50 107.54
  Z"
/>
<path fill="#150622" d="
  M 229.00 108.54
  L 233.21 111.50
  L 234.71 113.00
  L 235.50 115.71
  L 234.75 115.71
  L 234.89 115.49
  Q 235.02 115.30 234.79 115.34
  C 230.62 116.07 227.19 112.85 225.71 109.25
  L 225.50 108.54
  Q 227.13 107.01 229.00 108.54
  Z
  M 231.8366 113.0422
  A 1.93 0.72 27.2 0 0 230.4491 111.5196
  A 1.93 0.72 27.2 0 0 228.4034 111.2778
  A 1.93 0.72 27.2 0 0 229.7909 112.8004
  A 1.93 0.72 27.2 0 0 231.8366 113.0422
  Z"
/>
<path fill="#150622" d="
  M 257.46 107.75
  L 262.25 108.04
  L 263.04 110.00
  L 261.25 112.29
  Q 259.53 112.01 258.25 112.96
  C 256.04 114.98 253.75 118.64 250.50 114.96
  Q 250.54 112.64 251.79 110.75
  L 257.46 107.75
  Z
  M 257.5223 111.1423
  A 2.23 0.65 -28.9 0 0 255.2559 111.6509
  A 2.23 0.65 -28.9 0 0 253.6177 113.2977
  A 2.23 0.65 -28.9 0 0 255.8841 112.7891
  A 2.23 0.65 -28.9 0 0 257.5223 111.1423
  Z"
/>
<ellipse fill="#acacb3" fill-opacity="0.973" cx="0.00" cy="0.00" transform="translate(272.38,109.86) rotate(131.2)" rx="2.61" ry="0.45"/>
<path fill="#acacb3" fill-opacity="0.973" d="
  M 223.25 112.46
  L 222.00 111.79
  C 219.83 109.57 216.69 108.42 215.50 112.00
  L 215.63 110.83
  A 0.35 0.35 0.0 0 0 215.24 110.44
  Q 214.51 110.53 214.25 109.54
  Q 215.73 109.57 216.59 108.38
  Q 216.77 108.13 216.76 108.44
  L 216.74 108.75
  Q 216.67 110.12 217.02 108.81
  Q 217.05 108.69 217.07 108.54
  A 0.19 0.19 0.0 0 1 217.26 108.36
  Q 221.61 108.35 223.25 112.46
  Z"
/>
<path fill="#21295a" d="
  M 229.54 108.25
  L 233.71 110.75
  L 233.21 111.50
  L 229.00 108.54
  L 229.54 108.25
  Z"
/>
<path fill="#150622" d="
  M 243.98 114.28
  Q 244.65 115.83 243.25 116.79
  L 241.54 116.50
  L 241.46 116.00
  L 240.96 109.75
  Q 241.89 108.80 243.16 108.97
  A 0.61 0.60 -88.3 0 1 243.69 109.54
  L 243.98 114.28
  Z"
/>
<path fill="#21295a" d="
  M 225.29 109.25
  L 225.71 109.25
  C 227.19 112.85 230.62 116.07 234.79 115.34
  Q 235.02 115.30 234.89 115.49
  L 234.75 115.71
  C 230.70 117.09 226.11 112.89 225.29 109.25
  Z"
/>
<path fill="#fcfcfc" d="
  M 222.00 111.79
  Q 224.13 114.38 222.25 117.21
  Q 220.43 118.23 218.50 117.29
  L 215.79 114.50
  L 215.46 113.75
  L 215.50 112.00
  C 216.69 108.42 219.83 109.57 222.00 111.79
  Z"
/>
<path fill="#acacb3" fill-opacity="0.973" d="
  M 233.79 110.50
  Q 234.91 111.43 234.71 113.00
  L 233.21 111.50
  L 233.71 110.75
  L 233.79 110.50
  Z"
/>
<ellipse fill="#12b7c2" fill-opacity="0.961" cx="0.00" cy="0.00" transform="translate(230.12,112.16) rotate(27.2)" rx="1.93" ry="0.72"/>
<ellipse fill="#12b7c2" fill-opacity="0.961" cx="0.00" cy="0.00" transform="translate(255.57,112.22) rotate(-28.9)" rx="2.23" ry="0.65"/>
<path fill="#f3bbef" fill-opacity="0.992" d="
  M 222.00 111.79
  L 223.25 112.46
  Q 228.76 118.68 236.96 120.25
  L 237.21 121.50
  Q 230.78 119.91 225.12 116.47
  A 0.71 0.71 0.0 0 0 224.28 116.55
  Q 223.88 116.90 223.71 117.50
  L 222.25 117.21
  Q 224.13 114.38 222.00 111.79
  Z"
/>
<path fill="#21295a" d="
  M 214.04 112.00
  L 215.50 112.00
  L 215.46 113.75
  L 214.04 112.00
  Z"
/>
<path fill="#21295a" d="
  M 261.25 112.29
  Q 260.09 113.49 258.25 112.96
  Q 259.53 112.01 261.25 112.29
  Z"
/>
<path fill="#21295a" d="
  M 215.79 114.50
  L 218.50 117.29
  Q 217.40 117.53 216.72 116.60
  Q 216.35 116.10 216.33 116.72
  Q 216.33 116.96 216.46 117.25
  Q 216.10 117.09 215.93 116.81
  A 0.66 0.66 0.0 0 1 215.98 116.03
  Q 216.52 115.37 215.79 114.50
  Z"
/>
<path fill="#acacb3" fill-opacity="0.973" d="
  M 255.50 118.71
  L 255.00 118.21
  L 259.23 116.25
  Q 259.78 115.99 259.32 116.40
  Q 257.64 117.90 255.50 118.71
  Z"
/>
<path fill="#acacb3" fill-opacity="0.973" d="
  M 218.50 117.29
  Q 220.43 118.23 222.25 117.21
  L 223.71 117.50
  C 222.02 119.03 217.69 119.62 216.46 117.25
  Q 216.33 116.96 216.33 116.72
  Q 216.35 116.10 216.72 116.60
  Q 217.40 117.53 218.50 117.29
  Z"
/>
<path fill="#acacb3" fill-opacity="0.973" d="
  M 241.54 116.50
  L 243.25 116.79
  L 242.54 117.25
  L 242.00 117.79
  L 241.54 116.50
  Z"
/>
<path fill="#fcfcfc" d="
  M 242.54 117.25
  L 243.26 117.40
  A 0.55 0.54 8.7 0 1 243.70 117.99
  L 243.46 120.50
  L 242.29 120.75
  L 242.00 117.79
  L 242.54 117.25
  Z"
/>
<path fill="#f3bbef" fill-opacity="0.992" d="
  M 243.46 120.50
  Q 244.29 123.13 243.02 125.33
  Q 242.74 125.81 242.59 125.27
  Q 242.33 124.30 242.54 123.25
  L 242.92 121.62
  A 0.44 0.43 16.1 0 0 242.64 121.12
  L 242.29 121.00
  L 242.29 120.75
  L 243.46 120.50
  Z"
/>
<path fill="#21295a" d="
  M 242.29 121.00
  L 242.64 121.12
  A 0.44 0.43 16.1 0 1 242.92 121.62
  L 242.54 123.25
  L 242.29 121.00
  Z"
/>
<path fill="#09e4e2" fill-opacity="0.996" d="
  M 155.25 150.71
  Q 153.80 151.22 152.00 150.95
  A 1.06 1.05 -85.0 0 0 150.79 151.97
  C 150.76 153.04 150.93 163.87 150.53 163.98
  A 0.51 0.50 76.2 0 1 149.90 163.59
  L 149.54 161.75
  L 149.50 150.74
  A 0.67 0.67 0.0 0 1 149.98 150.10
  Q 152.71 149.37 155.25 150.71
  Z"
/>
<path fill="#09e4e2" fill-opacity="0.996" d="
  M 126.50 150.71
  L 122.44 151.13
  A 0.64 0.64 0.0 0 0 121.88 151.69
  L 121.46 155.50
  L 120.95 150.82
  A 0.65 0.64 -10.4 0 1 121.43 150.13
  Q 124.08 149.44 126.50 150.71
  Z"
/>
<path fill="#12b7c2" fill-opacity="0.961" d="
  M 136.25 150.71
  L 132.20 151.00
  A 0.78 0.76 -2.5 0 0 131.49 151.76
  L 131.44 175.10
  L 130.76 174.57
  A 1.12 1.09 -72.0 0 1 130.34 173.72
  L 130.21 151.01
  A 0.77 0.76 80.3 0 1 130.71 150.29
  Q 133.52 149.27 136.25 150.71
  Z"
/>
<path fill="#09e4e2" fill-opacity="0.996" d="
  M 184.25 150.71
  C 179.73 150.98 162.44 150.08 160.46 151.25
  L 160.19 151.22
  A 0.44 0.43 -6.8 0 1 159.80 150.92
  L 159.55 150.15
  C 162.36 150.06 183.67 149.43 184.25 150.71
  Z"
/>
<path fill="#09e4e2" fill-opacity="0.996" d="
  M 213.25 150.71
  L 190.37 150.93
  A 0.95 0.95 0.0 0 0 189.43 151.87
  L 188.98 175.56
  Q 187.50 172.86 188.29 171.00
  Q 189.40 167.50 188.29 164.00
  Q 187.74 157.30 188.22 150.52
  A 0.54 0.53 1.1 0 1 188.75 150.02
  C 191.70 150.01 212.46 149.47 213.25 150.71
  Z"
/>
<path fill="#09e4e2" fill-opacity="0.996" d="
  M 242.07 150.57
  Q 230.42 151.43 218.73 150.85
  A 0.55 0.54 -88.0 0 0 218.16 151.39
  L 217.72 175.31
  Q 216.47 162.96 217.15 150.64
  A 0.55 0.54 -89.4 0 1 217.67 150.12
  Q 229.88 149.49 242.07 150.57
  Z"
/>
<path fill="#09e4e2" fill-opacity="0.996" d="
  M 251.25 150.54
  L 247.71 151.23
  A 0.66 0.65 88.2 0 0 247.19 151.79
  L 246.71 155.50
  Q 245.69 153.23 246.15 150.74
  A 0.80 0.80 0.0 0 1 246.73 150.11
  Q 249.05 149.55 251.25 150.54
  Z"
/>
<path fill="#09e4e2" fill-opacity="0.996" d="
  M 280.52 150.56
  Q 268.87 151.33 257.25 150.99
  Q 256.66 150.97 256.46 151.50
  Q 256.04 151.03 255.82 150.17
  Q 268.18 149.45 280.52 150.56
  Z"
/>
<path fill="#09e4e2" fill-opacity="0.996" d="
  M 309.27 150.54
  L 286.27 151.07
  A 0.59 0.58 -88.9 0 0 285.71 151.61
  L 285.40 156.24
  Q 283.94 153.34 284.42 150.51
  A 0.62 0.61 -85.4 0 1 285.01 150.00
  Q 297.15 149.60 309.27 150.54
  Z"
/>
<path fill="#12b7c2" fill-opacity="0.961" d="
  M 319.25 150.71
  Q 317.68 151.23 315.93 150.97
  A 1.33 1.33 0.0 0 0 314.45 152.61
  Q 314.78 153.89 314.21 156.00
  Q 312.63 153.55 313.31 150.68
  A 0.82 0.82 0.0 0 1 313.93 150.07
  Q 316.71 149.46 319.25 150.71
  Z"
/>
<path fill="#09e4e2" fill-opacity="0.996" d="
  M 347.50 150.54
  C 347.22 151.29 327.07 151.01 324.89 151.02
  A 0.90 0.89 -0.0 0 0 323.99 151.91
  L 323.96 164.50
  L 323.13 150.61
  A 0.50 0.49 87.8 0 1 323.61 150.08
  C 327.48 150.03 345.24 149.05 347.50 150.54
  Z"
/>
<path fill="#09e4e2" fill-opacity="0.996" d="
  M 357.25 150.54
  Q 355.82 151.60 354.02 150.61
  A 1.01 1.01 0.0 0 0 352.52 151.48
  L 352.46 155.75
  L 352.18 150.95
  A 0.69 0.68 78.8 0 1 352.63 150.26
  Q 354.96 149.41 357.25 150.54
  Z"
/>
<path fill="#09e4e2" fill-opacity="0.996" d="
  M 376.75 150.71
  L 372.69 151.13
  A 0.70 0.69 2.3 0 0 372.09 151.68
  L 371.29 155.75
  L 371.14 150.72
  A 0.64 0.64 0.0 0 1 371.65 150.08
  Q 374.31 149.52 376.75 150.71
  Z"
/>
<path fill="#12b7c2" fill-opacity="0.961" d="
  M 159.55 150.15
  L 159.80 150.92
  A 0.44 0.43 -6.8 0 0 160.19 151.22
  L 160.46 151.25
  L 160.41 165.52
  C 158.87 164.65 159.54 152.58 159.55 150.15
  Z"
/>
<path fill="#12b7c2" fill-opacity="0.961" d="
  M 255.82 150.17
  Q 256.04 151.03 256.46 151.50
  Q 257.12 163.17 256.51 175.10
  C 255.33 174.19 255.79 152.83 255.82 150.17
  Z"
/>
<path fill="#5e17ea" d="
  M 251.25 150.54
  L 253.25 151.04
  Q 252.62 153.78 253.26 156.82
  L 248.27 157.00
  A 0.93 0.93 0.0 0 1 247.47 156.60
  L 246.71 155.50
  L 247.19 151.79
  A 0.66 0.65 88.2 0 1 247.71 151.23
  L 251.25 150.54
  Z"
/>
<path fill="#5e17ea" d="
  M 347.50 150.54
  L 349.00 151.04
  L 349.00 175.96
  L 324.84 175.98
  A 1.09 1.09 0.0 0 1 323.75 174.87
  L 323.96 164.50
  L 323.99 151.91
  A 0.90 0.89 0.0 0 1 324.89 151.02
  C 327.07 151.01 347.22 151.29 347.50 150.54
  Z
  M 330.29 169.00
  L 330.80 169.61
  A 0.48 0.47 -34.8 0 0 331.42 169.72
  L 331.79 169.50
  L 341.41 169.50
  C 343.69 170.90 342.99 168.67 343.13 167.91
  Q 344.13 162.36 342.21 157.25
  L 331.29 157.00
  Q 331.12 156.64 330.69 156.76
  A 0.87 0.87 0.0 0 0 330.07 157.61
  L 330.29 169.00
  Z"
/>
<path fill="#5e17ea" d="
  M 357.25 150.54
  L 359.00 151.04
  Q 358.21 153.48 359.10 154.91
  Q 360.47 157.11 363.76 157.49
  L 365.50 159.04
  Q 365.90 161.00 367.75 160.46
  Q 369.23 161.99 371.22 162.57
  A 0.39 0.39 0.0 0 0 371.71 162.17
  L 371.29 155.75
  L 372.09 151.68
  A 0.70 0.69 2.3 0 1 372.69 151.13
  L 376.75 150.71
  L 378.25 151.04
  L 378.00 175.96
  L 373.07 175.94
  A 0.99 0.97 -17.3 0 1 372.27 175.53
  L 371.71 174.75
  Q 372.76 172.58 371.00 171.29
  L 360.29 164.00
  Q 359.94 163.19 359.37 163.17
  A 0.57 0.57 0.0 0 0 358.78 163.70
  Q 358.35 169.72 359.25 176.12
  L 353.81 175.94
  A 0.91 0.91 0.0 0 1 353.05 175.50
  L 352.46 174.50
  Q 352.98 170.13 352.46 165.75
  L 352.46 155.75
  L 352.52 151.48
  A 1.01 1.01 0.0 0 1 354.02 150.61
  Q 355.82 151.60 357.25 150.54
  Z"
/>
<path fill="#5e17ea" d="
  M 126.50 150.71
  L 128.18 150.92
  L 127.50 156.71
  L 125.96 157.50
  L 124.29 157.50
  Q 122.17 157.29 121.46 155.50
  L 121.88 151.69
  A 0.64 0.64 0.0 0 1 122.44 151.13
  L 126.50 150.71
  Z"
/>
<path fill="#5e17ea" d="
  M 136.25 150.71
  L 137.75 150.96
  L 137.54 151.10
  A 0.67 0.66 73.9 0 0 137.25 151.63
  Q 137.21 155.40 140.60 157.09
  A 0.24 0.23 -62.3 0 0 140.91 156.99
  L 141.04 156.75
  L 141.50 157.21
  Q 142.14 158.99 144.00 158.96
  L 149.03 162.65
  Q 149.46 162.97 149.50 162.44
  L 149.54 161.75
  L 149.90 163.59
  A 0.51 0.50 76.2 0 0 150.53 163.98
  C 150.93 163.87 150.76 153.04 150.79 151.97
  A 1.06 1.05 -85.0 0 1 152.00 150.95
  Q 153.80 151.22 155.25 150.71
  L 156.75 151.04
  L 156.46 175.75
  Q 153.19 176.86 150.46 175.00
  Q 151.67 172.66 149.75 171.29
  L 138.30 163.24
  Q 136.89 169.52 137.50 175.96
  Q 134.18 176.66 131.44 175.10
  L 131.49 151.76
  A 0.78 0.76 -2.5 0 1 132.20 151.00
  L 136.25 150.71
  Z"
/>
<path fill="#5e17ea" d="
  M 184.25 150.71
  L 185.75 151.04
  L 185.25 156.71
  L 168.00 156.79
  C 165.96 156.20 166.26 158.08 166.29 159.25
  L 166.23 159.58
  A 0.86 0.85 -85.1 0 0 167.09 160.61
  C 171.50 160.49 182.48 161.35 184.50 160.29
  L 186.00 160.54
  C 185.21 161.25 185.43 172.85 185.25 175.71
  Q 172.55 176.72 159.89 175.32
  Q 161.10 172.60 160.46 171.26
  A 0.88 0.87 77.3 0 1 161.25 170.01
  L 177.75 169.99
  Q 179.77 169.99 179.78 167.98
  Q 179.79 165.90 177.75 166.54
  Q 169.90 166.38 162.06 166.63
  Q 160.43 166.68 160.41 165.52
  L 160.46 151.25
  C 162.44 150.08 179.73 150.98 184.25 150.71
  Z
  M 166.91 161.25
  L 164.96 161.25
  A 0.66 0.65 2.4 0 0 164.30 161.85
  Q 164.16 163.36 162.50 163.54
  A 0.52 0.51 -84.2 0 0 162.05 163.91
  L 161.91 164.38
  A 0.55 0.55 0.0 0 0 162.39 165.09
  C 164.48 165.29 178.46 166.87 180.76 163.89
  A 0.59 0.59 0.0 0 0 180.71 163.11
  C 178.35 160.77 170.26 161.40 166.64 160.79
  Q 165.36 160.58 166.60 160.95
  L 166.94 161.05
  Q 167.62 161.25 166.91 161.25
  Z"
/>
<path fill="#5e17ea" d="
  M 213.25 150.71
  L 214.50 151.04
  L 214.67 156.80
  L 197.07 157.06
  A 0.46 0.45 15.0 0 0 196.68 157.28
  L 196.54 157.50
  Q 196.55 157.04 196.08 156.72
  Q 194.90 155.91 194.94 157.35
  L 195.26 168.48
  A 0.56 0.56 0.0 0 0 195.86 169.02
  Q 196.17 169.00 196.46 168.75
  C 197.09 169.89 208.10 169.37 211.05 169.50
  C 212.48 169.56 213.30 170.12 214.75 170.29
  L 214.43 175.89
  Q 201.13 176.40 188.98 175.56
  L 189.43 151.87
  A 0.95 0.95 0.0 0 1 190.37 150.93
  L 213.25 150.71
  Z"
/>
<path fill="#5e17ea" d="
  M 242.07 150.57
  L 243.00 151.04
  L 243.04 171.00
  L 240.50 171.54
  Q 240.08 171.12 239.52 171.33
  A 0.44 0.44 0.0 0 0 239.34 172.02
  L 242.50 175.71
  Q 239.02 176.63 235.69 175.49
  A 1.55 1.53 -8.1 0 1 234.92 174.92
  Q 231.62 170.32 225.64 171.34
  Q 222.83 172.36 224.00 175.96
  Q 220.97 176.50 217.72 175.31
  L 218.16 151.39
  A 0.55 0.54 -88.0 0 1 218.73 150.85
  Q 230.42 151.43 242.07 150.57
  Z
  M 224.50 164.29
  Q 224.43 164.59 224.51 164.95
  A 0.67 0.66 -7.0 0 0 225.17 165.46
  L 236.23 165.20
  A 1.04 1.03 4.0 0 0 237.23 164.34
  Q 237.86 160.43 236.48 156.97
  L 225.23 156.94
  Q 222.65 160.23 224.50 164.29
  Z"
/>
<path fill="#5e17ea" d="
  M 280.52 150.56
  Q 281.08 151.02 282.24 150.98
  Q 281.38 161.16 281.75 171.21
  L 264.09 171.23
  Q 261.28 172.33 262.50 175.96
  Q 259.12 176.66 256.51 175.10
  Q 257.12 163.17 256.46 151.50
  Q 256.66 150.97 257.25 150.99
  Q 268.87 151.33 280.52 150.56
  Z
  M 262.54 164.00
  L 262.50 164.73
  A 0.48 0.48 0.0 0 0 262.98 165.25
  L 274.83 165.25
  A 0.90 0.90 0.0 0 0 275.73 164.28
  L 275.25 157.04
  L 264.00 157.04
  Q 263.43 156.63 262.97 156.84
  A 0.80 0.79 78.1 0 0 262.50 157.57
  L 262.54 164.00
  Z"
/>
<path fill="#5e17ea" d="
  M 309.27 150.54
  Q 309.98 150.99 310.75 151.04
  L 310.97 156.89
  L 302.50 157.04
  C 301.52 156.45 300.99 157.05 301.01 158.02
  Q 301.13 166.99 301.00 175.96
  Q 297.68 176.73 294.96 175.00
  Q 296.03 165.95 294.38 156.94
  Q 289.36 157.17 285.40 156.24
  L 285.71 151.61
  A 0.59 0.58 -88.9 0 1 286.27 151.07
  L 309.27 150.54
  Z"
/>
<path fill="#5e17ea" d="
  M 319.25 150.71
  L 320.50 151.04
  L 320.25 156.71
  L 315.49 156.97
  A 0.96 0.94 68.7 0 1 314.69 156.61
  L 314.21 156.00
  Q 314.78 153.89 314.45 152.61
  A 1.33 1.33 0.0 0 1 315.93 150.97
  Q 317.68 151.23 319.25 150.71
  Z"
/>
<path fill="#fd0804" fill-opacity="0.996" d="
  M 128.18 150.92
  Q 129.56 153.41 129.05 156.24
  A 0.62 0.61 5.9 0 1 128.42 156.75
  L 127.50 156.71
  L 128.18 150.92
  Z"
/>
<path fill="#fd0804" fill-opacity="0.996" d="
  M 137.75 150.96
  Q 138.24 150.86 138.58 151.05
  A 0.70 0.69 -69.4 0 1 138.92 151.82
  Q 138.23 155.02 141.04 156.75
  L 140.91 156.99
  A 0.24 0.23 -62.3 0 1 140.60 157.09
  Q 137.21 155.40 137.25 151.63
  A 0.67 0.66 73.9 0 1 137.54 151.10
  L 137.75 150.96
  Z"
/>
<path fill="#fd0804" fill-opacity="0.996" d="
  M 156.75 151.04
  Q 157.13 150.90 157.48 151.01
  A 0.72 0.71 -81.9 0 1 157.99 151.70
  Q 158.01 163.34 158.00 174.98
  C 158.00 176.05 157.33 176.38 156.46 175.75
  L 156.75 151.04
  Z"
/>
<path fill="#fd0804" fill-opacity="0.996" d="
  M 185.75 151.04
  Q 186.17 150.90 186.52 151.02
  A 0.72 0.72 0.0 0 1 187.00 151.70
  L 187.00 156.24
  A 0.51 0.51 0.0 0 1 186.48 156.75
  L 185.25 156.71
  L 185.75 151.04
  Z"
/>
<path fill="#fd0804" fill-opacity="0.996" d="
  M 214.50 151.04
  Q 214.79 150.94 215.10 150.99
  A 0.80 0.80 0.0 0 1 215.75 151.58
  Q 216.56 154.62 214.67 156.80
  L 214.50 151.04
  Z"
/>
<path fill="#fd0804" fill-opacity="0.996" d="
  M 243.00 151.04
  Q 243.83 150.86 244.45 151.21
  A 0.76 0.75 14.9 0 1 244.85 151.89
  L 244.56 170.37
  A 0.64 0.64 0.0 0 1 244.11 170.98
  Q 243.64 171.12 243.04 171.00
  L 243.00 151.04
  Z"
/>
<path fill="#fd0804" fill-opacity="0.996" d="
  M 253.25 151.04
  Q 254.06 150.99 254.16 151.57
  Q 254.61 154.18 253.26 156.82
  Q 252.62 153.78 253.25 151.04
  Z"
/>
<path fill="#fd0804" fill-opacity="0.996" d="
  M 282.24 150.98
  Q 283.77 160.42 283.29 169.95
  C 283.24 170.92 282.68 171.34 281.75 171.21
  Q 281.38 161.16 282.24 150.98
  Z"
/>
<path fill="#fd0804" fill-opacity="0.996" d="
  M 310.75 151.04
  Q 311.62 150.70 311.86 151.42
  Q 312.89 154.47 310.97 156.89
  L 310.75 151.04
  Z"
/>
<path fill="#fd0804" fill-opacity="0.996" d="
  M 320.50 151.04
  Q 320.97 150.94 321.34 151.14
  A 0.94 0.94 0.0 0 1 321.83 151.91
  L 322.01 156.04
  A 0.68 0.67 82.1 0 1 321.50 156.72
  Q 320.91 156.87 320.25 156.71
  L 320.50 151.04
  Z"
/>
<path fill="#fd0804" fill-opacity="0.996" d="
  M 349.00 151.04
  L 349.98 151.17
  A 0.60 0.58 4.4 0 1 350.50 151.76
  Q 350.39 163.00 350.74 174.25
  Q 350.80 176.19 349.00 175.96
  L 349.00 151.04
  Z"
/>
<path fill="#fd0804" fill-opacity="0.996" d="
  M 359.00 151.04
  L 359.69 151.20
  A 0.57 0.57 0.0 0 1 360.13 151.80
  Q 359.76 155.88 363.76 157.49
  Q 360.47 157.11 359.10 154.91
  Q 358.21 153.48 359.00 151.04
  Z"
/>
<path fill="#fd0804" fill-opacity="0.996" d="
  M 378.25 151.04
  Q 378.61 150.98 379.00 151.10
  A 0.69 0.69 0.0 0 1 379.49 151.76
  Q 379.51 163.50 379.50 175.26
  Q 379.50 176.43 378.00 175.96
  L 378.25 151.04
  Z"
/>
<path fill="#fd0804" fill-opacity="0.996" d="
  M 168.00 156.79
  Q 168.29 158.94 166.50 159.29
  L 166.29 159.25
  C 166.26 158.08 165.96 156.20 168.00 156.79
  Z"
/>
<path fill="#fd0804" fill-opacity="0.996" d="
  M 196.54 157.50
  L 196.46 168.75
  Q 196.17 169.00 195.86 169.02
  A 0.56 0.56 0.0 0 1 195.26 168.48
  L 194.94 157.35
  Q 194.90 155.91 196.08 156.72
  Q 196.55 157.04 196.54 157.50
  Z"
/>
<path fill="#fd0804" fill-opacity="0.996" d="
  M 225.23 156.94
  L 225.46 163.75
  L 224.50 164.29
  Q 222.65 160.23 225.23 156.94
  Z"
/>
<path fill="#fd0804" fill-opacity="0.996" d="
  M 264.00 157.04
  L 263.71 164.25
  L 262.54 164.00
  L 262.50 157.57
  A 0.80 0.79 78.1 0 1 262.97 156.84
  Q 263.43 156.63 264.00 157.04
  Z"
/>
<path fill="#fd0804" fill-opacity="0.996" d="
  M 302.50 157.04
  L 302.32 175.22
  A 0.81 0.80 4.1 0 1 301.40 176.01
  L 301.00 175.96
  Q 301.13 166.99 301.01 158.02
  C 300.99 157.05 301.52 156.45 302.50 157.04
  Z"
/>
<path fill="#fd0804" fill-opacity="0.996" d="
  M 331.29 157.00
  L 331.21 168.50
  L 330.29 169.00
  L 330.07 157.61
  A 0.87 0.87 0.0 0 1 330.69 156.76
  Q 331.12 156.64 331.29 157.00
  Z"
/>
<path fill="#09e4e2" fill-opacity="0.996" d="
  M 236.48 156.97
  Q 237.86 160.43 237.23 164.34
  A 1.04 1.03 4.0 0 1 236.23 165.20
  L 225.17 165.46
  A 0.67 0.66 -7.0 0 1 224.51 164.95
  Q 224.43 164.59 224.50 164.29
  L 225.46 163.75
  Q 225.41 164.04 225.54 164.34
  A 0.73 0.72 -13.2 0 0 226.23 164.76
  L 235.43 164.43
  A 0.51 0.51 0.0 0 0 235.93 163.96
  L 236.48 156.97
  Z"
/>
<path fill="#09e4e2" fill-opacity="0.996" d="
  M 275.25 157.04
  L 275.73 164.28
  A 0.90 0.90 0.0 0 1 274.83 165.25
  L 262.98 165.25
  A 0.48 0.48 0.0 0 1 262.50 164.73
  L 262.54 164.00
  L 263.71 164.25
  L 263.75 164.50
  A 0.24 0.23 -5.3 0 0 264.00 164.70
  L 274.08 164.14
  A 0.73 0.73 0.0 0 0 274.75 163.57
  Q 275.49 160.29 275.25 157.04
  Z"
/>
<path fill="#09e4e2" fill-opacity="0.996" d="
  M 294.38 156.94
  Q 296.03 165.95 294.96 175.00
  L 294.49 174.70
  A 0.93 0.93 0.0 0 1 294.04 173.94
  Q 293.69 165.56 294.38 156.94
  Z"
/>
<path fill="#09e4e2" fill-opacity="0.996" d="
  M 341.41 169.50
  L 341.68 169.19
  A 1.06 1.06 0.0 0 0 341.95 168.51
  L 342.21 157.25
  Q 344.13 162.36 343.13 167.91
  C 342.99 168.67 343.69 170.90 341.41 169.50
  Z"
/>
<path fill="#12b7c2" fill-opacity="0.961" d="
  M 125.96 157.50
  L 126.50 158.46
  L 122.34 159.15
  A 0.63 0.63 0.0 0 0 121.82 159.76
  L 121.46 174.75
  Q 120.58 166.77 121.15 158.76
  A 0.63 0.62 85.0 0 1 121.62 158.19
  L 124.29 157.50
  L 125.96 157.50
  Z"
/>
<path fill="#fd0804" fill-opacity="0.996" d="
  M 141.50 157.21
  Q 143.08 157.63 144.00 158.96
  Q 142.14 158.99 141.50 157.21
  Z"
/>
<path fill="#09e4e2" fill-opacity="0.996" d="
  M 319.54 158.50
  Q 317.77 159.32 315.70 158.62
  A 1.06 1.05 10.0 0 0 314.31 159.59
  L 313.89 175.16
  Q 312.76 166.77 313.30 158.66
  A 0.70 0.69 -4.6 0 1 313.83 158.04
  Q 316.87 157.34 319.54 158.50
  Z"
/>
<path fill="#12b7c2" fill-opacity="0.961" d="
  M 251.30 158.50
  L 247.56 159.17
  A 0.62 0.61 -5.1 0 0 247.05 159.77
  L 246.98 175.14
  L 246.47 174.96
  A 0.77 0.76 10.8 0 1 245.97 174.23
  L 246.20 158.69
  A 0.65 0.63 -5.8 0 1 246.71 158.08
  Q 249.06 157.57 251.30 158.50
  Z"
/>
<path fill="#5e17ea" d="
  M 251.30 158.50
  Q 252.75 158.18 253.36 158.95
  Q 252.37 167.54 253.48 176.01
  Q 248.94 176.56 246.98 175.14
  L 247.05 159.77
  A 0.62 0.61 -5.1 0 1 247.56 159.17
  L 251.30 158.50
  Z"
/>
<path fill="#5e17ea" d="
  M 126.50 158.46
  L 128.25 158.71
  L 128.00 158.98
  A 0.95 0.94 66.6 0 0 127.75 159.62
  L 127.71 175.75
  C 125.93 175.86 122.40 176.84 121.46 174.75
  L 121.82 159.76
  A 0.63 0.63 0.0 0 1 122.34 159.15
  L 126.50 158.46
  Z"
/>
<path fill="#5e17ea" d="
  M 319.54 158.50
  L 320.46 158.52
  L 320.24 174.98
  A 0.46 0.45 -22.5 0 1 320.12 175.26
  L 319.87 175.49
  Q 319.71 175.66 319.93 175.71
  Q 320.19 175.76 320.25 175.96
  Q 316.78 176.55 313.89 175.16
  L 314.31 159.59
  A 1.06 1.05 10.0 0 1 315.70 158.62
  Q 317.77 159.32 319.54 158.50
  Z"
/>
<path fill="#fd0804" fill-opacity="0.996" d="
  M 320.46 158.52
  Q 322.13 158.54 322.06 159.51
  Q 321.76 163.80 322.08 174.75
  Q 322.13 176.44 320.25 175.96
  Q 320.19 175.76 319.93 175.71
  Q 319.71 175.66 319.87 175.49
  L 320.12 175.26
  A 0.46 0.45 -22.5 0 0 320.24 174.98
  L 320.46 158.52
  Z"
/>
<path fill="#fd0804" fill-opacity="0.996" d="
  M 128.25 158.71
  C 129.50 159.47 128.93 169.11 129.12 174.93
  C 129.15 175.88 128.59 176.32 127.71 175.75
  L 127.75 159.62
  A 0.95 0.94 66.6 0 1 128.00 158.98
  L 128.25 158.71
  Z"
/>
<path fill="#fd0804" fill-opacity="0.996" d="
  M 253.36 158.95
  L 253.62 159.05
  A 0.50 0.49 9.9 0 1 253.92 159.47
  Q 254.71 167.81 253.48 176.01
  Q 252.37 167.54 253.36 158.95
  Z"
/>
<path fill="#fd0804" fill-opacity="0.996" d="
  M 365.50 159.04
  L 367.75 160.46
  Q 365.90 161.00 365.50 159.04
  Z"
/>
<path fill="#12b7c2" fill-opacity="0.961" d="
  M 166.29 159.25
  L 166.50 159.29
  L 166.49 159.60
  A 0.30 0.30 0.0 0 0 166.79 159.90
  L 183.04 159.94
  A 1.46 1.39 -28.0 0 1 183.79 160.15
  Q 184.08 160.33 184.50 160.29
  C 182.48 161.35 171.50 160.49 167.09 160.61
  A 0.86 0.85 -85.1 0 1 166.23 159.58
  L 166.29 159.25
  Z"
/>
<path fill="#fd0804" fill-opacity="0.996" d="
  M 186.00 160.54
  Q 186.32 160.52 186.58 160.68
  A 0.88 0.86 -75.0 0 1 187.00 161.43
  L 187.00 175.27
  A 0.74 0.73 79.7 0 1 186.53 175.96
  Q 185.89 176.21 185.25 175.71
  C 185.43 172.85 185.21 161.25 186.00 160.54
  Z"
/>
<path fill="#5512d4" fill-opacity="0.890" d="
  M 166.94 161.05
  L 166.60 160.95
  Q 165.36 160.58 166.64 160.79
  C 170.26 161.40 178.35 160.77 180.71 163.11
  A 0.59 0.59 0.0 0 1 180.76 163.89
  C 178.46 166.87 164.48 165.29 162.39 165.09
  A 0.55 0.55 0.0 0 1 161.91 164.38
  L 162.05 163.91
  A 0.52 0.51 -84.2 0 1 162.50 163.54
  Q 164.16 163.36 164.30 161.85
  A 0.66 0.65 2.4 0 1 164.96 161.25
  L 166.91 161.25
  Q 167.62 161.25 166.94 161.05
  Z"
/>
<path fill="#fd0804" fill-opacity="0.996" d="
  M 360.29 164.00
  Q 360.97 170.22 359.25 176.12
  Q 358.35 169.72 358.78 163.70
  A 0.57 0.57 0.0 0 1 359.37 163.17
  Q 359.94 163.19 360.29 164.00
  Z"
/>
<path fill="#fd0804" fill-opacity="0.996" d="
  M 138.30 163.24
  Q 139.52 169.27 138.95 175.25
  Q 138.84 176.39 137.50 175.96
  Q 136.89 169.52 138.30 163.24
  Z"
/>
<path fill="#12b7c2" fill-opacity="0.961" d="
  M 188.29 164.00
  Q 189.40 167.50 188.29 171.00
  L 188.29 164.00
  Z"
/>
<path fill="#12b7c2" fill-opacity="0.961" d="
  M 352.46 165.75
  Q 352.98 170.13 352.46 174.50
  Q 351.80 170.13 352.46 165.75
  Z"
/>
<path fill="#12b7c2" fill-opacity="0.961" d="
  M 177.75 166.54
  Q 179.79 165.90 179.78 167.98
  Q 179.77 169.99 177.75 169.99
  L 161.25 170.01
  A 0.88 0.87 77.3 0 0 160.46 171.26
  Q 161.10 172.60 159.89 175.32
  Q 158.79 172.00 159.71 169.92
  A 0.69 0.67 -77.9 0 1 160.33 169.51
  L 177.61 169.39
  A 0.89 0.88 -75.9 0 0 178.39 168.92
  Q 179.11 167.56 177.75 166.54
  Z"
/>
<path fill="#acacb3" fill-opacity="0.973" d="
  M 331.21 168.50
  L 331.79 169.50
  L 331.42 169.72
  A 0.48 0.47 -34.8 0 1 330.80 169.61
  L 330.29 169.00
  L 331.21 168.50
  Z"
/>
<path fill="#fd0804" fill-opacity="0.996" d="
  M 214.75 170.29
  Q 214.99 170.18 215.23 170.21
  A 0.78 0.77 -4.4 0 1 215.89 170.77
  Q 216.84 174.03 214.43 175.89
  L 214.75 170.29
  Z"
/>
<path fill="#fd0804" fill-opacity="0.996" d="
  M 264.09 171.23
  C 264.00 172.59 264.75 176.67 262.50 175.96
  Q 261.28 172.33 264.09 171.23
  Z"
/>
<path fill="#12b7c2" fill-opacity="0.961" d="
  M 149.75 171.29
  Q 151.67 172.66 150.46 175.00
  Q 149.25 173.40 149.75 171.29
  Z"
/>
<path fill="#fd0804" fill-opacity="0.996" d="
  M 225.64 171.34
  L 225.46 175.18
  A 0.64 0.63 86.1 0 1 224.94 175.78
  L 224.00 175.96
  Q 222.83 172.36 225.64 171.34
  Z"
/>
<path fill="#fd0804" fill-opacity="0.996" d="
  M 240.50 171.54
  L 243.72 175.41
  A 0.37 0.37 0.0 0 1 243.54 176.00
  Q 243.02 176.16 242.50 175.71
  L 239.34 172.02
  A 0.44 0.44 0.0 0 1 239.52 171.33
  Q 240.08 171.12 240.50 171.54
  Z"
/>
<path fill="#12b7c2" fill-opacity="0.961" d="
  M 371.00 171.29
  Q 372.76 172.58 371.71 174.75
  L 371.00 171.29
  Z"
/>
</svg>
