<?xml version="1.0" encoding="UTF-8" standalone="no"?>
<!DOCTYPE svg PUBLIC "-//W3C//DTD SVG 1.1//EN" "http://www.w3.org/Graphics/SVG/1.1/DTD/svg11.dtd">
<svg xmlns="http://www.w3.org/2000/svg" version="1.1" viewBox="0 0 500 200">
<g stroke-width="2.00" fill="none" stroke-linecap="butt">
<path stroke="#3c314d" stroke-opacity="0.988" vector-effect="non-scaling-stroke" d="
  M 278.71 86.25
  Q 279.27 81.91 276.13 79.52
  A 1.00 1.00 0.0 0 0 274.68 79.78
  Q 274.52 80.04 274.29 80.25"
/>
<path stroke="#a556a7" stroke-opacity="0.988" vector-effect="non-scaling-stroke" d="
  M 274.29 80.25
  L 273.75 79.96"
/>
<path stroke="#b3b0bc" stroke-opacity="0.988" vector-effect="non-scaling-stroke" d="
  M 256.46 62.75
  Q 250.40 55.77 242.76 50.52
  A 0.99 0.98 -46.6 0 0 241.58 50.56
  L 237.78 53.54"
/>
<path stroke="#a680aa" stroke-opacity="0.984" vector-effect="non-scaling-stroke" d="
  M 237.78 53.54
  L 237.25 53.21"
/>
<path stroke="#a680aa" stroke-opacity="0.984" vector-effect="non-scaling-stroke" d="
  M 228.79 63.50
  Q 227.98 62.67 227.71 61.75"
/>
<path stroke="#f2a7ea" vector-effect="non-scaling-stroke" d="
  M 258.57 66.69
  L 243.47 53.56
  A 1.00 1.00 0.0 0 0 242.17 53.56
  Q 235.12 59.52 228.44 65.94
  Q 228.08 66.29 227.71 65.75"
/>
<path stroke="#b3b0bc" stroke-opacity="0.988" vector-effect="non-scaling-stroke" d="
  M 228.29 64.25
  L 228.79 63.50"
/>
<path stroke="#f3d1ed" vector-effect="non-scaling-stroke" d="
  M 228.79 63.50
  Q 232.83 58.13 237.78 53.54"
/>
<path stroke="#7f2262" vector-effect="non-scaling-stroke" d="
  M 273.75 92.96
  L 273.25 93.21"
/>
<path stroke="#7d537f" vector-effect="non-scaling-stroke" d="
  M 273.25 93.21
  L 264.08 97.48
  A 1.06 1.05 -2.4 0 0 263.56 98.04
  L 263.29 98.75"
/>
<path stroke="#3c314d" stroke-opacity="0.988" vector-effect="non-scaling-stroke" d="
  M 263.29 98.75
  C 262.64 97.28 259.19 99.72 257.42 100.50
  A 0.27 0.26 86.0 0 0 257.26 100.69
  Q 257.21 100.98 257.50 101.04"
/>
<path stroke="#157b8e" vector-effect="non-scaling-stroke" d="
  M 257.04 101.25
  Q 255.46 101.11 254.04 102.00"
/>
<path stroke="#1d1e4a" vector-effect="non-scaling-stroke" d="
  M 254.04 102.00
  Q 253.81 101.40 254.19 101.19
  Q 260.15 97.83 265.94 94.05"
/>
<path stroke="#1a0f32" vector-effect="non-scaling-stroke" d="
  M 265.94 94.05
  L 270.01 92.99
  A 1.01 1.01 0.0 0 0 270.74 91.84
  L 270.69 91.56
  A 0.64 0.64 0.0 0 0 269.73 91.13
  L 268.26 92.00
  Q 266.34 93.13 266.77 90.94
  L 267.43 87.57
  A 0.99 0.99 0.0 0 0 267.21 86.72
  C 265.83 85.12 262.82 86.51 263.21 84.50"
/>
<path stroke="#7d2a7c" vector-effect="non-scaling-stroke" d="
  M 274.29 80.25
  C 274.25 81.79 264.92 83.98 263.21 84.50"
/>
<path stroke="#81348b" vector-effect="non-scaling-stroke" d="
  M 263.21 84.50
  L 249.25 88.54"
/>
<path stroke="#8443a3" vector-effect="non-scaling-stroke" d="
  M 249.25 88.54
  Q 245.11 90.30 240.78 89.86"
/>
<path stroke="#81348b" vector-effect="non-scaling-stroke" d="
  M 240.78 89.86
  L 222.25 84.29"
/>
<path stroke="#7d2a7c" vector-effect="non-scaling-stroke" d="
  M 222.25 84.29
  C 218.91 83.31 211.08 81.75 211.50 80.46"
/>
<path stroke="#3c314d" stroke-opacity="0.988" vector-effect="non-scaling-stroke" d="
  M 211.21 79.50
  C 210.74 79.33 210.51 79.20 210.03 79.44
  Q 206.52 81.25 206.64 84.96"
/>
<path stroke="#7da0e7" vector-effect="non-scaling-stroke" d="
  M 256.75 102.46
  Q 255.88 103.77 254.55 103.27"
/>
<path stroke="#7dcaea" vector-effect="non-scaling-stroke" d="
  M 247.25 107.79
  Q 245.72 107.75 245.21 109.00"
/>
<path stroke="#1d94b5" vector-effect="non-scaling-stroke" d="
  M 245.21 109.00
  L 244.85 108.10
  A 1.01 1.00 -18.5 0 0 243.65 107.51
  L 242.79 107.75
  A 1.00 0.99 -29.9 0 1 241.81 107.49
  Q 239.95 105.59 240.46 109.00"
/>
<path stroke="#7dcaea" vector-effect="non-scaling-stroke" d="
  M 240.46 109.00
  L 239.73 107.30
  A 1.07 1.02 6.2 0 0 239.36 106.86
  L 235.75 104.46"
/>
<path stroke="#1d94b5" vector-effect="non-scaling-stroke" d="
  M 254.04 102.00
  Q 253.12 102.92 251.80 102.86
  A 1.04 1.01 21.8 0 0 251.03 103.18
  Q 250.14 104.12 248.75 103.21"
/>
<path stroke="#e770be" vector-effect="non-scaling-stroke" d="
  M 284.89 91.24
  Q 287.26 91.91 287.75 94.21"
/>
<path stroke="#e647bb" vector-effect="non-scaling-stroke" d="
  M 268.29 101.50
  L 265.75 98.46"
/>
<path stroke="#e770be" vector-effect="non-scaling-stroke" d="
  M 265.75 98.46
  C 266.66 98.04 274.90 94.65 273.25 93.21"
/>
<path stroke="#212859" vector-effect="non-scaling-stroke" d="
  M 240.78 89.86
  Q 240.10 92.12 237.71 92.25"
/>
<path stroke="#3e1895" vector-effect="non-scaling-stroke" d="
  M 237.71 92.25
  C 236.79 91.84 232.11 89.03 231.60 89.31
  A 0.33 0.32 47.2 0 0 231.58 89.87
  L 233.25 90.96"
/>
<path stroke="#212859" vector-effect="non-scaling-stroke" d="
  M 233.25 90.96
  Q 230.55 95.18 233.98 97.09
  C 237.00 98.77 239.86 96.74 242.62 100.63
  A 0.99 0.99 0.0 0 0 244.14 100.75
  L 246.86 98.00
  A 1.02 0.97 15.6 0 1 247.37 97.73
  L 252.86 96.63
  A 1.03 1.02 -89.1 0 0 253.65 95.86
  Q 254.25 93.12 253.21 90.50"
/>
<path stroke="#3e1895" vector-effect="non-scaling-stroke" d="
  M 253.21 90.50
  Q 253.53 90.30 253.75 90.06
  Q 254.69 89.06 253.45 89.65
  L 249.04 91.75"
/>
<path stroke="#212859" vector-effect="non-scaling-stroke" d="
  M 249.04 91.75
  L 249.25 88.54"
/>
<path stroke="#212859" vector-effect="non-scaling-stroke" d="
  M 265.94 94.05
  Q 257.05 98.11 248.75 103.21"
/>
<path stroke="#1a859d" vector-effect="non-scaling-stroke" d="
  M 248.75 103.21
  L 243.56 105.95
  A 0.99 0.97 -44.4 0 1 242.63 105.95
  L 220.91 94.57"
/>
<path stroke="#e578d8" vector-effect="non-scaling-stroke" d="
  M 265.75 98.46
  Q 264.30 99.33 262.71 99.50"
/>
<path stroke="#a680aa" stroke-opacity="0.984" vector-effect="non-scaling-stroke" d="
  M 263.00 99.04
  L 263.29 98.75"
/>
<path stroke="#4127ad" vector-effect="non-scaling-stroke" d="
  M 249.04 91.75
  L 243.61 94.81
  A 1.00 0.96 37.0 0 1 242.86 94.90
  Q 240.02 94.15 237.71 92.25"
/>
<path stroke="#1a0f32" vector-effect="non-scaling-stroke" d="
  M 222.25 84.29
  Q 221.74 85.42 220.54 85.48
  A 1.00 1.00 0.0 0 0 219.66 86.11
  L 218.89 88.05
  A 1.04 1.00 -46.0 0 0 218.89 88.78
  L 219.98 91.56
  A 1.01 1.01 0.0 0 1 219.80 92.59
  Q 218.92 93.59 220.91 94.57"
/>
<path stroke="#157b8e" vector-effect="non-scaling-stroke" d="
  M 220.91 94.57
  Q 226.02 98.08 231.44 101.06
  Q 232.84 101.83 231.50 102.29"
/>
<path stroke="#7d537f" vector-effect="non-scaling-stroke" d="
  M 231.50 102.29
  Q 221.81 97.67 212.06 93.19
  Q 211.80 93.07 211.21 92.25"
/>
<path stroke="#3c314d" stroke-opacity="0.988" vector-effect="non-scaling-stroke" d="
  M 211.21 92.25
  Q 210.14 90.41 208.25 89.54"
/>
<path stroke="#212859" vector-effect="non-scaling-stroke" d="
  M 244.04 115.50
  Q 244.09 114.40 243.58 113.49
  A 1.03 1.02 43.4 0 1 243.55 112.58
  Q 245.61 108.24 240.75 109.54"
/>
<path stroke="#e578d8" vector-effect="non-scaling-stroke" d="
  M 238.86 110.57
  Q 240.14 112.80 240.51 115.45
  A 0.66 0.65 -85.8 0 0 240.96 115.98
  C 241.59 116.17 241.89 118.71 242.29 119.50"
/>
<path stroke="#e578d8" vector-effect="non-scaling-stroke" d="
  M 242.29 123.50
  Q 242.07 126.33 243.17 125.15
  A 1.01 1.01 0.0 0 0 243.44 124.37
  L 243.21 122.00"
/>
<path stroke="#e578d8" vector-effect="non-scaling-stroke" d="
  M 243.21 119.50
  Q 244.94 118.07 243.50 116.71"
/>
<path stroke="#81348b" vector-effect="non-scaling-stroke" d="
  M 243.50 116.71
  L 244.04 115.50"
/>
<path stroke="#8443a3" vector-effect="non-scaling-stroke" d="
  M 244.04 115.50
  L 244.71 113.50"
/>
<path stroke="#e578d8" vector-effect="non-scaling-stroke" d="
  M 244.71 113.50
  Q 244.68 114.13 245.15 114.33
  A 0.41 0.41 0.0 0 0 245.72 113.95
  C 245.67 109.22 249.15 109.45 250.50 105.96"
/>
<path stroke="#7d2a7c" vector-effect="non-scaling-stroke" d="
  M 252.00 110.71
  Q 250.53 112.54 250.29 115.00"
/>
<path stroke="#e578d8" vector-effect="non-scaling-stroke" d="
  M 255.00 118.21
  L 255.75 118.46"
/>
<path stroke="#e578d8" vector-effect="non-scaling-stroke" d="
  M 245.96 128.75
  L 245.79 130.50"
/>
<path stroke="#e578d8" vector-effect="non-scaling-stroke" d="
  M 239.00 130.29
  L 239.71 129.50"
/>
<path stroke="#e578d8" vector-effect="non-scaling-stroke" d="
  M 237.15 121.51
  Q 238.06 121.33 236.96 120.00"
/>
<path stroke="#a556a7" stroke-opacity="0.988" vector-effect="non-scaling-stroke" d="
  M 235.46 115.75
  L 235.25 115.21"
/>
<path stroke="#7d2a7c" vector-effect="non-scaling-stroke" d="
  M 235.25 115.21
  L 234.71 112.75"
/>
<path stroke="#e578d8" vector-effect="non-scaling-stroke" d="
  M 234.71 112.75
  Q 234.22 108.11 229.79 107.20"
/>
<path stroke="#856ca6" vector-effect="non-scaling-stroke" d="
  M 240.46 109.00
  L 240.75 109.54"
/>
<path stroke="#825d8e" vector-effect="non-scaling-stroke" d="
  M 240.75 109.54
  C 241.03 111.36 240.72 117.41 243.50 116.71"
/>
<path stroke="#856ca6" vector-effect="non-scaling-stroke" d="
  M 244.71 113.50
  L 245.21 109.00"
/>
<path stroke="#7dcaea" vector-effect="non-scaling-stroke" d="
  M 231.50 102.29
  L 235.75 104.46"
/>
<path stroke="#e6a2db" stroke-opacity="0.996" vector-effect="non-scaling-stroke" d="
  M 235.75 104.46
  Q 232.72 104.36 234.59 105.02"
/>
<path stroke="#e6a2db" stroke-opacity="0.996" vector-effect="non-scaling-stroke" d="
  M 238.25 107.54
  Q 238.93 108.87 238.86 110.57"
/>
<path stroke="#e578d8" vector-effect="non-scaling-stroke" d="
  M 238.86 110.57
  Q 234.12 105.50 232.72 104.79
  Q 226.15 101.45 219.50 98.21"
/>
<path stroke="#4127ad" vector-effect="non-scaling-stroke" d="
  M 253.21 90.50
  L 243.32 96.24
  A 1.00 1.00 0.0 0 1 242.31 96.23
  L 233.25 90.96"
/>
<path stroke="#a680aa" stroke-opacity="0.984" vector-effect="non-scaling-stroke" d="
  M 211.21 92.25
  Q 210.39 91.58 209.54 92.00"
/>
<path stroke="#a74e8d" stroke-opacity="0.988" vector-effect="non-scaling-stroke" d="
  M 209.54 92.00
  L 209.46 91.75"
/>
<path stroke="#3c314d" stroke-opacity="0.988" vector-effect="non-scaling-stroke" d="
  M 235.25 115.21
  Q 231.76 116.16 228.75 114.04"
/>
<path stroke="#7d537f" vector-effect="non-scaling-stroke" d="
  M 228.75 114.04
  L 228.04 113.50"
/>
<path stroke="#8a8291" vector-effect="non-scaling-stroke" d="
  M 228.04 113.50
  Q 227.81 113.04 227.81 112.43"
/>
<path stroke="#7d537f" vector-effect="non-scaling-stroke" d="
  M 227.81 112.43
  Q 226.18 111.14 225.71 109.25"
/>
<path stroke="#a680aa" stroke-opacity="0.984" vector-effect="non-scaling-stroke" d="
  M 228.75 114.04
  Q 229.19 114.47 228.82 114.83
  A 0.49 0.45 -68.1 0 1 228.57 114.95
  Q 227.59 115.05 228.21 115.75"
/>
<path stroke="#7d537f" vector-effect="non-scaling-stroke" d="
  M 234.71 112.75
  Q 231.97 109.97 228.50 108.21"
/>
<path stroke="#e770be" vector-effect="non-scaling-stroke" d="
  M 209.54 92.00
  C 209.54 93.57 217.92 97.46 219.50 98.21"
/>
<path stroke="#e647bb" vector-effect="non-scaling-stroke" d="
  M 219.50 98.21
  Q 219.44 99.01 219.06 99.66
  A 1.00 0.99 14.2 0 1 218.21 100.16
  L 214.75 100.21"
/>
<path stroke="#f3d1ed" vector-effect="non-scaling-stroke" d="
  M 219.75 108.46
  C 218.32 108.53 216.26 108.16 215.18 109.08
  Q 214.25 109.87 214.72 110.99
  Q 215.25 112.27 214.11 111.49
  L 213.58 111.12
  A 1.02 1.01 44.6 0 0 212.45 111.12
  Q 211.92 111.49 211.38 111.58
  A 1.01 1.00 66.9 0 0 210.75 113.16
  Q 214.33 118.08 219.35 121.64
  A 0.99 0.98 47.1 0 0 220.43 121.69
  Q 221.03 121.34 221.75 121.50"
/>
<path stroke="#3c314d" stroke-opacity="0.988" vector-effect="non-scaling-stroke" d="
  M 261.25 112.29
  Q 259.36 111.69 258.25 112.96"
/>
<path stroke="#a680aa" stroke-opacity="0.984" vector-effect="non-scaling-stroke" d="
  M 229.00 107.71
  L 228.50 108.21"
/>
<path stroke="#3c314d" stroke-opacity="0.988" vector-effect="non-scaling-stroke" d="
  M 228.50 108.21
  Q 225.98 106.44 225.71 109.25"
/>
<path stroke="#a680aa" stroke-opacity="0.984" vector-effect="non-scaling-stroke" d="
  M 225.71 109.25
  L 225.25 109.29"
/>
<path stroke="#a680aa" stroke-opacity="0.984" vector-effect="non-scaling-stroke" d="
  M 221.79 108.75
  L 221.75 108.04"
/>
<path stroke="#f3d1ed" vector-effect="non-scaling-stroke" d="
  M 224.25 110.79
  Q 225.72 112.15 227.81 112.43"
/>
<path stroke="#f3d1ed" vector-effect="non-scaling-stroke" d="
  M 228.04 113.50
  Q 226.93 115.20 225.09 114.92
  A 0.32 0.32 0.0 0 0 224.72 115.19
  C 224.68 115.41 226.53 117.18 226.66 118.37
  A 1.01 1.00 -16.1 0 1 226.10 119.37
  L 221.75 121.50"
/>
<path stroke="#e770be" vector-effect="non-scaling-stroke" d="
  M 203.50 91.04
  Q 201.02 92.00 198.39 92.07
  A 1.01 1.00 0.3 0 0 197.41 93.03
  Q 197.40 93.49 197.25 93.96"
/>
<path stroke="#3c314d" stroke-opacity="0.988" vector-effect="non-scaling-stroke" d="
  M 263.04 110.00
  L 262.50 108.29"
/>
<path stroke="#264d6d" stroke-opacity="0.992" vector-effect="non-scaling-stroke" d="
  M 262.50 108.29
  C 258.63 106.47 255.88 109.21 252.75 110.71"
/>
<path stroke="#3ca9b9" stroke-opacity="0.988" vector-effect="non-scaling-stroke" d="
  M 224.00 107.29
  Q 223.32 108.46 221.75 108.04"
/>
<path stroke="#7dcaea" vector-effect="non-scaling-stroke" d="
  M 221.75 108.04
  L 221.00 107.54"
/>
<path stroke="#f3d1ed" vector-effect="non-scaling-stroke" d="
  M 223.21 109.75
  L 220.00 108.54"
/>
<path stroke="#3984f1" vector-effect="non-scaling-stroke" d="
  M 54.27 150.57
  L 31.61 151.02
  A 1.00 1.00 0.0 0 0 30.63 152.02
  L 30.52 165.55"
/>
<path stroke="#ae0c75" vector-effect="non-scaling-stroke" d="
  M 55.82 151.03
  L 55.68 156.91"
/>
<path stroke="#ad1591" vector-effect="non-scaling-stroke" d="
  M 37.79 157.00
  Q 35.48 156.87 36.79 159.50"
/>
<path stroke="#4a56d1" stroke-opacity="0.992" vector-effect="non-scaling-stroke" d="
  M 36.79 159.50
  Q 35.99 160.74 37.26 160.75
  Q 45.42 160.77 53.61 160.73
  A 1.03 1.01 -63.4 0 0 54.24 160.51
  L 54.50 160.29"
/>
<path stroke="#ae0c75" vector-effect="non-scaling-stroke" d="
  M 55.75 160.53
  L 55.50 175.71"
/>
<path stroke="#3984f1" vector-effect="non-scaling-stroke" d="
  M 30.46 175.25
  Q 31.13 173.39 30.25 171.40
  A 1.00 1.00 0.0 0 1 31.17 170.00
  L 48.72 170.00
  A 1.01 1.00 7.5 0 0 49.69 169.26
  Q 50.72 165.37 47.00 166.71"
/>
<path stroke="#9a5478" stroke-opacity="0.992" vector-effect="non-scaling-stroke" d="
  M 37.21 159.75
  L 36.79 159.50"
/>
<path stroke="#3984f1" vector-effect="non-scaling-stroke" d="
  M 83.25 150.71
  L 60.23 150.91
  A 1.00 1.00 0.0 0 0 59.24 151.92
  L 59.52 174.33
  A 0.41 0.41 0.0 0 1 59.25 174.73
  Q 59.03 174.80 58.96 175.00"
/>
<path stroke="#ae0c75" vector-effect="non-scaling-stroke" d="
  M 84.75 151.04
  L 84.50 170.96"
/>
<path stroke="#ad1591" vector-effect="non-scaling-stroke" d="
  M 67.04 171.50
  Q 66.36 170.83 65.73 171.20
  A 0.80 0.79 -16.3 0 0 65.34 171.90
  L 65.40 176.03"
/>
<path stroke="#3984f1" vector-effect="non-scaling-stroke" d="
  M 112.25 150.79
  L 89.31 150.94
  A 1.00 0.99 -1.4 0 0 88.31 151.98
  Q 88.85 163.14 88.22 175.09"
/>
<path stroke="#ad1591" vector-effect="non-scaling-stroke" d="
  M 113.28 151.03
  L 113.25 175.96"
/>
<path stroke="#3984f1" vector-effect="non-scaling-stroke" d="
  M 107.25 175.21
  Q 108.61 172.29 106.16 171.19"
/>
<path stroke="#ad1591" vector-effect="non-scaling-stroke" d="
  M 95.28 171.44
  Q 93.46 173.22 94.11 176.00"
/>
<path stroke="#3984f1" vector-effect="non-scaling-stroke" d="
  M 141.25 150.71
  L 118.09 151.05
  A 1.00 1.00 0.0 0 0 117.10 152.03
  Q 116.89 162.52 117.04 172.65
  C 117.06 173.48 117.63 174.14 116.71 175.00"
/>
<path stroke="#ad1591" vector-effect="non-scaling-stroke" d="
  M 141.75 151.04
  L 142.42 156.82"
/>
<path stroke="#ae0c75" vector-effect="non-scaling-stroke" d="
  M 124.50 156.96
  Q 124.15 156.74 123.80 156.76
  A 0.80 0.80 0.0 0 0 123.04 157.56
  L 123.12 169.49"
/>
<path stroke="#4a56d1" stroke-opacity="0.992" vector-effect="non-scaling-stroke" d="
  M 123.12 169.49
  Q 132.26 170.46 141.25 169.96"
/>
<path stroke="#ad1591" vector-effect="non-scaling-stroke" d="
  M 141.96 170.25
  L 142.08 176.05"
/>
<path stroke="#9c4b5c" stroke-opacity="0.992" vector-effect="non-scaling-stroke" d="
  M 124.21 168.50
  L 123.12 169.49"
/>
<path stroke="#3984f1" vector-effect="non-scaling-stroke" d="
  M 170.52 150.60
  L 146.83 151.06
  A 1.00 1.00 0.0 0 0 145.85 152.03
  Q 145.56 162.27 145.96 174.22
  Q 145.98 174.63 145.50 174.79"
/>
<path stroke="#ae0c75" vector-effect="non-scaling-stroke" d="
  M 171.25 151.04
  L 171.04 156.75"
/>
<path stroke="#ae0c75" vector-effect="non-scaling-stroke" d="
  M 153.29 157.00
  Q 150.77 156.77 152.04 159.50"
/>
<path stroke="#4a56d1" stroke-opacity="0.992" vector-effect="non-scaling-stroke" d="
  M 152.04 159.50
  Q 151.96 159.74 151.96 159.96
  A 0.80 0.80 0.0 0 0 152.76 160.73
  Q 157.96 160.75 163.13 160.58
  C 164.84 160.52 167.25 161.22 169.50 160.21"
/>
<path stroke="#ae0c75" vector-effect="non-scaling-stroke" d="
  M 170.50 160.29
  Q 171.35 162.71 170.98 165.36
  A 0.51 0.51 0.0 0 0 171.49 165.94
  C 172.56 165.93 172.29 161.93 172.46 161.00"
/>
<path stroke="#a15ce2" vector-effect="non-scaling-stroke" d="
  M 172.46 161.00
  L 172.78 166.07"
/>
<path stroke="#ae0c75" vector-effect="non-scaling-stroke" d="
  M 153.29 166.75
  Q 150.74 165.42 152.04 169.00"
/>
<path stroke="#4a56d1" stroke-opacity="0.992" vector-effect="non-scaling-stroke" d="
  M 152.04 169.00
  C 151.41 171.04 166.86 169.99 170.00 169.79"
/>
<path stroke="#ae0c75" vector-effect="non-scaling-stroke" d="
  M 171.25 170.04
  L 171.00 175.96"
/>
<path stroke="#9c4b5c" stroke-opacity="0.992" vector-effect="non-scaling-stroke" d="
  M 153.00 159.79
  Q 152.32 160.31 152.04 159.50"
/>
<path stroke="#f3516d" vector-effect="non-scaling-stroke" d="
  M 172.54 160.75
  L 172.46 161.00"
/>
<path stroke="#f3516d" vector-effect="non-scaling-stroke" d="
  M 172.50 170.21
  Q 171.55 172.84 172.79 175.25"
/>
<path stroke="#9c4b5c" stroke-opacity="0.992" vector-effect="non-scaling-stroke" d="
  M 153.21 168.75
  L 152.04 169.00"
/>
<path stroke="#7dcaea" vector-effect="non-scaling-stroke" d="
  M 173.75 150.04
  Q 172.73 151.52 173.52 152.94"
/>
<path stroke="#f3516d" vector-effect="non-scaling-stroke" d="
  M 172.96 155.25
  Q 172.13 153.34 172.46 151.25"
/>
<path stroke="#8ae8a9" vector-effect="non-scaling-stroke" d="
  M 186.50 150.46
  L 175.72 151.07
  A 1.00 0.99 89.4 0 0 174.78 152.04
  L 174.46 163.00"
/>
<path stroke="#ff702d" vector-effect="non-scaling-stroke" d="
  M 200.04 151.00
  Q 199.29 161.09 200.10 171.25"
/>
<path stroke="#ff702d" vector-effect="non-scaling-stroke" d="
  M 183.00 171.46
  Q 182.25 171.07 181.54 171.24
  A 1.00 1.00 0.0 0 0 180.77 172.25
  L 180.91 175.93"
/>
<path stroke="#8ae8a9" vector-effect="non-scaling-stroke" d="
  M 237.25 150.71
  L 231.69 151.16
  A 1.00 0.98 -77.5 0 0 230.90 151.67
  L 227.79 157.25"
/>
<path stroke="#ff702d" vector-effect="non-scaling-stroke" d="
  M 221.00 150.79
  Q 222.43 155.37 225.37 159.14"
/>
<path stroke="#ff702d" vector-effect="non-scaling-stroke" d="
  M 237.75 151.04
  L 234.54 159.25"
/>
<path stroke="#ff702d" vector-effect="non-scaling-stroke" d="
  M 238.50 160.29
  L 238.71 175.75"
/>
<path stroke="#8ae8a9" vector-effect="non-scaling-stroke" d="
  M 232.46 175.25
  L 232.48 167.31
  A 0.81 0.80 86.3 0 0 231.57 166.51
  Q 231.13 166.57 231.03 166.87"
/>
<path stroke="#ff702d" vector-effect="non-scaling-stroke" d="
  M 221.29 166.75
  Q 220.81 166.40 220.32 166.35
  A 1.01 1.00 5.9 0 0 219.23 167.23
  Q 218.73 171.51 219.46 175.75"
/>
<path stroke="#8ae8a9" vector-effect="non-scaling-stroke" d="
  M 253.00 150.46
  L 243.43 151.03
  A 1.06 0.98 -63.6 0 0 242.88 151.24
  L 242.54 151.50"
/>
<path stroke="#1d94b5" vector-effect="non-scaling-stroke" d="
  M 242.54 151.50
  L 241.29 151.25"
/>
<path stroke="#ff702d" vector-effect="non-scaling-stroke" d="
  M 267.25 150.79
  L 267.00 156.96"
/>
<path stroke="#f3c09a" vector-effect="non-scaling-stroke" d="
  M 250.00 156.79
  L 249.25 156.79"
/>
<path stroke="#fe7949" vector-effect="non-scaling-stroke" d="
  M 249.25 156.79
  Q 247.57 157.00 248.25 160.28"
/>
<path stroke="#ff702d" vector-effect="non-scaling-stroke" d="
  M 267.75 160.29
  Q 266.94 163.32 267.20 166.86"
/>
<path stroke="#f3c09a" vector-effect="non-scaling-stroke" d="
  M 250.00 166.79
  Q 247.29 166.00 248.29 169.25"
/>
<path stroke="#ff702d" vector-effect="non-scaling-stroke" d="
  M 267.21 170.25
  Q 266.95 173.14 267.89 175.98"
/>
<path stroke="#928b65" vector-effect="non-scaling-stroke" d="
  M 242.21 153.00
  L 242.54 151.50"
/>
<path stroke="#f15a8a" vector-effect="non-scaling-stroke" d="
  M 249.25 156.79
  Q 248.20 158.63 249.71 159.00"
/>
<path stroke="#7da0e7" vector-effect="non-scaling-stroke" d="
  M 323.52 150.24
  Q 322.26 150.95 320.91 150.95
  Q 311.23 150.93 301.32 151.12
  A 0.99 0.99 0.0 0 0 300.34 152.07
  L 299.53 169.28"
/>
<path stroke="#f03187" vector-effect="non-scaling-stroke" d="
  M 324.75 151.04
  L 325.25 175.96"
/>
<path stroke="#8e73c7" stroke-opacity="0.992" vector-effect="non-scaling-stroke" d="
  M 319.10 175.44
  Q 319.74 173.53 319.51 171.95
  A 1.00 0.99 -79.6 0 0 319.01 171.22
  Q 318.29 170.82 317.50 171.46"
/>
<path stroke="#f03187" vector-effect="non-scaling-stroke" d="
  M 307.25 171.54
  Q 306.63 170.98 306.15 171.46
  A 0.52 0.52 0.0 0 0 306.01 171.84
  L 306.16 175.88"
/>
<path stroke="#7da0e7" vector-effect="non-scaling-stroke" d="
  M 353.25 150.71
  L 329.49 151.07
  A 1.00 1.00 0.0 0 0 328.51 152.07
  L 328.46 165.50"
/>
<path stroke="#f2286b" vector-effect="non-scaling-stroke" d="
  M 354.00 151.04
  L 353.50 171.46"
/>
<path stroke="#f03187" vector-effect="non-scaling-stroke" d="
  M 351.29 171.50
  Q 349.12 171.19 350.77 172.73
  Q 352.12 173.99 352.50 175.71"
/>
<path stroke="#f2286b" vector-effect="non-scaling-stroke" d="
  M 336.50 171.54
  C 333.80 170.14 334.93 174.45 334.75 175.79"
/>
<path stroke="#3ca9b9" stroke-opacity="0.988" vector-effect="non-scaling-stroke" d="
  M 381.29 150.50
  L 381.00 150.96"
/>
<path stroke="#7da0e7" vector-effect="non-scaling-stroke" d="
  M 381.00 150.96
  L 357.50 151.29"
/>
<path stroke="#b32f3b" stroke-opacity="0.988" vector-effect="non-scaling-stroke" d="
  M 383.00 151.04
  Q 382.19 153.15 382.50 155.46"
/>
<path stroke="#a556a7" stroke-opacity="0.988" vector-effect="non-scaling-stroke" d="
  M 382.50 155.46
  C 381.10 153.93 382.84 150.84 381.00 150.96"
/>
<path stroke="#f2286b" vector-effect="non-scaling-stroke" d="
  M 382.50 155.46
  Q 382.94 156.09 382.25 156.71"
/>
<path stroke="#f2286b" vector-effect="non-scaling-stroke" d="
  M 365.25 156.96
  Q 364.62 156.59 364.14 156.88
  A 0.81 0.79 75.0 0 0 363.75 157.57
  L 363.79 169.00"
/>
<path stroke="#8e73c7" stroke-opacity="0.992" vector-effect="non-scaling-stroke" d="
  M 363.79 169.00
  Q 363.72 171.13 366.00 169.96"
/>
<path stroke="#a556a7" stroke-opacity="0.988" vector-effect="non-scaling-stroke" d="
  M 369.75 169.96
  L 380.37 170.43
  A 0.67 0.65 23.8 0 0 380.85 170.25
  Q 381.11 169.99 381.50 169.96"
/>
<path stroke="#f03187" vector-effect="non-scaling-stroke" d="
  M 382.50 170.04
  L 383.11 175.94"
/>
<path stroke="#9c4b5c" stroke-opacity="0.992" vector-effect="non-scaling-stroke" d="
  M 364.96 169.00
  L 363.79 169.00"
/>
<path stroke="#7da0e7" vector-effect="non-scaling-stroke" d="
  M 410.27 150.56
  L 387.65 151.07
  A 0.99 0.99 0.0 0 0 386.75 151.68
  Q 386.20 152.98 386.46 154.50"
/>
<path stroke="#1d94b5" vector-effect="non-scaling-stroke" d="
  M 386.46 154.50
  L 385.54 153.25"
/>
<path stroke="#1d94b5" vector-effect="non-scaling-stroke" d="
  M 386.54 160.00
  Q 386.86 158.23 385.75 159.21"
/>
<path stroke="#f2286b" vector-effect="non-scaling-stroke" d="
  M 412.00 151.04
  Q 411.23 163.43 412.20 176.05"
/>
<path stroke="#f03187" vector-effect="non-scaling-stroke" d="
  M 394.09 171.17
  Q 391.19 172.19 392.00 175.96"
/>
<path stroke="#7da0e7" vector-effect="non-scaling-stroke" d="
  M 386.46 171.00
  L 386.54 160.00"
/>
<path stroke="#8443a3" vector-effect="non-scaling-stroke" d="
  M 386.54 160.00
  L 386.46 154.50"
/>
<path stroke="#7da0e7" vector-effect="non-scaling-stroke" d="
  M 439.25 150.71
  L 415.48 151.15"
/>
<path stroke="#f2286b" vector-effect="non-scaling-stroke" d="
  M 440.29 150.77
  Q 440.84 163.25 440.25 175.71"
/>
<path stroke="#f03187" vector-effect="non-scaling-stroke" d="
  M 421.88 160.23
  Q 419.56 164.51 421.54 169.00"
/>
<path stroke="#8e73c7" stroke-opacity="0.992" vector-effect="non-scaling-stroke" d="
  M 421.54 169.00
  Q 420.86 170.86 423.25 170.21"
/>
<path stroke="#9a5478" stroke-opacity="0.992" vector-effect="non-scaling-stroke" d="
  M 422.96 169.00
  L 421.54 169.00"
/>
<path stroke="#7da0e7" vector-effect="non-scaling-stroke" d="
  M 467.52 150.51
  Q 456.48 151.69 445.48 150.56"
/>
<path stroke="#f03187" vector-effect="non-scaling-stroke" d="
  M 469.00 150.79
  L 469.42 157.09"
/>
<path stroke="#f03187" vector-effect="non-scaling-stroke" d="
  M 451.79 157.00
  C 449.89 156.16 450.17 157.82 450.19 158.91
  Q 450.20 160.07 451.25 160.46"
/>
<path stroke="#f03187" vector-effect="non-scaling-stroke" d="
  M 470.25 160.29
  C 468.26 161.83 469.13 164.66 469.18 166.88"
/>
<path stroke="#f03187" vector-effect="non-scaling-stroke" d="
  M 452.25 166.71
  Q 448.89 165.59 450.75 169.04"
/>
<path stroke="#8e73c7" stroke-opacity="0.992" vector-effect="non-scaling-stroke" d="
  M 450.75 169.04
  Q 450.38 171.17 452.21 170.00"
/>
<path stroke="#f03187" vector-effect="non-scaling-stroke" d="
  M 469.25 170.04
  L 469.14 176.10"
/>
<path stroke="#9a5478" stroke-opacity="0.992" vector-effect="non-scaling-stroke" d="
  M 451.71 168.75
  L 450.75 169.04"
/>
<path stroke="#ff702d" vector-effect="non-scaling-stroke" d="
  M 208.76 150.69
  Q 210.29 153.50 209.39 156.72"
/>
<path stroke="#ff702d" vector-effect="non-scaling-stroke" d="
  M 277.00 150.79
  Q 276.66 160.04 277.46 169.25"
/>
<path stroke="#8ae8a9" vector-effect="non-scaling-stroke" d="
  M 277.46 169.25
  Q 278.16 171.25 280.00 169.79"
/>
<path stroke="#8ae8a9" vector-effect="non-scaling-stroke" d="
  M 282.21 169.78
  Q 288.65 170.95 295.08 169.79"
/>
<path stroke="#ff702d" vector-effect="non-scaling-stroke" d="
  M 295.96 170.25
  L 296.34 175.93"
/>
<path stroke="#8ae8a9" vector-effect="non-scaling-stroke" d="
  M 270.83 175.26
  Q 271.59 173.22 271.10 171.30
  C 270.40 168.54 270.53 167.21 270.46 164.75"
/>
<path stroke="#8a797c" vector-effect="non-scaling-stroke" d="
  M 278.71 168.00
  L 277.46 169.25"
/>
<path stroke="#ff702d" vector-effect="non-scaling-stroke" d="
  M 210.71 159.00
  L 210.35 159.11
  A 0.99 0.99 0.0 0 0 209.63 159.96
  Q 208.84 167.82 210.26 175.83"
/>
<path stroke="#8443a3" vector-effect="non-scaling-stroke" d="
  M 238.89 87.76
  Q 242.91 89.63 246.75 87.54"
/>
<path stroke="#81348b" vector-effect="non-scaling-stroke" d="
  M 246.75 87.54
  L 269.58 81.04
  Q 271.34 80.53 269.96 79.32
  L 243.53 56.18
  A 0.99 0.99 0.0 0 0 242.22 56.17
  L 215.35 79.41
  Q 213.95 80.62 215.73 81.13
  L 238.89 87.76"
/>
<path stroke="#212859" vector-effect="non-scaling-stroke" d="
  M 246.75 87.54
  C 244.38 87.13 247.55 84.53 248.04 83.94
  A 1.02 1.01 49.8 0 0 248.13 82.79
  Q 247.60 81.90 247.76 80.83
  A 1.03 0.99 -58.2 0 0 247.61 80.12
  Q 245.68 77.20 242.18 76.61
  A 1.05 1.02 31.8 0 0 241.45 76.77
  Q 235.52 80.74 238.88 86.16
  A 1.00 0.96 -58.0 0 1 239.02 86.82
  L 238.89 87.76"
/>
<path stroke="#3e1895" vector-effect="non-scaling-stroke" d="
  M 234.59 68.71
  C 237.13 66.60 239.79 64.95 242.05 62.49
  A 1.01 1.00 41.0 0 1 243.43 62.40
  L 249.24 67.23
  A 0.23 0.23 0.0 0 0 249.44 67.27
  L 249.68 67.19
  A 0.21 0.21 0.0 0 0 249.76 66.84
  L 243.47 61.01
  A 1.01 1.00 45.2 0 0 242.11 61.00
  L 233.82 68.66
  Q 229.57 72.58 234.16 69.06
  Q 234.38 68.89 234.59 68.71"
/>
<path stroke="#1d94b5" vector-effect="non-scaling-stroke" d="
  M 245.81 79.69
  Q 243.68 77.62 240.36 78.64
  A 1.04 0.99 -83.2 0 0 239.78 79.12
  Q 237.95 82.44 240.59 85.30
  A 0.97 0.94 73.8 0 0 241.13 85.61
  C 247.86 86.90 247.26 79.45 245.81 79.69"
/>
<path stroke="#2a587d" stroke-opacity="0.992" vector-effect="non-scaling-stroke" d="
  M 225.25 88.96
  Q 230.79 90.22 226.04 88.25"
/>
<path stroke="#1a859d" vector-effect="non-scaling-stroke" d="
  M 226.04 88.25
  C 221.38 83.59 216.92 90.72 225.25 88.96"
/>
<path stroke="#26c4d9" stroke-opacity="0.992" vector-effect="non-scaling-stroke" d="
  M 226.04 88.25
  L 225.25 88.96"
/>
<path stroke="#2a587d" stroke-opacity="0.992" vector-effect="non-scaling-stroke" d="
  M 264.20 87.08
  Q 263.66 86.87 263.19 86.78
  Q 262.31 86.62 260.98 87.37
  Q 260.33 87.74 259.67 88.10
  Q 258.09 88.96 259.89 89.06
  Q 261.13 89.13 262.29 89.53
  A 0.97 0.95 -47.4 0 0 263.04 89.49
  L 264.25 88.91
  Q 266.29 87.93 264.20 87.08"
/>
<path stroke="#1d94b5" vector-effect="non-scaling-stroke" d="
  M 252.21 93.58
  Q 250.89 93.04 249.82 94.03
  Q 248.42 95.33 250.27 95.74
  Q 251.43 96.00 252.40 95.32
  Q 253.91 94.27 252.21 93.58"
/>
<path stroke="#1d94b5" vector-effect="non-scaling-stroke" d="
  M 236.76 94.79
  Q 235.65 93.45 234.24 93.57
  Q 231.12 93.84 233.82 95.43
  Q 235.46 96.40 237.46 96.27
  Q 238.20 96.22 237.77 95.62
  Q 237.67 95.48 237.52 95.38
  Q 236.91 94.97 236.76 94.79"
/>
<path stroke="#1d94b5" vector-effect="non-scaling-stroke" d="
  M 242.4759 99.6224
  A 1.04 1.00 120.9 0 0 243.8681 99.2435
  A 1.04 1.00 120.9 0 0 243.5441 97.8376
  A 1.04 1.00 120.9 0 0 242.1519 98.2165
  A 1.04 1.00 120.9 0 0 242.4759 99.6224"
/>
<path stroke="#264d6d" stroke-opacity="0.992" vector-effect="non-scaling-stroke" d="
  M 231.37 112.01
  Q 230.37 111.23 229.14 111.07
  Q 225.88 110.62 228.74 112.26
  Q 229.72 112.82 230.80 113.13
  Q 234.01 114.06 231.37 112.01"
/>
<path stroke="#264d6d" stroke-opacity="0.992" vector-effect="non-scaling-stroke" d="
  M 257.6129 111.0333
  A 2.20 0.73 -29.6 0 0 255.3394 111.4853
  A 2.20 0.73 -29.6 0 0 253.7871 113.2067
  A 2.20 0.73 -29.6 0 0 256.0606 112.7547
  A 2.20 0.73 -29.6 0 0 257.6129 111.0333"
/>
<path stroke="#ff702d" vector-effect="non-scaling-stroke" d="
  M 181.86 156.78
  Q 180.03 160.37 180.54 164.75"
/>
<path stroke="#8ae8a9" vector-effect="non-scaling-stroke" d="
  M 184.75 165.21
  Q 188.81 165.86 193.05 165.29
  A 1.01 1.00 -4.0 0 0 193.92 164.30
  Q 193.92 160.77 193.78 157.45
  Q 193.72 155.93 192.75 157.04"
/>
<path stroke="#a556a7" stroke-opacity="0.988" vector-effect="non-scaling-stroke" d="
  M 306.54 164.25
  Q 305.95 166.12 307.75 165.29"
/>
<path stroke="#8e73c7" stroke-opacity="0.992" vector-effect="non-scaling-stroke" d="
  M 310.00 165.21
  Q 311.78 165.83 313.54 165.25"
/>
<path stroke="#7da0e7" vector-effect="non-scaling-stroke" d="
  M 313.54 165.25
  L 318.34 165.01
  A 1.00 0.99 3.2 0 0 319.28 164.18
  Q 319.91 160.34 318.32 156.87"
/>
<path stroke="#f2286b" vector-effect="non-scaling-stroke" d="
  M 307.50 157.04
  C 304.61 155.42 306.35 163.62 306.54 164.25"
/>
<path stroke="#b32f3b" stroke-opacity="0.988" vector-effect="non-scaling-stroke" d="
  M 307.21 163.75
  L 306.54 164.25"
/>
<path stroke="#26c4d9" stroke-opacity="0.992" vector-effect="non-scaling-stroke" d="
  M 313.54 165.25
  L 312.00 164.54"
/>
<path stroke="#d94ac9" stroke-opacity="0.933" vector-effect="non-scaling-stroke" d="
  M 459.32 164.06
  Q 461.52 162.46 458.80 162.25
  L 453.20 161.84
  A 1.01 1.01 0.0 0 0 452.14 163.03
  Q 452.37 164.23 453.93 164.77
  Q 456.91 165.81 459.32 164.06"
/>
<path stroke="#5a15e1" stroke-opacity="0.953" vector-effect="non-scaling-stroke" d="
  M 37.76 163.00
  L 37.49 162.99
  A 0.27 0.27 0.0 0 0 37.22 163.24
  Q 37.08 165.77 39.75 165.74
  Q 46.72 165.65 51.62 165.07
  A 0.97 0.96 -72.6 0 0 52.25 164.74
  Q 53.23 163.64 53.00 162.26
  A 0.64 0.64 0.0 0 0 52.04 161.81
  Q 51.56 162.10 50.94 161.69
  A 1.03 1.01 -28.2 0 0 50.39 161.53
  C 48.17 161.53 38.65 160.72 37.96 162.86
  A 0.21 0.21 0.0 0 1 37.76 163.00"
/>
<path stroke="#4a56d1" stroke-opacity="0.992" vector-effect="non-scaling-stroke" d="
  M 65.75 164.21
  Q 65.15 164.47 65.28 165.00
  A 0.41 0.41 0.0 0 0 65.68 165.31
  L 77.58 165.30
  A 1.00 1.00 0.0 0 0 78.55 164.54
  Q 79.49 160.70 77.97 156.88"
/>
<path stroke="#ad1591" vector-effect="non-scaling-stroke" d="
  M 66.69 156.77
  Q 63.43 159.72 65.75 164.21"
/>
<path stroke="#9a5478" stroke-opacity="0.992" vector-effect="non-scaling-stroke" d="
  M 66.71 164.00
  L 65.75 164.21"
/>
<path stroke="#3984f1" vector-effect="non-scaling-stroke" d="
  M 94.50 164.04
  Q 94.41 164.38 94.47 164.69
  A 0.80 0.79 -5.5 0 0 95.27 165.34
  L 106.49 165.19
  A 1.00 0.99 -0.0 0 0 107.48 164.21
  C 107.49 163.27 108.29 156.30 106.25 157.04"
/>
<path stroke="#ad1591" vector-effect="non-scaling-stroke" d="
  M 95.20 157.00
  Q 93.29 160.25 94.50 164.04"
/>
<path stroke="#898299" vector-effect="non-scaling-stroke" d="
  M 95.54 163.25
  L 94.50 164.04"
/>
<path stroke="#5a15e1" stroke-opacity="0.953" vector-effect="non-scaling-stroke" d="
  M 160.56 161.94
  Q 157.24 161.48 155.00 161.46
  A 1.00 0.99 -63.7 0 0 154.39 161.67
  C 147.34 167.06 160.22 165.35 162.21 164.85
  A 1.00 1.00 0.0 0 0 162.94 163.64
  Q 162.58 162.22 160.56 161.94"
/>
<path stroke="#a556a7" stroke-opacity="0.988" vector-effect="non-scaling-stroke" d="
  M 334.79 164.00
  Q 334.11 165.38 335.75 165.46"
/>
<path stroke="#a556a7" stroke-opacity="0.988" vector-effect="non-scaling-stroke" d="
  M 342.50 165.21
  L 346.81 165.38
  A 0.81 0.80 -8.8 0 0 347.60 164.31
  Q 347.54 164.15 347.46 164.00"
/>
<path stroke="#f2286b" vector-effect="non-scaling-stroke" d="
  M 336.50 157.04
  Q 336.27 156.90 336.05 156.83
  A 1.01 1.00 8.3 0 0 334.75 157.79
  L 334.79 164.00"
/>
<path stroke="#b32f3b" stroke-opacity="0.988" vector-effect="non-scaling-stroke" d="
  M 335.96 164.25
  L 334.79 164.00"
/>
<path stroke="#f03187" vector-effect="non-scaling-stroke" d="
  M 394.25 156.96
  C 391.62 156.08 392.26 158.30 392.21 159.77
  Q 392.13 162.13 392.50 164.46"
/>
<path stroke="#a556a7" stroke-opacity="0.988" vector-effect="non-scaling-stroke" d="
  M 392.50 164.46
  Q 392.20 166.26 394.25 165.29"
/>
<path stroke="#8e73c7" stroke-opacity="0.992" vector-effect="non-scaling-stroke" d="
  M 397.50 165.21
  L 403.50 165.21"
/>
<path stroke="#7da0e7" vector-effect="non-scaling-stroke" d="
  M 403.50 165.21
  Q 404.35 165.42 405.11 165.19
  A 1.02 1.00 86.8 0 0 405.80 164.40
  Q 406.15 162.42 405.46 160.50"
/>
<path stroke="#8e73c7" stroke-opacity="0.992" vector-effect="non-scaling-stroke" d="
  M 405.46 158.25
  Q 405.98 155.57 404.00 156.96"
/>
<path stroke="#b23858" stroke-opacity="0.988" vector-effect="non-scaling-stroke" d="
  M 393.71 164.50
  L 392.50 164.46"
/>
<path stroke="#26c4d9" stroke-opacity="0.992" vector-effect="non-scaling-stroke" d="
  M 403.50 165.21
  Q 401.83 165.24 400.46 164.50"
/>
<path stroke="#d94ac9" stroke-opacity="0.933" vector-effect="non-scaling-stroke" d="
  M 361.33 154.25
  Q 363.37 152.76 360.86 152.45
  L 360.48 152.40
  Q 357.98 152.08 359.58 154.02
  Q 360.35 154.96 361.33 154.25"
/>
</g>
<path fill="#655e78" fill-opacity="0.973" d="
  M 278.71 86.25
  Q 279.27 81.91 276.13 79.52
  A 1.00 1.00 0.0 0 0 274.68 79.78
  Q 274.52 80.04 274.29 80.25
  L 273.75 79.96
  L 273.91 79.70
  A 0.32 0.32 0.0 0 0 273.85 79.29
  Q 267.32 73.28 263.54 68.72
  Q 260.30 64.82 256.46 62.75
  Q 250.40 55.77 242.76 50.52
  A 0.99 0.98 -46.6 0 0 241.58 50.56
  L 237.78 53.54
  L 237.25 53.21
  L 242.28 48.77
  A 1.00 1.00 0.0 0 1 243.61 48.78
  Q 254.24 58.46 264.73 67.99
  C 265.60 68.77 266.48 70.00 267.55 70.89
  Q 273.74 76.05 279.19 82.01
  A 0.99 0.98 30.1 0 1 279.43 82.89
  L 278.71 86.25
  Z"
/>
<path fill="#ffffff" d="
  M 256.46 62.75
  L 258.57 66.69
  L 243.47 53.56
  A 1.00 1.00 0.0 0 0 242.17 53.56
  Q 235.12 59.52 228.44 65.94
  Q 228.08 66.29 227.71 65.75
  L 228.29 64.25
  L 228.79 63.50
  Q 232.83 58.13 237.78 53.54
  L 241.58 50.56
  A 0.99 0.98 -46.6 0 1 242.76 50.52
  Q 250.40 55.77 256.46 62.75
  Z"
/>
<path fill="#e6a2db" fill-opacity="0.996" d="
  M 237.25 53.21
  L 237.78 53.54
  Q 232.83 58.13 228.79 63.50
  Q 227.98 62.67 227.71 61.75
  L 237.25 53.21
  Z"
/>
<path fill="#e44fd5" d="
  M 258.57 66.69
  C 261.09 69.31 270.65 79.53 273.75 79.96
  L 274.29 80.25
  C 274.25 81.79 264.92 83.98 263.21 84.50
  L 249.25 88.54
  Q 245.11 90.30 240.78 89.86
  L 222.25 84.29
  C 218.91 83.31 211.08 81.75 211.50 80.46
  L 211.86 80.48
  A 1.00 1.00 0.0 0 0 212.55 80.25
  Q 220.64 73.53 227.71 65.75
  Q 228.08 66.29 228.44 65.94
  Q 235.12 59.52 242.17 53.56
  A 1.00 1.00 0.0 0 1 243.47 53.56
  L 258.57 66.69
  Z
  M 238.89 87.76
  Q 242.91 89.63 246.75 87.54
  L 269.58 81.04
  Q 271.34 80.53 269.96 79.32
  L 243.53 56.18
  A 0.99 0.99 0.0 0 0 242.22 56.17
  L 215.35 79.41
  Q 213.95 80.62 215.73 81.13
  L 238.89 87.76
  Z"
/>
<path fill="#1e1941" d="
  M 246.75 87.54
  C 244.38 87.13 247.55 84.53 248.04 83.94
  A 1.02 1.01 49.8 0 0 248.13 82.79
  Q 247.60 81.90 247.76 80.83
  A 1.03 0.99 -58.2 0 0 247.61 80.12
  Q 245.68 77.20 242.18 76.61
  A 1.05 1.02 31.8 0 0 241.45 76.77
  Q 235.52 80.74 238.88 86.16
  A 1.00 0.96 -58.0 0 1 239.02 86.82
  L 238.89 87.76
  L 215.73 81.13
  Q 213.95 80.62 215.35 79.41
  L 242.22 56.17
  A 0.99 0.99 0.0 0 1 243.53 56.18
  L 269.96 79.32
  Q 271.34 80.53 269.58 81.04
  L 246.75 87.54
  Z
  M 234.59 68.71
  C 237.13 66.60 239.79 64.95 242.05 62.49
  A 1.01 1.00 41.0 0 1 243.43 62.40
  L 249.24 67.23
  A 0.23 0.23 0.0 0 0 249.44 67.27
  L 249.68 67.19
  A 0.21 0.21 0.0 0 0 249.76 66.84
  L 243.47 61.01
  A 1.01 1.00 45.2 0 0 242.11 61.00
  L 233.82 68.66
  Q 229.57 72.58 234.16 69.06
  Q 234.38 68.89 234.59 68.71
  Z"
/>
<ellipse fill="#e6a2db" fill-opacity="0.996" cx="0.00" cy="0.00" transform="translate(220.47,58.53) rotate(135.1)" rx="1.75" ry="0.45"/>
<path fill="#5d17e9" d="
  M 234.59 68.71
  Q 234.38 68.89 234.16 69.06
  Q 229.57 72.58 233.82 68.66
  L 242.11 61.00
  A 1.01 1.00 45.2 0 1 243.47 61.01
  L 249.76 66.84
  A 0.21 0.21 0.0 0 1 249.68 67.19
  L 249.44 67.27
  A 0.23 0.23 0.0 0 1 249.24 67.23
  L 243.43 62.40
  A 1.01 1.00 41.0 0 0 242.05 62.49
  C 239.79 64.95 237.13 66.60 234.59 68.71
  Z"
/>
<path fill="#655e78" fill-opacity="0.973" d="
  M 227.71 61.75
  Q 227.98 62.67 228.79 63.50
  L 228.29 64.25
  Q 228.29 64.06 228.24 63.92
  A 0.41 0.41 0.0 0 0 227.59 63.76
  Q 218.99 71.20 211.21 79.50
  C 210.74 79.33 210.51 79.20 210.03 79.44
  Q 206.52 81.25 206.64 84.96
  Q 205.30 83.30 206.25 82.25
  Q 213.95 73.76 227.71 61.75
  Z"
/>
<path fill="#e6a2db" fill-opacity="0.996" d="
  M 208.89 74.26
  C 210.49 71.17 214.00 66.50 217.33 64.07
  A 0.42 0.40 34.9 0 1 217.71 64.01
  C 218.81 64.40 210.36 73.35 209.52 74.38
  A 0.34 0.32 -69.1 0 1 209.27 74.50
  L 209.00 74.50
  A 0.17 0.14 -74.5 0 1 208.89 74.26
  Z"
/>
<path fill="#e6a2db" fill-opacity="0.996" d="
  M 268.23 64.30
  C 269.23 65.04 278.42 73.67 276.77 74.86
  A 0.32 0.31 -37.8 0 1 276.33 74.81
  Q 272.23 69.80 267.78 65.11
  C 267.55 64.87 267.07 63.43 268.23 64.30
  Z"
/>
<path fill="#243771" d="
  M 246.75 87.54
  Q 242.91 89.63 238.89 87.76
  L 239.02 86.82
  A 1.00 0.96 -58.0 0 0 238.88 86.16
  Q 235.52 80.74 241.45 76.77
  A 1.05 1.02 31.8 0 1 242.18 76.61
  Q 245.68 77.20 247.61 80.12
  A 1.03 0.99 -58.2 0 1 247.76 80.83
  Q 247.60 81.90 248.13 82.79
  A 1.02 1.01 49.8 0 1 248.04 83.94
  C 247.55 84.53 244.38 87.13 246.75 87.54
  Z
  M 245.81 79.69
  Q 243.68 77.62 240.36 78.64
  A 1.04 0.99 -83.2 0 0 239.78 79.12
  Q 237.95 82.44 240.59 85.30
  A 0.97 0.94 73.8 0 0 241.13 85.61
  C 247.86 86.90 247.26 79.45 245.81 79.69
  Z"
/>
<path fill="#15f1f8" d="
  M 245.81 79.69
  C 247.26 79.45 247.86 86.90 241.13 85.61
  A 0.97 0.94 73.8 0 1 240.59 85.30
  Q 237.95 82.44 239.78 79.12
  A 1.04 0.99 -83.2 0 1 240.36 78.64
  Q 243.68 77.62 245.81 79.69
  Z"
/>
<path fill="#150523" d="
  M 278.71 86.25
  Q 277.82 90.11 274.36 91.91
  A 1.01 1.01 0.0 0 0 273.86 92.55
  L 273.75 92.96
  L 273.25 93.21
  L 264.08 97.48
  A 1.06 1.05 -2.4 0 0 263.56 98.04
  L 263.29 98.75
  C 262.64 97.28 259.19 99.72 257.42 100.50
  A 0.27 0.26 86.0 0 0 257.26 100.69
  Q 257.21 100.98 257.50 101.04
  L 257.04 101.25
  Q 255.46 101.11 254.04 102.00
  Q 253.81 101.40 254.19 101.19
  Q 260.15 97.83 265.94 94.05
  L 270.01 92.99
  A 1.01 1.01 0.0 0 0 270.74 91.84
  L 270.69 91.56
  A 0.64 0.64 0.0 0 0 269.73 91.13
  L 268.26 92.00
  Q 266.34 93.13 266.77 90.94
  L 267.43 87.57
  A 0.99 0.99 0.0 0 0 267.21 86.72
  C 265.83 85.12 262.82 86.51 263.21 84.50
  C 264.92 83.98 274.25 81.79 274.29 80.25
  Q 274.52 80.04 274.68 79.78
  A 1.00 1.00 0.0 0 1 276.13 79.52
  Q 279.27 81.91 278.71 86.25
  Z"
/>
<path fill="#150523" d="
  M 211.21 79.50
  L 211.50 80.46
  C 211.08 81.75 218.91 83.31 222.25 84.29
  Q 221.74 85.42 220.54 85.48
  A 1.00 1.00 0.0 0 0 219.66 86.11
  L 218.89 88.05
  A 1.04 1.00 -46.0 0 0 218.89 88.78
  L 219.98 91.56
  A 1.01 1.01 0.0 0 1 219.80 92.59
  Q 218.92 93.59 220.91 94.57
  Q 226.02 98.08 231.44 101.06
  Q 232.84 101.83 231.50 102.29
  Q 221.81 97.67 212.06 93.19
  Q 211.80 93.07 211.21 92.25
  Q 210.14 90.41 208.25 89.54
  L 206.64 84.96
  Q 206.52 81.25 210.03 79.44
  C 210.51 79.20 210.74 79.33 211.21 79.50
  Z"
/>
<path fill="#1e1941" d="
  M 222.25 84.29
  L 240.78 89.86
  Q 240.10 92.12 237.71 92.25
  C 236.79 91.84 232.11 89.03 231.60 89.31
  A 0.33 0.32 47.2 0 0 231.58 89.87
  L 233.25 90.96
  Q 230.55 95.18 233.98 97.09
  C 237.00 98.77 239.86 96.74 242.62 100.63
  A 0.99 0.99 0.0 0 0 244.14 100.75
  L 246.86 98.00
  A 1.02 0.97 15.6 0 1 247.37 97.73
  L 252.86 96.63
  A 1.03 1.02 -89.1 0 0 253.65 95.86
  Q 254.25 93.12 253.21 90.50
  Q 253.53 90.30 253.75 90.06
  Q 254.69 89.06 253.45 89.65
  L 249.04 91.75
  L 249.25 88.54
  L 263.21 84.50
  C 262.82 86.51 265.83 85.12 267.21 86.72
  A 0.99 0.99 0.0 0 1 267.43 87.57
  L 266.77 90.94
  Q 266.34 93.13 268.26 92.00
  L 269.73 91.13
  A 0.64 0.64 0.0 0 1 270.69 91.56
  L 270.74 91.84
  A 1.01 1.01 0.0 0 1 270.01 92.99
  L 265.94 94.05
  Q 257.05 98.11 248.75 103.21
  L 243.56 105.95
  A 0.99 0.97 -44.4 0 1 242.63 105.95
  L 220.91 94.57
  Q 218.92 93.59 219.80 92.59
  A 1.01 1.01 0.0 0 0 219.98 91.56
  L 218.89 88.78
  A 1.04 1.00 -46.0 0 1 218.89 88.05
  L 219.66 86.11
  A 1.00 1.00 0.0 0 1 220.54 85.48
  Q 221.74 85.42 222.25 84.29
  Z
  M 225.25 88.96
  Q 230.79 90.22 226.04 88.25
  C 221.38 83.59 216.92 90.72 225.25 88.96
  Z
  M 264.20 87.08
  Q 263.66 86.87 263.19 86.78
  Q 262.31 86.62 260.98 87.37
  Q 260.33 87.74 259.67 88.10
  Q 258.09 88.96 259.89 89.06
  Q 261.13 89.13 262.29 89.53
  A 0.97 0.95 -47.4 0 0 263.04 89.49
  L 264.25 88.91
  Q 266.29 87.93 264.20 87.08
  Z"
/>
<path fill="#15f1f8" d="
  M 226.04 88.25
  L 225.25 88.96
  C 216.92 90.72 221.38 83.59 226.04 88.25
  Z"
/>
<path fill="#3797b9" fill-opacity="0.984" d="
  M 264.20 87.08
  Q 266.29 87.93 264.25 88.91
  L 263.04 89.49
  A 0.97 0.95 -47.4 0 1 262.29 89.53
  Q 261.13 89.13 259.89 89.06
  Q 258.09 88.96 259.67 88.10
  Q 260.33 87.74 260.98 87.37
  Q 262.31 86.62 263.19 86.78
  Q 263.66 86.87 264.20 87.08
  Z"
/>
<path fill="#3797b9" fill-opacity="0.984" d="
  M 226.04 88.25
  Q 230.79 90.22 225.25 88.96
  L 226.04 88.25
  Z"
/>
<path fill="#243771" d="
  M 249.25 88.54
  L 249.04 91.75
  L 243.61 94.81
  A 1.00 0.96 37.0 0 1 242.86 94.90
  Q 240.02 94.15 237.71 92.25
  Q 240.10 92.12 240.78 89.86
  Q 245.11 90.30 249.25 88.54
  Z"
/>
<path fill="#5d17e9" d="
  M 237.71 92.25
  Q 240.02 94.15 242.86 94.90
  A 1.00 0.96 37.0 0 0 243.61 94.81
  L 249.04 91.75
  L 253.45 89.65
  Q 254.69 89.06 253.75 90.06
  Q 253.53 90.30 253.21 90.50
  L 243.32 96.24
  A 1.00 1.00 0.0 0 1 242.31 96.23
  L 233.25 90.96
  L 231.58 89.87
  A 0.33 0.32 47.2 0 1 231.60 89.31
  C 232.11 89.03 236.79 91.84 237.71 92.25
  Z"
/>
<path fill="#655e78" fill-opacity="0.973" d="
  M 208.25 89.54
  Q 210.14 90.41 211.21 92.25
  Q 210.39 91.58 209.54 92.00
  L 209.46 91.75
  Q 209.17 90.50 208.25 89.54
  Z"
/>
<path fill="#243771" d="
  M 253.21 90.50
  Q 254.25 93.12 253.65 95.86
  A 1.03 1.02 -89.1 0 1 252.86 96.63
  L 247.37 97.73
  A 1.02 0.97 15.6 0 0 246.86 98.00
  L 244.14 100.75
  A 0.99 0.99 0.0 0 1 242.62 100.63
  C 239.86 96.74 237.00 98.77 233.98 97.09
  Q 230.55 95.18 233.25 90.96
  L 242.31 96.23
  A 1.00 1.00 0.0 0 0 243.32 96.24
  L 253.21 90.50
  Z
  M 252.21 93.58
  Q 250.89 93.04 249.82 94.03
  Q 248.42 95.33 250.27 95.74
  Q 251.43 96.00 252.40 95.32
  Q 253.91 94.27 252.21 93.58
  Z
  M 236.76 94.79
  Q 235.65 93.45 234.24 93.57
  Q 231.12 93.84 233.82 95.43
  Q 235.46 96.40 237.46 96.27
  Q 238.20 96.22 237.77 95.62
  Q 237.67 95.48 237.52 95.38
  Q 236.91 94.97 236.76 94.79
  Z
  M 242.4759 99.6224
  A 1.04 1.00 120.9 0 0 243.8681 99.2435
  A 1.04 1.00 120.9 0 0 243.5441 97.8376
  A 1.04 1.00 120.9 0 0 242.1519 98.2165
  A 1.04 1.00 120.9 0 0 242.4759 99.6224
  Z"
/>
<path fill="#e6a2db" fill-opacity="0.996" d="
  M 203.50 91.04
  Q 201.02 92.00 198.39 92.07
  A 1.01 1.00 0.3 0 0 197.41 93.03
  Q 197.40 93.49 197.25 93.96
  L 194.27 93.02
  Q 189.98 91.66 194.48 91.46
  L 203.50 91.04
  Z"
/>
<path fill="#e83fa1" d="
  M 203.50 91.04
  L 209.46 91.75
  L 209.54 92.00
  C 209.54 93.57 217.92 97.46 219.50 98.21
  Q 219.44 99.01 219.06 99.66
  A 1.00 0.99 14.2 0 1 218.21 100.16
  L 214.75 100.21
  L 197.25 93.96
  Q 197.40 93.49 197.41 93.03
  A 1.01 1.00 0.3 0 1 198.39 92.07
  Q 201.02 92.00 203.50 91.04
  Z"
/>
<path fill="#e83fa1" d="
  M 284.89 91.24
  Q 287.26 91.91 287.75 94.21
  L 268.29 101.50
  L 265.75 98.46
  C 266.66 98.04 274.90 94.65 273.25 93.21
  L 273.75 92.96
  C 273.99 93.02 274.16 93.05 274.39 92.92
  Q 279.32 90.05 284.89 91.24
  Z"
/>
<path fill="#e6a2db" fill-opacity="0.996" d="
  M 284.89 91.24
  Q 293.09 90.55 295.44 91.04
  C 297.72 91.52 288.17 94.10 287.75 94.21
  Q 287.26 91.91 284.89 91.24
  Z"
/>
<path fill="#e6a2db" fill-opacity="0.996" d="
  M 211.21 92.25
  Q 211.80 93.07 212.06 93.19
  Q 221.81 97.67 231.50 102.29
  L 235.75 104.46
  Q 232.72 104.36 234.59 105.02
  Q 236.01 106.91 238.25 107.54
  Q 238.93 108.87 238.86 110.57
  Q 234.12 105.50 232.72 104.79
  Q 226.15 101.45 219.50 98.21
  C 217.92 97.46 209.54 93.57 209.54 92.00
  Q 210.39 91.58 211.21 92.25
  Z"
/>
<path fill="#15f1f8" d="
  M 252.21 93.58
  Q 253.91 94.27 252.40 95.32
  Q 251.43 96.00 250.27 95.74
  Q 248.42 95.33 249.82 94.03
  Q 250.89 93.04 252.21 93.58
  Z"
/>
<path fill="#e6a2db" fill-opacity="0.996" d="
  M 273.25 93.21
  C 274.90 94.65 266.66 98.04 265.75 98.46
  Q 264.30 99.33 262.71 99.50
  L 263.00 99.04
  L 263.29 98.75
  L 263.56 98.04
  A 1.06 1.05 -2.4 0 1 264.08 97.48
  L 273.25 93.21
  Z"
/>
<path fill="#15f1f8" d="
  M 237.52 95.38
  Q 237.67 95.48 237.77 95.62
  Q 238.20 96.22 237.46 96.27
  Q 235.46 96.40 233.82 95.43
  Q 231.12 93.84 234.24 93.57
  Q 235.65 93.45 236.76 94.79
  Q 236.91 94.97 237.52 95.38
  Z"
/>
<path fill="#243771" d="
  M 265.94 94.05
  Q 260.15 97.83 254.19 101.19
  Q 253.81 101.40 254.04 102.00
  Q 253.12 102.92 251.80 102.86
  A 1.04 1.01 21.8 0 0 251.03 103.18
  Q 250.14 104.12 248.75 103.21
  Q 257.05 98.11 265.94 94.05
  Z"
/>
<path fill="#15f1f8" d="
  M 220.91 94.57
  L 242.63 105.95
  A 0.99 0.97 -44.4 0 0 243.56 105.95
  L 248.75 103.21
  Q 250.14 104.12 251.03 103.18
  A 1.04 1.01 21.8 0 1 251.80 102.86
  Q 253.12 102.92 254.04 102.00
  Q 255.46 101.11 257.04 101.25
  L 256.75 102.46
  Q 255.88 103.77 254.55 103.27
  Q 250.38 103.98 247.16 106.62
  Q 246.21 107.40 247.25 107.79
  Q 245.72 107.75 245.21 109.00
  L 244.85 108.10
  A 1.01 1.00 -18.5 0 0 243.65 107.51
  L 242.79 107.75
  A 1.00 0.99 -29.9 0 1 241.81 107.49
  Q 239.95 105.59 240.46 109.00
  L 239.73 107.30
  A 1.07 1.02 6.2 0 0 239.36 106.86
  L 235.75 104.46
  L 231.50 102.29
  Q 232.84 101.83 231.44 101.06
  Q 226.02 98.08 220.91 94.57
  Z"
/>
<ellipse fill="#15f1f8" cx="0.00" cy="0.00" transform="translate(243.01,98.73) rotate(120.9)" rx="1.04" ry="1.00"/>
<path fill="#655e78" fill-opacity="0.973" d="
  M 263.29 98.75
  L 263.00 99.04
  C 262.43 98.46 258.21 100.81 257.50 101.04
  Q 257.21 100.98 257.26 100.69
  A 0.27 0.26 86.0 0 1 257.42 100.50
  C 259.19 99.72 262.64 97.28 263.29 98.75
  Z"
/>
<path fill="#e44fd5" d="
  M 219.50 98.21
  Q 226.15 101.45 232.72 104.79
  Q 234.12 105.50 238.86 110.57
  Q 240.14 112.80 240.51 115.45
  A 0.66 0.65 -85.8 0 0 240.96 115.98
  C 241.59 116.17 241.89 118.71 242.29 119.50
  L 242.29 123.50
  Q 242.07 126.33 243.17 125.15
  A 1.01 1.01 0.0 0 0 243.44 124.37
  L 243.21 122.00
  L 243.21 119.50
  Q 244.94 118.07 243.50 116.71
  L 244.04 115.50
  L 244.71 113.50
  Q 244.68 114.13 245.15 114.33
  A 0.41 0.41 0.0 0 0 245.72 113.95
  C 245.67 109.22 249.15 109.45 250.50 105.96
  L 254.55 103.27
  Q 255.88 103.77 256.75 102.46
  L 262.71 99.50
  Q 264.30 99.33 265.75 98.46
  L 268.29 101.50
  C 263.21 103.75 252.59 107.98 252.00 110.71
  Q 250.53 112.54 250.29 115.00
  L 249.19 118.69
  A 1.00 1.00 0.0 0 0 250.35 119.95
  Q 252.78 119.45 255.00 118.21
  L 255.75 118.46
  Q 253.28 120.26 248.25 122.01
  A 1.00 1.00 0.0 0 0 247.61 122.69
  L 245.96 128.75
  L 245.79 130.50
  C 245.32 131.44 243.25 137.78 242.82 137.76
  A 0.40 0.39 -7.0 0 1 242.45 137.48
  C 241.80 135.56 241.11 130.89 239.00 130.29
  L 239.71 129.50
  Q 239.55 125.02 237.15 121.51
  Q 238.06 121.33 236.96 120.00
  L 235.46 115.75
  L 235.25 115.21
  L 234.71 112.75
  Q 234.22 108.11 229.79 107.20
  L 214.75 100.21
  L 218.21 100.16
  A 1.00 0.99 14.2 0 0 219.06 99.66
  Q 219.44 99.01 219.50 98.21
  Z"
/>
<path fill="#e6a2db" fill-opacity="0.996" d="
  M 219.75 108.46
  C 218.32 108.53 216.26 108.16 215.18 109.08
  Q 214.25 109.87 214.72 110.99
  Q 215.25 112.27 214.11 111.49
  L 213.58 111.12
  A 1.02 1.01 44.6 0 0 212.45 111.12
  Q 211.92 111.49 211.38 111.58
  A 1.01 1.00 66.9 0 0 210.75 113.16
  Q 214.33 118.08 219.35 121.64
  A 0.99 0.98 47.1 0 0 220.43 121.69
  Q 221.03 121.34 221.75 121.50
  C 218.74 124.70 237.98 129.27 239.71 129.50
  L 239.00 130.29
  C 221.62 128.82 207.93 116.30 202.17 100.15
  A 0.51 0.50 -26.3 0 1 202.38 99.55
  Q 203.00 99.17 203.36 99.92
  Q 207.17 107.96 208.39 109.79
  Q 209.75 111.83 210.34 110.45
  A 1.00 1.00 0.0 0 1 211.39 109.85
  C 212.86 110.05 209.57 107.16 211.14 107.17
  A 0.66 0.66 0.0 0 1 211.49 107.27
  L 213.47 108.61
  A 1.00 0.98 50.0 0 0 214.41 108.70
  Q 217.08 107.61 219.75 108.46
  Z"
/>
<path fill="#e6a2db" fill-opacity="0.996" d="
  M 245.79 130.50
  L 245.96 128.75
  Q 245.91 129.04 245.96 129.27
  A 0.52 0.52 0.0 0 0 246.55 129.65
  Q 272.90 124.92 282.20 99.92
  A 0.65 0.64 22.2 0 1 283.06 99.56
  C 285.58 100.68 274.90 115.09 274.42 115.64
  Q 263.03 128.65 245.79 130.50
  Z"
/>
<path fill="#e6a2db" fill-opacity="0.996" d="
  M 235.75 104.46
  L 239.36 106.86
  A 1.07 1.02 6.2 0 1 239.73 107.30
  L 240.46 109.00
  L 240.75 109.54
  C 241.03 111.36 240.72 117.41 243.50 116.71
  Q 244.94 118.07 243.21 119.50
  L 242.29 119.50
  C 241.89 118.71 241.59 116.17 240.96 115.98
  A 0.66 0.65 -85.8 0 1 240.51 115.45
  Q 240.14 112.80 238.86 110.57
  Q 238.93 108.87 238.25 107.54
  Q 236.98 105.68 234.59 105.02
  Q 232.72 104.36 235.75 104.46
  Z"
/>
<path fill="#3797b9" fill-opacity="0.984" d="
  M 265.25 108.04
  Q 264.03 106.87 262.50 108.29
  C 258.63 106.47 255.88 109.21 252.75 110.71
  C 257.05 106.55 261.08 108.00 265.67 105.41
  C 266.16 105.14 266.68 105.21 266.75 105.81
  A 0.51 0.50 -30.6 0 1 266.65 106.19
  L 265.25 108.04
  Z"
/>
<path fill="#15f1f8" d="
  M 224.00 107.29
  Q 223.32 108.46 221.75 108.04
  L 221.00 107.54
  Q 219.34 107.58 219.27 106.57
  A 0.79 0.79 0.0 0 1 220.37 105.78
  L 224.00 107.29
  Z"
/>
<path fill="#e6a2db" fill-opacity="0.996" d="
  M 250.50 105.96
  C 249.15 109.45 245.67 109.22 245.72 113.95
  A 0.41 0.41 0.0 0 1 245.15 114.33
  Q 244.68 114.13 244.71 113.50
  L 245.21 109.00
  Q 245.72 107.75 247.25 107.79
  L 250.50 105.96
  Z"
/>
<path fill="#243771" d="
  M 245.21 109.00
  L 244.71 113.50
  L 244.04 115.50
  Q 244.09 114.40 243.58 113.49
  A 1.03 1.02 43.4 0 1 243.55 112.58
  Q 245.61 108.24 240.75 109.54
  L 240.46 109.00
  Q 239.95 105.59 241.81 107.49
  A 1.00 0.99 -29.9 0 0 242.79 107.75
  L 243.65 107.51
  A 1.01 1.00 -18.5 0 1 244.85 108.10
  L 245.21 109.00
  Z"
/>
<path fill="#655e78" fill-opacity="0.973" d="
  M 229.00 107.71
  L 228.50 108.21
  Q 225.98 106.44 225.71 109.25
  L 225.25 109.29
  Q 223.91 107.20 221.79 108.75
  L 221.75 108.04
  Q 223.32 108.46 224.00 107.29
  Q 226.61 106.81 229.00 107.71
  Z"
/>
<path fill="#e6a2db" fill-opacity="0.996" d="
  M 229.79 107.20
  Q 234.22 108.11 234.71 112.75
  Q 231.97 109.97 228.50 108.21
  L 229.00 107.71
  Q 231.82 109.47 229.79 107.20
  Z"
/>
<path fill="#655e78" fill-opacity="0.973" d="
  M 265.25 108.04
  L 263.04 110.00
  L 262.50 108.29
  Q 264.03 106.87 265.25 108.04
  Z"
/>
<path fill="#e6a2db" fill-opacity="0.996" d="
  M 221.00 107.54
  L 221.75 108.04
  L 221.79 108.75
  L 223.21 109.75
  L 220.00 108.54
  L 221.00 107.54
  Z"
/>
<path fill="#150523" d="
  M 228.50 108.21
  Q 231.97 109.97 234.71 112.75
  L 235.25 115.21
  Q 231.76 116.16 228.75 114.04
  L 228.04 113.50
  Q 227.81 113.04 227.81 112.43
  Q 226.18 111.14 225.71 109.25
  Q 225.98 106.44 228.50 108.21
  Z
  M 231.37 112.01
  Q 230.37 111.23 229.14 111.07
  Q 225.88 110.62 228.74 112.26
  Q 229.72 112.82 230.80 113.13
  Q 234.01 114.06 231.37 112.01
  Z"
/>
<path fill="#150523" d="
  M 262.50 108.29
  L 263.04 110.00
  L 261.25 112.29
  Q 259.36 111.69 258.25 112.96
  C 255.91 115.35 253.84 118.30 250.29 115.00
  Q 250.53 112.54 252.00 110.71
  L 252.75 110.71
  C 255.88 109.21 258.63 106.47 262.50 108.29
  Z
  M 257.6129 111.0333
  A 2.20 0.73 -29.6 0 0 255.3394 111.4853
  A 2.20 0.73 -29.6 0 0 253.7871 113.2067
  A 2.20 0.73 -29.6 0 0 256.0606 112.7547
  A 2.20 0.73 -29.6 0 0 257.6129 111.0333
  Z"
/>
<ellipse fill="#e6a2db" fill-opacity="0.996" cx="0.00" cy="0.00" transform="translate(272.37,109.88) rotate(131.5)" rx="2.67" ry="0.45"/>
<path fill="#ffffff" d="
  M 219.75 108.46
  L 220.00 108.54
  L 223.21 109.75
  L 224.25 110.79
  Q 225.72 112.15 227.81 112.43
  Q 227.81 113.04 228.04 113.50
  Q 226.93 115.20 225.09 114.92
  A 0.32 0.32 0.0 0 0 224.72 115.19
  C 224.68 115.41 226.53 117.18 226.66 118.37
  A 1.01 1.00 -16.1 0 1 226.10 119.37
  L 221.75 121.50
  Q 221.03 121.34 220.43 121.69
  A 0.99 0.98 47.1 0 1 219.35 121.64
  Q 214.33 118.08 210.75 113.16
  A 1.01 1.00 66.9 0 1 211.38 111.58
  Q 211.92 111.49 212.45 111.12
  A 1.02 1.01 44.6 0 1 213.58 111.12
  L 214.11 111.49
  Q 215.25 112.27 214.72 110.99
  Q 214.25 109.87 215.18 109.08
  C 216.26 108.16 218.32 108.53 219.75 108.46
  Z"
/>
<path fill="#e6a2db" fill-opacity="0.996" d="
  M 225.25 109.29
  L 225.71 109.25
  Q 226.18 111.14 227.81 112.43
  Q 225.72 112.15 224.25 110.79
  Q 225.41 110.55 225.25 109.29
  Z"
/>
<path fill="#1e1941" d="
  M 244.04 115.50
  L 243.50 116.71
  C 240.72 117.41 241.03 111.36 240.75 109.54
  Q 245.61 108.24 243.55 112.58
  A 1.03 1.02 43.4 0 0 243.58 113.49
  Q 244.09 114.40 244.04 115.50
  Z"
/>
<ellipse fill="#3797b9" fill-opacity="0.984" cx="0.00" cy="0.00" transform="translate(255.70,112.12) rotate(-29.6)" rx="2.20" ry="0.73"/>
<path fill="#3797b9" fill-opacity="0.984" d="
  M 231.37 112.01
  Q 234.01 114.06 230.80 113.13
  Q 229.72 112.82 228.74 112.26
  Q 225.88 110.62 229.14 111.07
  Q 230.37 111.23 231.37 112.01
  Z"
/>
<path fill="#655e78" fill-opacity="0.973" d="
  M 261.25 112.29
  Q 260.09 113.49 258.25 112.96
  Q 259.36 111.69 261.25 112.29
  Z"
/>
<path fill="#e6a2db" fill-opacity="0.996" d="
  M 228.04 113.50
  L 228.75 114.04
  Q 229.19 114.47 228.82 114.83
  A 0.49 0.45 -68.1 0 1 228.57 114.95
  Q 227.59 115.05 228.21 115.75
  Q 231.75 119.62 236.96 120.00
  Q 238.06 121.33 237.15 121.51
  Q 232.54 120.59 228.63 118.48
  C 228.09 118.19 226.71 117.91 226.94 119.00
  A 0.82 0.81 -21.8 0 1 226.57 119.85
  Q 224.38 121.19 221.75 121.50
  L 226.10 119.37
  A 1.01 1.00 -16.1 0 0 226.66 118.37
  C 226.53 117.18 224.68 115.41 224.72 115.19
  A 0.32 0.32 0.0 0 1 225.09 114.92
  Q 226.93 115.20 228.04 113.50
  Z"
/>
<path fill="#655e78" fill-opacity="0.973" d="
  M 228.75 114.04
  Q 231.76 116.16 235.25 115.21
  L 235.46 115.75
  C 233.40 116.48 228.96 114.78 228.21 115.75
  Q 227.59 115.05 228.57 114.95
  A 0.49 0.45 -68.1 0 0 228.82 114.83
  Q 229.19 114.47 228.75 114.04
  Z"
/>
<path fill="#e6a2db" fill-opacity="0.996" d="
  M 255.75 118.46
  L 255.00 118.21
  Q 263.88 114.01 255.75 118.46
  Z"
/>
<path fill="#e6a2db" fill-opacity="0.996" d="
  M 243.21 122.00
  L 243.44 124.37
  A 1.01 1.01 0.0 0 1 243.17 125.15
  Q 242.07 126.33 242.29 123.50
  Q 243.23 123.17 243.21 122.00
  Z"
/>
<path fill="#15f1f8" d="
  M 54.27 150.57
  L 31.61 151.02
  A 1.00 1.00 0.0 0 0 30.63 152.02
  L 30.52 165.55
  Q 29.00 164.95 29.20 163.47
  Q 29.48 161.48 29.39 151.06
  A 1.00 1.00 0.0 0 1 30.35 150.05
  Q 42.32 149.55 54.27 150.57
  Z"
/>
<path fill="#15f1f8" d="
  M 83.25 150.71
  L 60.23 150.91
  A 1.00 1.00 0.0 0 0 59.24 151.92
  L 59.52 174.33
  A 0.41 0.41 0.0 0 1 59.25 174.73
  Q 59.03 174.80 58.96 175.00
  L 58.73 174.87
  A 0.52 0.51 15.6 0 1 58.48 174.43
  L 58.33 151.02
  A 1.01 1.01 0.0 0 1 59.33 150.01
  Q 70.71 149.98 82.08 150.02
  C 82.55 150.02 83.00 150.34 83.25 150.71
  Z"
/>
<path fill="#15f1f8" d="
  M 112.25 150.79
  L 89.31 150.94
  A 1.00 0.99 -1.4 0 0 88.31 151.98
  Q 88.85 163.14 88.22 175.09
  L 87.61 174.71
  A 1.01 1.01 0.0 0 1 87.14 173.79
  Q 87.90 162.43 87.19 151.07
  A 0.99 0.99 0.0 0 1 88.18 150.01
  Q 99.34 149.98 110.50 150.01
  Q 111.29 150.02 112.25 150.79
  Z"
/>
<path fill="#15f1f8" d="
  M 141.25 150.71
  L 118.09 151.05
  A 1.00 1.00 0.0 0 0 117.10 152.03
  Q 116.89 162.52 117.04 172.65
  C 117.06 173.48 117.63 174.14 116.71 175.00
  Q 116.23 174.83 116.22 174.29
  Q 116.08 162.79 116.33 151.07
  A 1.00 1.00 0.0 0 1 117.31 150.09
  Q 128.86 149.88 140.21 150.06
  C 140.61 150.07 141.08 150.38 141.25 150.71
  Z"
/>
<path fill="#15f1f8" d="
  M 170.52 150.60
  L 146.83 151.06
  A 1.00 1.00 0.0 0 0 145.85 152.03
  Q 145.56 162.27 145.96 174.22
  Q 145.98 174.63 145.50 174.79
  C 145.18 174.65 144.94 174.36 144.94 173.98
  Q 144.93 162.53 145.00 150.99
  A 1.00 1.00 0.0 0 1 145.97 150.00
  Q 158.26 149.57 170.52 150.60
  Z"
/>
<path fill="#e6a2db" fill-opacity="0.996" d="
  M 173.75 150.04
  Q 172.73 151.52 173.52 152.94
  L 172.96 155.25
  Q 172.13 153.34 172.46 151.25
  L 173.75 150.04
  Z"
/>
<path fill="#15f1f8" d="
  M 173.75 150.04
  L 186.50 150.46
  L 175.72 151.07
  A 1.00 0.99 89.4 0 0 174.78 152.04
  L 174.46 163.00
  L 173.52 152.94
  Q 172.73 151.52 173.75 150.04
  Z"
/>
<path fill="#15f1f8" d="
  M 237.25 150.71
  L 231.69 151.16
  A 1.00 0.98 -77.5 0 0 230.90 151.67
  L 227.79 157.25
  Q 227.44 153.51 229.70 150.49
  A 0.98 0.98 0.0 0 1 230.31 150.11
  Q 233.88 149.40 237.25 150.71
  Z"
/>
<path fill="#15f1f8" d="
  M 253.00 150.46
  L 243.43 151.03
  A 1.06 0.98 -63.6 0 0 242.88 151.24
  L 242.54 151.50
  L 241.29 151.25
  C 240.44 148.96 250.80 150.17 253.00 150.46
  Z"
/>
<path fill="#15f1f8" d="
  M 323.52 150.24
  Q 322.26 150.95 320.91 150.95
  Q 311.23 150.93 301.32 151.12
  A 0.99 0.99 0.0 0 0 300.34 152.07
  L 299.53 169.28
  Q 298.16 160.19 298.81 151.01
  A 1.00 0.99 1.8 0 1 299.81 150.08
  L 323.52 150.24
  Z"
/>
<path fill="#15f1f8" d="
  M 353.25 150.71
  L 329.49 151.07
  A 1.00 1.00 0.0 0 0 328.51 152.07
  L 328.46 165.50
  L 328.20 151.31
  A 1.00 1.00 0.0 0 1 329.14 150.29
  C 333.07 150.08 349.45 148.67 353.25 150.71
  Z"
/>
<path fill="#15f1f8" d="
  M 381.29 150.50
  L 381.00 150.96
  L 357.50 151.29
  C 355.88 150.66 357.13 150.00 357.92 150.00
  Q 369.15 149.99 380.36 150.01
  A 1.00 0.98 -23.7 0 1 381.02 150.26
  L 381.29 150.50
  Z"
/>
<path fill="#15f1f8" d="
  M 410.27 150.56
  L 387.65 151.07
  A 0.99 0.99 0.0 0 0 386.75 151.68
  Q 386.20 152.98 386.46 154.50
  L 385.54 153.25
  L 385.40 151.08
  A 1.00 0.99 -3.1 0 1 386.36 150.02
  Q 398.33 149.58 410.27 150.56
  Z"
/>
<path fill="#15f1f8" d="
  M 439.25 150.71
  L 415.48 151.15
  Q 413.48 150.68 416.36 150.20
  C 420.12 149.58 436.17 149.23 439.25 150.71
  Z"
/>
<path fill="#15f1f8" d="
  M 467.52 150.51
  Q 456.48 151.69 445.48 150.56
  Q 456.50 149.23 467.52 150.51
  Z"
/>
<path fill="#ffde59" d="
  M 186.50 150.46
  L 200.04 151.00
  Q 199.29 161.09 200.10 171.25
  L 183.00 171.46
  Q 182.25 171.07 181.54 171.24
  A 1.00 1.00 0.0 0 0 180.77 172.25
  L 180.91 175.93
  L 175.52 175.93
  A 1.01 1.00 0.3 0 1 174.52 174.93
  L 174.46 163.00
  L 174.78 152.04
  A 1.00 0.99 89.4 0 1 175.72 151.07
  L 186.50 150.46
  Z
  M 192.75 157.04
  L 181.86 156.78
  Q 180.03 160.37 180.54 164.75
  Q 182.43 165.99 184.75 165.21
  Q 188.81 165.86 193.05 165.29
  A 1.01 1.00 -4.0 0 0 193.92 164.30
  Q 193.92 160.77 193.78 157.45
  Q 193.72 155.93 192.75 157.04
  Z"
/>
<path fill="#ffde59" d="
  M 221.00 150.79
  Q 222.43 155.37 225.37 159.14
  Q 225.32 159.49 225.37 159.77
  Q 225.71 161.85 226.58 159.92
  L 227.79 157.25
  L 230.90 151.67
  A 1.00 0.98 -77.5 0 1 231.69 151.16
  L 237.25 150.71
  L 237.75 151.04
  L 234.54 159.25
  Q 234.28 159.46 234.11 159.71
  Q 233.53 160.57 234.56 160.51
  L 238.50 160.29
  L 238.71 175.75
  Q 235.46 176.47 232.46 175.25
  L 232.48 167.31
  A 0.81 0.80 86.3 0 0 231.57 166.51
  Q 231.13 166.57 231.03 166.87
  L 221.29 166.75
  Q 220.81 166.40 220.32 166.35
  A 1.01 1.00 5.9 0 0 219.23 167.23
  Q 218.73 171.51 219.46 175.75
  L 214.48 175.65
  A 1.00 1.00 0.0 0 1 213.50 174.65
  L 213.50 161.42
  A 1.00 1.00 0.0 0 1 214.55 160.42
  L 216.29 160.50
  A 1.00 1.00 0.0 0 0 217.26 159.10
  L 214.20 152.13
  A 1.01 0.99 72.3 0 1 214.90 150.75
  Q 217.98 150.09 221.00 150.79
  Z"
/>
<path fill="#ffde59" d="
  M 253.00 150.46
  L 267.25 150.79
  L 267.00 156.96
  L 250.00 156.79
  L 249.25 156.79
  Q 247.57 157.00 248.25 160.28
  Q 258.00 160.82 267.75 160.29
  Q 266.94 163.32 267.20 166.86
  L 250.00 166.79
  Q 247.29 166.00 248.29 169.25
  Q 247.98 170.25 248.75 170.25
  Q 257.98 170.25 267.21 170.25
  Q 266.95 173.14 267.89 175.98
  L 243.54 175.72
  A 1.00 1.00 0.0 0 1 242.55 174.73
  L 242.21 153.00
  L 242.54 151.50
  L 242.88 151.24
  A 1.06 0.98 -63.6 0 1 243.43 151.03
  L 253.00 150.46
  Z"
/>
<path fill="#e44fd5" d="
  M 323.52 150.24
  L 324.75 151.04
  L 325.25 175.96
  Q 322.14 176.45 319.10 175.44
  Q 319.74 173.53 319.51 171.95
  A 1.00 0.99 -79.6 0 0 319.01 171.22
  Q 318.29 170.82 317.50 171.46
  L 307.25 171.54
  Q 306.63 170.98 306.15 171.46
  A 0.52 0.52 0.0 0 0 306.01 171.84
  L 306.16 175.88
  Q 303.31 176.27 300.96 175.76
  A 0.99 0.99 0.0 0 1 300.18 174.90
  L 299.53 169.28
  L 300.34 152.07
  A 0.99 0.99 0.0 0 1 301.32 151.12
  Q 311.23 150.93 320.91 150.95
  Q 322.26 150.95 323.52 150.24
  Z
  M 306.54 164.25
  Q 305.95 166.12 307.75 165.29
  L 310.00 165.21
  Q 311.78 165.83 313.54 165.25
  L 318.34 165.01
  A 1.00 0.99 3.2 0 0 319.28 164.18
  Q 319.91 160.34 318.32 156.87
  L 307.50 157.04
  C 304.61 155.42 306.35 163.62 306.54 164.25
  Z"
/>
<path fill="#655e78" fill-opacity="0.973" d="
  M 381.29 150.50
  L 383.00 151.04
  Q 382.19 153.15 382.50 155.46
  C 381.10 153.93 382.84 150.84 381.00 150.96
  L 381.29 150.50
  Z"
/>
<path fill="#e44fd5" d="
  M 445.48 150.56
  Q 456.48 151.69 467.52 150.51
  L 469.00 150.79
  L 469.42 157.09
  L 451.79 157.00
  C 449.89 156.16 450.17 157.82 450.19 158.91
  Q 450.20 160.07 451.25 160.46
  L 470.25 160.29
  C 468.26 161.83 469.13 164.66 469.18 166.88
  L 452.25 166.71
  Q 448.89 165.59 450.75 169.04
  Q 450.38 171.17 452.21 170.00
  L 469.25 170.04
  L 469.14 176.10
  L 445.53 175.99
  A 1.00 1.00 0.0 0 1 444.53 175.00
  L 444.43 151.18
  A 0.65 0.65 0.0 0 1 444.97 150.54
  Q 445.21 150.50 445.48 150.56
  Z
  M 459.32 164.06
  Q 461.52 162.46 458.80 162.25
  L 453.20 161.84
  A 1.01 1.01 0.0 0 0 452.14 163.03
  Q 452.37 164.23 453.93 164.77
  Q 456.91 165.81 459.32 164.06
  Z"
/>
<path fill="#5d17e9" d="
  M 54.27 150.57
  L 55.82 151.03
  L 55.68 156.91
  L 37.79 157.00
  Q 35.48 156.87 36.79 159.50
  Q 35.99 160.74 37.26 160.75
  Q 45.42 160.77 53.61 160.73
  A 1.03 1.01 -63.4 0 0 54.24 160.51
  L 54.50 160.29
  L 55.75 160.53
  L 55.50 175.71
  C 52.75 175.86 31.15 176.72 30.46 175.25
  Q 31.13 173.39 30.25 171.40
  A 1.00 1.00 0.0 0 1 31.17 170.00
  L 48.72 170.00
  A 1.01 1.00 7.5 0 0 49.69 169.26
  Q 50.72 165.37 47.00 166.71
  C 44.67 166.71 30.92 167.52 30.52 165.55
  L 30.63 152.02
  A 1.00 1.00 0.0 0 1 31.61 151.02
  L 54.27 150.57
  Z
  M 37.76 163.00
  L 37.49 162.99
  A 0.27 0.27 0.0 0 0 37.22 163.24
  Q 37.08 165.77 39.75 165.74
  Q 46.72 165.65 51.62 165.07
  A 0.97 0.96 -72.6 0 0 52.25 164.74
  Q 53.23 163.64 53.00 162.26
  A 0.64 0.64 0.0 0 0 52.04 161.81
  Q 51.56 162.10 50.94 161.69
  A 1.03 1.01 -28.2 0 0 50.39 161.53
  C 48.17 161.53 38.65 160.72 37.96 162.86
  A 0.21 0.21 0.0 0 1 37.76 163.00
  Z"
/>
<path fill="#5d17e9" d="
  M 83.25 150.71
  L 84.75 151.04
  L 84.50 170.96
  L 67.04 171.50
  Q 66.36 170.83 65.73 171.20
  A 0.80 0.79 -16.3 0 0 65.34 171.90
  L 65.40 176.03
  Q 61.64 176.68 58.96 175.00
  Q 59.03 174.80 59.25 174.73
  A 0.41 0.41 0.0 0 0 59.52 174.33
  L 59.24 151.92
  A 1.00 1.00 0.0 0 1 60.23 150.91
  L 83.25 150.71
  Z
  M 65.75 164.21
  Q 65.15 164.47 65.28 165.00
  A 0.41 0.41 0.0 0 0 65.68 165.31
  L 77.58 165.30
  A 1.00 1.00 0.0 0 0 78.55 164.54
  Q 79.49 160.70 77.97 156.88
  L 66.69 156.77
  Q 63.43 159.72 65.75 164.21
  Z"
/>
<path fill="#5d17e9" d="
  M 112.25 150.79
  L 113.28 151.03
  L 113.25 175.96
  Q 110.08 176.55 107.25 175.21
  Q 108.61 172.29 106.16 171.19
  L 95.28 171.44
  Q 93.46 173.22 94.11 176.00
  Q 90.22 176.62 88.22 175.09
  Q 88.85 163.14 88.31 151.98
  A 1.00 0.99 -1.4 0 1 89.31 150.94
  L 112.25 150.79
  Z
  M 94.50 164.04
  Q 94.41 164.38 94.47 164.69
  A 0.80 0.79 -5.5 0 0 95.27 165.34
  L 106.49 165.19
  A 1.00 0.99 -0.0 0 0 107.48 164.21
  C 107.49 163.27 108.29 156.30 106.25 157.04
  L 95.20 157.00
  Q 93.29 160.25 94.50 164.04
  Z"
/>
<path fill="#5d17e9" d="
  M 141.25 150.71
  L 141.75 151.04
  L 142.42 156.82
  L 124.50 156.96
  Q 124.15 156.74 123.80 156.76
  A 0.80 0.80 0.0 0 0 123.04 157.56
  L 123.12 169.49
  Q 132.26 170.46 141.25 169.96
  L 141.96 170.25
  L 142.08 176.05
  Q 129.94 175.96 118.00 176.00
  Q 117.35 176.00 116.71 175.00
  C 117.63 174.14 117.06 173.48 117.04 172.65
  Q 116.89 162.52 117.10 152.03
  A 1.00 1.00 0.0 0 1 118.09 151.05
  L 141.25 150.71
  Z"
/>
<path fill="#5d17e9" d="
  M 170.52 150.60
  L 171.25 151.04
  L 171.04 156.75
  L 153.29 157.00
  Q 150.77 156.77 152.04 159.50
  Q 151.96 159.74 151.96 159.96
  A 0.80 0.80 0.0 0 0 152.76 160.73
  Q 157.96 160.75 163.13 160.58
  C 164.84 160.52 167.25 161.22 169.50 160.21
  L 170.50 160.29
  Q 171.35 162.71 170.98 165.36
  A 0.51 0.51 0.0 0 0 171.49 165.94
  C 172.56 165.93 172.29 161.93 172.46 161.00
  L 172.78 166.07
  Q 163.09 167.25 153.29 166.75
  Q 150.74 165.42 152.04 169.00
  C 151.41 171.04 166.86 169.99 170.00 169.79
  L 171.25 170.04
  L 171.00 175.96
  Q 159.00 175.98 147.00 176.00
  Q 145.91 176.00 145.50 174.79
  Q 145.98 174.63 145.96 174.22
  Q 145.56 162.27 145.85 152.03
  A 1.00 1.00 0.0 0 1 146.83 151.06
  L 170.52 150.60
  Z
  M 160.56 161.94
  Q 157.24 161.48 155.00 161.46
  A 1.00 0.99 -63.7 0 0 154.39 161.67
  C 147.34 167.06 160.22 165.35 162.21 164.85
  A 1.00 1.00 0.0 0 0 162.94 163.64
  Q 162.58 162.22 160.56 161.94
  Z"
/>
<path fill="#ffde59" d="
  M 208.76 150.69
  Q 210.29 153.50 209.39 156.72
  Q 206.74 157.51 204.39 156.61
  A 1.01 1.01 0.0 0 1 203.75 155.67
  L 203.75 152.03
  A 1.01 1.00 -2.5 0 1 204.67 151.03
  L 208.76 150.69
  Z"
/>
<path fill="#ff0100" d="
  M 208.76 150.69
  Q 209.48 150.58 210.40 151.00
  A 1.00 0.99 -78.3 0 1 210.98 151.89
  C 210.99 152.84 211.82 158.32 209.39 156.72
  Q 210.29 153.50 208.76 150.69
  Z"
/>
<path fill="#ff0100" d="
  M 221.00 150.79
  L 221.99 150.90
  A 1.02 1.01 -10.5 0 1 222.78 151.44
  L 225.83 157.47
  A 1.02 1.01 -42.8 0 1 225.79 158.45
  L 225.37 159.14
  Q 222.43 155.37 221.00 150.79
  Z"
/>
<path fill="#ff0100" d="
  M 267.25 150.79
  Q 268.28 150.47 268.96 151.31
  Q 269.68 152.21 269.00 156.03
  Q 268.74 157.52 267.00 156.96
  L 267.25 150.79
  Z"
/>
<path fill="#ffde59" d="
  M 277.00 150.79
  Q 276.66 160.04 277.46 169.25
  Q 278.16 171.25 280.00 169.79
  L 282.21 169.78
  Q 288.65 170.95 295.08 169.79
  L 295.96 170.25
  L 296.34 175.93
  Q 284.18 176.18 272.35 175.82
  C 271.64 175.80 271.47 175.55 270.83 175.26
  Q 271.59 173.22 271.10 171.30
  C 270.40 168.54 270.53 167.21 270.46 164.75
  L 271.04 151.91
  A 0.99 0.99 0.0 0 1 272.00 150.96
  L 277.00 150.79
  Z"
/>
<path fill="#ff0100" d="
  M 277.00 150.79
  L 277.79 150.86
  A 1.02 1.01 -87.5 0 1 278.70 151.86
  L 278.71 168.00
  L 277.46 169.25
  Q 276.66 160.04 277.00 150.79
  Z"
/>
<path fill="#e44fd5" d="
  M 353.25 150.71
  L 354.00 151.04
  L 353.50 171.46
  L 351.29 171.50
  Q 349.12 171.19 350.77 172.73
  Q 352.12 173.99 352.50 175.71
  Q 349.72 176.40 346.95 175.78
  A 1.03 1.00 77.2 0 1 346.35 175.39
  Q 342.81 170.44 336.50 171.54
  C 333.80 170.14 334.93 174.45 334.75 175.79
  Q 332.17 176.36 329.66 175.76
  A 1.01 1.01 0.0 0 1 328.89 174.83
  L 328.46 165.50
  L 328.51 152.07
  A 1.00 1.00 0.0 0 1 329.49 151.07
  L 353.25 150.71
  Z
  M 334.79 164.00
  Q 334.11 165.38 335.75 165.46
  L 342.50 165.21
  L 346.81 165.38
  A 0.81 0.80 -8.8 0 0 347.60 164.31
  Q 347.54 164.15 347.46 164.00
  Q 348.28 160.75 347.20 157.72
  A 1.00 1.00 0.0 0 0 346.26 157.06
  L 336.50 157.04
  Q 336.27 156.90 336.05 156.83
  A 1.01 1.00 8.3 0 0 334.75 157.79
  L 334.79 164.00
  Z"
/>
<path fill="#e44fd5" d="
  M 410.27 150.56
  L 412.00 151.04
  Q 411.23 163.43 412.20 176.05
  L 406.85 175.97
  A 1.00 1.00 0.0 0 1 405.86 175.05
  L 405.68 172.44
  A 1.01 1.01 0.0 0 0 404.71 171.51
  L 394.09 171.17
  Q 391.19 172.19 392.00 175.96
  L 387.56 175.72
  A 1.01 1.01 0.0 0 1 386.61 174.76
  L 386.46 171.00
  L 386.54 160.00
  L 386.46 154.50
  Q 386.20 152.98 386.75 151.68
  A 0.99 0.99 0.0 0 1 387.65 151.07
  L 410.27 150.56
  Z
  M 404.00 156.96
  L 394.25 156.96
  C 391.62 156.08 392.26 158.30 392.21 159.77
  Q 392.13 162.13 392.50 164.46
  Q 392.20 166.26 394.25 165.29
  L 397.50 165.21
  L 403.50 165.21
  Q 404.35 165.42 405.11 165.19
  A 1.02 1.00 86.8 0 0 405.80 164.40
  Q 406.15 162.42 405.46 160.50
  L 405.46 158.25
  Q 405.98 155.57 404.00 156.96
  Z"
/>
<path fill="#e44fd5" d="
  M 439.25 150.71
  L 440.29 150.77
  Q 440.84 163.25 440.25 175.71
  Q 428.42 176.30 416.46 175.89
  A 1.00 0.99 -89.1 0 1 415.50 174.89
  L 415.50 161.59
  A 1.00 1.00 0.0 0 1 416.44 160.59
  L 421.88 160.23
  Q 419.56 164.51 421.54 169.00
  Q 420.86 170.86 423.25 170.21
  L 433.32 169.73
  A 0.99 0.99 0.0 0 0 434.27 168.76
  L 434.50 158.03
  A 1.00 1.00 0.0 0 0 433.50 157.01
  L 416.52 156.98
  A 1.01 1.01 0.0 0 1 415.52 155.98
  L 415.48 151.15
  L 439.25 150.71
  Z"
/>
<path fill="#ff0100" d="
  M 440.29 150.77
  Q 440.86 150.63 441.58 151.14
  A 1.01 1.00 -72.4 0 1 442.00 151.96
  L 442.00 175.01
  A 1.00 1.00 0.0 0 1 440.54 175.90
  Q 440.40 175.82 440.25 175.71
  Q 440.84 163.25 440.29 150.77
  Z"
/>
<path fill="#fc1339" d="
  M 469.00 150.79
  Q 469.90 150.59 470.63 151.06
  A 0.96 0.96 0.0 0 1 471.06 151.63
  Q 472.06 155.25 469.42 157.09
  L 469.00 150.79
  Z"
/>
<path fill="#ff0100" d="
  M 55.82 151.03
  Q 56.87 150.82 57.06 151.48
  Q 58.05 155.00 55.68 156.91
  L 55.82 151.03
  Z"
/>
<path fill="#ff0100" d="
  M 84.75 151.04
  C 85.55 150.75 86.00 151.10 86.00 151.94
  Q 85.99 161.09 86.01 170.26
  Q 86.01 171.43 84.50 170.96
  L 84.75 151.04
  Z"
/>
<path fill="#fc1339" d="
  M 113.28 151.03
  L 113.67 151.02
  A 1.00 0.99 -1.4 0 1 114.72 152.01
  L 114.76 175.04
  A 1.00 0.99 -88.9 0 1 113.73 176.04
  Q 113.50 176.04 113.25 175.96
  L 113.28 151.03
  Z"
/>
<path fill="#fc1339" d="
  M 141.75 151.04
  C 142.75 150.83 143.54 151.28 143.58 152.38
  Q 143.69 154.86 142.42 156.82
  L 141.75 151.04
  Z"
/>
<path fill="#ff0100" d="
  M 171.25 151.04
  L 172.46 151.25
  Q 172.13 153.34 172.96 155.25
  Q 173.16 157.49 171.04 156.75
  L 171.25 151.04
  Z"
/>
<path fill="#ff0100" d="
  M 200.04 151.00
  C 200.84 150.78 201.25 151.12 201.25 151.94
  Q 201.25 161.23 201.25 170.50
  Q 201.25 171.19 200.10 171.25
  Q 199.29 161.09 200.04 151.00
  Z"
/>
<path fill="#ff0100" d="
  M 237.75 151.04
  Q 240.00 150.50 239.24 152.22
  C 238.58 153.72 236.46 159.68 234.54 159.25
  L 237.75 151.04
  Z"
/>
<path fill="#fc1339" d="
  M 324.75 151.04
  Q 325.44 150.85 325.92 151.01
  A 1.02 1.01 -81.2 0 1 326.60 151.94
  Q 326.95 168.69 326.74 175.25
  Q 326.70 176.35 325.25 175.96
  L 324.75 151.04
  Z"
/>
<path fill="#ff0100" d="
  M 354.00 151.04
  Q 354.34 150.95 354.64 151.00
  A 0.99 0.99 0.0 0 1 355.49 151.98
  L 355.51 170.13
  A 1.01 1.00 72.4 0 1 355.09 170.95
  Q 354.46 171.39 353.50 171.46
  L 354.00 151.04
  Z"
/>
<path fill="#e44fd5" d="
  M 381.00 150.96
  C 382.84 150.84 381.10 153.93 382.50 155.46
  Q 382.94 156.09 382.25 156.71
  L 365.25 156.96
  Q 364.62 156.59 364.14 156.88
  A 0.81 0.79 75.0 0 0 363.75 157.57
  L 363.79 169.00
  Q 363.72 171.13 366.00 169.96
  L 369.75 169.96
  L 380.37 170.43
  A 0.67 0.65 23.8 0 0 380.85 170.25
  Q 381.11 169.99 381.50 169.96
  L 382.50 170.04
  L 383.11 175.94
  L 358.63 175.90
  A 1.00 1.00 0.0 0 1 357.63 174.83
  Q 358.55 162.89 357.50 151.29
  L 381.00 150.96
  Z
  M 361.33 154.25
  Q 363.37 152.76 360.86 152.45
  L 360.48 152.40
  Q 357.98 152.08 359.58 154.02
  Q 360.35 154.96 361.33 154.25
  Z"
/>
<path fill="#ff0100" d="
  M 383.00 151.04
  Q 383.22 150.95 383.44 150.99
  A 0.64 0.64 0.0 0 1 383.97 151.61
  L 384.07 155.98
  A 1.00 0.99 -83.2 0 1 382.82 156.97
  Q 382.53 156.90 382.25 156.71
  Q 382.94 156.09 382.50 155.46
  Q 382.19 153.15 383.00 151.04
  Z"
/>
<path fill="#ff0100" d="
  M 412.00 151.04
  Q 412.95 150.75 413.00 151.50
  Q 413.73 162.77 412.20 176.05
  Q 411.23 163.43 412.00 151.04
  Z"
/>
<path fill="#243771" d="
  M 241.29 151.25
  L 242.54 151.50
  L 242.21 153.00
  L 241.29 151.25
  Z"
/>
<path fill="#cc44bc" fill-opacity="0.863" d="
  M 361.33 154.25
  Q 360.35 154.96 359.58 154.02
  Q 357.98 152.08 360.48 152.40
  L 360.86 152.45
  Q 363.37 152.76 361.33 154.25
  Z"
/>
<path fill="#243771" d="
  M 385.54 153.25
  L 386.46 154.50
  L 386.54 160.00
  Q 386.86 158.23 385.75 159.21
  L 385.54 153.25
  Z"
/>
<path fill="#15f1f8" d="
  M 184.75 165.21
  Q 188.11 164.01 191.72 163.92
  A 1.01 1.00 -87.0 0 0 192.69 163.04
  Q 192.86 161.62 193.27 160.36
  C 193.70 159.00 193.52 158.11 192.75 157.04
  Q 193.72 155.93 193.78 157.45
  Q 193.92 160.77 193.92 164.30
  A 1.01 1.00 -4.0 0 1 193.05 165.29
  Q 188.81 165.86 184.75 165.21
  Z"
/>
<path fill="#3797b9" fill-opacity="0.984" d="
  M 405.46 158.25
  L 404.00 156.96
  Q 405.98 155.57 405.46 158.25
  Z"
/>
<path fill="#fc1339" d="
  M 37.79 157.00
  Q 38.20 158.51 37.21 159.75
  L 36.79 159.50
  Q 35.48 156.87 37.79 157.00
  Z"
/>
<path fill="#fc1339" d="
  M 66.69 156.77
  L 66.71 164.00
  L 65.75 164.21
  Q 63.43 159.72 66.69 156.77
  Z"
/>
<path fill="#fc1339" d="
  M 95.20 157.00
  L 95.54 163.25
  L 94.50 164.04
  Q 93.29 160.25 95.20 157.00
  Z"
/>
<path fill="#ff0100" d="
  M 124.50 156.96
  L 124.21 168.50
  L 123.12 169.49
  L 123.04 157.56
  A 0.80 0.80 0.0 0 1 123.80 156.76
  Q 124.15 156.74 124.50 156.96
  Z"
/>
<path fill="#ff0100" d="
  M 153.29 157.00
  L 153.00 159.79
  Q 152.32 160.31 152.04 159.50
  Q 150.77 156.77 153.29 157.00
  Z"
/>
<path fill="#ff0100" d="
  M 181.86 156.78
  C 181.98 158.39 182.92 164.64 180.54 164.75
  Q 180.03 160.37 181.86 156.78
  Z"
/>
<path fill="#fc1339" d="
  M 249.25 156.79
  Q 248.20 158.63 249.71 159.00
  L 248.25 160.28
  Q 247.57 157.00 249.25 156.79
  Z"
/>
<path fill="#e6a2db" fill-opacity="0.996" d="
  M 249.25 156.79
  L 250.00 156.79
  L 249.71 159.00
  Q 248.20 158.63 249.25 156.79
  Z"
/>
<path fill="#ff0100" d="
  M 307.50 157.04
  L 307.21 163.75
  L 306.54 164.25
  C 306.35 163.62 304.61 155.42 307.50 157.04
  Z"
/>
<path fill="#15f1f8" d="
  M 313.54 165.25
  L 312.00 164.54
  L 316.98 163.92
  A 1.00 0.99 88.6 0 0 317.85 163.00
  L 318.32 156.87
  Q 319.91 160.34 319.28 164.18
  A 1.00 0.99 3.2 0 1 318.34 165.01
  L 313.54 165.25
  Z"
/>
<path fill="#ff0100" d="
  M 336.50 157.04
  Q 336.82 160.72 335.96 164.25
  L 334.79 164.00
  L 334.75 157.79
  A 1.01 1.00 8.3 0 1 336.05 156.83
  Q 336.27 156.90 336.50 157.04
  Z"
/>
<path fill="#ff0100" d="
  M 365.25 156.96
  L 364.96 169.00
  L 363.79 169.00
  L 363.75 157.57
  A 0.81 0.79 75.0 0 1 364.14 156.88
  Q 364.62 156.59 365.25 156.96
  Z"
/>
<path fill="#fc1339" d="
  M 394.25 156.96
  L 393.71 164.50
  L 392.50 164.46
  Q 392.13 162.13 392.21 159.77
  C 392.26 158.30 391.62 156.08 394.25 156.96
  Z"
/>
<path fill="#fc1339" d="
  M 451.79 157.00
  L 451.25 160.46
  Q 450.20 160.07 450.19 158.91
  C 450.17 157.82 449.89 156.16 451.79 157.00
  Z"
/>
<path fill="#3797b9" fill-opacity="0.984" d="
  M 77.97 156.88
  Q 79.49 160.70 78.55 164.54
  A 1.00 1.00 0.0 0 1 77.58 165.30
  L 65.68 165.31
  A 0.41 0.41 0.0 0 1 65.28 165.00
  Q 65.15 164.47 65.75 164.21
  L 66.71 164.00
  L 66.75 164.30
  A 0.27 0.26 84.8 0 0 67.01 164.52
  L 76.47 164.46
  A 1.00 1.00 0.0 0 0 77.47 163.54
  L 77.97 156.88
  Z"
/>
<path fill="#15f1f8" d="
  M 106.25 157.04
  C 108.29 156.30 107.49 163.27 107.48 164.21
  A 1.00 0.99 -0.0 0 1 106.49 165.19
  L 95.27 165.34
  A 0.80 0.79 -5.5 0 1 94.47 164.69
  Q 94.41 164.38 94.50 164.04
  L 95.54 163.25
  L 95.62 163.63
  A 1.00 0.99 -5.2 0 0 96.60 164.44
  L 105.22 164.42
  A 1.00 1.00 0.0 0 0 106.21 163.42
  L 106.25 157.04
  Z"
/>
<path fill="#ffde59" d="
  M 210.71 159.00
  L 210.35 159.11
  A 0.99 0.99 0.0 0 0 209.63 159.96
  Q 208.84 167.82 210.26 175.83
  L 204.73 175.71
  A 1.00 1.00 0.0 0 1 203.75 174.71
  L 203.75 159.85
  A 1.00 1.00 0.0 0 1 204.55 158.87
  Q 207.68 158.22 210.71 159.00
  Z"
/>
<path fill="#15f1f8" d="
  M 386.54 160.00
  L 386.46 171.00
  Q 383.65 165.30 385.75 159.21
  Q 386.86 158.23 386.54 160.00
  Z"
/>
<path fill="#ff0100" d="
  M 210.71 159.00
  Q 211.78 167.43 210.26 175.83
  Q 208.84 167.82 209.63 159.96
  A 0.99 0.99 0.0 0 1 210.35 159.11
  L 210.71 159.00
  Z"
/>
<path fill="#3797b9" fill-opacity="0.984" d="
  M 36.79 159.50
  L 37.21 159.75
  L 52.93 159.84
  A 0.96 0.96 0.0 0 1 53.43 159.98
  Q 53.92 160.27 54.50 160.29
  L 54.24 160.51
  A 1.03 1.01 -63.4 0 1 53.61 160.73
  Q 45.42 160.77 37.26 160.75
  Q 35.99 160.74 36.79 159.50
  Z"
/>
<path fill="#3797b9" fill-opacity="0.984" d="
  M 152.04 159.50
  Q 152.32 160.31 153.00 159.79
  L 168.61 159.75
  A 1.02 1.02 0.0 0 1 169.29 160.01
  L 169.50 160.21
  C 167.25 161.22 164.84 160.52 163.13 160.58
  Q 157.96 160.75 152.76 160.73
  A 0.80 0.80 0.0 0 1 151.96 159.96
  Q 151.96 159.74 152.04 159.50
  Z"
/>
<path fill="#ff0100" d="
  M 170.50 160.29
  Q 171.69 159.98 172.54 160.75
  L 172.46 161.00
  C 172.29 161.93 172.56 165.93 171.49 165.94
  A 0.51 0.51 0.0 0 1 170.98 165.36
  Q 171.35 162.71 170.50 160.29
  Z"
/>
<path fill="#ff0100" d="
  M 238.50 160.29
  C 239.41 159.96 239.98 160.37 239.98 161.32
  Q 240.04 173.02 240.00 175.25
  Q 239.98 176.58 238.71 175.75
  L 238.50 160.29
  Z"
/>
<path fill="#ff0100" d="
  M 267.75 160.29
  Q 268.60 160.05 268.86 160.68
  Q 270.51 164.71 267.20 166.86
  Q 266.94 163.32 267.75 160.29
  Z"
/>
<path fill="#fc1339" d="
  M 470.25 160.29
  Q 472.83 164.34 469.18 166.88
  C 469.13 164.66 468.26 161.83 470.25 160.29
  Z"
/>
<path fill="#ff0100" d="
  M 55.75 160.53
  Q 57.01 160.57 57.01 161.51
  Q 57.02 168.42 56.98 175.36
  A 0.64 0.63 77.8 0 1 56.61 175.94
  Q 56.04 176.20 55.50 175.71
  L 55.75 160.53
  Z"
/>
<path fill="#15f1f8" d="
  M 405.46 160.50
  Q 406.15 162.42 405.80 164.40
  A 1.02 1.00 86.8 0 1 405.11 165.19
  Q 404.35 165.42 403.50 165.21
  Q 401.83 165.24 400.46 164.50
  L 403.46 164.00
  A 0.99 0.99 0.0 0 0 404.29 163.07
  Q 404.37 161.52 405.46 160.50
  Z"
/>
<path fill="#fc1339" d="
  M 421.88 160.23
  C 423.73 160.97 422.99 167.15 422.96 169.00
  L 421.54 169.00
  Q 419.56 164.51 421.88 160.23
  Z"
/>
<path fill="#e6a2db" fill-opacity="0.996" d="
  M 172.54 160.75
  Q 173.49 162.62 172.78 166.07
  L 172.46 161.00
  L 172.54 160.75
  Z"
/>
<path fill="#5613d8" fill-opacity="0.906" d="
  M 37.96 162.86
  C 38.65 160.72 48.17 161.53 50.39 161.53
  A 1.03 1.01 -28.2 0 1 50.94 161.69
  Q 51.56 162.10 52.04 161.81
  A 0.64 0.64 0.0 0 1 53.00 162.26
  Q 53.23 163.64 52.25 164.74
  A 0.97 0.96 -72.6 0 1 51.62 165.07
  Q 46.72 165.65 39.75 165.74
  Q 37.08 165.77 37.22 163.24
  A 0.27 0.27 0.0 0 1 37.49 162.99
  L 37.76 163.00
  A 0.21 0.21 0.0 0 0 37.96 162.86
  Z"
/>
<path fill="#5613d8" fill-opacity="0.906" d="
  M 160.56 161.94
  Q 162.58 162.22 162.94 163.64
  A 1.00 1.00 0.0 0 1 162.21 164.85
  C 160.22 165.35 147.34 167.06 154.39 161.67
  A 1.00 0.99 -63.7 0 1 155.00 161.46
  Q 157.24 161.48 160.56 161.94
  Z"
/>
<path fill="#cc44bc" fill-opacity="0.863" d="
  M 459.32 164.06
  Q 456.91 165.81 453.93 164.77
  Q 452.37 164.23 452.14 163.03
  A 1.01 1.01 0.0 0 1 453.20 161.84
  L 458.80 162.25
  Q 461.52 162.46 459.32 164.06
  Z"
/>
<path fill="#655e78" fill-opacity="0.973" d="
  M 307.21 163.75
  Q 306.92 164.84 307.75 165.29
  Q 305.95 166.12 306.54 164.25
  L 307.21 163.75
  Z"
/>
<path fill="#655e78" fill-opacity="0.973" d="
  M 334.79 164.00
  L 335.96 164.25
  L 335.75 165.46
  Q 334.11 165.38 334.79 164.00
  Z"
/>
<path fill="#655e78" fill-opacity="0.973" d="
  M 347.46 164.00
  Q 347.54 164.15 347.60 164.31
  A 0.81 0.80 -8.8 0 1 346.81 165.38
  L 342.50 165.21
  Q 345.14 165.20 347.46 164.00
  Z"
/>
<path fill="#3797b9" fill-opacity="0.984" d="
  M 312.00 164.54
  L 313.54 165.25
  Q 311.78 165.83 310.00 165.21
  L 312.00 164.54
  Z"
/>
<path fill="#655e78" fill-opacity="0.973" d="
  M 392.50 164.46
  L 393.71 164.50
  L 394.25 165.29
  Q 392.20 166.26 392.50 164.46
  Z"
/>
<path fill="#3797b9" fill-opacity="0.984" d="
  M 400.46 164.50
  Q 401.83 165.24 403.50 165.21
  L 397.50 165.21
  L 400.46 164.50
  Z"
/>
<path fill="#15f1f8" d="
  M 270.46 164.75
  C 270.53 167.21 270.40 168.54 271.10 171.30
  Q 271.59 173.22 270.83 175.26
  Q 269.66 170.03 270.46 164.75
  Z"
/>
<path fill="#ff0100" d="
  M 153.29 166.75
  L 153.21 168.75
  L 152.04 169.00
  Q 150.74 165.42 153.29 166.75
  Z"
/>
<path fill="#15f1f8" d="
  M 30.46 175.25
  C 28.61 174.63 29.18 171.42 29.55 170.03
  A 0.99 0.99 0.0 0 1 30.51 169.28
  L 47.54 169.20
  A 1.00 0.99 8.8 0 0 48.49 168.51
  Q 49.10 166.62 47.00 166.71
  Q 50.72 165.37 49.69 169.26
  A 1.01 1.00 7.5 0 1 48.72 170.00
  L 31.17 170.00
  A 1.00 1.00 0.0 0 0 30.25 171.40
  Q 31.13 173.39 30.46 175.25
  Z"
/>
<path fill="#ff0100" d="
  M 221.29 166.75
  Q 220.79 170.72 220.97 174.72
  C 221.02 175.76 220.52 176.43 219.46 175.75
  Q 218.73 171.51 219.23 167.23
  A 1.01 1.00 5.9 0 1 220.32 166.35
  Q 220.81 166.40 221.29 166.75
  Z"
/>
<path fill="#fc1339" d="
  M 452.25 166.71
  Q 451.45 167.51 451.71 168.75
  L 450.75 169.04
  Q 448.89 165.59 452.25 166.71
  Z"
/>
<path fill="#15f1f8" d="
  M 232.46 175.25
  L 231.90 174.92
  A 1.01 1.00 -69.2 0 1 231.43 173.87
  Q 232.16 170.19 231.03 166.87
  Q 231.13 166.57 231.57 166.51
  A 0.81 0.80 86.3 0 1 232.48 167.31
  L 232.46 175.25
  Z"
/>
<path fill="#e6a2db" fill-opacity="0.996" d="
  M 250.00 166.79
  L 249.80 168.77
  A 0.81 0.81 0.0 0 1 248.90 169.48
  Q 248.61 169.44 248.29 169.25
  Q 247.29 166.00 250.00 166.79
  Z"
/>
<path fill="#15f1f8" d="
  M 278.71 168.00
  Q 278.91 169.19 280.00 169.79
  Q 278.16 171.25 277.46 169.25
  L 278.71 168.00
  Z"
/>
<path fill="#3797b9" fill-opacity="0.984" d="
  M 124.21 168.50
  Q 124.44 169.55 125.25 169.50
  Q 134.37 168.91 141.25 169.96
  Q 132.26 170.46 123.12 169.49
  L 124.21 168.50
  Z"
/>
<path fill="#3797b9" fill-opacity="0.984" d="
  M 153.21 168.75
  C 153.78 170.18 166.64 169.29 168.65 169.19
  A 1.05 1.05 0.0 0 1 169.21 169.33
  L 170.00 169.79
  C 166.86 169.99 151.41 171.04 152.04 169.00
  L 153.21 168.75
  Z"
/>
<path fill="#3797b9" fill-opacity="0.984" d="
  M 364.96 169.00
  L 366.00 169.96
  Q 363.72 171.13 363.79 169.00
  L 364.96 169.00
  Z"
/>
<path fill="#3797b9" fill-opacity="0.984" d="
  M 422.96 169.00
  L 423.25 170.21
  Q 420.86 170.86 421.54 169.00
  L 422.96 169.00
  Z"
/>
<path fill="#3797b9" fill-opacity="0.984" d="
  M 451.71 168.75
  L 452.21 170.00
  Q 450.38 171.17 450.75 169.04
  L 451.71 168.75
  Z"
/>
<path fill="#15f1f8" d="
  M 295.08 169.79
  Q 288.65 170.95 282.21 169.78
  Q 288.73 167.97 295.08 169.79
  Z"
/>
<path fill="#655e78" fill-opacity="0.973" d="
  M 381.50 169.96
  Q 381.11 169.99 380.85 170.25
  A 0.67 0.65 23.8 0 1 380.37 170.43
  L 369.75 169.96
  C 373.12 169.58 378.59 168.79 381.50 169.96
  Z"
/>
<path fill="#fc1339" d="
  M 142.08 176.05
  L 141.96 170.25
  Q 143.17 169.79 143.56 170.98
  Q 144.71 174.50 142.08 176.05
  Z"
/>
<path fill="#ff0100" d="
  M 171.25 170.04
  L 172.50 170.21
  Q 171.55 172.84 172.79 175.25
  Q 172.40 176.45 171.00 175.96
  L 171.25 170.04
  Z"
/>
<path fill="#ff0100" d="
  M 267.89 175.98
  Q 266.95 173.14 267.21 170.25
  C 268.16 169.58 268.94 169.94 269.14 171.07
  Q 269.66 173.98 267.89 175.98
  Z"
/>
<path fill="#ff0100" d="
  M 296.34 175.93
  L 295.96 170.25
  C 297.00 169.56 297.92 169.91 298.20 171.14
  Q 299.01 174.61 296.34 175.93
  Z"
/>
<path fill="#fc1339" d="
  M 382.50 170.04
  Q 383.88 169.65 384.27 170.74
  Q 385.43 173.97 383.11 175.94
  L 382.50 170.04
  Z"
/>
<path fill="#fc1339" d="
  M 469.25 170.04
  Q 469.88 169.85 470.46 170.05
  A 1.00 0.99 -89.6 0 1 471.11 170.72
  Q 472.21 174.54 469.14 176.10
  L 469.25 170.04
  Z"
/>
<path fill="#e6a2db" fill-opacity="0.996" d="
  M 172.50 170.21
  Q 173.93 172.55 172.79 175.25
  Q 171.55 172.84 172.50 170.21
  Z"
/>
<path fill="#fc1339" d="
  M 67.04 171.50
  Q 67.61 174.61 65.40 176.03
  L 65.34 171.90
  A 0.80 0.79 -16.3 0 1 65.73 171.20
  Q 66.36 170.83 67.04 171.50
  Z"
/>
<path fill="#3797b9" fill-opacity="0.984" d="
  M 319.10 175.44
  Q 318.84 172.98 317.50 171.46
  Q 318.29 170.82 319.01 171.22
  A 1.00 0.99 -79.6 0 1 319.51 171.95
  Q 319.74 173.53 319.10 175.44
  Z"
/>
<path fill="#fc1339" d="
  M 95.28 171.44
  Q 96.60 175.32 94.11 176.00
  Q 93.46 173.22 95.28 171.44
  Z"
/>
<path fill="#15f1f8" d="
  M 106.16 171.19
  Q 108.61 172.29 107.25 175.21
  Q 105.74 173.80 106.16 171.19
  Z"
/>
<path fill="#ff0100" d="
  M 183.00 171.46
  Q 182.81 171.44 182.63 171.47
  A 0.64 0.63 -12.6 0 0 182.14 172.23
  Q 182.67 174.74 180.91 175.93
  L 180.77 172.25
  A 1.00 1.00 0.0 0 1 181.54 171.24
  Q 182.25 171.07 183.00 171.46
  Z"
/>
<path fill="#fc1339" d="
  M 307.25 171.54
  Q 308.11 174.56 306.16 175.88
  L 306.01 171.84
  A 0.52 0.52 0.0 0 1 306.15 171.46
  Q 306.63 170.98 307.25 171.54
  Z"
/>
<path fill="#ff0100" d="
  M 336.50 171.54
  Q 335.97 173.14 336.36 174.75
  Q 336.80 176.59 335.03 175.92
  Q 334.89 175.87 334.75 175.79
  C 334.93 174.45 333.80 170.14 336.50 171.54
  Z"
/>
<path fill="#fc1339" d="
  M 351.29 171.50
  L 354.10 174.68
  Q 355.59 176.37 353.37 176.00
  Q 352.94 175.93 352.50 175.71
  Q 352.12 173.99 350.77 172.73
  Q 349.12 171.19 351.29 171.50
  Z"
/>
<path fill="#fc1339" d="
  M 394.09 171.17
  C 393.96 172.86 394.95 176.86 392.00 175.96
  Q 391.19 172.19 394.09 171.17
  Z"
/>
</svg>
