<?xml version="1.0" encoding="UTF-8" standalone="no"?>
<!DOCTYPE svg PUBLIC "-//W3C//DTD SVG 1.1//EN" "http://www.w3.org/Graphics/SVG/1.1/DTD/svg11.dtd">
<svg xmlns="http://www.w3.org/2000/svg" version="1.1" viewBox="0 0 500 200">
<g stroke-width="2.00" fill="none" stroke-linecap="butt">
<path stroke="#413758" stroke-opacity="0.984" vector-effect="non-scaling-stroke" d="
  M 260.04 63.75
  L 260.25 65.29"
/>
<path stroke="#b4adba" stroke-opacity="0.984" vector-effect="non-scaling-stroke" d="
  M 255.80 62.12
  L 244.74 51.91
  Q 244.38 51.57 243.88 51.52
  C 238.73 51.01 231.66 59.52 227.10 64.25"
/>
<path stroke="#3d2f4a" stroke-opacity="0.984" vector-effect="non-scaling-stroke" d="
  M 211.00 79.29
  C 209.45 78.85 208.21 80.51 206.91 81.85
  Q 206.55 82.22 206.58 82.73
  Q 206.92 87.89 210.50 91.46"
/>
<path stroke="#af9cb7" stroke-opacity="0.984" vector-effect="non-scaling-stroke" d="
  M 210.50 91.46
  L 209.75 91.50"
/>
<path stroke="#1a0e31" vector-effect="non-scaling-stroke" d="
  M 220.50 83.79
  L 220.25 84.94
  Q 220.15 85.38 219.72 85.49
  C 218.12 85.93 217.16 87.56 218.36 89.03
  Q 218.66 89.38 218.75 89.84
  Q 219.06 91.48 217.52 91.99
  Q 217.22 92.09 217.50 92.24
  L 218.09 92.55
  Q 218.24 92.64 218.12 92.76
  L 217.93 92.94
  Q 217.72 93.15 217.98 93.30
  L 232.00 101.29"
/>
<path stroke="#17637f" vector-effect="non-scaling-stroke" d="
  M 232.00 101.29
  L 232.21 102.50"
/>
<path stroke="#86718e" vector-effect="non-scaling-stroke" d="
  M 232.21 102.50
  Q 222.73 97.84 213.08 93.53
  C 211.99 93.04 211.39 92.22 210.50 91.46"
/>
<path stroke="#1a0e31" vector-effect="non-scaling-stroke" d="
  M 276.77 79.79
  Q 275.28 78.69 273.75 79.54"
/>
<path stroke="#f2a3e7" vector-effect="non-scaling-stroke" d="
  M 255.90 64.21
  Q 249.87 59.78 244.52 54.57
  C 242.83 52.93 242.01 53.35 240.44 54.70
  Q 233.59 60.55 227.06 66.74
  Q 226.81 66.98 226.49 66.86
  L 226.21 66.75"
/>
<path stroke="#88ceeb" vector-effect="non-scaling-stroke" d="
  M 232.21 102.50
  L 239.50 106.54"
/>
<path stroke="#8a799c" vector-effect="non-scaling-stroke" d="
  M 239.50 106.54
  Q 241.28 111.08 241.21 116.00"
/>
<path stroke="#ee92e4" vector-effect="non-scaling-stroke" d="
  M 241.21 116.00
  L 240.33 114.58
  Q 240.07 114.16 240.00 113.68
  C 238.97 106.31 226.10 101.03 218.75 97.71"
/>
<path stroke="#ef8dcd" vector-effect="non-scaling-stroke" d="
  M 209.75 91.50
  C 209.06 93.34 215.78 96.18 218.75 97.71"
/>
<path stroke="#e742b7" vector-effect="non-scaling-stroke" d="
  M 218.75 97.71
  Q 218.18 98.43 218.00 99.35
  Q 217.91 99.82 217.45 99.72
  L 214.02 98.92
  Q 212.53 98.58 214.02 99.23
  Q 214.54 99.46 214.71 100.00"
/>
<path stroke="#88ceeb" vector-effect="non-scaling-stroke" d="
  M 253.08 102.00
  L 245.75 106.54"
/>
<path stroke="#1b6b8d" vector-effect="non-scaling-stroke" d="
  M 245.75 106.54
  L 245.02 106.50
  Q 244.49 106.47 244.10 106.81
  Q 242.49 108.25 240.95 106.54
  Q 240.59 106.13 240.09 106.32
  L 239.50 106.54"
/>
<path stroke="#7e2779" vector-effect="non-scaling-stroke" d="
  M 273.71 80.00
  C 273.82 81.72 266.09 83.27 264.50 83.79"
/>
<path stroke="#812f86" vector-effect="non-scaling-stroke" d="
  M 264.50 83.79
  C 259.34 85.44 245.07 90.80 240.30 89.44
  Q 230.40 86.62 220.50 83.79"
/>
<path stroke="#7e2779" vector-effect="non-scaling-stroke" d="
  M 220.50 83.79
  C 219.05 83.27 211.36 81.38 211.25 80.29"
/>
<path stroke="#1b6b8d" vector-effect="non-scaling-stroke" d="
  M 269.36 92.07
  Q 269.07 91.61 268.76 91.79
  Q 258.30 97.74 243.15 105.64
  Q 242.68 105.88 242.21 105.64
  L 232.89 100.85
  Q 232.45 100.62 232.17 101.03
  L 232.00 101.29"
/>
<path stroke="#7f2262" vector-effect="non-scaling-stroke" d="
  M 274.50 92.29
  Q 274.48 92.40 274.45 92.44"
/>
<path stroke="#86718e" vector-effect="non-scaling-stroke" d="
  M 274.45 92.44
  L 253.08 102.00"
/>
<path stroke="#17637f" vector-effect="non-scaling-stroke" d="
  M 253.08 102.00
  Q 260.53 96.06 269.36 92.07"
/>
<path stroke="#1a0e31" vector-effect="non-scaling-stroke" d="
  M 269.36 92.07
  Q 270.59 90.82 267.57 90.99
  Q 266.95 91.02 267.19 90.44
  Q 268.75 86.56 265.00 85.37
  Q 264.47 85.21 264.48 84.65
  L 264.50 83.79"
/>
<path stroke="#413758" stroke-opacity="0.984" vector-effect="non-scaling-stroke" d="
  M 243.46 116.50
  L 241.54 116.50"
/>
<path stroke="#812f86" vector-effect="non-scaling-stroke" d="
  M 252.21 109.75
  L 251.50 110.71"
/>
<path stroke="#7e2779" vector-effect="non-scaling-stroke" d="
  M 251.50 110.71
  Q 249.92 112.32 250.50 114.71"
/>
<path stroke="#e776d7" vector-effect="non-scaling-stroke" d="
  M 249.25 119.79
  Q 248.08 120.31 247.25 121.23
  Q 246.90 121.64 247.08 122.14
  Q 247.28 122.66 247.75 123.00"
/>
<path stroke="#e776d7" vector-effect="non-scaling-stroke" d="
  M 245.75 128.04
  L 245.24 130.06"
/>
<path stroke="#e776d7" vector-effect="non-scaling-stroke" d="
  M 239.71 130.00
  L 239.29 128.25"
/>
<path stroke="#be4bae" stroke-opacity="0.686" vector-effect="non-scaling-stroke" d="
  M 239.29 128.25
  L 239.04 127.25"
/>
<path stroke="#e776d7" vector-effect="non-scaling-stroke" d="
  M 239.04 127.25
  Q 239.69 125.67 238.54 124.50"
/>
<path stroke="#ee92e4" vector-effect="non-scaling-stroke" d="
  M 238.54 124.50
  Q 237.54 120.04 237.21 122.64"
/>
<path stroke="#c461b5" stroke-opacity="0.800" vector-effect="non-scaling-stroke" d="
  M 237.21 122.64
  L 232.25 120.46"
/>
<path stroke="#a750a1" stroke-opacity="0.984" vector-effect="non-scaling-stroke" d="
  M 232.25 120.46
  L 229.75 120.21"
/>
<path stroke="#f2a3e7" vector-effect="non-scaling-stroke" d="
  M 229.75 120.21
  L 231.61 119.90
  Q 232.49 119.76 231.67 119.41
  C 230.79 119.04 224.16 116.11 224.51 114.55
  Q 224.66 113.90 225.17 114.33
  Q 230.15 118.49 236.53 119.95
  Q 236.96 120.05 236.96 119.61
  Q 236.95 116.69 234.75 114.71"
/>
<path stroke="#7e2779" vector-effect="non-scaling-stroke" d="
  M 234.75 114.71
  Q 235.02 112.81 233.71 111.50"
/>
<path stroke="#ee92e4" vector-effect="non-scaling-stroke" d="
  M 233.71 111.50
  L 233.84 110.88
  Q 233.95 110.40 233.64 110.00
  Q 231.54 107.26 228.21 106.00"
/>
<path stroke="#e776d7" vector-effect="non-scaling-stroke" d="
  M 228.21 106.00
  Q 227.14 104.74 225.50 105.04"
/>
<path stroke="#812f86" vector-effect="non-scaling-stroke" d="
  M 241.21 116.00
  L 241.54 116.50"
/>
<path stroke="#a750a1" stroke-opacity="0.984" vector-effect="non-scaling-stroke" d="
  M 241.54 116.50
  L 241.75 117.79"
/>
<path stroke="#f2a3e7" vector-effect="non-scaling-stroke" d="
  M 241.75 117.79
  Q 241.54 121.36 242.59 124.74
  Q 242.86 125.64 242.93 124.70
  L 243.50 116.71"
/>
<path stroke="#a750a1" stroke-opacity="0.984" vector-effect="non-scaling-stroke" d="
  M 243.50 116.71
  Q 243.48 116.60 243.46 116.50"
/>
<path stroke="#812f86" vector-effect="non-scaling-stroke" d="
  M 243.46 116.50
  L 244.25 112.46"
/>
<path stroke="#e971c0" vector-effect="non-scaling-stroke" d="
  M 200.50 90.79
  Q 199.40 91.93 197.84 92.09
  Q 197.33 92.14 197.29 92.65
  Q 197.25 93.24 196.96 93.75"
/>
<path stroke="#ee92e4" vector-effect="non-scaling-stroke" d="
  M 269.75 96.04
  Q 253.51 103.93 248.55 107.05
  Q 246.40 108.41 245.56 112.33
  Q 245.44 112.87 244.92 112.69
  L 244.25 112.46"
/>
<path stroke="#8a799c" vector-effect="non-scaling-stroke" d="
  M 244.25 112.46
  Q 244.36 109.32 245.75 106.54"
/>
<path stroke="#e971c0" vector-effect="non-scaling-stroke" d="
  M 282.63 90.90
  Q 283.91 92.43 285.99 91.96
  Q 286.62 91.81 286.72 92.45
  L 287.00 94.21"
/>
<path stroke="#e742b7" vector-effect="non-scaling-stroke" d="
  M 272.04 99.50
  Q 271.52 98.55 270.67 98.77
  Q 270.23 98.88 269.98 98.50
  Q 269.27 97.37 269.75 96.04"
/>
<path stroke="#ef8dcd" vector-effect="non-scaling-stroke" d="
  M 269.75 96.04
  Q 272.80 95.16 274.45 92.44"
/>
<path stroke="#b4adba" stroke-opacity="0.984" vector-effect="non-scaling-stroke" d="
  M 243.50 116.71
  Q 242.17 116.57 241.75 117.79"
/>
<path stroke="#f0c1ed" vector-effect="non-scaling-stroke" d="
  M 228.21 106.00
  L 227.71 107.25"
/>
<path stroke="#805682" vector-effect="non-scaling-stroke" d="
  M 227.71 107.25
  L 226.54 106.00"
/>
<path stroke="#f0c1ed" vector-effect="non-scaling-stroke" d="
  M 238.54 124.50
  L 238.46 125.50"
/>
<path stroke="#c79cc1" stroke-opacity="0.800" vector-effect="non-scaling-stroke" d="
  M 250.54 127.50
  Q 251.80 127.33 252.21 126.00"
/>
<path stroke="#f5d3f0" vector-effect="non-scaling-stroke" d="
  M 252.21 126.00
  L 251.99 126.94
  Q 251.85 127.56 252.48 127.65
  Q 253.69 127.84 254.50 126.71"
/>
<path stroke="#f0c1ed" vector-effect="non-scaling-stroke" d="
  M 254.50 126.71
  L 257.32 125.96
  Q 257.79 125.83 257.78 125.34
  L 257.75 124.54"
/>
<path stroke="#f5d3f0" vector-effect="non-scaling-stroke" d="
  M 257.75 124.54
  L 259.40 124.76
  Q 259.91 124.83 260.33 124.53
  C 263.50 122.33 266.37 121.62 268.12 117.91"
/>
<path stroke="#a980aa" stroke-opacity="0.984" vector-effect="non-scaling-stroke" d="
  M 268.12 117.91
  Q 269.11 118.81 269.71 117.75"
/>
<path stroke="#c79cc1" stroke-opacity="0.800" vector-effect="non-scaling-stroke" d="
  M 269.71 117.75
  Q 271.89 116.44 273.25 114.29"
/>
<path stroke="#c190bc" stroke-opacity="0.686" vector-effect="non-scaling-stroke" d="
  M 239.04 127.25
  L 238.50 125.96"
/>
<path stroke="#cebed0" stroke-opacity="0.800" vector-effect="non-scaling-stroke" d="
  M 237.21 122.64
  L 238.46 125.50"
/>
<path stroke="#c79cc1" stroke-opacity="0.800" vector-effect="non-scaling-stroke" d="
  M 238.46 125.50
  L 238.50 125.96"
/>
<path stroke="#d4d4d4" stroke-opacity="0.800" vector-effect="non-scaling-stroke" d="
  M 233.75 126.29
  L 231.54 126.25"
/>
<path stroke="#fbeefc" vector-effect="non-scaling-stroke" d="
  M 231.25 115.21
  L 230.54 115.50"
/>
<path stroke="#d1d1d2" stroke-opacity="0.686" vector-effect="non-scaling-stroke" d="
  M 230.54 115.50
  L 228.86 114.67
  Q 228.30 114.40 228.49 114.99
  Q 228.87 116.21 230.25 116.21"
/>
<path stroke="#fbeefc" vector-effect="non-scaling-stroke" d="
  M 230.25 116.21
  Q 232.19 116.35 234.00 115.54"
/>
<path stroke="#b4adba" stroke-opacity="0.984" vector-effect="non-scaling-stroke" d="
  M 229.75 120.21
  Q 228.30 120.70 227.46 122.00"
/>
<path stroke="#8ce0ee" vector-effect="non-scaling-stroke" d="
  M 227.46 122.00
  Q 225.85 123.10 227.04 124.75"
/>
<path stroke="#8b8391" vector-effect="non-scaling-stroke" d="
  M 262.29 110.50
  Q 261.12 112.82 258.61 112.53
  Q 258.08 112.47 257.73 112.86
  L 256.21 114.50"
/>
<path stroke="#3d2f4a" stroke-opacity="0.984" vector-effect="non-scaling-stroke" d="
  M 256.21 114.50
  Q 253.59 116.56 250.75 114.79"
/>
<path stroke="#1a0e31" vector-effect="non-scaling-stroke" d="
  M 251.50 110.71
  Q 253.21 111.02 254.00 109.54"
/>
<path stroke="#c79cc1" stroke-opacity="0.800" vector-effect="non-scaling-stroke" d="
  M 209.00 108.21
  L 210.50 108.54"
/>
<path stroke="#f0c1ed" vector-effect="non-scaling-stroke" d="
  M 210.50 108.54
  L 210.46 109.25"
/>
<path stroke="#f5d3f0" vector-effect="non-scaling-stroke" d="
  M 210.46 109.25
  Q 209.68 108.58 208.62 109.00
  Q 208.25 109.15 208.46 109.49
  Q 214.61 119.68 225.24 125.00
  Q 226.39 125.58 227.04 124.75"
/>
<path stroke="#82b3df" stroke-opacity="0.996" vector-effect="non-scaling-stroke" d="
  M 227.04 124.75
  Q 227.13 124.75 227.21 124.75"
/>
<path stroke="#c190bc" stroke-opacity="0.686" vector-effect="non-scaling-stroke" d="
  M 227.21 124.75
  Q 227.25 124.90 227.26 125.06
  Q 227.27 125.48 227.65 125.67
  Q 229.36 126.53 231.25 126.54"
/>
<path stroke="#f5d3f0" vector-effect="non-scaling-stroke" d="
  M 231.25 126.54
  Q 231.76 128.62 233.90 127.67
  Q 234.33 127.47 234.21 127.01
  Q 234.11 126.63 233.75 126.29"
/>
<path stroke="#c79cc1" stroke-opacity="0.800" vector-effect="non-scaling-stroke" d="
  M 233.75 126.29
  Q 235.21 128.22 237.50 128.71"
/>
<path stroke="#c190bc" stroke-opacity="0.686" vector-effect="non-scaling-stroke" d="
  M 237.50 128.71
  L 238.88 128.93
  Q 239.22 128.99 239.25 128.64
  Q 239.27 128.44 239.29 128.25"
/>
<path stroke="#c79cc1" stroke-opacity="0.800" vector-effect="non-scaling-stroke" d="
  M 251.96 123.75
  Q 251.10 122.82 251.24 121.54
  Q 251.30 121.00 250.75 121.00
  L 249.06 121.00
  Q 248.56 121.00 248.25 121.39
  Q 247.72 122.04 247.75 123.00"
/>
<path stroke="#86718e" vector-effect="non-scaling-stroke" d="
  M 227.71 107.25
  L 233.71 111.50"
/>
<path stroke="#8b8391" vector-effect="non-scaling-stroke" d="
  M 234.75 114.71
  L 234.00 115.54"
/>
<path stroke="#86718e" vector-effect="non-scaling-stroke" d="
  M 234.00 115.54
  L 231.25 115.21"
/>
<path stroke="#8b8391" vector-effect="non-scaling-stroke" d="
  M 231.25 115.21
  L 227.42 113.08"
/>
<path stroke="#3f8da8" stroke-opacity="0.984" vector-effect="non-scaling-stroke" d="
  M 227.54 122.75
  L 227.46 122.00"
/>
<path stroke="#a980aa" stroke-opacity="0.984" vector-effect="non-scaling-stroke" d="
  M 256.46 116.00
  L 256.04 116.25"
/>
<path stroke="#b4adba" stroke-opacity="0.984" vector-effect="non-scaling-stroke" d="
  M 270.29 112.50
  Q 269.78 115.37 268.12 117.91"
/>
<path stroke="#fbeefc" vector-effect="non-scaling-stroke" d="
  M 257.75 124.54
  Q 255.21 124.01 254.50 126.71"
/>
<path stroke="#d4d4d4" stroke-opacity="0.800" vector-effect="non-scaling-stroke" d="
  M 252.21 126.00
  L 251.96 123.75"
/>
<path stroke="#f5d3f0" vector-effect="non-scaling-stroke" d="
  M 251.96 123.75
  Q 252.09 122.96 251.61 122.21
  Q 251.35 121.79 251.44 121.29
  C 251.71 119.84 260.14 117.00 260.00 115.29
  Q 259.96 114.66 259.52 115.11
  Q 258.24 116.41 256.46 116.00"
/>
<path stroke="#b4adba" stroke-opacity="0.984" vector-effect="non-scaling-stroke" d="
  M 256.46 116.00
  L 256.21 114.50"
/>
<path stroke="#d1d1d2" stroke-opacity="0.686" vector-effect="non-scaling-stroke" d="
  M 231.54 126.25
  L 231.25 126.54"
/>
<path stroke="#d4d4d4" stroke-opacity="0.800" vector-effect="non-scaling-stroke" d="
  M 218.25 107.46
  L 213.50 107.54"
/>
<path stroke="#cebed0" stroke-opacity="0.800" vector-effect="non-scaling-stroke" d="
  M 213.50 107.54
  Q 212.27 107.56 212.00 106.54"
/>
<path stroke="#fbeefc" vector-effect="non-scaling-stroke" d="
  M 213.50 107.54
  Q 213.30 109.39 214.84 110.42
  Q 215.25 110.70 215.25 111.18
  L 215.25 111.76
  Q 215.25 112.20 214.88 111.97
  L 210.46 109.25"
/>
<path stroke="#17637f" vector-effect="non-scaling-stroke" d="
  M 226.25 106.71
  Q 226.48 106.66 226.64 106.79
  Q 226.94 107.02 226.65 107.25
  C 224.18 109.19 226.91 112.31 228.33 110.79
  Q 228.75 110.35 229.28 110.65
  L 231.93 112.15
  A 0.53 0.53 0.0 0 1 231.49 113.12
  L 228.43 112.05
  Q 228.10 111.94 227.87 112.19
  Q 227.61 112.49 227.42 113.08"
/>
<path stroke="#8ce0ee" vector-effect="non-scaling-stroke" d="
  M 227.42 113.08
  Q 224.29 107.72 218.25 107.46"
/>
<path stroke="#44acbe" stroke-opacity="0.800" vector-effect="non-scaling-stroke" d="
  M 218.25 107.46
  Q 218.57 107.27 218.97 107.23
  Q 219.47 107.19 219.37 106.70
  L 219.04 104.96"
/>
<path stroke="#cab7cd" stroke-opacity="0.686" vector-effect="non-scaling-stroke" d="
  M 230.54 115.50
  L 230.25 116.21"
/>
<path stroke="#29a3b8" stroke-opacity="0.686" vector-effect="non-scaling-stroke" d="
  M 227.54 122.75
  L 227.21 124.75"
/>
<path stroke="#b4adba" stroke-opacity="0.984" vector-effect="non-scaling-stroke" d="
  M 264.79 108.25
  L 262.29 110.50"
/>
<path stroke="#3d2f4a" stroke-opacity="0.984" vector-effect="non-scaling-stroke" d="
  M 262.29 110.50
  L 261.95 108.40
  Q 261.86 107.89 261.39 107.70
  C 259.00 106.75 256.29 108.31 254.00 109.54"
/>
<path stroke="#413758" stroke-opacity="0.984" vector-effect="non-scaling-stroke" d="
  M 254.00 109.54
  L 253.71 109.25"
/>
<path stroke="#cebed0" stroke-opacity="0.800" vector-effect="non-scaling-stroke" d="
  M 211.00 106.54
  L 210.50 108.54"
/>
<path stroke="#cebed0" stroke-opacity="0.800" vector-effect="non-scaling-stroke" d="
  M 274.17 106.76
  Q 272.52 107.56 271.52 108.90
  Q 271.17 109.35 270.62 109.48
  Q 269.77 109.68 269.43 108.99
  Q 269.20 108.52 268.69 108.52
  L 267.75 108.50"
/>
<path stroke="#44acbe" stroke-opacity="0.800" vector-effect="non-scaling-stroke" d="
  M 266.79 105.50
  Q 265.63 107.28 267.75 108.50"
/>
<path stroke="#8ce0ee" vector-effect="non-scaling-stroke" d="
  M 267.75 108.50
  L 264.79 108.25"
/>
<path stroke="#3f8da8" stroke-opacity="0.984" vector-effect="non-scaling-stroke" d="
  M 264.79 108.25
  C 263.99 106.53 262.32 108.27 261.96 106.75"
/>
<path stroke="#af9cb7" stroke-opacity="0.984" vector-effect="non-scaling-stroke" d="
  M 270.46 112.50
  Q 270.38 112.50 270.29 112.50"
/>
<path stroke="#fbeefc" vector-effect="non-scaling-stroke" d="
  M 270.29 112.50
  Q 269.90 109.92 267.75 108.50"
/>
<path stroke="#ae0f79" stroke-opacity="0.996" vector-effect="non-scaling-stroke" d="
  M 136.29 151.00
  Q 136.20 151.20 135.91 151.30
  Q 135.73 151.36 135.73 151.55
  L 135.79 174.24
  Q 135.79 174.75 135.29 174.83
  L 131.21 175.47"
/>
<path stroke="#4e8bf5" vector-effect="non-scaling-stroke" d="
  M 129.46 174.00
  L 129.74 173.64
  Q 130.01 173.29 130.00 172.85
  L 129.67 156.90
  Q 129.66 156.48 129.29 156.30
  L 128.75 156.04"
/>
<path stroke="#ae0f79" stroke-opacity="0.996" vector-effect="non-scaling-stroke" d="
  M 128.75 156.04
  Q 125.28 155.33 121.82 156.13
  Q 121.39 156.23 121.39 156.68
  L 121.55 174.17
  Q 121.55 174.77 120.96 174.87
  L 117.00 175.54"
/>
<path stroke="#3c6be4" vector-effect="non-scaling-stroke" d="
  M 115.18 174.55
  Q 116.37 165.42 115.25 156.34
  A 0.40 0.40 0.0 0 0 114.64 156.04
  Q 114.41 156.18 114.46 156.50"
/>
<path stroke="#ae0f79" stroke-opacity="0.996" vector-effect="non-scaling-stroke" d="
  M 114.29 156.50
  Q 111.03 155.48 107.60 155.82
  A 0.67 0.67 0.0 0 0 107.00 156.49
  L 107.00 174.25
  Q 107.00 174.84 106.41 174.93
  L 102.50 175.54"
/>
<path stroke="#4e8bf5" vector-effect="non-scaling-stroke" d="
  M 100.37 174.03
  C 101.85 172.23 101.00 154.61 101.00 151.07
  Q 101.01 150.64 101.22 150.27
  L 101.50 149.79"
/>
<path stroke="#9d8282" stroke-opacity="0.996" vector-effect="non-scaling-stroke" d="
  M 128.75 156.04
  L 128.50 156.71"
/>
<path stroke="#3c6be4" vector-effect="non-scaling-stroke" d="
  M 188.00 149.54
  Q 187.40 155.91 188.01 162.28
  Q 188.07 162.89 187.47 162.99
  Q 187.34 163.01 187.19 163.01
  Q 186.97 163.01 186.82 162.83
  Q 186.42 162.33 186.46 161.75"
/>
<path stroke="#ae0f79" stroke-opacity="0.996" vector-effect="non-scaling-stroke" d="
  M 193.75 150.69
  L 193.58 174.13
  A 0.90 0.90 0.0 0 1 192.75 175.02
  L 189.00 175.29"
/>
<path stroke="#3c6be4" vector-effect="non-scaling-stroke" d="
  M 187.75 174.71
  C 187.79 173.13 188.41 170.16 186.00 170.04"
/>
<path stroke="#ae0f79" stroke-opacity="0.996" vector-effect="non-scaling-stroke" d="
  M 175.96 163.25
  L 175.25 162.63
  A 0.46 0.45 -69.7 0 0 174.50 162.98
  L 174.50 174.30
  Q 174.50 175.03 173.77 174.98
  Q 171.67 174.84 170.00 175.54"
/>
<path stroke="#3c6be4" vector-effect="non-scaling-stroke" d="
  M 168.21 174.53
  Q 168.91 162.13 168.24 149.76"
/>
<path stroke="#ae0f79" stroke-opacity="0.996" vector-effect="non-scaling-stroke" d="
  M 174.79 150.75
  Q 173.96 152.75 174.97 154.58
  Q 175.18 154.95 175.47 154.65
  Q 175.58 154.54 175.71 154.50"
/>
<path stroke="#4e8bf5" vector-effect="non-scaling-stroke" d="
  M 220.00 149.54
  Q 220.26 161.87 219.30 174.29"
/>
<path stroke="#ae0f79" stroke-opacity="0.996" vector-effect="non-scaling-stroke" d="
  M 245.45 150.91
  Q 244.82 153.16 245.09 155.40
  Q 245.16 156.04 244.52 156.03
  L 226.68 155.71
  A 0.74 0.74 0.0 0 0 225.93 156.36
  Q 225.12 162.73 226.62 168.81"
/>
<path stroke="#ae0f79" stroke-opacity="0.996" vector-effect="non-scaling-stroke" d="
  M 245.29 170.00
  Q 244.76 171.91 245.06 173.50
  A 1.38 1.37 -3.8 0 1 243.64 175.12
  C 240.34 174.96 223.03 174.02 221.25 175.54"
/>
<path stroke="#6237af" stroke-opacity="0.984" vector-effect="non-scaling-stroke" d="
  M 345.50 149.79
  L 344.46 152.00"
/>
<path stroke="#ae0f79" stroke-opacity="0.996" vector-effect="non-scaling-stroke" d="
  M 370.43 150.91
  Q 369.77 153.19 370.03 155.46
  Q 370.10 156.05 369.51 156.04
  L 361.20 155.81
  Q 360.43 155.79 360.44 156.55
  L 360.53 174.34
  Q 360.53 174.84 360.04 174.91
  L 355.96 175.50"
/>
<path stroke="#4e8bf5" vector-effect="non-scaling-stroke" d="
  M 354.46 174.56
  L 354.48 156.69
  Q 354.48 156.17 353.99 156.01
  Q 353.64 155.90 353.25 156.04"
/>
<path stroke="#ae0f79" stroke-opacity="0.996" vector-effect="non-scaling-stroke" d="
  M 353.25 156.04
  Q 349.50 155.40 345.75 156.04"
/>
<path stroke="#9d8282" stroke-opacity="0.996" vector-effect="non-scaling-stroke" d="
  M 353.25 156.04
  L 353.21 157.00"
/>
<path stroke="#3c6be4" vector-effect="non-scaling-stroke" d="
  M 140.00 149.79
  C 139.14 157.78 139.57 166.75 139.50 174.54"
/>
<path stroke="#ae0f79" stroke-opacity="0.996" vector-effect="non-scaling-stroke" d="
  M 165.04 150.75
  L 164.82 150.99
  Q 164.72 151.11 164.72 151.25
  L 164.76 174.21
  Q 164.77 175.00 163.98 175.00
  L 141.64 175.00
  Q 141.42 175.00 141.24 175.12
  L 141.00 175.29"
/>
<path stroke="#3c6be4" vector-effect="non-scaling-stroke" d="
  M 249.12 149.68
  L 248.46 154.25"
/>
<path stroke="#ae0f79" stroke-opacity="0.996" vector-effect="non-scaling-stroke" d="
  M 274.29 151.00
  Q 274.21 151.20 273.91 151.29
  Q 273.72 151.34 273.72 151.55
  L 273.82 174.10
  A 0.82 0.81 -88.4 0 1 272.96 174.92
  Q 261.73 174.26 249.97 175.51"
/>
<path stroke="#4e8bf5" vector-effect="non-scaling-stroke" d="
  M 248.29 171.50
  Q 249.23 164.02 248.46 156.50"
/>
<path stroke="#3c6be4" vector-effect="non-scaling-stroke" d="
  M 277.07 149.76
  Q 278.04 162.05 277.21 174.25"
/>
<path stroke="#ae0f79" stroke-opacity="0.996" vector-effect="non-scaling-stroke" d="
  M 312.54 151.00
  C 311.19 152.53 312.20 170.17 312.33 173.57
  A 1.50 1.49 6.4 0 1 310.44 175.07
  Q 308.86 174.65 307.50 175.29"
/>
<path stroke="#4e8bf5" vector-effect="non-scaling-stroke" d="
  M 306.46 175.00
  C 306.36 172.83 306.44 156.76 305.91 156.28
  Q 305.68 156.07 305.42 156.24
  L 305.00 156.50"
/>
<path stroke="#ae0f79" stroke-opacity="0.996" vector-effect="non-scaling-stroke" d="
  M 305.00 156.50
  Q 301.89 155.55 298.41 155.96
  Q 297.75 156.04 297.75 156.71
  L 297.75 174.23
  Q 297.75 174.78 297.21 174.87
  L 293.50 175.54"
/>
<path stroke="#4e8bf5" vector-effect="non-scaling-stroke" d="
  M 291.31 174.28
  Q 292.28 165.42 291.54 156.63
  Q 291.49 156.13 291.01 156.00
  Q 290.65 155.91 290.29 156.25"
/>
<path stroke="#ae0f79" stroke-opacity="0.996" vector-effect="non-scaling-stroke" d="
  M 290.29 156.25
  Q 287.06 155.10 283.70 155.99
  Q 283.21 156.12 283.22 156.62
  L 283.33 174.15
  A 0.90 0.89 -86.8 0 1 282.34 175.04
  L 279.03 174.69
  Q 278.65 174.65 278.43 174.96
  L 278.25 175.21"
/>
<path stroke="#9d8282" stroke-opacity="0.996" vector-effect="non-scaling-stroke" d="
  M 290.29 156.25
  L 290.25 156.71"
/>
<path stroke="#3c6be4" vector-effect="non-scaling-stroke" d="
  M 316.00 149.79
  L 315.46 171.50"
/>
<path stroke="#ae0f79" stroke-opacity="0.996" vector-effect="non-scaling-stroke" d="
  M 341.54 151.00
  L 341.23 151.42
  Q 341.00 151.73 341.00 152.12
  L 341.00 169.25
  A 1.00 1.00 0.0 0 1 340.00 170.25
  L 322.81 170.25
  A 1.09 1.09 0.0 0 0 321.72 171.44
  L 321.97 174.22
  Q 322.04 175.02 321.24 174.96
  Q 319.08 174.79 317.25 175.54"
/>
<path stroke="#4e8bf5" vector-effect="non-scaling-stroke" d="
  M 374.00 149.79
  Q 373.42 160.30 373.94 170.81
  Q 373.99 171.96 373.50 174.54"
/>
<path stroke="#ae0f79" stroke-opacity="0.996" vector-effect="non-scaling-stroke" d="
  M 399.04 150.75
  L 399.07 155.37
  Q 399.08 155.88 398.56 155.88
  L 380.84 155.72
  Q 380.34 155.72 380.07 156.13
  Q 378.81 158.01 380.50 159.04"
/>
<path stroke="#6237af" stroke-opacity="0.984" vector-effect="non-scaling-stroke" d="
  M 380.50 159.04
  Q 380.19 159.17 380.05 159.40
  Q 379.81 159.77 380.25 159.77
  L 396.80 159.79
  Q 397.14 159.79 397.34 159.51
  L 397.50 159.29"
/>
<path stroke="#ae0f79" stroke-opacity="0.996" vector-effect="non-scaling-stroke" d="
  M 399.29 160.25
  Q 398.49 162.06 399.10 163.62
  A 1.20 1.20 0.0 0 1 397.98 165.26
  L 380.51 165.22
  Q 379.81 165.22 379.80 165.92
  L 379.75 168.27
  Q 379.73 168.78 380.25 168.72
  Q 380.51 168.69 380.71 168.50"
/>
<path stroke="#ae0f79" stroke-opacity="0.996" vector-effect="non-scaling-stroke" d="
  M 399.29 170.00
  C 398.31 170.54 399.25 173.14 398.90 174.32
  Q 398.74 174.84 398.19 174.85
  L 375.00 175.29"
/>
<path stroke="#b32f3b" stroke-opacity="0.980" vector-effect="non-scaling-stroke" d="
  M 381.00 158.71
  L 380.50 159.04"
/>
<path stroke="#812f86" vector-effect="non-scaling-stroke" d="
  M 269.99 79.49
  L 243.21 55.95
  A 0.84 0.83 -44.7 0 0 242.10 55.95
  L 214.50 79.74
  Q 213.84 80.31 214.68 80.55
  Q 227.96 84.35 241.20 88.29
  C 242.37 88.64 243.33 88.49 244.43 88.16
  Q 257.43 84.22 269.70 80.77
  Q 271.02 80.39 269.99 79.49"
/>
<path stroke="#3e1795" vector-effect="non-scaling-stroke" d="
  M 242.41 60.89
  C 240.68 61.42 236.41 66.01 235.23 67.27
  Q 233.33 69.28 235.51 67.57
  Q 238.79 65.01 241.90 62.24
  A 1.18 1.18 0.0 0 1 243.51 62.28
  Q 246.58 65.29 250.07 67.77
  Q 253.41 70.15 250.36 67.41
  L 243.32 61.09
  Q 242.92 60.73 242.41 60.89"
/>
<path stroke="#413758" stroke-opacity="0.984" vector-effect="non-scaling-stroke" d="
  M 247.63 82.66
  C 247.76 79.08 244.75 75.35 240.96 76.86
  C 239.78 77.34 239.10 78.85 237.95 79.73
  Q 237.45 80.11 237.46 80.74
  L 237.52 84.14
  Q 237.53 84.67 237.94 84.99
  C 240.99 87.35 247.44 87.76 247.63 82.66"
/>
<path stroke="#51adb9" stroke-opacity="0.984" vector-effect="non-scaling-stroke" d="
  M 244.95 84.96
  C 249.54 81.33 244.74 76.71 239.84 78.85
  Q 239.39 79.05 239.20 79.50
  C 237.51 83.35 241.44 87.75 244.95 84.96"
/>
<path stroke="#1b6b8d" vector-effect="non-scaling-stroke" d="
  M 227.58 88.79
  L 223.21 86.71
  Q 222.71 86.47 222.16 86.58
  L 219.48 87.12
  Q 218.93 87.23 219.35 87.60
  Q 220.99 89.04 222.86 88.41
  Q 223.36 88.25 223.86 88.40
  L 227.46 89.48
  Q 227.66 89.54 227.72 89.35
  Q 227.78 89.19 227.75 89.02
  A 0.30 0.29 9.4 0 0 227.58 88.79"
/>
<path stroke="#1b6b8d" vector-effect="non-scaling-stroke" d="
  M 263.88 87.08
  Q 260.52 86.38 258.06 89.00
  Q 257.50 89.59 258.24 89.25
  Q 261.30 87.80 264.42 88.75
  A 0.82 0.82 0.0 0 0 265.46 87.76
  C 265.29 87.09 264.28 87.17 263.88 87.08"
/>
<path stroke="#3e1795" vector-effect="non-scaling-stroke" d="
  M 242.03 94.73
  L 231.91 89.06
  Q 231.85 89.03 231.80 89.08
  L 231.53 89.35
  Q 231.31 89.56 231.57 89.72
  L 241.75 95.90
  A 1.44 1.43 45.2 0 0 243.23 95.91
  L 253.63 89.72
  Q 254.02 89.48 253.59 89.31
  C 253.09 89.11 244.16 94.09 242.97 94.74
  A 0.99 0.98 45.3 0 1 242.03 94.73"
/>
<path stroke="#1b6b8d" vector-effect="non-scaling-stroke" d="
  M 236.95 94.80
  Q 235.18 92.74 232.82 93.60
  Q 232.04 93.89 232.64 94.46
  Q 234.74 96.49 237.53 95.26
  Q 237.75 95.16 237.52 95.09
  Q 237.38 95.04 237.24 95.00
  Q 237.07 94.94 236.95 94.80"
/>
<path stroke="#1b6b8d" vector-effect="non-scaling-stroke" d="
  M 252.7294 93.8436
  A 2.03 1.07 -16.2 0 0 250.4815 93.3825
  A 2.03 1.07 -16.2 0 0 248.8306 94.9764
  A 2.03 1.07 -16.2 0 0 251.0785 95.4375
  A 2.03 1.07 -16.2 0 0 252.7294 93.8436"
/>
<path stroke="#2d8a9e" vector-effect="non-scaling-stroke" d="
  M 242.80 99.35
  A 0.69 0.68 -81.9 0 0 243.42 98.88
  L 243.57 98.38
  Q 243.77 97.75 243.11 97.75
  L 242.82 97.75
  Q 242.35 97.75 242.16 98.17
  Q 241.57 99.42 242.80 99.35"
/>
<path stroke="#17637f" vector-effect="non-scaling-stroke" d="
  M 257.6135 110.7566
  A 2.38 0.59 -25.2 0 0 255.2088 111.2362
  A 2.38 0.59 -25.2 0 0 253.3065 112.7834
  A 2.38 0.59 -25.2 0 0 255.7112 112.3038
  A 2.38 0.59 -25.2 0 0 257.6135 110.7566"
/>
<path stroke="#4e8bf5" vector-effect="non-scaling-stroke" d="
  M 157.56 168.64
  Q 157.37 168.88 158.26 169.06
  A 0.42 0.41 -83.6 0 0 158.75 168.66
  L 158.75 157.07
  Q 158.75 156.62 158.45 156.28
  Q 158.02 155.80 157.46 156.25"
/>
<path stroke="#ae0f79" stroke-opacity="0.996" vector-effect="non-scaling-stroke" d="
  M 157.29 156.25
  L 146.29 155.98
  Q 145.82 155.97 145.74 156.43
  Q 144.68 162.70 146.44 168.83"
/>
<path stroke="#4e8bf5" vector-effect="non-scaling-stroke" d="
  M 266.55 168.60
  C 269.01 170.13 267.74 158.10 267.69 156.89
  A 0.76 0.75 24.0 0 0 267.51 156.43
  Q 266.85 155.63 266.46 156.00"
/>
<path stroke="#ae0f79" stroke-opacity="0.996" vector-effect="non-scaling-stroke" d="
  M 266.46 156.00
  L 255.52 155.82
  Q 254.97 155.81 254.91 156.35
  Q 254.22 162.54 255.30 168.88"
/>
<path stroke="#9d8282" stroke-opacity="0.996" vector-effect="non-scaling-stroke" d="
  M 266.46 156.00
  L 266.29 156.50"
/>
<path stroke="#4e8bf5" vector-effect="non-scaling-stroke" d="
  M 334.04 164.19
  Q 336.18 161.14 335.04 157.25"
/>
<path stroke="#3c6be4" vector-effect="non-scaling-stroke" d="
  M 335.04 157.25
  Q 334.93 156.88 335.02 156.45
  Q 335.35 154.86 334.24 155.98
  Q 334.02 156.20 333.79 156.25"
/>
<path stroke="#ae0f79" stroke-opacity="0.996" vector-effect="non-scaling-stroke" d="
  M 333.79 156.25
  L 322.87 155.77
  Q 322.36 155.75 322.24 156.24
  Q 321.24 160.10 322.78 163.84"
/>
<path stroke="#8b6371" stroke-opacity="0.996" vector-effect="non-scaling-stroke" d="
  M 333.79 156.25
  L 333.75 156.71"
/>
<path stroke="#2bdfed" vector-effect="non-scaling-stroke" d="
  M 335.04 157.25
  L 334.54 159.50"
/>
</g>
<path fill="#665972" fill-opacity="0.969" d="
  M 260.04 63.75
  L 260.25 65.29
  L 255.80 62.12
  L 244.74 51.91
  Q 244.38 51.57 243.88 51.52
  C 238.73 51.01 231.66 59.52 227.10 64.25
  Q 218.36 71.04 211.00 79.29
  C 209.45 78.85 208.21 80.51 206.91 81.85
  Q 206.55 82.22 206.58 82.73
  Q 206.92 87.89 210.50 91.46
  L 209.75 91.50
  Q 206.31 87.74 205.98 82.57
  Q 205.94 82.06 206.30 81.69
  Q 220.41 67.29 235.82 54.34
  Q 238.46 52.12 241.47 48.86
  Q 242.48 47.77 243.58 48.77
  L 260.04 63.75
  Z"
/>
<path fill="#ffffff" d="
  M 255.80 62.12
  Q 254.83 62.76 255.90 64.21
  Q 249.87 59.78 244.52 54.57
  C 242.83 52.93 242.01 53.35 240.44 54.70
  Q 233.59 60.55 227.06 66.74
  Q 226.81 66.98 226.49 66.86
  L 226.21 66.75
  L 227.10 64.25
  C 231.66 59.52 238.73 51.01 243.88 51.52
  Q 244.38 51.57 244.74 51.91
  L 255.80 62.12
  Z"
/>
<path fill="#e547ce" d="
  M 255.90 64.21
  Q 263.66 72.18 272.30 79.37
  Q 272.66 79.68 273.13 79.74
  Q 273.45 79.79 273.71 80.00
  C 273.82 81.72 266.09 83.27 264.50 83.79
  C 259.34 85.44 245.07 90.80 240.30 89.44
  Q 230.40 86.62 220.50 83.79
  C 219.05 83.27 211.36 81.38 211.25 80.29
  C 213.59 80.57 225.05 68.13 226.21 66.75
  L 226.49 66.86
  Q 226.81 66.98 227.06 66.74
  Q 233.59 60.55 240.44 54.70
  C 242.01 53.35 242.83 52.93 244.52 54.57
  Q 249.87 59.78 255.90 64.21
  Z
  M 269.99 79.49
  L 243.21 55.95
  A 0.84 0.83 -44.7 0 0 242.10 55.95
  L 214.50 79.74
  Q 213.84 80.31 214.68 80.55
  Q 227.96 84.35 241.20 88.29
  C 242.37 88.64 243.33 88.49 244.43 88.16
  Q 257.43 84.22 269.70 80.77
  Q 271.02 80.39 269.99 79.49
  Z"
/>
<path fill="#1d163e" d="
  M 243.21 55.95
  L 269.99 79.49
  Q 271.02 80.39 269.70 80.77
  Q 257.43 84.22 244.43 88.16
  C 243.33 88.49 242.37 88.64 241.20 88.29
  Q 227.96 84.35 214.68 80.55
  Q 213.84 80.31 214.50 79.74
  L 242.10 55.95
  A 0.84 0.83 -44.7 0 1 243.21 55.95
  Z
  M 242.41 60.89
  C 240.68 61.42 236.41 66.01 235.23 67.27
  Q 233.33 69.28 235.51 67.57
  Q 238.79 65.01 241.90 62.24
  A 1.18 1.18 0.0 0 1 243.51 62.28
  Q 246.58 65.29 250.07 67.77
  Q 253.41 70.15 250.36 67.41
  L 243.32 61.09
  Q 242.92 60.73 242.41 60.89
  Z
  M 247.63 82.66
  C 247.76 79.08 244.75 75.35 240.96 76.86
  C 239.78 77.34 239.10 78.85 237.95 79.73
  Q 237.45 80.11 237.46 80.74
  L 237.52 84.14
  Q 237.53 84.67 237.94 84.99
  C 240.99 87.35 247.44 87.76 247.63 82.66
  Z"
/>
<path fill="#f6dcf9" d="
  M 218.80 59.31
  Q 219.93 57.61 221.67 56.54
  Q 223.23 55.58 222.23 57.11
  Q 221.13 58.79 219.46 59.96
  A 0.47 0.47 0.0 0 1 218.80 59.31
  Z"
/>
<ellipse fill="#8c8b8c" fill-opacity="0.600" cx="0.00" cy="0.00" transform="translate(264.64,58.13) rotate(43.0)" rx="2.46" ry="0.50"/>
<path fill="#5e17eb" d="
  M 235.23 67.27
  C 236.41 66.01 240.68 61.42 242.41 60.89
  Q 242.92 60.73 243.32 61.09
  L 250.36 67.41
  Q 253.41 70.15 250.07 67.77
  Q 246.58 65.29 243.51 62.28
  A 1.18 1.18 0.0 0 0 241.90 62.24
  Q 238.79 65.01 235.51 67.57
  Q 233.33 69.28 235.23 67.27
  Z"
/>
<path fill="#eaa6e1" fill-opacity="0.996" d="
  M 208.71 74.16
  C 209.01 72.08 215.64 64.38 217.21 63.85
  A 0.56 0.56 0.0 0 1 217.81 64.75
  L 209.14 74.36
  Q 208.60 74.96 208.71 74.16
  Z"
/>
<path fill="#1d163e" d="
  M 260.04 63.75
  L 276.77 79.79
  Q 275.28 78.69 273.75 79.54
  L 260.25 65.29
  L 260.04 63.75
  Z"
/>
<path fill="#eaa6e1" fill-opacity="0.996" d="
  M 267.77 63.94
  C 270.69 65.22 275.07 71.45 276.63 74.26
  Q 276.82 74.61 276.58 74.91
  C 276.34 75.20 268.43 65.96 267.23 64.71
  A 0.48 0.48 0.0 0 1 267.77 63.94
  Z"
/>
<path fill="#665972" fill-opacity="0.969" d="
  M 240.96 76.86
  C 244.75 75.35 247.76 79.08 247.63 82.66
  C 247.44 87.76 240.99 87.35 237.94 84.99
  Q 237.53 84.67 237.52 84.14
  L 237.46 80.74
  Q 237.45 80.11 237.95 79.73
  C 239.10 78.85 239.78 77.34 240.96 76.86
  Z
  M 244.95 84.96
  C 249.54 81.33 244.74 76.71 239.84 78.85
  Q 239.39 79.05 239.20 79.50
  C 237.51 83.35 241.44 87.75 244.95 84.96
  Z"
/>
<path fill="#3dfefe" d="
  M 239.84 78.85
  C 244.74 76.71 249.54 81.33 244.95 84.96
  C 241.44 87.75 237.51 83.35 239.20 79.50
  Q 239.39 79.05 239.84 78.85
  Z"
/>
<path fill="#160623" d="
  M 276.77 79.79
  L 278.96 82.20
  Q 279.34 82.62 279.16 83.15
  L 276.89 89.92
  Q 276.68 90.54 276.02 90.59
  Q 273.89 90.75 274.50 92.29
  Q 274.48 92.40 274.45 92.44
  L 253.08 102.00
  Q 260.53 96.06 269.36 92.07
  Q 270.59 90.82 267.57 90.99
  Q 266.95 91.02 267.19 90.44
  Q 268.75 86.56 265.00 85.37
  Q 264.47 85.21 264.48 84.65
  L 264.50 83.79
  C 266.09 83.27 273.82 81.72 273.71 80.00
  L 273.75 79.54
  Q 275.28 78.69 276.77 79.79
  Z"
/>
<path fill="#160623" d="
  M 211.00 79.29
  Q 210.96 79.43 210.83 79.55
  Q 210.60 79.76 210.84 79.96
  L 211.25 80.29
  C 211.36 81.38 219.05 83.27 220.50 83.79
  L 220.25 84.94
  Q 220.15 85.38 219.72 85.49
  C 218.12 85.93 217.16 87.56 218.36 89.03
  Q 218.66 89.38 218.75 89.84
  Q 219.06 91.48 217.52 91.99
  Q 217.22 92.09 217.50 92.24
  L 218.09 92.55
  Q 218.24 92.64 218.12 92.76
  L 217.93 92.94
  Q 217.72 93.15 217.98 93.30
  L 232.00 101.29
  L 232.21 102.50
  Q 222.73 97.84 213.08 93.53
  C 211.99 93.04 211.39 92.22 210.50 91.46
  Q 206.92 87.89 206.58 82.73
  Q 206.55 82.22 206.91 81.85
  C 208.21 80.51 209.45 78.85 211.00 79.29
  Z"
/>
<path fill="#1d163e" d="
  M 220.50 83.79
  Q 230.40 86.62 240.30 89.44
  C 245.07 90.80 259.34 85.44 264.50 83.79
  L 264.48 84.65
  Q 264.47 85.21 265.00 85.37
  Q 268.75 86.56 267.19 90.44
  Q 266.95 91.02 267.57 90.99
  Q 270.59 90.82 269.36 92.07
  Q 269.07 91.61 268.76 91.79
  Q 258.30 97.74 243.15 105.64
  Q 242.68 105.88 242.21 105.64
  L 232.89 100.85
  Q 232.45 100.62 232.17 101.03
  L 232.00 101.29
  L 217.98 93.30
  Q 217.72 93.15 217.93 92.94
  L 218.12 92.76
  Q 218.24 92.64 218.09 92.55
  L 217.50 92.24
  Q 217.22 92.09 217.52 91.99
  Q 219.06 91.48 218.75 89.84
  Q 218.66 89.38 218.36 89.03
  C 217.16 87.56 218.12 85.93 219.72 85.49
  Q 220.15 85.38 220.25 84.94
  L 220.50 83.79
  Z
  M 227.58 88.79
  L 223.21 86.71
  Q 222.71 86.47 222.16 86.58
  L 219.48 87.12
  Q 218.93 87.23 219.35 87.60
  Q 220.99 89.04 222.86 88.41
  Q 223.36 88.25 223.86 88.40
  L 227.46 89.48
  Q 227.66 89.54 227.72 89.35
  Q 227.78 89.19 227.75 89.02
  A 0.30 0.29 9.4 0 0 227.58 88.79
  Z
  M 263.88 87.08
  Q 260.52 86.38 258.06 89.00
  Q 257.50 89.59 258.24 89.25
  Q 261.30 87.80 264.42 88.75
  A 0.82 0.82 0.0 0 0 265.46 87.76
  C 265.29 87.09 264.28 87.17 263.88 87.08
  Z
  M 242.03 94.73
  L 231.91 89.06
  Q 231.85 89.03 231.80 89.08
  L 231.53 89.35
  Q 231.31 89.56 231.57 89.72
  L 241.75 95.90
  A 1.44 1.43 45.2 0 0 243.23 95.91
  L 253.63 89.72
  Q 254.02 89.48 253.59 89.31
  C 253.09 89.11 244.16 94.09 242.97 94.74
  A 0.99 0.98 45.3 0 1 242.03 94.73
  Z
  M 236.95 94.80
  Q 235.18 92.74 232.82 93.60
  Q 232.04 93.89 232.64 94.46
  Q 234.74 96.49 237.53 95.26
  Q 237.75 95.16 237.52 95.09
  Q 237.38 95.04 237.24 95.00
  Q 237.07 94.94 236.95 94.80
  Z
  M 252.7294 93.8436
  A 2.03 1.07 -16.2 0 0 250.4815 93.3825
  A 2.03 1.07 -16.2 0 0 248.8306 94.9764
  A 2.03 1.07 -16.2 0 0 251.0785 95.4375
  A 2.03 1.07 -16.2 0 0 252.7294 93.8436
  Z
  M 242.80 99.35
  A 0.69 0.68 -81.9 0 0 243.42 98.88
  L 243.57 98.38
  Q 243.77 97.75 243.11 97.75
  L 242.82 97.75
  Q 242.35 97.75 242.16 98.17
  Q 241.57 99.42 242.80 99.35
  Z"
/>
<path fill="#19c0dc" fill-opacity="0.996" d="
  M 227.58 88.79
  A 0.30 0.29 9.4 0 1 227.75 89.02
  Q 227.78 89.19 227.72 89.35
  Q 227.66 89.54 227.46 89.48
  L 223.86 88.40
  Q 223.36 88.25 222.86 88.41
  Q 220.99 89.04 219.35 87.60
  Q 218.93 87.23 219.48 87.12
  L 222.16 86.58
  Q 222.71 86.47 223.21 86.71
  L 227.58 88.79
  Z"
/>
<path fill="#19c0dc" fill-opacity="0.996" d="
  M 263.88 87.08
  C 264.28 87.17 265.29 87.09 265.46 87.76
  A 0.82 0.82 0.0 0 1 264.42 88.75
  Q 261.30 87.80 258.24 89.25
  Q 257.50 89.59 258.06 89.00
  Q 260.52 86.38 263.88 87.08
  Z"
/>
<path fill="#5e17eb" d="
  M 242.03 94.73
  A 0.99 0.98 45.3 0 0 242.97 94.74
  C 244.16 94.09 253.09 89.11 253.59 89.31
  Q 254.02 89.48 253.63 89.72
  L 243.23 95.91
  A 1.44 1.43 45.2 0 1 241.75 95.90
  L 231.57 89.72
  Q 231.31 89.56 231.53 89.35
  L 231.80 89.08
  Q 231.85 89.03 231.91 89.06
  L 242.03 94.73
  Z"
/>
<path fill="#eaa6e1" fill-opacity="0.996" d="
  M 200.50 90.79
  Q 199.40 91.93 197.84 92.09
  Q 197.33 92.14 197.29 92.65
  Q 197.25 93.24 196.96 93.75
  L 189.14 91.10
  A 0.27 0.27 0.0 0 1 189.23 90.58
  L 200.50 90.79
  Z"
/>
<path fill="#e83da0" d="
  M 282.63 90.90
  Q 283.91 92.43 285.99 91.96
  Q 286.62 91.81 286.72 92.45
  L 287.00 94.21
  L 272.04 99.50
  Q 271.52 98.55 270.67 98.77
  Q 270.23 98.88 269.98 98.50
  Q 269.27 97.37 269.75 96.04
  Q 272.80 95.16 274.45 92.44
  Q 274.48 92.40 274.50 92.29
  Q 278.40 89.84 282.63 90.90
  Z"
/>
<path fill="#eaa6e1" fill-opacity="0.996" d="
  M 287.00 94.21
  L 286.72 92.45
  Q 286.62 91.81 285.99 91.96
  Q 283.91 92.43 282.63 90.90
  L 295.49 90.64
  A 0.36 0.36 0.0 0 1 295.61 91.34
  L 287.00 94.21
  Z"
/>
<path fill="#e83da0" d="
  M 200.50 90.79
  Q 205.20 90.36 209.75 91.50
  C 209.06 93.34 215.78 96.18 218.75 97.71
  Q 218.18 98.43 218.00 99.35
  Q 217.91 99.82 217.45 99.72
  L 214.02 98.92
  Q 212.53 98.58 214.02 99.23
  Q 214.54 99.46 214.71 100.00
  L 196.96 93.75
  Q 197.25 93.24 197.29 92.65
  Q 197.33 92.14 197.84 92.09
  Q 199.40 91.93 200.50 90.79
  Z"
/>
<path fill="#f6dcf9" d="
  M 209.75 91.50
  L 210.50 91.46
  C 211.39 92.22 211.99 93.04 213.08 93.53
  Q 222.73 97.84 232.21 102.50
  L 239.50 106.54
  Q 241.28 111.08 241.21 116.00
  L 240.33 114.58
  Q 240.07 114.16 240.00 113.68
  C 238.97 106.31 226.10 101.03 218.75 97.71
  C 215.78 96.18 209.06 93.34 209.75 91.50
  Z"
/>
<path fill="#19c0dc" fill-opacity="0.996" d="
  M 269.36 92.07
  Q 260.53 96.06 253.08 102.00
  L 245.75 106.54
  L 245.02 106.50
  Q 244.49 106.47 244.10 106.81
  Q 242.49 108.25 240.95 106.54
  Q 240.59 106.13 240.09 106.32
  L 239.50 106.54
  L 232.21 102.50
  L 232.00 101.29
  L 232.17 101.03
  Q 232.45 100.62 232.89 100.85
  L 242.21 105.64
  Q 242.68 105.88 243.15 105.64
  Q 258.30 97.74 268.76 91.79
  Q 269.07 91.61 269.36 92.07
  Z"
/>
<path fill="#f6dcf9" d="
  M 274.45 92.44
  Q 272.80 95.16 269.75 96.04
  Q 253.51 103.93 248.55 107.05
  Q 246.40 108.41 245.56 112.33
  Q 245.44 112.87 244.92 112.69
  L 244.25 112.46
  Q 244.36 109.32 245.75 106.54
  L 253.08 102.00
  L 274.45 92.44
  Z"
/>
<path fill="#19c0dc" fill-opacity="0.996" d="
  M 237.24 95.00
  Q 237.38 95.04 237.52 95.09
  Q 237.75 95.16 237.53 95.26
  Q 234.74 96.49 232.64 94.46
  Q 232.04 93.89 232.82 93.60
  Q 235.18 92.74 236.95 94.80
  Q 237.07 94.94 237.24 95.00
  Z"
/>
<ellipse fill="#19c0dc" fill-opacity="0.996" cx="0.00" cy="0.00" transform="translate(250.78,94.41) rotate(-16.2)" rx="2.03" ry="1.07"/>
<path fill="#e547ce" d="
  M 269.75 96.04
  Q 269.27 97.37 269.98 98.50
  Q 270.23 98.88 270.67 98.77
  Q 271.52 98.55 272.04 99.50
  C 266.44 101.81 253.87 106.46 252.21 109.75
  L 251.50 110.71
  Q 249.92 112.32 250.50 114.71
  Q 248.84 116.75 248.66 119.41
  Q 248.64 119.72 248.95 119.76
  Q 249.10 119.78 249.25 119.79
  Q 248.08 120.31 247.25 121.23
  Q 246.90 121.64 247.08 122.14
  Q 247.28 122.66 247.75 123.00
  L 245.75 128.04
  L 245.24 130.06
  L 243.20 136.65
  A 0.63 0.63 0.0 0 1 242.01 136.67
  L 239.71 130.00
  L 239.29 128.25
  L 239.04 127.25
  Q 239.69 125.67 238.54 124.50
  Q 237.54 120.04 237.21 122.64
  L 232.25 120.46
  L 229.75 120.21
  L 231.61 119.90
  Q 232.49 119.76 231.67 119.41
  C 230.79 119.04 224.16 116.11 224.51 114.55
  Q 224.66 113.90 225.17 114.33
  Q 230.15 118.49 236.53 119.95
  Q 236.96 120.05 236.96 119.61
  Q 236.95 116.69 234.75 114.71
  Q 235.02 112.81 233.71 111.50
  L 233.84 110.88
  Q 233.95 110.40 233.64 110.00
  Q 231.54 107.26 228.21 106.00
  Q 227.14 104.74 225.50 105.04
  L 214.71 100.00
  Q 214.54 99.46 214.02 99.23
  Q 212.53 98.58 214.02 98.92
  L 217.45 99.72
  Q 217.91 99.82 218.00 99.35
  Q 218.18 98.43 218.75 97.71
  C 226.10 101.03 238.97 106.31 240.00 113.68
  Q 240.07 114.16 240.33 114.58
  L 241.21 116.00
  L 241.54 116.50
  L 241.75 117.79
  Q 241.54 121.36 242.59 124.74
  Q 242.86 125.64 242.93 124.70
  L 243.50 116.71
  Q 243.48 116.60 243.46 116.50
  L 244.25 112.46
  L 244.92 112.69
  Q 245.44 112.87 245.56 112.33
  Q 246.40 108.41 248.55 107.05
  Q 253.51 103.93 269.75 96.04
  Z"
/>
<path fill="#3dfefe" d="
  M 242.80 99.35
  Q 241.57 99.42 242.16 98.17
  Q 242.35 97.75 242.82 97.75
  L 243.11 97.75
  Q 243.77 97.75 243.57 98.38
  L 243.42 98.88
  A 0.69 0.68 -81.9 0 1 242.80 99.35
  Z"
/>
<path fill="#eaa6e1" fill-opacity="0.996" d="
  M 209.00 108.21
  L 210.50 108.54
  L 210.46 109.25
  Q 209.68 108.58 208.62 109.00
  Q 208.25 109.15 208.46 109.49
  Q 214.61 119.68 225.24 125.00
  Q 226.39 125.58 227.04 124.75
  Q 227.13 124.75 227.21 124.75
  Q 227.25 124.90 227.26 125.06
  Q 227.27 125.48 227.65 125.67
  Q 229.36 126.53 231.25 126.54
  Q 231.76 128.62 233.90 127.67
  Q 234.33 127.47 234.21 127.01
  Q 234.11 126.63 233.75 126.29
  Q 235.21 128.22 237.50 128.71
  L 238.88 128.93
  Q 239.22 128.99 239.25 128.64
  Q 239.27 128.44 239.29 128.25
  L 239.71 130.00
  C 237.47 129.55 235.17 130.00 233.11 129.39
  Q 210.34 122.58 202.05 100.01
  Q 201.84 99.43 202.43 99.27
  Q 202.59 99.22 202.78 99.25
  Q 203.10 99.31 203.24 99.62
  C 203.82 100.87 207.32 109.46 209.00 108.21
  Z"
/>
<path fill="#eaa6e1" fill-opacity="0.996" d="
  M 245.24 130.06
  L 245.75 128.04
  L 245.80 128.41
  Q 245.88 128.95 246.43 128.95
  Q 248.74 128.97 250.54 127.50
  Q 251.80 127.33 252.21 126.00
  L 251.99 126.94
  Q 251.85 127.56 252.48 127.65
  Q 253.69 127.84 254.50 126.71
  L 257.32 125.96
  Q 257.79 125.83 257.78 125.34
  L 257.75 124.54
  L 259.40 124.76
  Q 259.91 124.83 260.33 124.53
  C 263.50 122.33 266.37 121.62 268.12 117.91
  Q 269.11 118.81 269.71 117.75
  Q 271.89 116.44 273.25 114.29
  Q 278.72 107.74 281.91 99.48
  A 0.58 0.58 0.0 0 1 283.00 99.49
  Q 283.13 99.87 282.94 100.39
  C 277.02 116.07 262.66 129.59 245.24 130.06
  Z"
/>
<path fill="#19c0dc" fill-opacity="0.996" d="
  M 266.79 105.50
  Q 265.63 107.28 267.75 108.50
  L 264.79 108.25
  C 263.99 106.53 262.32 108.27 261.96 106.75
  L 265.44 104.83
  Q 266.07 104.48 266.43 105.10
  Q 266.58 105.35 266.79 105.50
  Z"
/>
<path fill="#19c0dc" fill-opacity="0.996" d="
  M 226.25 106.71
  Q 226.48 106.66 226.64 106.79
  Q 226.94 107.02 226.65 107.25
  C 224.18 109.19 226.91 112.31 228.33 110.79
  Q 228.75 110.35 229.28 110.65
  L 231.93 112.15
  A 0.53 0.53 0.0 0 1 231.49 113.12
  L 228.43 112.05
  Q 228.10 111.94 227.87 112.19
  Q 227.61 112.49 227.42 113.08
  Q 224.29 107.72 218.25 107.46
  Q 218.57 107.27 218.97 107.23
  Q 219.47 107.19 219.37 106.70
  L 219.04 104.96
  Q 222.49 106.74 226.25 106.71
  Z"
/>
<path fill="#eaa6e1" fill-opacity="0.996" d="
  M 225.50 105.04
  Q 227.14 104.74 228.21 106.00
  L 227.71 107.25
  L 226.54 106.00
  L 225.50 105.04
  Z"
/>
<path fill="#8c8b8c" fill-opacity="0.600" d="
  M 219.04 104.96
  L 219.37 106.70
  Q 219.47 107.19 218.97 107.23
  Q 218.57 107.27 218.25 107.46
  L 213.50 107.54
  Q 212.27 107.56 212.00 106.54
  L 213.00 106.18
  Q 213.47 106.01 213.96 106.08
  Q 216.53 106.46 219.04 104.96
  Z"
/>
<path fill="#8c8b8c" fill-opacity="0.600" d="
  M 266.79 105.50
  C 269.68 105.50 271.68 105.02 274.17 106.76
  Q 272.52 107.56 271.52 108.90
  Q 271.17 109.35 270.62 109.48
  Q 269.77 109.68 269.43 108.99
  Q 269.20 108.52 268.69 108.52
  L 267.75 108.50
  Q 265.63 107.28 266.79 105.50
  Z"
/>
<path fill="#160623" d="
  M 226.54 106.00
  L 227.71 107.25
  L 233.71 111.50
  Q 235.02 112.81 234.75 114.71
  L 234.00 115.54
  L 231.25 115.21
  L 227.42 113.08
  Q 227.61 112.49 227.87 112.19
  Q 228.10 111.94 228.43 112.05
  L 231.49 113.12
  A 0.53 0.53 0.0 0 0 231.93 112.15
  L 229.28 110.65
  Q 228.75 110.35 228.33 110.79
  C 226.91 112.31 224.18 109.19 226.65 107.25
  Q 226.94 107.02 226.64 106.79
  Q 226.48 106.66 226.25 106.71
  L 226.54 106.00
  Z"
/>
<path fill="#f6dcf9" d="
  M 228.21 106.00
  Q 231.54 107.26 233.64 110.00
  Q 233.95 110.40 233.84 110.88
  L 233.71 111.50
  L 227.71 107.25
  L 228.21 106.00
  Z"
/>
<path fill="#1d163e" d="
  M 245.75 106.54
  Q 244.36 109.32 244.25 112.46
  L 243.46 116.50
  L 241.54 116.50
  L 241.21 116.00
  Q 241.28 111.08 239.50 106.54
  L 240.09 106.32
  Q 240.59 106.13 240.95 106.54
  Q 242.49 108.25 244.10 106.81
  Q 244.49 106.47 245.02 106.50
  L 245.75 106.54
  Z"
/>
<path fill="#8c8b8c" fill-opacity="0.600" d="
  M 211.00 106.54
  L 210.50 108.54
  L 209.00 108.21
  Q 210.26 107.72 211.00 106.54
  Z"
/>
<path fill="#f6dcf9" d="
  M 211.00 106.54
  L 212.00 106.54
  Q 212.27 107.56 213.50 107.54
  Q 213.30 109.39 214.84 110.42
  Q 215.25 110.70 215.25 111.18
  L 215.25 111.76
  Q 215.25 112.20 214.88 111.97
  L 210.46 109.25
  L 210.50 108.54
  L 211.00 106.54
  Z"
/>
<path fill="#665972" fill-opacity="0.969" d="
  M 261.96 106.75
  C 262.32 108.27 263.99 106.53 264.79 108.25
  L 262.29 110.50
  L 261.95 108.40
  Q 261.86 107.89 261.39 107.70
  C 259.00 106.75 256.29 108.31 254.00 109.54
  L 253.71 109.25
  Q 257.45 106.81 261.96 106.75
  Z"
/>
<path fill="#f6dcf9" d="
  M 274.17 106.76
  Q 273.17 110.15 270.46 112.50
  Q 270.38 112.50 270.29 112.50
  Q 269.90 109.92 267.75 108.50
  L 268.69 108.52
  Q 269.20 108.52 269.43 108.99
  Q 269.77 109.68 270.62 109.48
  Q 271.17 109.35 271.52 108.90
  Q 272.52 107.56 274.17 106.76
  Z"
/>
<path fill="#ffffff" d="
  M 218.25 107.46
  Q 224.29 107.72 227.42 113.08
  L 231.25 115.21
  L 230.54 115.50
  L 228.86 114.67
  Q 228.30 114.40 228.49 114.99
  Q 228.87 116.21 230.25 116.21
  Q 232.19 116.35 234.00 115.54
  L 234.75 114.71
  Q 236.95 116.69 236.96 119.61
  Q 236.96 120.05 236.53 119.95
  Q 230.15 118.49 225.17 114.33
  Q 224.66 113.90 224.51 114.55
  C 224.16 116.11 230.79 119.04 231.67 119.41
  Q 232.49 119.76 231.61 119.90
  L 229.75 120.21
  Q 228.30 120.70 227.46 122.00
  Q 225.85 123.10 227.04 124.75
  Q 226.39 125.58 225.24 125.00
  Q 214.61 119.68 208.46 109.49
  Q 208.25 109.15 208.62 109.00
  Q 209.68 108.58 210.46 109.25
  L 214.88 111.97
  Q 215.25 112.20 215.25 111.76
  L 215.25 111.18
  Q 215.25 110.70 214.84 110.42
  Q 213.30 109.39 213.50 107.54
  L 218.25 107.46
  Z"
/>
<path fill="#160623" d="
  M 262.29 110.50
  Q 261.12 112.82 258.61 112.53
  Q 258.08 112.47 257.73 112.86
  L 256.21 114.50
  Q 253.59 116.56 250.75 114.79
  Q 250.63 114.75 250.50 114.71
  Q 249.92 112.32 251.50 110.71
  Q 253.21 111.02 254.00 109.54
  C 256.29 108.31 259.00 106.75 261.39 107.70
  Q 261.86 107.89 261.95 108.40
  L 262.29 110.50
  Z
  M 257.6135 110.7566
  A 2.38 0.59 -25.2 0 0 255.2088 111.2362
  A 2.38 0.59 -25.2 0 0 253.3065 112.7834
  A 2.38 0.59 -25.2 0 0 255.7112 112.3038
  A 2.38 0.59 -25.2 0 0 257.6135 110.7566
  Z"
/>
<path fill="#ffffff" d="
  M 264.79 108.25
  L 267.75 108.50
  Q 269.90 109.92 270.29 112.50
  Q 269.78 115.37 268.12 117.91
  C 266.37 121.62 263.50 122.33 260.33 124.53
  Q 259.91 124.83 259.40 124.76
  L 257.75 124.54
  Q 255.21 124.01 254.50 126.71
  Q 253.69 127.84 252.48 127.65
  Q 251.85 127.56 251.99 126.94
  L 252.21 126.00
  L 251.96 123.75
  Q 252.09 122.96 251.61 122.21
  Q 251.35 121.79 251.44 121.29
  C 251.71 119.84 260.14 117.00 260.00 115.29
  Q 259.96 114.66 259.52 115.11
  Q 258.24 116.41 256.46 116.00
  L 256.21 114.50
  L 257.73 112.86
  Q 258.08 112.47 258.61 112.53
  Q 261.12 112.82 262.29 110.50
  L 264.79 108.25
  Z"
/>
<path fill="#1d163e" d="
  M 253.71 109.25
  L 254.00 109.54
  Q 253.21 111.02 251.50 110.71
  L 252.21 109.75
  Q 253.11 110.19 253.71 109.25
  Z"
/>
<ellipse fill="#19c0dc" fill-opacity="0.996" cx="0.00" cy="0.00" transform="translate(255.46,111.77) rotate(-25.2)" rx="2.38" ry="0.59"/>
<path fill="#665972" fill-opacity="0.969" d="
  M 270.29 112.50
  Q 270.38 112.50 270.46 112.50
  L 270.54 113.25
  Q 270.30 115.44 269.14 117.31
  Q 268.93 117.65 269.31 117.77
  Q 269.48 117.82 269.71 117.75
  Q 269.11 118.81 268.12 117.91
  Q 269.78 115.37 270.29 112.50
  Z"
/>
<path fill="#8c8b8c" fill-opacity="0.600" d="
  M 270.54 113.25
  Q 271.61 114.29 273.25 114.29
  Q 271.89 116.44 269.71 117.75
  Q 269.48 117.82 269.31 117.77
  Q 268.93 117.65 269.14 117.31
  Q 270.30 115.44 270.54 113.25
  Z"
/>
<path fill="#555558" fill-opacity="0.373" d="
  M 230.54 115.50
  L 230.25 116.21
  Q 228.87 116.21 228.49 114.99
  Q 228.30 114.40 228.86 114.67
  L 230.54 115.50
  Z"
/>
<path fill="#665972" fill-opacity="0.969" d="
  M 256.21 114.50
  L 256.46 116.00
  L 256.04 116.25
  C 255.37 115.02 252.60 117.47 250.75 114.79
  Q 253.59 116.56 256.21 114.50
  Z"
/>
<path fill="#eaa6e1" fill-opacity="0.996" d="
  M 251.96 123.75
  Q 251.10 122.82 251.24 121.54
  Q 251.30 121.00 250.75 121.00
  L 249.06 121.00
  Q 248.56 121.00 248.25 121.39
  Q 247.72 122.04 247.75 123.00
  Q 247.28 122.66 247.08 122.14
  Q 246.90 121.64 247.25 121.23
  Q 248.08 120.31 249.25 119.79
  Q 253.16 118.94 256.04 116.25
  L 256.46 116.00
  Q 258.24 116.41 259.52 115.11
  Q 259.96 114.66 260.00 115.29
  C 260.14 117.00 251.71 119.84 251.44 121.29
  Q 251.35 121.79 251.61 122.21
  Q 252.09 122.96 251.96 123.75
  Z"
/>
<path fill="#f6dcf9" d="
  M 231.25 115.21
  L 234.00 115.54
  Q 232.19 116.35 230.25 116.21
  L 230.54 115.50
  L 231.25 115.21
  Z"
/>
<path fill="#665972" fill-opacity="0.969" d="
  M 243.46 116.50
  Q 243.48 116.60 243.50 116.71
  Q 242.17 116.57 241.75 117.79
  L 241.54 116.50
  L 243.46 116.50
  Z"
/>
<path fill="#ffffff" d="
  M 243.50 116.71
  L 242.93 124.70
  Q 242.86 125.64 242.59 124.74
  Q 241.54 121.36 241.75 117.79
  Q 242.17 116.57 243.50 116.71
  Z"
/>
<path fill="#665972" fill-opacity="0.969" d="
  M 229.75 120.21
  L 232.25 120.46
  Q 229.36 120.20 227.96 122.50
  L 227.54 122.75
  L 227.46 122.00
  Q 228.30 120.70 229.75 120.21
  Z"
/>
<path fill="#8c8b8c" fill-opacity="0.600" d="
  M 232.25 120.46
  L 237.21 122.64
  L 238.46 125.50
  L 238.50 125.96
  Q 238.35 125.97 238.21 125.98
  Q 238.00 126.00 237.97 126.20
  L 237.50 128.71
  Q 235.21 128.22 233.75 126.29
  L 231.54 126.25
  L 232.72 124.93
  Q 233.11 124.49 232.87 123.96
  Q 231.43 120.71 227.96 122.50
  Q 229.36 120.20 232.25 120.46
  Z"
/>
<path fill="#8c8b8c" fill-opacity="0.600" d="
  M 251.96 123.75
  L 252.21 126.00
  Q 251.80 127.33 250.54 127.50
  Q 251.34 123.55 247.75 123.00
  Q 247.72 122.04 248.25 121.39
  Q 248.56 121.00 249.06 121.00
  L 250.75 121.00
  Q 251.30 121.00 251.24 121.54
  Q 251.10 122.82 251.96 123.75
  Z"
/>
<path fill="#f6dcf9" d="
  M 238.54 124.50
  L 238.46 125.50
  L 237.21 122.64
  Q 237.54 120.04 238.54 124.50
  Z"
/>
<path fill="#19c0dc" fill-opacity="0.996" d="
  M 227.46 122.00
  L 227.54 122.75
  L 227.21 124.75
  Q 227.13 124.75 227.04 124.75
  Q 225.85 123.10 227.46 122.00
  Z"
/>
<path fill="#555558" fill-opacity="0.373" d="
  M 231.54 126.25
  L 231.25 126.54
  Q 229.36 126.53 227.65 125.67
  Q 227.27 125.48 227.26 125.06
  Q 227.25 124.90 227.21 124.75
  L 227.54 122.75
  L 227.96 122.50
  Q 231.43 120.71 232.87 123.96
  Q 233.11 124.49 232.72 124.93
  L 231.54 126.25
  Z"
/>
<path fill="#f6dcf9" d="
  M 257.75 124.54
  L 257.78 125.34
  Q 257.79 125.83 257.32 125.96
  L 254.50 126.71
  Q 255.21 124.01 257.75 124.54
  Z"
/>
<path fill="#eaa6e1" fill-opacity="0.996" d="
  M 238.54 124.50
  Q 239.69 125.67 239.04 127.25
  L 238.50 125.96
  L 238.46 125.50
  L 238.54 124.50
  Z"
/>
<path fill="#555558" fill-opacity="0.373" d="
  M 238.50 125.96
  L 239.04 127.25
  L 239.29 128.25
  Q 239.27 128.44 239.25 128.64
  Q 239.22 128.99 238.88 128.93
  L 237.50 128.71
  L 237.97 126.20
  Q 238.00 126.00 238.21 125.98
  Q 238.35 125.97 238.50 125.96
  Z"
/>
<path fill="#ffffff" d="
  M 231.54 126.25
  L 233.75 126.29
  Q 234.11 126.63 234.21 127.01
  Q 234.33 127.47 233.90 127.67
  Q 231.76 128.62 231.25 126.54
  L 231.54 126.25
  Z"
/>
<path fill="#5e17eb" d="
  M 136.29 151.00
  Q 136.20 151.20 135.91 151.30
  Q 135.73 151.36 135.73 151.55
  L 135.79 174.24
  Q 135.79 174.75 135.29 174.83
  L 131.21 175.47
  Q 130.24 174.99 129.46 174.00
  L 129.74 173.64
  Q 130.01 173.29 130.00 172.85
  L 129.67 156.90
  Q 129.66 156.48 129.29 156.30
  L 128.75 156.04
  Q 125.28 155.33 121.82 156.13
  Q 121.39 156.23 121.39 156.68
  L 121.55 174.17
  Q 121.55 174.77 120.96 174.87
  L 117.00 175.54
  Q 116.45 174.96 115.18 174.55
  Q 116.37 165.42 115.25 156.34
  A 0.40 0.40 0.0 0 0 114.64 156.04
  Q 114.41 156.18 114.46 156.50
  Q 114.38 156.50 114.29 156.50
  Q 111.03 155.48 107.60 155.82
  A 0.67 0.67 0.0 0 0 107.00 156.49
  L 107.00 174.25
  Q 107.00 174.84 106.41 174.93
  L 102.50 175.54
  L 100.37 174.03
  C 101.85 172.23 101.00 154.61 101.00 151.07
  Q 101.01 150.64 101.22 150.27
  L 101.50 149.79
  L 134.58 149.72
  Q 135.15 149.72 135.53 150.14
  L 136.29 151.00
  Z"
/>
<path fill="#19c0dc" fill-opacity="0.996" d="
  M 188.00 149.54
  Q 187.40 155.91 188.01 162.28
  Q 188.07 162.89 187.47 162.99
  Q 187.34 163.01 187.19 163.01
  Q 186.97 163.01 186.82 162.83
  Q 186.42 162.33 186.46 161.75
  Q 186.64 156.34 186.35 150.94
  C 186.28 149.80 186.81 149.18 188.00 149.54
  Z"
/>
<path fill="#5e17eb" d="
  M 188.00 149.54
  Q 191.50 149.20 193.75 150.69
  L 193.58 174.13
  A 0.90 0.90 0.0 0 1 192.75 175.02
  L 189.00 175.29
  L 187.75 174.71
  C 187.79 173.13 188.41 170.16 186.00 170.04
  L 176.33 163.05
  Q 176.22 162.98 176.11 163.03
  Q 175.99 163.09 175.96 163.25
  L 175.25 162.63
  A 0.46 0.45 -69.7 0 0 174.50 162.98
  L 174.50 174.30
  Q 174.50 175.03 173.77 174.98
  Q 171.67 174.84 170.00 175.54
  Q 169.43 174.97 168.21 174.53
  Q 168.91 162.13 168.24 149.76
  Q 171.85 149.08 174.79 150.75
  Q 173.96 152.75 174.97 154.58
  Q 175.18 154.95 175.47 154.65
  Q 175.58 154.54 175.71 154.50
  Q 180.45 158.63 185.83 161.90
  Q 186.04 162.03 186.24 161.89
  L 186.46 161.75
  Q 186.42 162.33 186.82 162.83
  Q 186.97 163.01 187.19 163.01
  Q 187.34 163.01 187.47 162.99
  Q 188.07 162.89 188.01 162.28
  Q 187.40 155.91 188.00 149.54
  Z"
/>
<path fill="#3dfefe" d="
  M 220.00 149.54
  Q 220.26 161.87 219.30 174.29
  Q 218.49 162.45 218.54 150.58
  C 218.54 149.61 219.06 149.21 220.00 149.54
  Z"
/>
<path fill="#5e17eb" d="
  M 220.00 149.54
  L 243.84 149.84
  Q 244.32 149.84 244.67 150.17
  L 245.45 150.91
  Q 244.82 153.16 245.09 155.40
  Q 245.16 156.04 244.52 156.03
  L 226.68 155.71
  A 0.74 0.74 0.0 0 0 225.93 156.36
  Q 225.12 162.73 226.62 168.81
  C 229.57 168.86 244.06 167.97 245.29 170.00
  Q 244.76 171.91 245.06 173.50
  A 1.38 1.37 -3.8 0 1 243.64 175.12
  C 240.34 174.96 223.03 174.02 221.25 175.54
  Q 220.74 174.91 219.30 174.29
  Q 220.26 161.87 220.00 149.54
  Z"
/>
<path fill="#665972" fill-opacity="0.969" d="
  M 345.50 149.79
  L 344.46 152.00
  Q 343.78 151.15 343.86 150.13
  Q 343.90 149.57 344.45 149.56
  Q 344.97 149.56 345.50 149.79
  Z"
/>
<path fill="#3dfefe" d="
  M 101.50 149.79
  L 101.22 150.27
  Q 101.01 150.64 101.00 151.07
  C 101.00 154.61 101.85 172.23 100.37 174.03
  Q 99.67 161.13 100.01 150.49
  Q 100.05 149.34 101.50 149.79
  Z"
/>
<path fill="#19c0dc" fill-opacity="0.996" d="
  M 140.00 149.79
  C 139.14 157.78 139.57 166.75 139.50 174.54
  C 137.81 172.87 138.45 156.03 138.32 150.91
  C 138.29 149.72 138.95 149.45 140.00 149.79
  Z"
/>
<path fill="#5e17eb" d="
  M 140.00 149.79
  L 163.58 149.72
  Q 164.14 149.72 164.50 150.13
  L 165.04 150.75
  L 164.82 150.99
  Q 164.72 151.11 164.72 151.25
  L 164.76 174.21
  Q 164.77 175.00 163.98 175.00
  L 141.64 175.00
  Q 141.42 175.00 141.24 175.12
  L 141.00 175.29
  L 139.50 174.54
  C 139.57 166.75 139.14 157.78 140.00 149.79
  Z
  M 146.44 168.83
  L 157.56 168.64
  Q 157.37 168.88 158.26 169.06
  A 0.42 0.41 -83.6 0 0 158.75 168.66
  L 158.75 157.07
  Q 158.75 156.62 158.45 156.28
  Q 158.02 155.80 157.46 156.25
  Q 157.38 156.25 157.29 156.25
  L 146.29 155.98
  Q 145.82 155.97 145.74 156.43
  Q 144.68 162.70 146.44 168.83
  Z"
/>
<path fill="#19c0dc" fill-opacity="0.996" d="
  M 168.24 149.76
  Q 168.91 162.13 168.21 174.53
  Q 166.51 164.99 167.93 155.33
  Q 168.01 154.80 167.77 154.31
  Q 166.59 151.84 168.24 149.76
  Z"
/>
<path fill="#19c0dc" fill-opacity="0.996" d="
  M 249.12 149.68
  L 248.46 154.25
  Q 246.64 151.28 249.12 149.68
  Z"
/>
<path fill="#5e17eb" d="
  M 249.12 149.68
  Q 260.85 149.80 272.25 149.75
  Q 273.50 149.74 274.29 151.00
  Q 274.21 151.20 273.91 151.29
  Q 273.72 151.34 273.72 151.55
  L 273.82 174.10
  A 0.82 0.81 -88.4 0 1 272.96 174.92
  Q 261.73 174.26 249.97 175.51
  Q 248.03 173.98 248.29 171.50
  Q 249.23 164.02 248.46 156.50
  L 248.46 154.25
  L 249.12 149.68
  Z
  M 255.30 168.88
  Q 261.03 169.29 266.55 168.60
  C 269.01 170.13 267.74 158.10 267.69 156.89
  A 0.76 0.75 24.0 0 0 267.51 156.43
  Q 266.85 155.63 266.46 156.00
  L 255.52 155.82
  Q 254.97 155.81 254.91 156.35
  Q 254.22 162.54 255.30 168.88
  Z"
/>
<path fill="#19c0dc" fill-opacity="0.996" d="
  M 277.07 149.76
  Q 278.04 162.05 277.21 174.25
  C 276.27 173.34 276.71 172.74 276.69 171.77
  Q 276.47 160.78 277.07 149.76
  Z"
/>
<path fill="#5e17eb" d="
  M 277.07 149.76
  L 310.91 149.75
  Q 311.43 149.75 311.78 150.15
  L 312.54 151.00
  C 311.19 152.53 312.20 170.17 312.33 173.57
  A 1.50 1.49 6.4 0 1 310.44 175.07
  Q 308.86 174.65 307.50 175.29
  L 306.46 175.00
  C 306.36 172.83 306.44 156.76 305.91 156.28
  Q 305.68 156.07 305.42 156.24
  L 305.00 156.50
  Q 301.89 155.55 298.41 155.96
  Q 297.75 156.04 297.75 156.71
  L 297.75 174.23
  Q 297.75 174.78 297.21 174.87
  L 293.50 175.54
  Q 292.36 175.25 291.31 174.28
  Q 292.28 165.42 291.54 156.63
  Q 291.49 156.13 291.01 156.00
  Q 290.65 155.91 290.29 156.25
  Q 287.06 155.10 283.70 155.99
  Q 283.21 156.12 283.22 156.62
  L 283.33 174.15
  A 0.90 0.89 -86.8 0 1 282.34 175.04
  L 279.03 174.69
  Q 278.65 174.65 278.43 174.96
  L 278.25 175.21
  L 277.21 174.25
  Q 278.04 162.05 277.07 149.76
  Z"
/>
<path fill="#19c0dc" fill-opacity="0.996" d="
  M 316.00 149.79
  L 315.46 171.50
  L 315.05 150.23
  Q 315.04 149.71 315.56 149.76
  L 316.00 149.79
  Z"
/>
<path fill="#5e17eb" d="
  M 316.00 149.79
  L 339.88 149.73
  Q 340.42 149.73 340.77 150.13
  L 341.54 151.00
  L 341.23 151.42
  Q 341.00 151.73 341.00 152.12
  L 341.00 169.25
  A 1.00 1.00 0.0 0 1 340.00 170.25
  L 322.81 170.25
  A 1.09 1.09 0.0 0 0 321.72 171.44
  L 321.97 174.22
  Q 322.04 175.02 321.24 174.96
  Q 319.08 174.79 317.25 175.54
  Q 314.92 174.31 315.46 171.50
  L 316.00 149.79
  Z
  M 322.78 163.84
  L 334.04 164.19
  Q 336.18 161.14 335.04 157.25
  Q 334.93 156.88 335.02 156.45
  Q 335.35 154.86 334.24 155.98
  Q 334.02 156.20 333.79 156.25
  L 322.87 155.77
  Q 322.36 155.75 322.24 156.24
  Q 321.24 160.10 322.78 163.84
  Z"
/>
<path fill="#5e17eb" d="
  M 345.50 149.79
  Q 357.12 149.77 368.75 149.75
  Q 369.47 149.75 370.43 150.91
  Q 369.77 153.19 370.03 155.46
  Q 370.10 156.05 369.51 156.04
  L 361.20 155.81
  Q 360.43 155.79 360.44 156.55
  L 360.53 174.34
  Q 360.53 174.84 360.04 174.91
  L 355.96 175.50
  L 354.46 174.56
  L 354.48 156.69
  Q 354.48 156.17 353.99 156.01
  Q 353.64 155.90 353.25 156.04
  Q 349.50 155.40 345.75 156.04
  Q 344.29 154.38 344.46 152.00
  L 345.50 149.79
  Z"
/>
<path fill="#3dfefe" d="
  M 374.00 149.79
  Q 373.42 160.30 373.94 170.81
  Q 373.99 171.96 373.50 174.54
  L 372.97 174.35
  Q 372.38 174.14 372.39 173.51
  L 372.88 150.30
  Q 372.89 149.85 373.33 149.74
  Q 373.65 149.67 374.00 149.79
  Z"
/>
<path fill="#5e17eb" d="
  M 374.00 149.79
  L 397.73 149.73
  Q 398.24 149.73 398.56 150.13
  L 399.04 150.75
  L 399.07 155.37
  Q 399.08 155.88 398.56 155.88
  L 380.84 155.72
  Q 380.34 155.72 380.07 156.13
  Q 378.81 158.01 380.50 159.04
  Q 380.19 159.17 380.05 159.40
  Q 379.81 159.77 380.25 159.77
  L 396.80 159.79
  Q 397.14 159.79 397.34 159.51
  L 397.50 159.29
  L 399.29 160.25
  Q 398.49 162.06 399.10 163.62
  A 1.20 1.20 0.0 0 1 397.98 165.26
  L 380.51 165.22
  Q 379.81 165.22 379.80 165.92
  L 379.75 168.27
  Q 379.73 168.78 380.25 168.72
  Q 380.51 168.69 380.71 168.50
  L 380.90 168.68
  Q 381.23 169.00 381.70 169.00
  L 397.86 169.00
  Q 398.40 169.00 398.76 169.40
  L 399.29 170.00
  C 398.31 170.54 399.25 173.14 398.90 174.32
  Q 398.74 174.84 398.19 174.85
  L 375.00 175.29
  L 373.50 174.54
  Q 373.99 171.96 373.94 170.81
  Q 373.42 160.30 374.00 149.79
  Z"
/>
<path fill="#fe0606" fill-opacity="0.992" d="
  M 165.04 150.75
  L 165.63 151.11
  Q 165.99 151.33 165.99 151.74
  L 166.02 175.49
  A 0.50 0.50 0.0 0 1 165.52 175.99
  C 163.15 176.00 141.09 176.47 141.00 175.29
  L 141.24 175.12
  Q 141.42 175.00 141.64 175.00
  L 163.98 175.00
  Q 164.77 175.00 164.76 174.21
  L 164.72 151.25
  Q 164.72 151.11 164.82 150.99
  L 165.04 150.75
  Z"
/>
<path fill="#fe0606" fill-opacity="0.992" d="
  M 174.79 150.75
  Q 176.71 151.95 175.71 154.50
  Q 175.58 154.54 175.47 154.65
  Q 175.18 154.95 174.97 154.58
  Q 173.96 152.75 174.79 150.75
  Z"
/>
<path fill="#fe0606" fill-opacity="0.992" d="
  M 193.75 150.69
  C 194.44 150.79 194.98 150.96 194.99 151.78
  Q 195.02 163.47 194.99 175.19
  Q 194.99 175.67 194.53 175.81
  Q 191.59 176.66 189.00 175.29
  L 192.75 175.02
  A 0.90 0.90 0.0 0 0 193.58 174.13
  L 193.75 150.69
  Z"
/>
<path fill="#fe0606" fill-opacity="0.992" d="
  M 399.04 150.75
  C 400.87 151.04 400.34 155.23 400.10 156.51
  Q 400.00 157.03 399.47 157.02
  L 381.78 156.94
  Q 381.26 156.94 381.05 157.42
  Q 380.82 157.96 381.00 158.71
  L 380.50 159.04
  Q 378.81 158.01 380.07 156.13
  Q 380.34 155.72 380.84 155.72
  L 398.56 155.88
  Q 399.08 155.88 399.07 155.37
  L 399.04 150.75
  Z"
/>
<path fill="#fe0606" fill-opacity="0.992" d="
  M 136.29 151.00
  Q 136.43 150.98 136.59 151.02
  Q 136.95 151.13 136.95 151.51
  L 137.11 175.12
  Q 137.12 175.66 136.60 175.82
  Q 133.94 176.64 131.21 175.47
  L 135.29 174.83
  Q 135.79 174.75 135.79 174.24
  L 135.73 151.55
  Q 135.73 151.36 135.91 151.30
  Q 136.20 151.20 136.29 151.00
  Z"
/>
<path fill="#fe0606" fill-opacity="0.992" d="
  M 245.45 150.91
  Q 246.59 153.55 246.09 156.45
  Q 246.02 156.85 245.61 156.85
  L 227.91 157.04
  A 0.95 0.94 -4.7 0 0 226.98 158.13
  Q 227.83 163.38 226.62 168.81
  Q 225.12 162.73 225.93 156.36
  A 0.74 0.74 0.0 0 1 226.68 155.71
  L 244.52 156.03
  Q 245.16 156.04 245.09 155.40
  Q 244.82 153.16 245.45 150.91
  Z"
/>
<path fill="#fe0606" fill-opacity="0.992" d="
  M 274.29 151.00
  L 274.65 151.27
  Q 274.99 151.53 274.99 151.96
  L 275.02 175.32
  A 0.57 0.57 0.0 0 1 274.47 175.89
  Q 262.21 176.39 249.97 175.51
  Q 261.73 174.26 272.96 174.92
  A 0.82 0.81 -88.4 0 0 273.82 174.10
  L 273.72 151.55
  Q 273.72 151.34 273.91 151.29
  Q 274.21 151.20 274.29 151.00
  Z"
/>
<path fill="#fe0606" fill-opacity="0.992" d="
  M 312.54 151.00
  Q 312.79 150.97 313.01 151.03
  Q 313.51 151.16 313.51 151.67
  L 313.67 174.83
  Q 313.67 175.43 313.10 175.62
  Q 310.26 176.57 307.50 175.29
  Q 308.86 174.65 310.44 175.07
  A 1.50 1.49 6.4 0 0 312.33 173.57
  C 312.20 170.17 311.19 152.53 312.54 151.00
  Z"
/>
<path fill="#fe0606" fill-opacity="0.992" d="
  M 341.54 151.00
  L 341.83 151.05
  Q 342.39 151.15 342.39 151.72
  L 342.54 170.70
  A 0.55 0.55 0.0 0 1 341.99 171.26
  L 324.01 171.23
  A 0.76 0.75 -89.6 0 0 323.25 171.99
  L 323.25 175.25
  Q 323.25 175.75 322.76 175.85
  Q 319.94 176.43 317.25 175.54
  Q 319.08 174.79 321.24 174.96
  Q 322.04 175.02 321.97 174.22
  L 321.72 171.44
  A 1.09 1.09 0.0 0 1 322.81 170.25
  L 340.00 170.25
  A 1.00 1.00 0.0 0 0 341.00 169.25
  L 341.00 152.12
  Q 341.00 151.73 341.23 151.42
  L 341.54 151.00
  Z"
/>
<path fill="#fe0606" fill-opacity="0.992" d="
  M 370.43 150.91
  Q 371.91 153.47 371.36 156.41
  Q 371.26 156.98 370.67 156.98
  L 362.62 156.95
  A 0.67 0.67 0.0 0 0 361.94 157.63
  L 362.03 175.21
  Q 362.03 175.70 361.55 175.82
  Q 358.66 176.51 355.96 175.50
  L 360.04 174.91
  Q 360.53 174.84 360.53 174.34
  L 360.44 156.55
  Q 360.43 155.79 361.20 155.81
  L 369.51 156.04
  Q 370.10 156.05 370.03 155.46
  Q 369.77 153.19 370.43 150.91
  Z"
/>
<path fill="#fe0606" fill-opacity="0.992" d="
  M 353.25 156.04
  L 353.21 157.00
  L 347.02 156.97
  Q 346.44 156.96 346.09 156.49
  L 345.75 156.04
  Q 349.50 155.40 353.25 156.04
  Z"
/>
<path fill="#fe0606" fill-opacity="0.992" d="
  M 114.29 156.50
  L 108.89 156.97
  Q 108.45 157.01 108.45 157.45
  L 108.52 174.99
  A 0.90 0.89 -5.8 0 1 107.79 175.88
  Q 105.19 176.40 102.50 175.54
  L 106.41 174.93
  Q 107.00 174.84 107.00 174.25
  L 107.00 156.49
  A 0.67 0.67 0.0 0 1 107.60 155.82
  Q 111.03 155.48 114.29 156.50
  Z"
/>
<path fill="#fe0606" fill-opacity="0.992" d="
  M 128.75 156.04
  L 128.50 156.71
  L 123.45 157.01
  Q 122.98 157.04 122.98 157.52
  L 123.01 175.24
  Q 123.01 175.74 122.52 175.85
  Q 119.67 176.48 117.00 175.54
  L 120.96 174.87
  Q 121.55 174.77 121.55 174.17
  L 121.39 156.68
  Q 121.39 156.23 121.82 156.13
  Q 125.28 155.33 128.75 156.04
  Z"
/>
<path fill="#fe0606" fill-opacity="0.992" d="
  M 157.29 156.25
  Q 157.30 156.45 157.21 156.63
  Q 157.04 157.00 156.64 156.99
  L 147.49 156.74
  Q 146.89 156.72 146.93 157.32
  Q 147.33 163.05 146.44 168.83
  Q 144.68 162.70 145.74 156.43
  Q 145.82 155.97 146.29 155.98
  L 157.29 156.25
  Z"
/>
<path fill="#fe0606" fill-opacity="0.992" d="
  M 266.46 156.00
  L 266.29 156.50
  L 256.53 156.73
  Q 255.89 156.75 255.94 157.39
  Q 256.38 163.17 255.30 168.88
  Q 254.22 162.54 254.91 156.35
  Q 254.97 155.81 255.52 155.82
  L 266.46 156.00
  Z"
/>
<path fill="#3dfefe" d="
  M 266.55 168.60
  C 266.62 167.24 267.70 156.06 266.29 156.50
  L 266.46 156.00
  Q 266.85 155.63 267.51 156.43
  A 0.76 0.75 24.0 0 1 267.69 156.89
  C 267.74 158.10 269.01 170.13 266.55 168.60
  Z"
/>
<path fill="#fe0606" fill-opacity="0.992" d="
  M 290.29 156.25
  L 290.25 156.71
  L 285.99 156.69
  Q 284.84 156.69 284.84 157.84
  L 284.72 175.02
  Q 284.71 175.47 284.28 175.59
  Q 281.15 176.49 278.25 175.21
  L 278.43 174.96
  Q 278.65 174.65 279.03 174.69
  L 282.34 175.04
  A 0.90 0.89 -86.8 0 0 283.33 174.15
  L 283.22 156.62
  Q 283.21 156.12 283.70 155.99
  Q 287.06 155.10 290.29 156.25
  Z"
/>
<path fill="#fe0606" fill-opacity="0.992" d="
  M 305.00 156.50
  L 300.40 156.71
  A 1.35 1.35 0.0 0 0 299.11 158.07
  L 299.31 175.11
  Q 299.31 175.63 298.81 175.78
  Q 296.14 176.57 293.50 175.54
  L 297.21 174.87
  Q 297.75 174.78 297.75 174.23
  L 297.75 156.71
  Q 297.75 156.04 298.41 155.96
  Q 301.89 155.55 305.00 156.50
  Z"
/>
<path fill="#fe0606" fill-opacity="0.992" d="
  M 333.79 156.25
  L 333.75 156.71
  Q 329.02 157.25 324.61 156.61
  A 1.28 1.28 0.0 0 0 323.16 158.07
  Q 323.61 160.90 322.78 163.84
  Q 321.24 160.10 322.24 156.24
  Q 322.36 155.75 322.87 155.77
  L 333.79 156.25
  Z"
/>
<path fill="#19c0dc" fill-opacity="0.996" d="
  M 115.18 174.55
  Q 114.02 165.55 114.46 156.50
  Q 114.41 156.18 114.64 156.04
  A 0.40 0.40 0.0 0 1 115.25 156.34
  Q 116.37 165.42 115.18 174.55
  Z"
/>
<path fill="#3dfefe" d="
  M 128.75 156.04
  L 129.29 156.30
  Q 129.66 156.48 129.67 156.90
  L 130.00 172.85
  Q 130.01 173.29 129.74 173.64
  L 129.46 174.00
  C 128.11 173.49 129.96 159.14 128.50 156.71
  L 128.75 156.04
  Z"
/>
<path fill="#3dfefe" d="
  M 157.56 168.64
  L 157.84 156.84
  Q 157.85 156.65 157.72 156.52
  L 157.46 156.25
  Q 158.02 155.80 158.45 156.28
  Q 158.75 156.62 158.75 157.07
  L 158.75 168.66
  A 0.42 0.41 -83.6 0 1 158.26 169.06
  Q 157.37 168.88 157.56 168.64
  Z"
/>
<path fill="#3dfefe" d="
  M 291.31 174.28
  Q 290.23 165.64 291.20 156.99
  Q 291.27 156.43 290.72 156.53
  Q 290.38 156.59 290.25 156.71
  L 290.29 156.25
  Q 290.65 155.91 291.01 156.00
  Q 291.49 156.13 291.54 156.63
  Q 292.28 165.42 291.31 174.28
  Z"
/>
<path fill="#3dfefe" d="
  M 306.46 175.00
  C 304.12 174.40 305.01 159.18 305.00 156.50
  L 305.42 156.24
  Q 305.68 156.07 305.91 156.28
  C 306.44 156.76 306.36 172.83 306.46 175.00
  Z"
/>
<path fill="#19c0dc" fill-opacity="0.996" d="
  M 335.04 157.25
  L 334.54 159.50
  Q 334.78 157.87 333.75 156.71
  L 333.79 156.25
  Q 334.02 156.20 334.24 155.98
  Q 335.35 154.86 335.02 156.45
  Q 334.93 156.88 335.04 157.25
  Z"
/>
<path fill="#3dfefe" d="
  M 353.25 156.04
  Q 353.64 155.90 353.99 156.01
  Q 354.48 156.17 354.48 156.69
  L 354.46 174.56
  C 350.83 173.40 354.73 159.30 353.21 157.00
  L 353.25 156.04
  Z"
/>
<path fill="#3dfefe" d="
  M 248.46 156.50
  Q 249.23 164.02 248.29 171.50
  Q 246.38 163.98 248.46 156.50
  Z"
/>
<path fill="#3dfefe" d="
  M 335.04 157.25
  Q 336.18 161.14 334.04 164.19
  Q 333.73 161.58 334.54 159.50
  L 335.04 157.25
  Z"
/>
<path fill="#665972" fill-opacity="0.969" d="
  M 381.00 158.71
  Q 382.91 159.28 383.50 159.25
  Q 392.10 158.76 397.50 159.29
  L 397.34 159.51
  Q 397.14 159.79 396.80 159.79
  L 380.25 159.77
  Q 379.81 159.77 380.05 159.40
  Q 380.19 159.17 380.50 159.04
  L 381.00 158.71
  Z"
/>
<path fill="#fe0606" fill-opacity="0.992" d="
  M 399.29 160.25
  Q 401.16 162.93 399.97 166.06
  Q 399.77 166.59 399.20 166.58
  L 381.85 166.26
  Q 381.30 166.25 381.16 166.78
  L 380.71 168.50
  Q 380.51 168.69 380.25 168.72
  Q 379.73 168.78 379.75 168.27
  L 379.80 165.92
  Q 379.81 165.22 380.51 165.22
  L 397.98 165.26
  A 1.20 1.20 0.0 0 0 399.10 163.62
  Q 398.49 162.06 399.29 160.25
  Z"
/>
<path fill="#fe0606" fill-opacity="0.992" d="
  M 175.96 163.25
  L 176.04 175.16
  Q 176.04 175.70 175.51 175.83
  Q 172.71 176.49 170.00 175.54
  Q 171.67 174.84 173.77 174.98
  Q 174.50 175.03 174.50 174.30
  L 174.50 162.98
  A 0.46 0.45 -69.7 0 1 175.25 162.63
  L 175.96 163.25
  Z"
/>
<path fill="#19c0dc" fill-opacity="0.996" d="
  M 186.00 170.04
  C 188.41 170.16 187.79 173.13 187.75 174.71
  L 187.21 174.40
  Q 186.77 174.15 186.77 173.64
  Q 186.79 171.75 186.00 170.04
  Z"
/>
<path fill="#fe0606" fill-opacity="0.992" d="
  M 245.29 170.00
  Q 245.53 169.99 245.79 170.15
  Q 246.25 170.44 246.25 170.99
  L 246.25 175.25
  Q 246.25 176.00 245.50 176.00
  L 222.11 176.00
  Q 221.76 176.00 221.49 175.76
  L 221.25 175.54
  C 223.03 174.02 240.34 174.96 243.64 175.12
  A 1.38 1.37 -3.8 0 0 245.06 173.50
  Q 244.76 171.91 245.29 170.00
  Z"
/>
<path fill="#fe0606" fill-opacity="0.992" d="
  M 399.29 170.00
  Q 399.53 169.99 399.79 170.15
  Q 400.25 170.44 400.25 170.99
  L 400.25 175.45
  Q 400.25 175.97 399.73 175.97
  C 396.81 175.99 375.80 176.53 375.00 175.29
  L 398.19 174.85
  Q 398.74 174.84 398.90 174.32
  C 399.25 173.14 398.31 170.54 399.29 170.00
  Z"
/>
</svg>
