<?xml version="1.0" encoding="UTF-8" standalone="no"?>
<!DOCTYPE svg PUBLIC "-//W3C//DTD SVG 1.1//EN" "http://www.w3.org/Graphics/SVG/1.1/DTD/svg11.dtd">
<svg xmlns="http://www.w3.org/2000/svg" version="1.1" viewBox="0 0 500 200">
<g stroke-width="2.00" fill="none" stroke-linecap="butt">
<path stroke="#540c46" vector-effect="non-scaling-stroke" d="
  M 277.96 87.00
  Q 276.79 88.05 276.75 89.71"
/>
<path stroke="#8e8a9f" vector-effect="non-scaling-stroke" d="
  M 276.75 89.71
  C 273.80 91.40 272.15 93.58 269.13 94.98
  Q 260.24 99.11 251.20 103.18"
/>
<path stroke="#43628a" vector-effect="non-scaling-stroke" d="
  M 251.20 103.18
  Q 254.26 99.81 259.08 97.85
  Q 259.99 97.48 260.69 96.53
  Q 260.84 96.32 260.61 96.44
  L 243.34 105.44
  A 1.05 1.03 42.6 0 1 242.46 105.47
  Q 234.48 102.04 227.30 97.17
  Q 226.76 96.80 226.17 96.85
  A 0.36 0.36 0.0 0 0 225.88 97.37
  Q 226.45 98.49 226.00 99.54"
/>
<path stroke="#8e8a9f" vector-effect="non-scaling-stroke" d="
  M 226.00 99.54
  Q 216.30 95.82 207.90 89.89"
/>
<path stroke="#1c1838" stroke-opacity="0.659" vector-effect="non-scaling-stroke" d="
  M 222.71 65.75
  Q 221.48 69.38 218.24 71.65
  A 0.04 0.03 68.9 0 0 218.23 71.69
  L 218.33 71.97
  A 0.33 0.33 0.0 0 1 218.17 72.37
  Q 214.48 74.37 212.75 78.21"
/>
<path stroke="#540c46" vector-effect="non-scaling-stroke" d="
  M 212.75 78.21
  L 211.50 78.96"
/>
<path stroke="#7e2f7e" vector-effect="non-scaling-stroke" d="
  M 211.50 78.96
  Q 210.58 79.59 211.16 80.54
  A 1.45 1.44 -7.0 0 0 212.00 81.19
  Q 226.37 85.42 240.72 89.55
  C 241.65 89.82 243.15 89.86 243.93 89.65
  Q 258.01 85.80 271.92 81.39
  Q 273.49 80.90 273.75 79.85
  A 0.53 0.52 -74.0 0 0 273.41 79.22
  Q 273.22 79.15 273.00 79.21"
/>
<path stroke="#b2d4e8" vector-effect="non-scaling-stroke" d="
  M 226.00 99.54
  L 239.71 106.75"
/>
<path stroke="#8e8a9f" vector-effect="non-scaling-stroke" d="
  M 239.71 106.75
  Q 241.08 109.64 240.74 113.13"
/>
<path stroke="#eea2dc" vector-effect="non-scaling-stroke" d="
  M 240.74 113.13
  C 235.87 104.78 224.88 100.23 216.48 96.29
  C 213.36 94.83 210.56 92.56 207.25 91.04"
/>
<path stroke="#c37ea4" vector-effect="non-scaling-stroke" d="
  M 277.46 89.75
  L 276.75 89.71"
/>
<path stroke="#b42483" vector-effect="non-scaling-stroke" d="
  M 211.50 78.96
  L 214.00 80.21"
/>
<path stroke="#7e2f7e" vector-effect="non-scaling-stroke" d="
  M 214.00 80.21
  Q 227.16 84.32 240.43 88.10
  Q 242.95 88.81 243.77 88.55
  Q 256.82 84.43 270.15 80.75
  A 0.64 0.64 0.0 0 0 270.43 79.68
  C 266.44 75.73 261.35 71.89 257.69 68.60
  Q 250.43 62.08 243.00 55.77
  A 0.55 0.55 0.0 0 0 242.29 55.77
  L 214.50 79.54"
/>
<path stroke="#b42483" vector-effect="non-scaling-stroke" d="
  M 214.50 79.54
  L 214.03 79.49
  A 0.45 0.44 -82.1 0 1 213.64 78.97
  L 213.71 78.50"
/>
<path stroke="#43628a" vector-effect="non-scaling-stroke" d="
  M 245.75 106.29
  L 243.13 107.46
  A 1.26 1.25 -48.9 0 1 242.29 107.52
  L 239.71 106.75"
/>
<path stroke="#ae3c95" stroke-opacity="0.659" vector-effect="non-scaling-stroke" d="
  M 225.25 68.29
  L 213.71 78.50"
/>
<path stroke="#6e063f" stroke-opacity="0.659" vector-effect="non-scaling-stroke" d="
  M 213.71 78.50
  L 212.75 78.21"
/>
<path stroke="#eea2dc" vector-effect="non-scaling-stroke" d="
  M 277.54 90.25
  C 270.86 96.60 260.14 100.76 251.98 105.20
  C 247.68 107.54 245.88 110.29 244.28 114.62"
/>
<path stroke="#8e8a9f" vector-effect="non-scaling-stroke" d="
  M 244.28 114.62
  Q 243.93 110.13 245.75 106.29"
/>
<path stroke="#b2d4e8" vector-effect="non-scaling-stroke" d="
  M 245.75 106.29
  L 251.20 103.18"
/>
<path stroke="#b44795" stroke-opacity="0.780" vector-effect="non-scaling-stroke" d="
  M 258.71 105.75
  L 258.25 107.21"
/>
<path stroke="#6f245e" vector-effect="non-scaling-stroke" d="
  M 258.25 107.21
  L 258.00 107.21"
/>
<path stroke="#eea2dc" vector-effect="non-scaling-stroke" d="
  M 258.00 107.21
  Q 258.06 106.97 258.04 106.77
  A 0.53 0.53 0.0 0 0 257.46 106.28
  Q 253.36 106.65 251.88 110.45"
/>
<path stroke="#6f245e" vector-effect="non-scaling-stroke" d="
  M 251.88 110.45
  Q 249.97 111.85 250.50 114.71"
/>
<path stroke="#b44795" stroke-opacity="0.780" vector-effect="non-scaling-stroke" d="
  M 245.79 128.75
  L 245.54 130.00"
/>
<path stroke="#b42483" vector-effect="non-scaling-stroke" d="
  M 239.00 129.46
  L 238.96 128.75"
/>
<path stroke="#6f245e" vector-effect="non-scaling-stroke" d="
  M 228.96 117.75
  L 229.25 117.46"
/>
<path stroke="#6f245e" vector-effect="non-scaling-stroke" d="
  M 235.21 115.50
  Q 234.93 113.14 233.50 111.29"
/>
<path stroke="#eea2dc" vector-effect="non-scaling-stroke" d="
  M 233.50 111.29
  Q 233.78 108.96 231.81 107.88
  Q 220.56 101.71 206.19 96.82
  A 0.84 0.82 26.9 0 0 205.26 97.11
  Q 201.90 101.73 206.09 105.88
  A 0.56 0.55 -42.6 0 0 206.84 105.91
  Q 207.83 105.08 209.25 106.21"
/>
<path stroke="#b42483" vector-effect="non-scaling-stroke" d="
  M 215.54 118.25
  L 215.63 118.97
  A 0.35 0.35 0.0 0 1 215.22 119.36
  L 214.75 119.29"
/>
<path stroke="#7e2f7e" vector-effect="non-scaling-stroke" d="
  M 240.74 113.13
  Q 242.38 117.91 241.71 123.13
  A 0.36 0.36 0.0 0 0 242.08 123.53
  C 243.29 123.47 243.03 116.08 244.28 114.62"
/>
<path stroke="#540c46" vector-effect="non-scaling-stroke" d="
  M 214.00 80.21
  L 214.50 79.54"
/>
<path stroke="#7f7e7f" vector-effect="non-scaling-stroke" d="
  M 258.00 107.21
  L 251.88 110.45"
/>
<path stroke="#7f7e7f" vector-effect="non-scaling-stroke" d="
  M 233.50 111.29
  Q 230.12 107.58 225.23 107.49"
/>
<path stroke="#c37ea4" vector-effect="non-scaling-stroke" d="
  M 225.23 107.49
  L 220.36 105.73
  Q 219.90 105.56 219.42 105.64
  Q 218.27 105.83 217.25 106.46"
/>
<path stroke="#eea2dc" vector-effect="non-scaling-stroke" d="
  M 213.25 107.04
  L 210.54 106.75"
/>
<path stroke="#261a1e" stroke-opacity="0.780" vector-effect="non-scaling-stroke" d="
  M 266.00 106.54
  Q 263.65 108.70 261.15 107.25
  A 1.61 1.58 -31.9 0 0 260.22 107.04
  L 258.25 107.21"
/>
<path stroke="#450026" vector-effect="non-scaling-stroke" d="
  M 225.23 107.49
  Q 225.73 108.99 225.50 109.79"
/>
<path stroke="#050607" stroke-opacity="0.659" vector-effect="non-scaling-stroke" d="
  M 251.75 120.21
  L 251.72 119.89
  A 0.42 0.41 -88.3 0 0 251.37 119.51
  L 251.00 119.46"
/>
<path stroke="#730c9b" vector-effect="non-scaling-stroke" d="
  M 200.59 150.45
  L 200.32 168.53
  A 2.10 2.10 0.0 0 1 197.97 170.58
  Q 189.74 169.58 181.50 170.26
  A 0.84 0.83 4.2 0 0 180.75 170.90
  L 180.12 173.39
  A 1.99 1.99 0.0 0 1 177.86 174.86
  L 174.29 174.25"
/>
<path stroke="#6262df" vector-effect="non-scaling-stroke" d="
  M 174.25 174.04
  C 175.10 173.69 174.74 153.60 174.74 151.21
  A 0.21 0.21 0.0 0 0 174.52 151.00
  L 174.14 151.02
  A 0.39 0.38 -89.2 0 0 173.77 151.39
  L 173.71 152.75"
/>
<path stroke="#730c9b" vector-effect="non-scaling-stroke" d="
  M 238.75 150.29
  Q 238.08 152.18 238.90 153.87
  A 0.46 0.45 -18.1 0 0 239.40 154.12
  L 239.75 154.04"
/>
<path stroke="#730c9b" vector-effect="non-scaling-stroke" d="
  M 258.79 154.00
  Q 257.60 162.14 258.96 170.25"
/>
<path stroke="#730c9b" vector-effect="non-scaling-stroke" d="
  M 240.04 163.25
  Q 239.89 162.31 238.92 162.45
  A 0.69 0.69 0.0 0 0 238.32 163.13
  L 238.17 173.50
  A 0.85 0.83 80.3 0 1 237.64 174.27
  Q 235.43 175.10 232.36 174.32"
/>
<path stroke="#730c9b" vector-effect="non-scaling-stroke" d="
  M 279.75 157.04
  L 278.05 156.79
  A 0.49 0.48 4.2 0 0 277.50 157.26
  L 277.49 158.77
  A 0.38 0.38 0.0 0 0 278.06 159.10
  L 278.75 158.71"
/>
<path stroke="#730c9b" vector-effect="non-scaling-stroke" d="
  M 271.27 174.81
  L 270.79 160.00"
/>
<path stroke="#6262df" vector-effect="non-scaling-stroke" d="
  M 270.79 160.00
  C 270.85 156.79 271.46 152.89 269.71 150.07"
/>
<path stroke="#78568f" vector-effect="non-scaling-stroke" d="
  M 270.79 160.00
  L 270.74 168.69
  A 0.32 0.31 -89.0 0 1 270.43 169.00
  L 270.17 169.00
  A 0.39 0.39 0.0 0 1 269.77 168.63
  L 269.54 164.25"
/>
<path stroke="#730c9b" vector-effect="non-scaling-stroke" d="
  M 228.70 150.07
  L 228.45 172.96
  A 1.04 1.02 72.2 0 1 228.05 173.76
  Q 226.13 175.28 223.50 175.04"
/>
<path stroke="#730c9b" vector-effect="non-scaling-stroke" d="
  M 220.25 170.54
  C 215.80 169.87 209.21 168.19 208.71 173.62
  A 0.86 0.85 -8.9 0 1 208.19 174.32
  L 205.25 175.54"
/>
<path stroke="#730c9b" vector-effect="non-scaling-stroke" d="
  M 262.00 157.46
  L 266.05 157.73
  A 0.43 0.43 0.0 0 0 266.50 157.27
  C 266.41 156.26 262.98 156.01 262.25 156.04"
/>
<path stroke="#730c9b" vector-effect="non-scaling-stroke" d="
  M 325.00 150.29
  Q 324.55 159.39 325.15 168.55
  A 1.35 1.34 -4.8 0 1 323.94 169.98
  Q 322.54 170.12 323.00 171.54"
/>
<path stroke="#43628a" vector-effect="non-scaling-stroke" d="
  M 226.60 88.70
  Q 223.64 85.49 219.75 87.01
  A 0.47 0.47 0.0 0 0 219.55 87.74
  C 220.71 89.22 224.57 88.49 226.45 88.94
  Q 226.93 89.05 226.60 88.70"
/>
<path stroke="#43628a" vector-effect="non-scaling-stroke" d="
  M 262.76 88.71
  Q 264.52 89.05 265.48 87.56
  A 0.43 0.42 23.9 0 0 265.23 86.92
  Q 261.60 85.99 258.67 88.59
  Q 258.22 89.00 258.82 88.94
  L 261.78 88.67
  Q 262.27 88.62 262.76 88.71"
/>
<path stroke="#540c46" vector-effect="non-scaling-stroke" d="
  M 242.59 94.59
  Q 240.88 94.26 239.55 93.00
  A 1.03 0.99 -26.8 0 0 238.71 92.74
  L 238.33 92.80
  Q 237.15 92.98 238.16 93.60
  L 242.01 95.96
  A 1.08 1.06 45.5 0 0 243.11 95.98
  L 246.92 93.82
  A 0.66 0.66 0.0 0 0 246.35 92.64
  Q 244.71 93.30 243.37 94.39
  A 0.97 0.95 30.0 0 1 242.59 94.59"
/>
<path stroke="#43628a" vector-effect="non-scaling-stroke" d="
  M 236.59 94.79
  Q 234.82 92.48 232.53 93.89
  Q 231.61 94.46 232.62 94.85
  L 236.83 96.48
  A 0.72 0.72 0.0 0 0 237.80 95.81
  Q 237.80 95.21 237.33 95.18
  A 1.03 1.01 -16.8 0 1 236.59 94.79"
/>
<path stroke="#43628a" vector-effect="non-scaling-stroke" d="
  M 248.04 95.73
  A 0.50 0.50 0.0 0 0 248.63 96.48
  L 252.48 94.95
  A 0.54 0.54 0.0 0 0 252.76 94.19
  C 251.39 91.58 248.93 94.50 248.04 95.73"
/>
<path stroke="#43628a" vector-effect="non-scaling-stroke" d="
  M 243.78 98.50
  A 1.03 1.03 0.0 0 0 242.75 97.47
  A 1.03 1.03 0.0 0 0 241.72 98.50
  A 1.03 1.03 0.0 0 0 242.75 99.53
  A 1.03 1.03 0.0 0 0 243.78 98.50"
/>
<path stroke="#540c46" vector-effect="non-scaling-stroke" d="
  M 245.50 64.04
  Q 247.18 65.87 249.26 67.17
  Q 249.94 67.60 249.36 67.04
  L 246.00 63.79"
/>
<path stroke="#7e2f7e" vector-effect="non-scaling-stroke" d="
  M 246.00 63.79
  L 243.02 61.12
  A 0.63 0.62 -42.7 0 0 242.21 61.09
  Q 238.94 63.64 236.17 66.75
  Q 234.32 68.83 236.38 66.96
  L 241.87 62.02
  A 0.81 0.80 36.9 0 1 242.76 61.90
  Q 244.37 62.69 245.50 64.04"
/>
<path stroke="#b42483" vector-effect="non-scaling-stroke" d="
  M 246.00 63.79
  L 245.50 64.04"
/>
<path stroke="#458ba0" vector-effect="non-scaling-stroke" d="
  M 241.8303 85.9295
  A 4.13 3.83 100.6 0 0 246.3546 82.5745
  A 4.13 3.83 100.6 0 0 243.3497 77.8105
  A 4.13 3.83 100.6 0 0 238.8254 81.1655
  A 4.13 3.83 100.6 0 0 241.8303 85.9295"
/>
<path stroke="#34566a" vector-effect="non-scaling-stroke" d="
  M 257.5562 110.5974
  A 2.31 0.78 -26.0 0 0 255.1381 110.9089
  A 2.31 0.78 -26.0 0 0 253.4038 112.6226
  A 2.31 0.78 -26.0 0 0 255.8219 112.3111
  A 2.31 0.78 -26.0 0 0 257.5562 110.5974"
/>
<path stroke="#34566a" vector-effect="non-scaling-stroke" d="
  M 232.0766 112.8401
  A 2.18 0.76 27.9 0 0 230.5056 111.1483
  A 2.18 0.76 27.9 0 0 228.2234 110.7999
  A 2.18 0.76 27.9 0 0 229.7944 112.4917
  A 2.18 0.76 27.9 0 0 232.0766 112.8401"
/>
<path stroke="#730c9b" vector-effect="non-scaling-stroke" d="
  M 188.00 156.79
  L 183.61 156.65
  A 1.54 1.51 -27.0 0 1 182.79 156.39
  Q 181.76 155.72 180.72 156.10
  A 0.63 0.62 -13.2 0 0 180.31 156.75
  C 180.42 157.98 180.20 164.46 182.33 163.80"
/>
<path stroke="#6262df" vector-effect="non-scaling-stroke" d="
  M 221.25 163.79
  Q 221.77 164.19 222.29 163.97
  A 0.76 0.75 79.1 0 0 222.76 163.27
  L 222.73 156.82
  A 0.44 0.44 0.0 0 0 222.05 156.45
  Q 221.62 156.72 221.71 157.25"
/>
<path stroke="#730c9b" vector-effect="non-scaling-stroke" d="
  M 212.00 156.71
  Q 211.49 155.72 210.28 156.01
  A 0.79 0.78 89.5 0 0 209.68 156.63
  Q 208.94 160.22 210.77 163.68"
/>
<path stroke="#730c9b" vector-effect="non-scaling-stroke" d="
  M 308.00 156.71
  C 306.47 155.71 305.91 157.92 306.96 158.50"
/>
<path stroke="#6262df" vector-effect="non-scaling-stroke" d="
  M 317.99 163.89
  Q 320.22 161.09 319.15 156.91
  A 0.93 0.92 -7.0 0 0 318.27 156.23
  Q 317.90 156.23 317.71 156.75"
/>
</g>
<path fill="#1e1741" d="
  M 277.96 87.00
  Q 276.79 88.05 276.75 89.71
  C 273.80 91.40 272.15 93.58 269.13 94.98
  Q 260.24 99.11 251.20 103.18
  Q 254.26 99.81 259.08 97.85
  Q 259.99 97.48 260.69 96.53
  Q 260.84 96.32 260.61 96.44
  L 243.34 105.44
  A 1.05 1.03 42.6 0 1 242.46 105.47
  Q 234.48 102.04 227.30 97.17
  Q 226.76 96.80 226.17 96.85
  A 0.36 0.36 0.0 0 0 225.88 97.37
  Q 226.45 98.49 226.00 99.54
  Q 216.30 95.82 207.90 89.89
  L 205.97 82.95
  A 1.47 1.47 0.0 0 1 206.32 81.55
  Q 214.15 73.30 222.71 65.75
  Q 221.48 69.38 218.24 71.65
  A 0.04 0.03 68.9 0 0 218.23 71.69
  L 218.33 71.97
  A 0.33 0.33 0.0 0 1 218.17 72.37
  Q 214.48 74.37 212.75 78.21
  L 211.50 78.96
  Q 210.58 79.59 211.16 80.54
  A 1.45 1.44 -7.0 0 0 212.00 81.19
  Q 226.37 85.42 240.72 89.55
  C 241.65 89.82 243.15 89.86 243.93 89.65
  Q 258.01 85.80 271.92 81.39
  Q 273.49 80.90 273.75 79.85
  A 0.53 0.52 -74.0 0 0 273.41 79.22
  Q 273.22 79.15 273.00 79.21
  C 273.45 78.77 270.45 75.93 269.98 75.23
  A 0.91 0.88 72.5 0 0 269.24 74.83
  Q 268.21 74.84 267.85 73.94
  A 1.52 1.51 6.8 0 0 267.28 73.22
  C 264.93 71.63 263.69 69.03 262.02 67.44
  Q 259.01 64.56 255.79 61.89
  A 1.56 1.51 -21.9 0 0 254.93 61.54
  L 254.48 61.50
  A 0.26 0.25 -86.5 0 1 254.25 61.23
  L 254.27 60.79
  A 1.05 1.03 21.2 0 0 253.89 59.95
  Q 250.88 57.43 248.83 54.13
  Q 248.55 53.67 248.12 53.34
  L 245.01 51.02
  Q 243.79 50.11 245.21 50.51
  Q 245.75 50.66 246.44 51.31
  C 250.05 54.68 253.14 57.61 257.42 60.92
  C 263.17 65.37 267.66 70.90 272.58 75.62
  Q 275.48 78.41 278.40 81.20
  A 1.50 1.45 -73.7 0 1 278.84 82.04
  Q 279.25 84.66 277.96 87.00
  Z
  M 226.60 88.70
  Q 223.64 85.49 219.75 87.01
  A 0.47 0.47 0.0 0 0 219.55 87.74
  C 220.71 89.22 224.57 88.49 226.45 88.94
  Q 226.93 89.05 226.60 88.70
  Z
  M 262.76 88.71
  Q 264.52 89.05 265.48 87.56
  A 0.43 0.42 23.9 0 0 265.23 86.92
  Q 261.60 85.99 258.67 88.59
  Q 258.22 89.00 258.82 88.94
  L 261.78 88.67
  Q 262.27 88.62 262.76 88.71
  Z
  M 242.59 94.59
  Q 240.88 94.26 239.55 93.00
  A 1.03 0.99 -26.8 0 0 238.71 92.74
  L 238.33 92.80
  Q 237.15 92.98 238.16 93.60
  L 242.01 95.96
  A 1.08 1.06 45.5 0 0 243.11 95.98
  L 246.92 93.82
  A 0.66 0.66 0.0 0 0 246.35 92.64
  Q 244.71 93.30 243.37 94.39
  A 0.97 0.95 30.0 0 1 242.59 94.59
  Z
  M 236.59 94.79
  Q 234.82 92.48 232.53 93.89
  Q 231.61 94.46 232.62 94.85
  L 236.83 96.48
  A 0.72 0.72 0.0 0 0 237.80 95.81
  Q 237.80 95.21 237.33 95.18
  A 1.03 1.01 -16.8 0 1 236.59 94.79
  Z
  M 248.04 95.73
  A 0.50 0.50 0.0 0 0 248.63 96.48
  L 252.48 94.95
  A 0.54 0.54 0.0 0 0 252.76 94.19
  C 251.39 91.58 248.93 94.50 248.04 95.73
  Z
  M 243.78 98.50
  A 1.03 1.03 0.0 0 0 242.75 97.47
  A 1.03 1.03 0.0 0 0 241.72 98.50
  A 1.03 1.03 0.0 0 0 242.75 99.53
  A 1.03 1.03 0.0 0 0 243.78 98.50
  Z"
/>
<path fill="#161a1a" fill-opacity="0.314" d="
  M 225.25 68.29
  L 213.71 78.50
  L 212.75 78.21
  Q 214.48 74.37 218.17 72.37
  A 0.33 0.33 0.0 0 0 218.33 71.97
  L 218.23 71.69
  A 0.04 0.03 68.9 0 1 218.24 71.65
  Q 221.48 69.38 222.71 65.75
  L 236.57 52.77
  A 0.41 0.41 0.0 0 1 237.26 53.08
  L 237.24 53.44
  A 0.48 0.46 74.9 0 1 237.04 53.81
  Q 232.63 56.98 228.95 60.99
  A 0.83 0.81 -38.5 0 0 228.83 61.94
  L 229.32 62.86
  A 0.62 0.62 0.0 0 1 229.13 63.67
  Q 226.53 65.49 225.25 68.29
  Z"
/>
<path fill="#de47bb" d="
  M 273.00 79.21
  Q 273.22 79.15 273.41 79.22
  A 0.53 0.52 -74.0 0 1 273.75 79.85
  Q 273.49 80.90 271.92 81.39
  Q 258.01 85.80 243.93 89.65
  C 243.15 89.86 241.65 89.82 240.72 89.55
  Q 226.37 85.42 212.00 81.19
  A 1.45 1.44 -7.0 0 1 211.16 80.54
  Q 210.58 79.59 211.50 78.96
  L 214.00 80.21
  Q 227.16 84.32 240.43 88.10
  Q 242.95 88.81 243.77 88.55
  Q 256.82 84.43 270.15 80.75
  A 0.64 0.64 0.0 0 0 270.43 79.68
  C 266.44 75.73 261.35 71.89 257.69 68.60
  Q 250.43 62.08 243.00 55.77
  A 0.55 0.55 0.0 0 0 242.29 55.77
  L 214.50 79.54
  L 214.03 79.49
  A 0.45 0.44 -82.1 0 1 213.64 78.97
  L 213.71 78.50
  L 225.25 68.29
  L 241.86 53.24
  A 1.13 1.12 -43.0 0 1 243.44 53.29
  C 250.81 61.02 258.81 67.80 266.69 75.01
  Q 269.30 77.39 272.24 79.37
  A 0.45 0.45 0.0 0 0 272.75 79.38
  L 273.00 79.21
  Z"
/>
<path fill="#1e1741" d="
  M 214.00 80.21
  L 214.50 79.54
  L 242.29 55.77
  A 0.55 0.55 0.0 0 1 243.00 55.77
  Q 250.43 62.08 257.69 68.60
  C 261.35 71.89 266.44 75.73 270.43 79.68
  A 0.64 0.64 0.0 0 1 270.15 80.75
  Q 256.82 84.43 243.77 88.55
  Q 242.95 88.81 240.43 88.10
  Q 227.16 84.32 214.00 80.21
  Z
  M 245.50 64.04
  Q 247.18 65.87 249.26 67.17
  Q 249.94 67.60 249.36 67.04
  L 246.00 63.79
  L 243.02 61.12
  A 0.63 0.62 -42.7 0 0 242.21 61.09
  Q 238.94 63.64 236.17 66.75
  Q 234.32 68.83 236.38 66.96
  L 241.87 62.02
  A 0.81 0.80 36.9 0 1 242.76 61.90
  Q 244.37 62.69 245.50 64.04
  Z
  M 241.8303 85.9295
  A 4.13 3.83 100.6 0 0 246.3546 82.5745
  A 4.13 3.83 100.6 0 0 243.3497 77.8105
  A 4.13 3.83 100.6 0 0 238.8254 81.1655
  A 4.13 3.83 100.6 0 0 241.8303 85.9295
  Z"
/>
<path fill="#de47bb" d="
  M 246.00 63.79
  L 245.50 64.04
  Q 244.37 62.69 242.76 61.90
  A 0.81 0.80 36.9 0 0 241.87 62.02
  L 236.38 66.96
  Q 234.32 68.83 236.17 66.75
  Q 238.94 63.64 242.21 61.09
  A 0.63 0.62 -42.7 0 1 243.02 61.12
  L 246.00 63.79
  Z"
/>
<path fill="#89004b" d="
  M 246.00 63.79
  L 249.36 67.04
  Q 249.94 67.60 249.26 67.17
  Q 247.18 65.87 245.50 64.04
  L 246.00 63.79
  Z"
/>
<ellipse fill="#89004b" cx="0.00" cy="0.00" transform="translate(272.31,69.16) rotate(48.3)" rx="6.79" ry="0.92"/>
<ellipse fill="#694852" fill-opacity="0.557" cx="0.00" cy="0.00" transform="translate(213.42,68.62) rotate(130.3)" rx="5.90" ry="0.94"/>
<ellipse fill="#6bfeff" cx="0.00" cy="0.00" transform="translate(242.59,81.87) rotate(100.6)" rx="4.13" ry="3.83"/>
<path fill="#89004b" d="
  M 212.75 78.21
  L 213.71 78.50
  L 213.64 78.97
  A 0.45 0.44 -82.1 0 0 214.03 79.49
  L 214.50 79.54
  L 214.00 80.21
  L 211.50 78.96
  L 212.75 78.21
  Z"
/>
<path fill="#67acd3" d="
  M 226.60 88.70
  Q 226.93 89.05 226.45 88.94
  C 224.57 88.49 220.71 89.22 219.55 87.74
  A 0.47 0.47 0.0 0 1 219.75 87.01
  Q 223.64 85.49 226.60 88.70
  Z"
/>
<path fill="#67acd3" d="
  M 261.78 88.67
  L 258.82 88.94
  Q 258.22 89.00 258.67 88.59
  Q 261.60 85.99 265.23 86.92
  A 0.43 0.42 23.9 0 1 265.48 87.56
  Q 264.52 89.05 262.76 88.71
  Q 262.27 88.62 261.78 88.67
  Z"
/>
<path fill="#89004b" d="
  M 277.96 87.00
  L 277.46 89.75
  L 276.75 89.71
  Q 276.79 88.05 277.96 87.00
  Z"
/>
<path fill="#fdfcfd" d="
  M 276.75 89.71
  L 277.46 89.75
  L 277.54 90.25
  C 270.86 96.60 260.14 100.76 251.98 105.20
  C 247.68 107.54 245.88 110.29 244.28 114.62
  Q 243.93 110.13 245.75 106.29
  L 251.20 103.18
  Q 260.24 99.11 269.13 94.98
  C 272.15 93.58 273.80 91.40 276.75 89.71
  Z"
/>
<path fill="#fdfcfd" d="
  M 207.90 89.89
  Q 216.30 95.82 226.00 99.54
  L 239.71 106.75
  Q 241.08 109.64 240.74 113.13
  C 235.87 104.78 224.88 100.23 216.48 96.29
  C 213.36 94.83 210.56 92.56 207.25 91.04
  Q 207.63 90.69 207.90 89.89
  Z"
/>
<path fill="#de47bb" d="
  M 277.54 90.25
  Q 286.13 91.21 295.14 90.48
  A 0.36 0.36 0.0 0 1 295.31 91.16
  Q 289.14 93.85 282.25 95.74
  Q 272.32 98.46 258.71 105.75
  L 258.25 107.21
  L 258.00 107.21
  Q 258.06 106.97 258.04 106.77
  A 0.53 0.53 0.0 0 0 257.46 106.28
  Q 253.36 106.65 251.88 110.45
  Q 249.97 111.85 250.50 114.71
  Q 248.24 117.03 248.45 120.27
  A 1.43 1.42 59.4 0 1 248.22 121.17
  Q 246.04 124.62 245.79 128.75
  L 245.54 130.00
  L 245.09 130.57
  Q 244.81 130.91 244.70 131.33
  L 243.28 136.49
  A 0.80 0.80 0.0 0 1 241.71 136.34
  Q 241.42 132.37 239.00 129.46
  L 238.96 128.75
  Q 239.25 124.81 237.27 121.44
  A 1.07 1.05 -10.1 0 0 236.52 120.93
  Q 232.35 120.29 228.96 117.75
  L 229.25 117.46
  Q 232.43 119.12 235.95 119.62
  A 0.54 0.52 -80.6 0 0 236.55 119.18
  Q 236.93 117.03 235.21 115.50
  Q 234.93 113.14 233.50 111.29
  Q 233.78 108.96 231.81 107.88
  Q 220.56 101.71 206.19 96.82
  A 0.84 0.82 26.9 0 0 205.26 97.11
  Q 201.90 101.73 206.09 105.88
  A 0.56 0.55 -42.6 0 0 206.84 105.91
  Q 207.83 105.08 209.25 106.21
  Q 207.79 105.92 207.43 106.83
  A 1.12 1.10 -48.5 0 0 207.48 107.76
  Q 210.65 113.66 215.54 118.25
  L 215.63 118.97
  A 0.35 0.35 0.0 0 1 215.22 119.36
  L 214.75 119.29
  Q 206.77 111.66 202.38 101.56
  C 201.73 100.08 202.16 99.06 203.39 98.19
  A 0.92 0.90 71.0 0 0 203.77 97.39
  C 203.64 95.68 192.32 92.21 190.20 91.39
  A 0.29 0.29 0.0 0 1 190.30 90.83
  L 207.25 91.04
  C 210.56 92.56 213.36 94.83 216.48 96.29
  C 224.88 100.23 235.87 104.78 240.74 113.13
  Q 242.38 117.91 241.71 123.13
  A 0.36 0.36 0.0 0 0 242.08 123.53
  C 243.29 123.47 243.03 116.08 244.28 114.62
  C 245.88 110.29 247.68 107.54 251.98 105.20
  C 260.14 100.76 270.86 96.60 277.54 90.25
  Z"
/>
<path fill="#89004b" d="
  M 243.37 94.39
  Q 244.71 93.30 246.35 92.64
  A 0.66 0.66 0.0 0 1 246.92 93.82
  L 243.11 95.98
  A 1.08 1.06 45.5 0 1 242.01 95.96
  L 238.16 93.60
  Q 237.15 92.98 238.33 92.80
  L 238.71 92.74
  A 1.03 0.99 -26.8 0 1 239.55 93.00
  Q 240.88 94.26 242.59 94.59
  A 0.97 0.95 30.0 0 0 243.37 94.39
  Z"
/>
<path fill="#67acd3" d="
  M 237.33 95.18
  Q 237.80 95.21 237.80 95.81
  A 0.72 0.72 0.0 0 1 236.83 96.48
  L 232.62 94.85
  Q 231.61 94.46 232.53 93.89
  Q 234.82 92.48 236.59 94.79
  A 1.03 1.01 -16.8 0 0 237.33 95.18
  Z"
/>
<path fill="#67acd3" d="
  M 248.04 95.73
  C 248.93 94.50 251.39 91.58 252.76 94.19
  A 0.54 0.54 0.0 0 1 252.48 94.95
  L 248.63 96.48
  A 0.50 0.50 0.0 0 1 248.04 95.73
  Z"
/>
<path fill="#67acd3" d="
  M 251.20 103.18
  L 245.75 106.29
  L 243.13 107.46
  A 1.26 1.25 -48.9 0 1 242.29 107.52
  L 239.71 106.75
  L 226.00 99.54
  Q 226.45 98.49 225.88 97.37
  A 0.36 0.36 0.0 0 1 226.17 96.85
  Q 226.76 96.80 227.30 97.17
  Q 234.48 102.04 242.46 105.47
  A 1.05 1.03 42.6 0 0 243.34 105.44
  L 260.61 96.44
  Q 260.84 96.32 260.69 96.53
  Q 259.99 97.48 259.08 97.85
  Q 254.26 99.81 251.20 103.18
  Z"
/>
<path fill="#fdfcfd" d="
  M 233.50 111.29
  Q 230.12 107.58 225.23 107.49
  L 220.36 105.73
  Q 219.90 105.56 219.42 105.64
  Q 218.27 105.83 217.25 106.46
  L 213.25 107.04
  L 210.54 106.75
  L 209.25 106.21
  Q 207.83 105.08 206.84 105.91
  A 0.56 0.55 -42.6 0 1 206.09 105.88
  Q 201.90 101.73 205.26 97.11
  A 0.84 0.82 26.9 0 1 206.19 96.82
  Q 220.56 101.71 231.81 107.88
  Q 233.78 108.96 233.50 111.29
  Z"
/>
<circle fill="#67acd3" cx="242.75" cy="98.50" r="1.03"/>
<path fill="#694852" fill-opacity="0.557" d="
  M 245.54 130.00
  L 245.79 128.75
  L 246.10 128.98
  A 1.06 1.05 59.5 0 0 246.91 129.19
  C 263.15 126.58 274.78 116.30 280.56 100.94
  C 280.86 100.15 281.83 99.19 282.56 99.17
  A 0.91 0.91 0.0 0 1 283.44 100.40
  C 277.11 117.33 263.40 127.93 245.54 130.00
  Z"
/>
<path fill="#694852" fill-opacity="0.557" d="
  M 266.00 106.54
  Q 263.65 108.70 261.15 107.25
  A 1.61 1.58 -31.9 0 0 260.22 107.04
  L 258.25 107.21
  L 258.71 105.75
  L 258.75 106.24
  A 0.57 0.56 0.6 0 0 259.27 106.76
  Q 262.75 107.04 265.53 104.86
  A 0.56 0.56 0.0 0 1 266.44 105.34
  Q 266.40 106.06 266.00 106.54
  Z"
/>
<path fill="#89004b" d="
  M 225.23 107.49
  Q 225.73 108.99 225.50 109.79
  L 224.51 108.57
  A 1.57 1.56 -12.1 0 0 223.70 108.05
  L 217.25 106.46
  Q 218.27 105.83 219.42 105.64
  Q 219.90 105.56 220.36 105.73
  L 225.23 107.49
  Z"
/>
<path fill="#1e1741" d="
  M 245.75 106.29
  Q 243.93 110.13 244.28 114.62
  C 243.03 116.08 243.29 123.47 242.08 123.53
  A 0.36 0.36 0.0 0 1 241.71 123.13
  Q 242.38 117.91 240.74 113.13
  Q 241.08 109.64 239.71 106.75
  L 242.29 107.52
  A 1.26 1.25 -48.9 0 0 243.13 107.46
  L 245.75 106.29
  Z"
/>
<path fill="#fdfcfd" d="
  M 258.00 107.21
  L 251.88 110.45
  Q 253.36 106.65 257.46 106.28
  A 0.53 0.53 0.0 0 1 258.04 106.77
  Q 258.06 106.97 258.00 107.21
  Z"
/>
<path fill="#000001" d="
  M 266.00 106.54
  Q 265.72 108.32 264.17 108.87
  A 1.42 1.40 -85.2 0 0 263.40 109.53
  Q 261.74 112.60 258.49 112.74
  A 1.49 1.45 -65.5 0 0 257.60 113.09
  L 254.48 115.74
  A 1.20 1.16 29.1 0 1 253.50 116.00
  Q 251.90 115.69 250.50 114.71
  Q 249.97 111.85 251.88 110.45
  L 258.00 107.21
  L 258.25 107.21
  L 260.22 107.04
  A 1.61 1.58 -31.9 0 1 261.15 107.25
  Q 263.65 108.70 266.00 106.54
  Z
  M 257.5562 110.5974
  A 2.31 0.78 -26.0 0 0 255.1381 110.9089
  A 2.31 0.78 -26.0 0 0 253.4038 112.6226
  A 2.31 0.78 -26.0 0 0 255.8219 112.3111
  A 2.31 0.78 -26.0 0 0 257.5562 110.5974
  Z"
/>
<path fill="#de47bb" d="
  M 210.54 106.75
  L 213.25 107.04
  Q 212.58 109.24 214.42 110.48
  A 0.33 0.33 0.0 0 1 214.55 110.86
  L 214.46 111.13
  A 0.21 0.21 0.0 0 1 214.14 111.23
  Q 211.87 109.46 210.54 106.75
  Z"
/>
<path fill="#000001" d="
  M 233.50 111.29
  Q 234.93 113.14 235.21 115.50
  Q 228.30 115.91 225.50 109.79
  Q 225.73 108.99 225.23 107.49
  Q 230.12 107.58 233.50 111.29
  Z
  M 232.0766 112.8401
  A 2.18 0.76 27.9 0 0 230.5056 111.1483
  A 2.18 0.76 27.9 0 0 228.2234 110.7999
  A 2.18 0.76 27.9 0 0 229.7944 112.4917
  A 2.18 0.76 27.9 0 0 232.0766 112.8401
  Z"
/>
<path fill="#161a1a" fill-opacity="0.314" d="
  M 272.72 107.61
  A 0.46 0.46 0.0 0 1 273.49 107.78
  C 273.90 109.06 272.74 111.02 271.13 110.35
  A 0.54 0.54 0.0 0 1 270.94 109.48
  L 272.72 107.61
  Z"
/>
<ellipse fill="#67acd3" cx="0.00" cy="0.00" transform="translate(255.48,111.61) rotate(-26.0)" rx="2.31" ry="0.78"/>
<ellipse fill="#67acd3" cx="0.00" cy="0.00" transform="translate(230.15,111.82) rotate(27.9)" rx="2.18" ry="0.76"/>
<path fill="#000001" d="
  M 229.25 117.46
  L 228.96 117.75
  Q 228.01 117.67 227.55 117.01
  Q 227.19 116.51 227.75 116.77
  L 229.25 117.46
  Z"
/>
<path fill="#89004b" d="
  M 215.54 118.25
  C 221.13 123.49 231.15 129.39 238.96 128.75
  L 239.00 129.46
  C 232.44 131.41 219.47 123.61 214.75 119.29
  L 215.22 119.36
  A 0.35 0.35 0.0 0 0 215.63 118.97
  L 215.54 118.25
  Z"
/>
<path fill="#161a1a" fill-opacity="0.314" d="
  M 251.75 120.21
  L 251.72 119.89
  A 0.42 0.41 -88.3 0 0 251.37 119.51
  L 251.00 119.46
  Q 252.04 118.89 253.20 118.82
  Q 253.78 118.78 253.47 119.28
  Q 252.96 120.08 251.75 120.21
  Z"
/>
<path fill="#000001" d="
  M 251.00 119.46
  L 251.37 119.51
  A 0.42 0.41 -88.3 0 1 251.72 119.89
  L 251.75 120.21
  Q 250.84 120.80 249.79 120.74
  A 0.35 0.34 17.1 0 1 249.51 120.22
  Q 249.94 119.51 251.00 119.46
  Z"
/>
<path fill="#5d17eb" d="
  M 200.59 150.45
  L 200.32 168.53
  A 2.10 2.10 0.0 0 1 197.97 170.58
  Q 189.74 169.58 181.50 170.26
  A 0.84 0.83 4.2 0 0 180.75 170.90
  L 180.12 173.39
  A 1.99 1.99 0.0 0 1 177.86 174.86
  L 174.29 174.25
  L 174.25 174.04
  C 175.10 173.69 174.74 153.60 174.74 151.21
  A 0.21 0.21 0.0 0 0 174.52 151.00
  L 174.14 151.02
  A 0.39 0.38 -89.2 0 0 173.77 151.39
  L 173.71 152.75
  Q 173.22 151.44 173.65 149.93
  A 0.68 0.68 0.0 0 1 174.29 149.44
  Q 187.48 149.27 200.59 150.45
  Z
  M 182.33 163.80
  Q 187.29 164.37 192.39 163.69
  A 0.73 0.72 -4.5 0 0 193.02 162.96
  L 192.94 157.51
  A 0.61 0.61 0.0 0 0 192.34 156.91
  L 188.00 156.79
  L 183.61 156.65
  A 1.54 1.51 -27.0 0 1 182.79 156.39
  Q 181.76 155.72 180.72 156.10
  A 0.63 0.62 -13.2 0 0 180.31 156.75
  C 180.42 157.98 180.20 164.46 182.33 163.80
  Z"
/>
<path fill="#5d17eb" d="
  M 238.75 150.29
  Q 238.08 152.18 238.90 153.87
  A 0.46 0.45 -18.1 0 0 239.40 154.12
  L 239.75 154.04
  C 240.20 155.88 248.36 160.84 250.32 162.25
  A 0.55 0.55 0.0 0 0 251.19 161.78
  L 250.62 150.51
  A 0.59 0.59 0.0 0 1 251.15 149.89
  C 254.45 149.50 259.19 148.90 258.79 154.00
  Q 257.60 162.14 258.96 170.25
  L 258.99 175.05
  A 0.69 0.68 81.4 0 1 258.51 175.71
  C 254.86 176.84 250.79 175.80 251.07 171.15
  A 0.89 0.88 -71.7 0 0 250.68 170.36
  L 240.04 163.25
  Q 239.89 162.31 238.92 162.45
  A 0.69 0.69 0.0 0 0 238.32 163.13
  L 238.17 173.50
  A 0.85 0.83 80.3 0 1 237.64 174.27
  Q 235.43 175.10 232.36 174.32
  L 231.63 150.93
  A 1.36 1.36 0.0 0 1 232.91 149.53
  Q 235.75 149.36 238.75 150.29
  Z"
/>
<path fill="#5d17eb" d="
  M 279.75 157.04
  L 278.05 156.79
  A 0.49 0.48 4.2 0 0 277.50 157.26
  L 277.49 158.77
  A 0.38 0.38 0.0 0 0 278.06 159.10
  L 278.75 158.71
  Q 286.87 159.19 294.99 159.20
  C 297.85 159.20 297.91 163.95 297.50 165.83
  A 0.64 0.63 -83.8 0 1 296.88 166.33
  C 290.97 166.30 284.49 165.53 278.75 166.49
  A 0.65 0.64 -12.3 0 0 278.23 167.29
  L 278.54 168.49
  A 0.68 0.68 0.0 0 0 279.20 169.00
  L 295.58 169.00
  A 1.90 1.89 87.3 0 1 297.46 170.72
  L 297.83 174.81
  A 1.09 1.08 87.3 0 1 296.76 175.99
  C 292.17 176.01 274.09 177.12 271.27 174.81
  L 270.79 160.00
  C 270.85 156.79 271.46 152.89 269.71 150.07
  L 295.63 149.76
  A 1.77 1.77 0.0 0 1 297.41 151.32
  L 297.92 155.51
  A 1.31 1.31 0.0 0 1 296.63 156.98
  L 279.75 157.04
  Z"
/>
<path fill="#5d17eb" d="
  M 228.70 150.07
  L 228.45 172.96
  A 1.04 1.02 72.2 0 1 228.05 173.76
  Q 226.13 175.28 223.50 175.04
  C 221.48 173.75 222.35 170.47 220.25 170.54
  C 215.80 169.87 209.21 168.19 208.71 173.62
  A 0.86 0.85 -8.9 0 1 208.19 174.32
  L 205.25 175.54
  C 201.38 174.01 203.29 168.70 203.27 165.81
  Q 203.24 158.03 202.55 150.29
  A 0.49 0.48 87.9 0 1 203.04 149.76
  L 228.70 150.07
  Z
  M 210.77 163.68
  Q 216.25 164.40 221.25 163.79
  Q 221.77 164.19 222.29 163.97
  A 0.76 0.75 79.1 0 0 222.76 163.27
  L 222.73 156.82
  A 0.44 0.44 0.0 0 0 222.05 156.45
  Q 221.62 156.72 221.71 157.25
  C 221.48 155.93 213.38 156.67 212.00 156.71
  Q 211.49 155.72 210.28 156.01
  A 0.79 0.78 89.5 0 0 209.68 156.63
  Q 208.94 160.22 210.77 163.68
  Z"
/>
<path fill="#5d17eb" d="
  M 262.00 157.46
  L 266.05 157.73
  A 0.43 0.43 0.0 0 0 266.50 157.27
  C 266.41 156.26 262.98 156.01 262.25 156.04
  Q 261.52 154.96 260.42 154.46
  A 1.12 1.11 -84.0 0 1 259.80 153.69
  Q 259.36 151.68 260.48 150.08
  A 1.09 1.09 0.0 0 1 261.46 149.62
  L 266.96 150.09
  A 1.68 1.68 0.0 0 1 268.50 151.85
  C 268.13 159.54 268.41 166.60 269.06 174.28
  A 1.39 1.36 78.6 0 1 268.14 175.69
  C 262.33 177.65 261.08 174.28 261.01 169.38
  Q 260.93 164.13 260.70 158.93
  A 1.22 1.21 -25.0 0 1 261.02 158.06
  Q 261.43 157.61 262.00 157.46
  Z"
/>
<path fill="#5d17eb" d="
  M 325.00 150.29
  Q 324.55 159.39 325.15 168.55
  A 1.35 1.34 -4.8 0 1 323.94 169.98
  Q 322.54 170.12 323.00 171.54
  Q 323.22 173.59 325.46 174.82
  A 0.61 0.61 0.0 0 1 325.18 175.97
  C 319.24 176.10 317.78 175.70 313.80 171.37
  A 1.13 1.11 -21.5 0 0 312.95 171.01
  L 307.95 171.15
  A 0.88 0.88 0.0 0 0 307.09 172.05
  L 307.16 175.19
  A 0.62 0.62 0.0 0 1 306.55 175.82
  L 301.64 175.91
  A 0.89 0.88 76.2 0 1 300.83 175.41
  C 298.74 171.13 299.49 167.93 299.38 163.59
  Q 299.24 157.93 298.92 151.03
  A 1.21 1.21 0.0 0 1 300.13 149.76
  Q 311.54 149.74 323.49 149.95
  Q 324.27 149.97 325.00 150.29
  Z
  M 317.71 156.75
  L 308.00 156.71
  C 306.47 155.71 305.91 157.92 306.96 158.50
  L 307.34 163.30
  A 0.60 0.59 87.3 0 0 307.93 163.85
  L 317.99 163.89
  Q 320.22 161.09 319.15 156.91
  A 0.93 0.92 -7.0 0 0 318.27 156.23
  Q 317.90 156.23 317.71 156.75
  Z"
/>
<path fill="#89004b" d="
  M 228.70 150.07
  L 229.51 151.10
  A 1.71 1.67 23.4 0 1 229.87 151.98
  Q 230.56 159.09 230.42 171.75
  Q 230.39 174.02 229.95 175.24
  A 0.97 0.96 2.2 0 1 229.28 175.85
  Q 226.15 176.69 223.50 175.04
  Q 226.13 175.28 228.05 173.76
  A 1.04 1.02 72.2 0 0 228.45 172.96
  L 228.70 150.07
  Z"
/>
<path fill="#89004b" d="
  M 238.75 150.29
  Q 240.71 151.68 239.75 154.04
  L 239.40 154.12
  A 0.46 0.45 -18.1 0 1 238.90 153.87
  Q 238.08 152.18 238.75 150.29
  Z"
/>
<path fill="#89004b" d="
  M 325.00 150.29
  Q 325.68 150.44 326.17 150.96
  A 1.21 1.21 0.0 0 1 326.50 151.79
  L 326.50 170.06
  A 0.77 0.77 0.0 0 1 325.92 170.81
  L 323.00 171.54
  Q 322.54 170.12 323.94 169.98
  A 1.35 1.34 -4.8 0 0 325.15 168.55
  Q 324.55 159.39 325.00 150.29
  Z"
/>
<path fill="#67acd3" d="
  M 269.71 150.07
  C 271.46 152.89 270.85 156.79 270.79 160.00
  L 270.74 168.69
  A 0.32 0.31 -89.0 0 1 270.43 169.00
  L 270.17 169.00
  A 0.39 0.39 0.0 0 1 269.77 168.63
  L 269.54 164.25
  L 269.71 150.07
  Z"
/>
<path fill="#67acd3" d="
  M 174.25 174.04
  C 172.68 170.76 173.72 157.13 173.71 152.75
  L 173.77 151.39
  A 0.39 0.38 -89.2 0 1 174.14 151.02
  L 174.52 151.00
  A 0.21 0.21 0.0 0 1 174.74 151.21
  C 174.74 153.60 175.10 173.69 174.25 174.04
  Z"
/>
<path fill="#89004b" d="
  M 200.59 150.45
  C 202.42 156.23 201.53 164.38 201.42 170.47
  A 0.72 0.72 0.0 0 1 200.70 171.18
  L 183.84 171.03
  A 1.72 1.71 -87.9 0 0 182.12 172.63
  L 181.96 175.19
  A 0.75 0.75 0.0 0 1 181.39 175.86
  Q 177.29 176.88 174.29 174.25
  L 177.86 174.86
  A 1.99 1.99 0.0 0 0 180.12 173.39
  L 180.75 170.90
  A 0.84 0.83 4.2 0 1 181.50 170.26
  Q 189.74 169.58 197.97 170.58
  A 2.10 2.10 0.0 0 0 200.32 168.53
  L 200.59 150.45
  Z"
/>
<path fill="#89004b" d="
  M 258.79 154.00
  Q 259.71 162.12 258.96 170.25
  Q 257.60 162.14 258.79 154.00
  Z"
/>
<path fill="#89004b" d="
  M 188.00 156.79
  L 183.18 157.15
  A 0.74 0.72 -84.1 0 0 182.54 157.68
  Q 181.74 160.59 182.33 163.80
  C 180.20 164.46 180.42 157.98 180.31 156.75
  A 0.63 0.62 -13.2 0 1 180.72 156.10
  Q 181.76 155.72 182.79 156.39
  A 1.54 1.51 -27.0 0 0 183.61 156.65
  L 188.00 156.79
  Z"
/>
<path fill="#89004b" d="
  M 212.00 156.71
  L 211.42 157.39
  A 1.51 1.48 -23.7 0 0 211.07 158.26
  L 210.77 163.68
  Q 208.94 160.22 209.68 156.63
  A 0.79 0.78 89.5 0 1 210.28 156.01
  Q 211.49 155.72 212.00 156.71
  Z"
/>
<path fill="#89004b" d="
  M 262.25 156.04
  C 262.98 156.01 266.41 156.26 266.50 157.27
  A 0.43 0.43 0.0 0 1 266.05 157.73
  L 262.00 157.46
  Q 262.93 156.99 262.25 156.04
  Z"
/>
<path fill="#67acd3" d="
  M 317.99 163.89
  L 317.71 156.75
  Q 317.90 156.23 318.27 156.23
  A 0.93 0.92 -7.0 0 1 319.15 156.91
  Q 320.22 161.09 317.99 163.89
  Z"
/>
<path fill="#67acd3" d="
  M 221.25 163.79
  Q 222.15 160.59 221.71 157.25
  Q 221.62 156.72 222.05 156.45
  A 0.44 0.44 0.0 0 1 222.73 156.82
  L 222.76 163.27
  A 0.76 0.75 79.1 0 1 222.29 163.97
  Q 221.77 164.19 221.25 163.79
  Z"
/>
<path fill="#89004b" d="
  M 308.00 156.71
  L 306.96 158.50
  C 305.91 157.92 306.47 155.71 308.00 156.71
  Z"
/>
<path fill="#89004b" d="
  M 279.75 157.04
  Q 278.65 157.50 278.75 158.71
  L 278.06 159.10
  A 0.38 0.38 0.0 0 1 277.49 158.77
  L 277.50 157.26
  A 0.49 0.48 4.2 0 1 278.05 156.79
  L 279.75 157.04
  Z"
/>
<path fill="#89004b" d="
  M 270.79 160.00
  L 271.27 174.81
  Q 268.81 169.87 269.54 164.25
  L 269.77 168.63
  A 0.39 0.39 0.0 0 0 270.17 169.00
  L 270.43 169.00
  A 0.32 0.31 -89.0 0 0 270.74 168.69
  L 270.79 160.00
  Z"
/>
<path fill="#89004b" d="
  M 240.04 163.25
  L 239.94 174.95
  A 0.75 0.74 78.8 0 1 239.48 175.64
  Q 235.89 177.11 232.36 174.32
  Q 235.43 175.10 237.64 174.27
  A 0.85 0.83 80.3 0 0 238.17 173.50
  L 238.32 163.13
  A 0.69 0.69 0.0 0 1 238.92 162.45
  Q 239.89 162.31 240.04 163.25
  Z"
/>
<path fill="#89004b" d="
  M 220.25 170.54
  Q 217.10 171.43 213.25 171.02
  C 209.74 170.66 211.50 173.66 210.82 175.37
  A 0.92 0.92 0.0 0 1 210.13 175.93
  Q 207.61 176.37 205.25 175.54
  L 208.19 174.32
  A 0.86 0.85 -8.9 0 0 208.71 173.62
  C 209.21 168.19 215.80 169.87 220.25 170.54
  Z"
/>
</svg>
