<?xml version="1.0" encoding="UTF-8" standalone="no"?>
<!DOCTYPE svg PUBLIC "-//W3C//DTD SVG 1.1//EN" "http://www.w3.org/Graphics/SVG/1.1/DTD/svg11.dtd">
<svg xmlns="http://www.w3.org/2000/svg" version="1.1" viewBox="0 0 500 200">
<g stroke-width="2.00" fill="none" stroke-linecap="butt">
<path stroke="#241f3e" stroke-opacity="0.671" vector-effect="non-scaling-stroke" d="
  M 271.77 74.26
  Q 269.96 76.46 272.75 78.21"
/>
<path stroke="#b6409e" stroke-opacity="0.671" vector-effect="non-scaling-stroke" d="
  M 272.75 78.21
  C 271.90 78.30 271.29 78.41 270.55 77.90
  Q 260.82 71.16 254.78 61.02"
/>
<path stroke="#c0b3c2" stroke-opacity="0.671" vector-effect="non-scaling-stroke" d="
  M 254.78 61.02
  Q 249.87 55.04 242.94 51.71
  A 1.02 0.99 -44.3 0 0 242.05 51.71
  Q 236.01 54.64 233.11 61.00"
/>
<path stroke="#b6409e" stroke-opacity="0.671" vector-effect="non-scaling-stroke" d="
  M 233.11 61.00
  L 225.21 69.50"
/>
<path stroke="#870e67" stroke-opacity="0.671" vector-effect="non-scaling-stroke" d="
  M 225.21 69.50
  Q 220.50 74.29 214.94 78.04
  A 1.98 1.98 0.0 0 0 214.27 78.82
  L 213.97 79.48
  A 0.99 0.98 -81.0 0 1 213.21 80.04
  Q 212.12 80.18 211.50 79.21"
/>
<path stroke="#241f3e" stroke-opacity="0.671" vector-effect="non-scaling-stroke" d="
  M 211.50 79.21
  Q 211.38 78.84 211.58 78.62
  A 0.26 0.16 -40.5 0 1 211.94 78.56
  L 212.06 78.91
  A 0.49 0.49 0.0 0 0 212.67 79.22
  L 212.91 79.14
  A 0.31 0.31 0.0 0 0 213.07 78.65
  L 212.65 78.05
  A 0.29 0.28 -27.8 0 1 212.79 77.61
  C 214.52 77.06 214.42 75.66 215.31 74.72
  Q 216.83 73.11 219.94 70.57
  A 0.52 0.52 0.0 0 0 220.06 69.90
  L 219.82 69.50
  A 0.50 0.50 0.0 0 0 219.04 69.39
  L 216.54 71.75"
/>
<path stroke="#600d5c" vector-effect="non-scaling-stroke" d="
  M 211.50 79.21
  L 211.29 80.25"
/>
<path stroke="#802e81" vector-effect="non-scaling-stroke" d="
  M 276.19 91.00
  Q 271.02 94.79 265.09 97.09"
/>
<path stroke="#241f3e" stroke-opacity="0.671" vector-effect="non-scaling-stroke" d="
  M 265.09 97.09
  C 263.49 97.78 262.04 98.05 260.56 99.06
  Q 257.72 100.99 254.25 101.46"
/>
<path stroke="#478ca0" vector-effect="non-scaling-stroke" d="
  M 254.25 101.46
  L 256.85 99.37
  A 1.62 1.59 -67.2 0 1 257.69 99.02
  Q 258.67 98.91 259.35 98.31
  A 0.46 0.46 0.0 0 0 259.24 97.55
  Q 258.74 97.32 258.20 97.71
  Q 251.21 102.77 243.04 105.70
  A 1.18 1.18 0.0 0 1 242.12 105.65
  L 237.39 103.26
  A 0.18 0.18 0.0 0 0 237.18 103.30
  L 236.99 103.51
  A 0.35 0.34 -49.8 0 0 237.03 104.02
  C 238.95 105.56 241.37 108.49 244.09 107.41"
/>
<path stroke="#241f3e" stroke-opacity="0.671" vector-effect="non-scaling-stroke" d="
  M 244.09 107.41
  L 244.71 111.00"
/>
<path stroke="#802e81" vector-effect="non-scaling-stroke" d="
  M 244.71 111.00
  L 243.71 117.50"
/>
<path stroke="#802e81" vector-effect="non-scaling-stroke" d="
  M 242.04 117.50
  L 241.21 113.75"
/>
<path stroke="#867b99" vector-effect="non-scaling-stroke" d="
  M 241.21 113.75
  Q 241.28 110.22 239.78 107.13
  A 1.47 1.47 0.0 0 0 239.13 106.45
  L 226.25 99.79"
/>
<path stroke="#241f3e" stroke-opacity="0.671" vector-effect="non-scaling-stroke" d="
  M 226.25 99.79
  L 224.79 99.75"
/>
<path stroke="#802e81" vector-effect="non-scaling-stroke" d="
  M 224.79 99.75
  L 224.75 99.48
  A 0.30 0.28 10.1 0 0 224.59 99.26
  L 209.08 91.19"
/>
<path stroke="#802e81" vector-effect="non-scaling-stroke" d="
  M 272.75 78.21
  L 274.19 79.44
  Q 275.74 80.78 273.77 81.35
  L 243.66 90.06
  A 2.66 2.64 -45.2 0 1 242.18 90.07
  Q 229.65 86.64 217.30 82.82
  C 215.23 82.18 213.08 82.38 211.29 80.25"
/>
<path stroke="#c3239d" stroke-opacity="0.996" vector-effect="non-scaling-stroke" d="
  M 211.29 80.25
  L 214.46 80.50"
/>
<path stroke="#802e81" vector-effect="non-scaling-stroke" d="
  M 214.46 80.50
  L 242.00 88.76
  A 1.93 1.82 44.5 0 0 242.97 88.78
  Q 253.29 86.17 263.38 82.78
  C 265.38 82.11 268.44 81.91 270.83 80.52
  A 0.40 0.40 0.0 0 0 270.89 79.87
  L 243.24 56.08
  A 0.56 0.56 0.0 0 0 242.51 56.07
  L 225.75 70.04"
/>
<path stroke="#c3239d" stroke-opacity="0.996" vector-effect="non-scaling-stroke" d="
  M 225.75 70.04
  L 225.21 69.50"
/>
<path stroke="#e991da" stroke-opacity="0.996" vector-effect="non-scaling-stroke" d="
  M 254.78 61.02
  Q 255.01 62.15 254.24 62.72
  A 0.69 0.69 0.0 0 1 253.36 62.67
  L 244.44 54.47
  Q 242.93 53.08 241.48 54.53
  Q 237.94 58.07 233.11 61.00"
/>
<path stroke="#b6409e" stroke-opacity="0.671" vector-effect="non-scaling-stroke" d="
  M 224.79 99.75
  Q 225.17 100.90 226.25 101.54"
/>
<path stroke="#e991da" stroke-opacity="0.996" vector-effect="non-scaling-stroke" d="
  M 226.25 101.54
  Q 227.76 102.81 229.72 102.82
  A 1.31 1.30 -23.9 0 1 230.59 103.15
  C 233.19 105.45 236.35 107.08 238.39 109.77
  Q 239.86 111.72 241.21 113.75"
/>
<path stroke="#b6409e" stroke-opacity="0.671" vector-effect="non-scaling-stroke" d="
  M 244.71 111.00
  Q 247.32 110.73 247.39 109.21
  A 1.53 1.51 -12.1 0 1 248.24 107.92
  Q 251.11 106.50 253.40 105.18
  C 256.76 103.25 260.57 101.98 263.98 99.81
  A 1.39 1.34 -9.3 0 0 264.55 99.05
  L 265.09 97.09"
/>
<path stroke="#b6409e" stroke-opacity="0.671" vector-effect="non-scaling-stroke" d="
  M 255.00 107.04
  Q 251.06 107.46 251.54 111.25"
/>
<path stroke="#712261" vector-effect="non-scaling-stroke" d="
  M 251.54 111.25
  Q 250.48 113.03 250.50 115.21"
/>
<path stroke="#712261" vector-effect="non-scaling-stroke" d="
  M 249.00 120.54
  L 249.00 121.21"
/>
<path stroke="#802e81" vector-effect="non-scaling-stroke" d="
  M 237.25 121.46
  L 236.96 120.25"
/>
<path stroke="#712261" vector-effect="non-scaling-stroke" d="
  M 235.50 115.96
  Q 234.99 112.89 232.96 110.50"
/>
<path stroke="#b6409e" stroke-opacity="0.671" vector-effect="non-scaling-stroke" d="
  M 232.96 110.50
  Q 233.92 109.45 233.00 108.71"
/>
<path stroke="#c3239d" stroke-opacity="0.996" vector-effect="non-scaling-stroke" d="
  M 233.00 108.71
  Q 230.51 106.28 227.00 105.79"
/>
<path stroke="#60cccc" stroke-opacity="0.671" vector-effect="non-scaling-stroke" d="
  M 244.09 107.41
  L 254.25 101.46"
/>
<path stroke="#c0b3c2" stroke-opacity="0.671" vector-effect="non-scaling-stroke" d="
  M 226.25 99.79
  Q 226.53 100.42 227.12 100.69
  A 0.42 0.42 0.0 0 1 227.27 101.33
  Q 226.99 101.69 226.25 101.54"
/>
<path stroke="#600d5c" vector-effect="non-scaling-stroke" d="
  M 214.46 80.50
  L 225.75 70.04"
/>
<path stroke="#0d0d0e" stroke-opacity="0.671" vector-effect="non-scaling-stroke" d="
  M 232.21 110.00
  L 232.48 110.53
  A 0.18 0.18 0.0 0 0 232.72 110.61
  L 232.96 110.50"
/>
<path stroke="#870e67" stroke-opacity="0.671" vector-effect="non-scaling-stroke" d="
  M 233.00 108.71
  Q 232.44 108.41 232.08 108.62
  A 0.35 0.35 0.0 0 0 232.02 109.18
  Q 232.35 109.49 232.21 110.00"
/>
<path stroke="#51003c" vector-effect="non-scaling-stroke" d="
  M 232.21 110.00
  L 227.25 106.71"
/>
<path stroke="#0d0d0e" stroke-opacity="0.671" vector-effect="non-scaling-stroke" d="
  M 251.54 111.25
  Q 253.84 110.86 255.25 109.04"
/>
<path stroke="#648cf6" vector-effect="non-scaling-stroke" d="
  M 211.75 149.79
  Q 211.27 156.53 211.75 163.25
  Q 212.12 168.45 210.64 173.52"
/>
<path stroke="#7e0db2" vector-effect="non-scaling-stroke" d="
  M 288.54 151.50
  Q 287.98 162.17 289.20 172.79"
/>
<path stroke="#7e0db2" vector-effect="non-scaling-stroke" d="
  M 309.00 169.21
  Q 309.54 169.16 309.82 169.51
  A 0.36 0.36 0.0 0 0 310.38 169.52
  C 310.71 169.11 310.30 168.48 310.00 168.21"
/>
<path stroke="#7e0db2" vector-effect="non-scaling-stroke" d="
  M 316.75 160.29
  L 317.14 173.74
  A 1.62 1.57 61.9 0 1 316.88 174.65
  L 316.00 175.96"
/>
<path stroke="#7e0db2" vector-effect="non-scaling-stroke" d="
  M 188.54 150.75
  C 188.55 157.18 188.20 163.08 189.34 169.45
  A 0.60 0.59 -6.5 0 0 189.96 169.94
  Q 190.52 169.92 190.79 169.25"
/>
<path stroke="#600d5c" vector-effect="non-scaling-stroke" d="
  M 240.95 63.57
  Q 242.97 61.93 244.97 63.60
  L 250.11 67.90
  Q 250.24 68.00 250.25 68.00
  L 250.51 67.91
  A 0.09 0.09 0.0 0 0 250.55 67.76
  L 244.52 61.94
  Q 242.70 60.19 240.96 62.00
  L 236.08 67.08
  Q 234.05 69.20 236.33 67.34
  L 240.95 63.57"
/>
<path stroke="#478ca0" vector-effect="non-scaling-stroke" d="
  M 242.7710 86.3366
  A 4.21 3.80 92.3 0 0 246.7369 82.2825
  A 4.21 3.80 92.3 0 0 243.1090 77.9234
  A 4.21 3.80 92.3 0 0 239.1431 81.9775
  A 4.21 3.80 92.3 0 0 242.7710 86.3366"
/>
<path stroke="#478ca0" vector-effect="non-scaling-stroke" d="
  M 227.22 89.11
  Q 223.85 85.45 219.52 87.34
  Q 218.90 87.61 219.44 88.01
  C 222.35 90.14 224.17 88.30 227.05 89.36
  Q 227.66 89.59 227.22 89.11"
/>
<path stroke="#478ca0" vector-effect="non-scaling-stroke" d="
  M 265.53 87.59
  Q 265.29 86.36 263.44 86.50
  Q 261.09 86.69 258.65 88.81
  Q 258.33 89.09 258.75 89.10
  L 264.10 89.26
  A 1.41 1.41 0.0 0 0 265.53 87.59"
/>
<path stroke="#600d5c" vector-effect="non-scaling-stroke" d="
  M 242.13 94.71
  L 238.89 92.99
  A 0.35 0.35 0.0 0 0 238.41 93.13
  C 238.16 93.56 238.15 93.54 238.51 93.87
  Q 242.69 97.66 246.67 94.07
  A 0.50 0.50 0.0 0 0 246.75 93.42
  C 246.46 93.00 243.80 94.69 243.12 94.84
  A 1.43 1.42 -37.4 0 1 242.13 94.71"
/>
<path stroke="#478ca0" vector-effect="non-scaling-stroke" d="
  M 236.86 95.06
  Q 235.28 93.02 233.05 94.01
  Q 232.32 94.33 232.97 94.81
  Q 235.18 96.41 237.92 96.25
  Q 238.54 96.21 238.13 95.74
  Q 237.93 95.51 237.64 95.48
  A 1.12 1.11 73.1 0 1 236.86 95.06"
/>
<path stroke="#478ca0" vector-effect="non-scaling-stroke" d="
  M 252.87 93.83
  Q 249.71 92.86 248.52 96.00
  Q 248.28 96.62 248.91 96.41
  L 252.89 95.10
  Q 254.87 94.45 252.87 93.83"
/>
<path stroke="#478ca0" vector-effect="non-scaling-stroke" d="
  M 244.08 98.80
  A 1.06 1.06 0.0 0 0 243.02 97.74
  A 1.06 1.06 0.0 0 0 241.96 98.80
  A 1.06 1.06 0.0 0 0 243.02 99.86
  A 1.06 1.06 0.0 0 0 244.08 98.80"
/>
<path stroke="#2d0d77" vector-effect="non-scaling-stroke" d="
  M 257.5396 110.8644
  A 2.20 0.86 -32.3 0 0 255.2205 111.3131
  A 2.20 0.86 -32.3 0 0 253.8204 113.2156
  A 2.20 0.86 -32.3 0 0 256.1395 112.7669
  A 2.20 0.86 -32.3 0 0 257.5396 110.8644"
/>
<path stroke="#2d0d77" vector-effect="non-scaling-stroke" d="
  M 232.0722 112.9256
  A 2.12 1.06 27.4 0 0 230.6778 111.0089
  A 2.12 1.06 27.4 0 0 228.3078 110.9744
  A 2.12 1.06 27.4 0 0 229.7022 112.8911
  A 2.12 1.06 27.4 0 0 232.0722 112.9256"
/>
</g>
<path fill="#353536" fill-opacity="0.341" d="
  M 271.77 74.26
  Q 269.96 76.46 272.75 78.21
  C 271.90 78.30 271.29 78.41 270.55 77.90
  Q 260.82 71.16 254.78 61.02
  Q 249.87 55.04 242.94 51.71
  A 1.02 0.99 -44.3 0 0 242.05 51.71
  Q 236.01 54.64 233.11 61.00
  L 225.21 69.50
  Q 220.50 74.29 214.94 78.04
  A 1.98 1.98 0.0 0 0 214.27 78.82
  L 213.97 79.48
  A 0.99 0.98 -81.0 0 1 213.21 80.04
  Q 212.12 80.18 211.50 79.21
  Q 211.38 78.84 211.58 78.62
  A 0.26 0.16 -40.5 0 1 211.94 78.56
  L 212.06 78.91
  A 0.49 0.49 0.0 0 0 212.67 79.22
  L 212.91 79.14
  A 0.31 0.31 0.0 0 0 213.07 78.65
  L 212.65 78.05
  A 0.29 0.28 -27.8 0 1 212.79 77.61
  C 214.52 77.06 214.42 75.66 215.31 74.72
  Q 216.83 73.11 219.94 70.57
  A 0.52 0.52 0.0 0 0 220.06 69.90
  L 219.82 69.50
  A 0.50 0.50 0.0 0 0 219.04 69.39
  L 216.54 71.75
  Q 217.49 70.24 219.85 68.11
  Q 226.21 62.36 232.77 56.85
  C 234.13 55.71 236.12 53.58 238.25 52.35
  C 239.80 51.46 240.36 50.58 241.24 49.15
  A 1.57 1.57 0.0 0 1 243.57 48.75
  Q 258.88 61.09 271.77 74.26
  Z"
/>
<path fill="#efdef2" fill-opacity="0.996" d="
  M 254.78 61.02
  Q 255.01 62.15 254.24 62.72
  A 0.69 0.69 0.0 0 1 253.36 62.67
  L 244.44 54.47
  Q 242.93 53.08 241.48 54.53
  Q 237.94 58.07 233.11 61.00
  Q 236.01 54.64 242.05 51.71
  A 1.02 0.99 -44.3 0 1 242.94 51.71
  Q 249.87 55.04 254.78 61.02
  Z"
/>
<path fill="#e244c2" fill-opacity="0.996" d="
  M 254.78 61.02
  Q 260.82 71.16 270.55 77.90
  C 271.29 78.41 271.90 78.30 272.75 78.21
  L 274.19 79.44
  Q 275.74 80.78 273.77 81.35
  L 243.66 90.06
  A 2.66 2.64 -45.2 0 1 242.18 90.07
  Q 229.65 86.64 217.30 82.82
  C 215.23 82.18 213.08 82.38 211.29 80.25
  L 214.46 80.50
  L 242.00 88.76
  A 1.93 1.82 44.5 0 0 242.97 88.78
  Q 253.29 86.17 263.38 82.78
  C 265.38 82.11 268.44 81.91 270.83 80.52
  A 0.40 0.40 0.0 0 0 270.89 79.87
  L 243.24 56.08
  A 0.56 0.56 0.0 0 0 242.51 56.07
  L 225.75 70.04
  L 225.21 69.50
  L 233.11 61.00
  Q 237.94 58.07 241.48 54.53
  Q 242.93 53.08 244.44 54.47
  L 253.36 62.67
  A 0.69 0.69 0.0 0 0 254.24 62.72
  Q 255.01 62.15 254.78 61.02
  Z"
/>
<path fill="#1e1841" d="
  M 214.46 80.50
  L 225.75 70.04
  L 242.51 56.07
  A 0.56 0.56 0.0 0 1 243.24 56.08
  L 270.89 79.87
  A 0.40 0.40 0.0 0 1 270.83 80.52
  C 268.44 81.91 265.38 82.11 263.38 82.78
  Q 253.29 86.17 242.97 88.78
  A 1.93 1.82 44.5 0 1 242.00 88.76
  L 214.46 80.50
  Z
  M 240.95 63.57
  Q 242.97 61.93 244.97 63.60
  L 250.11 67.90
  Q 250.24 68.00 250.25 68.00
  L 250.51 67.91
  A 0.09 0.09 0.0 0 0 250.55 67.76
  L 244.52 61.94
  Q 242.70 60.19 240.96 62.00
  L 236.08 67.08
  Q 234.05 69.20 236.33 67.34
  L 240.95 63.57
  Z
  M 242.7710 86.3366
  A 4.21 3.80 92.3 0 0 246.7369 82.2825
  A 4.21 3.80 92.3 0 0 243.1090 77.9234
  A 4.21 3.80 92.3 0 0 239.1431 81.9775
  A 4.21 3.80 92.3 0 0 242.7710 86.3366
  Z"
/>
<path fill="#a30178" fill-opacity="0.996" d="
  M 240.95 63.57
  L 236.33 67.34
  Q 234.05 69.20 236.08 67.08
  L 240.96 62.00
  Q 242.70 60.19 244.52 61.94
  L 250.55 67.76
  A 0.09 0.09 0.0 0 1 250.51 67.91
  L 250.25 68.00
  Q 250.24 68.00 250.11 67.90
  L 244.97 63.60
  Q 242.97 61.93 240.95 63.57
  Z"
/>
<ellipse fill="#353536" fill-opacity="0.341" cx="0.00" cy="0.00" transform="translate(272.00,68.79) rotate(48.6)" rx="6.54" ry="1.08"/>
<path fill="#1e1841" d="
  M 211.50 79.21
  L 211.29 80.25
  C 213.08 82.38 215.23 82.18 217.30 82.82
  Q 229.65 86.64 242.18 90.07
  A 2.66 2.64 -45.2 0 0 243.66 90.06
  L 273.77 81.35
  Q 275.74 80.78 274.19 79.44
  L 272.75 78.21
  Q 269.96 76.46 271.77 74.26
  L 279.10 82.21
  A 1.18 1.18 0.0 0 1 279.41 83.08
  Q 279.13 87.55 276.19 91.00
  Q 271.02 94.79 265.09 97.09
  C 263.49 97.78 262.04 98.05 260.56 99.06
  Q 257.72 100.99 254.25 101.46
  L 256.85 99.37
  A 1.62 1.59 -67.2 0 1 257.69 99.02
  Q 258.67 98.91 259.35 98.31
  A 0.46 0.46 0.0 0 0 259.24 97.55
  Q 258.74 97.32 258.20 97.71
  Q 251.21 102.77 243.04 105.70
  A 1.18 1.18 0.0 0 1 242.12 105.65
  L 237.39 103.26
  A 0.18 0.18 0.0 0 0 237.18 103.30
  L 236.99 103.51
  A 0.35 0.34 -49.8 0 0 237.03 104.02
  C 238.95 105.56 241.37 108.49 244.09 107.41
  L 244.71 111.00
  L 243.71 117.50
  L 243.14 117.20
  A 0.73 0.73 0.0 0 0 242.39 117.25
  L 242.04 117.50
  L 241.21 113.75
  Q 241.28 110.22 239.78 107.13
  A 1.47 1.47 0.0 0 0 239.13 106.45
  L 226.25 99.79
  L 224.79 99.75
  L 224.75 99.48
  A 0.30 0.28 10.1 0 0 224.59 99.26
  L 209.08 91.19
  Q 206.71 87.36 206.29 82.97
  A 1.13 1.12 64.1 0 1 206.59 82.09
  L 216.54 71.75
  L 219.04 69.39
  A 0.50 0.50 0.0 0 1 219.82 69.50
  L 220.06 69.90
  A 0.52 0.52 0.0 0 1 219.94 70.57
  Q 216.83 73.11 215.31 74.72
  C 214.42 75.66 214.52 77.06 212.79 77.61
  A 0.29 0.28 -27.8 0 0 212.65 78.05
  L 213.07 78.65
  A 0.31 0.31 0.0 0 1 212.91 79.14
  L 212.67 79.22
  A 0.49 0.49 0.0 0 1 212.06 78.91
  L 211.94 78.56
  A 0.26 0.16 -40.5 0 0 211.58 78.62
  Q 211.38 78.84 211.50 79.21
  Z
  M 227.22 89.11
  Q 223.85 85.45 219.52 87.34
  Q 218.90 87.61 219.44 88.01
  C 222.35 90.14 224.17 88.30 227.05 89.36
  Q 227.66 89.59 227.22 89.11
  Z
  M 265.53 87.59
  Q 265.29 86.36 263.44 86.50
  Q 261.09 86.69 258.65 88.81
  Q 258.33 89.09 258.75 89.10
  L 264.10 89.26
  A 1.41 1.41 0.0 0 0 265.53 87.59
  Z
  M 242.13 94.71
  L 238.89 92.99
  A 0.35 0.35 0.0 0 0 238.41 93.13
  C 238.16 93.56 238.15 93.54 238.51 93.87
  Q 242.69 97.66 246.67 94.07
  A 0.50 0.50 0.0 0 0 246.75 93.42
  C 246.46 93.00 243.80 94.69 243.12 94.84
  A 1.43 1.42 -37.4 0 1 242.13 94.71
  Z
  M 236.86 95.06
  Q 235.28 93.02 233.05 94.01
  Q 232.32 94.33 232.97 94.81
  Q 235.18 96.41 237.92 96.25
  Q 238.54 96.21 238.13 95.74
  Q 237.93 95.51 237.64 95.48
  A 1.12 1.11 73.1 0 1 236.86 95.06
  Z
  M 252.87 93.83
  Q 249.71 92.86 248.52 96.00
  Q 248.28 96.62 248.91 96.41
  L 252.89 95.10
  Q 254.87 94.45 252.87 93.83
  Z
  M 244.08 98.80
  A 1.06 1.06 0.0 0 0 243.02 97.74
  A 1.06 1.06 0.0 0 0 241.96 98.80
  A 1.06 1.06 0.0 0 0 243.02 99.86
  A 1.06 1.06 0.0 0 0 244.08 98.80
  Z"
/>
<path fill="#a30178" fill-opacity="0.996" d="
  M 225.21 69.50
  L 225.75 70.04
  L 214.46 80.50
  L 211.29 80.25
  L 211.50 79.21
  Q 212.12 80.18 213.21 80.04
  A 0.99 0.98 -81.0 0 0 213.97 79.48
  L 214.27 78.82
  A 1.98 1.98 0.0 0 1 214.94 78.04
  Q 220.50 74.29 225.21 69.50
  Z"
/>
<path fill="#000001" d="
  M 211.15 70.92
  Q 211.58 70.29 211.49 71.04
  Q 211.37 72.18 210.20 72.93
  Q 209.44 73.42 209.95 72.68
  L 211.15 70.92
  Z"
/>
<ellipse fill="#6fffff" cx="0.00" cy="0.00" transform="translate(242.94,82.13) rotate(92.3)" rx="4.21" ry="3.80"/>
<path fill="#6fffff" d="
  M 227.22 89.11
  Q 227.66 89.59 227.05 89.36
  C 224.17 88.30 222.35 90.14 219.44 88.01
  Q 218.90 87.61 219.52 87.34
  Q 223.85 85.45 227.22 89.11
  Z"
/>
<path fill="#6fffff" d="
  M 265.53 87.59
  A 1.41 1.41 0.0 0 1 264.10 89.26
  L 258.75 89.10
  Q 258.33 89.09 258.65 88.81
  Q 261.09 86.69 263.44 86.50
  Q 265.29 86.36 265.53 87.59
  Z"
/>
<path fill="#e244c2" fill-opacity="0.996" d="
  M 209.08 91.19
  L 224.59 99.26
  A 0.30 0.28 10.1 0 1 224.75 99.48
  L 224.79 99.75
  Q 225.17 100.90 226.25 101.54
  Q 227.76 102.81 229.72 102.82
  A 1.31 1.30 -23.9 0 1 230.59 103.15
  C 233.19 105.45 236.35 107.08 238.39 109.77
  Q 239.86 111.72 241.21 113.75
  L 242.04 117.50
  Q 241.24 120.73 242.05 123.04
  Q 242.69 124.84 243.18 123.00
  Q 243.95 120.15 243.71 117.50
  L 244.71 111.00
  Q 247.32 110.73 247.39 109.21
  A 1.53 1.51 -12.1 0 1 248.24 107.92
  Q 251.11 106.50 253.40 105.18
  C 256.76 103.25 260.57 101.98 263.98 99.81
  A 1.39 1.34 -9.3 0 0 264.55 99.05
  L 265.09 97.09
  Q 271.02 94.79 276.19 91.00
  L 294.15 91.26
  Q 296.34 91.30 294.26 91.97
  Q 274.00 98.53 255.00 107.04
  Q 251.06 107.46 251.54 111.25
  Q 250.48 113.03 250.50 115.21
  Q 248.38 117.47 249.00 120.54
  L 249.00 121.21
  C 245.89 124.49 246.65 127.54 245.24 131.25
  Q 244.24 133.86 243.59 136.59
  A 0.78 0.78 0.0 0 1 242.95 137.18
  C 241.70 137.36 238.40 123.21 237.25 121.46
  L 236.96 120.25
  Q 237.23 117.73 235.50 115.96
  Q 234.99 112.89 232.96 110.50
  Q 233.92 109.45 233.00 108.71
  Q 230.51 106.28 227.00 105.79
  C 214.70 99.63 202.23 96.01 191.52 91.85
  Q 191.00 91.64 191.56 91.63
  L 209.08 91.19
  Z"
/>
<path fill="#a30178" fill-opacity="0.996" d="
  M 243.12 94.84
  C 243.80 94.69 246.46 93.00 246.75 93.42
  A 0.50 0.50 0.0 0 1 246.67 94.07
  Q 242.69 97.66 238.51 93.87
  C 238.15 93.54 238.16 93.56 238.41 93.13
  A 0.35 0.35 0.0 0 1 238.89 92.99
  L 242.13 94.71
  A 1.43 1.42 -37.4 0 0 243.12 94.84
  Z"
/>
<path fill="#6fffff" d="
  M 237.64 95.48
  Q 237.93 95.51 238.13 95.74
  Q 238.54 96.21 237.92 96.25
  Q 235.18 96.41 232.97 94.81
  Q 232.32 94.33 233.05 94.01
  Q 235.28 93.02 236.86 95.06
  A 1.12 1.11 73.1 0 0 237.64 95.48
  Z"
/>
<path fill="#6fffff" d="
  M 252.87 93.83
  Q 254.87 94.45 252.89 95.10
  L 248.91 96.41
  Q 248.28 96.62 248.52 96.00
  Q 249.71 92.86 252.87 93.83
  Z"
/>
<path fill="#353536" fill-opacity="0.341" d="
  M 265.09 97.09
  L 264.55 99.05
  A 1.39 1.34 -9.3 0 1 263.98 99.81
  C 260.57 101.98 256.76 103.25 253.40 105.18
  Q 251.11 106.50 248.24 107.92
  A 1.53 1.51 -12.1 0 0 247.39 109.21
  Q 247.32 110.73 244.71 111.00
  L 244.09 107.41
  L 254.25 101.46
  Q 257.72 100.99 260.56 99.06
  C 262.04 98.05 263.49 97.78 265.09 97.09
  Z"
/>
<path fill="#6fffff" d="
  M 254.25 101.46
  L 244.09 107.41
  C 241.37 108.49 238.95 105.56 237.03 104.02
  A 0.35 0.34 -49.8 0 1 236.99 103.51
  L 237.18 103.30
  A 0.18 0.18 0.0 0 1 237.39 103.26
  L 242.12 105.65
  A 1.18 1.18 0.0 0 0 243.04 105.70
  Q 251.21 102.77 258.20 97.71
  Q 258.74 97.32 259.24 97.55
  A 0.46 0.46 0.0 0 1 259.35 98.31
  Q 258.67 98.91 257.69 99.02
  A 1.62 1.59 -67.2 0 0 256.85 99.37
  L 254.25 101.46
  Z"
/>
<circle fill="#6fffff" cx="243.02" cy="98.80" r="1.06"/>
<path fill="#353536" fill-opacity="0.341" d="
  M 226.25 99.79
  Q 226.53 100.42 227.12 100.69
  A 0.42 0.42 0.0 0 1 227.27 101.33
  Q 226.99 101.69 226.25 101.54
  Q 225.17 100.90 224.79 99.75
  L 226.25 99.79
  Z"
/>
<path fill="#a30178" fill-opacity="0.996" d="
  M 202.26 100.32
  A 0.44 0.43 73.2 0 1 202.57 99.74
  C 202.87 99.67 203.53 100.30 203.65 100.62
  Q 206.55 108.36 211.69 114.85
  A 0.25 0.25 0.0 0 1 211.63 115.22
  C 209.90 116.36 202.91 102.11 202.26 100.32
  Z"
/>
<path fill="#efdef2" fill-opacity="0.996" d="
  M 226.25 99.79
  L 239.13 106.45
  A 1.47 1.47 0.0 0 1 239.78 107.13
  Q 241.28 110.22 241.21 113.75
  Q 239.86 111.72 238.39 109.77
  C 236.35 107.08 233.19 105.45 230.59 103.15
  A 1.31 1.30 -23.9 0 0 229.72 102.82
  Q 227.76 102.81 226.25 101.54
  Q 226.99 101.69 227.27 101.33
  A 0.42 0.42 0.0 0 0 227.12 100.69
  Q 226.53 100.42 226.25 99.79
  Z"
/>
<path fill="#a30178" fill-opacity="0.996" d="
  M 282.34 100.66
  C 282.51 100.29 282.52 99.78 283.09 99.78
  A 0.38 0.38 0.0 0 1 283.44 100.29
  Q 280.13 108.87 274.15 115.83
  A 0.30 0.29 -45.7 0 1 273.71 115.84
  L 273.51 115.64
  A 0.06 0.05 49.7 0 1 273.51 115.57
  Q 278.65 108.57 282.34 100.66
  Z"
/>
<path fill="#a30178" fill-opacity="0.996" d="
  M 223.53 107.02
  Q 224.32 107.36 223.47 107.47
  Q 220.91 107.81 219.16 105.89
  Q 218.00 104.61 219.59 105.30
  L 223.53 107.02
  Z"
/>
<path fill="#a30178" fill-opacity="0.996" d="
  M 227.00 105.79
  Q 230.51 106.28 233.00 108.71
  Q 232.44 108.41 232.08 108.62
  A 0.35 0.35 0.0 0 0 232.02 109.18
  Q 232.35 109.49 232.21 110.00
  L 227.25 106.71
  L 227.00 105.79
  Z"
/>
<path fill="#000001" d="
  M 250.50 115.21
  Q 250.48 113.03 251.54 111.25
  Q 253.84 110.86 255.25 109.04
  Q 257.96 106.76 261.48 107.25
  Q 261.95 107.32 262.39 107.14
  L 265.98 105.72
  Q 267.91 104.95 266.53 106.51
  L 261.09 112.64
  A 1.08 1.08 0.0 0 1 260.17 112.99
  C 256.76 112.58 256.66 115.62 253.83 116.37
  A 0.95 0.95 0.0 0 1 252.97 116.18
  Q 251.90 115.29 250.50 115.21
  Z
  M 257.5396 110.8644
  A 2.20 0.86 -32.3 0 0 255.2205 111.3131
  A 2.20 0.86 -32.3 0 0 253.8204 113.2156
  A 2.20 0.86 -32.3 0 0 256.1395 112.7669
  A 2.20 0.86 -32.3 0 0 257.5396 110.8644
  Z"
/>
<path fill="#000001" d="
  M 227.25 106.71
  L 232.21 110.00
  L 232.48 110.53
  A 0.18 0.18 0.0 0 0 232.72 110.61
  L 232.96 110.50
  Q 234.99 112.89 235.50 115.96
  Q 227.26 115.91 224.95 108.31
  A 0.44 0.43 -12.9 0 1 225.30 107.76
  Q 226.43 107.56 227.25 106.71
  Z
  M 232.0722 112.9256
  A 2.12 1.06 27.4 0 0 230.6778 111.0089
  A 2.12 1.06 27.4 0 0 228.3078 110.9744
  A 2.12 1.06 27.4 0 0 229.7022 112.8911
  A 2.12 1.06 27.4 0 0 232.0722 112.9256
  Z"
/>
<path fill="#353536" fill-opacity="0.341" d="
  M 255.00 107.04
  L 254.36 108.07
  A 0.65 0.63 37.3 0 0 254.48 108.87
  Q 254.73 109.09 255.25 109.04
  Q 253.84 110.86 251.54 111.25
  Q 251.06 107.46 255.00 107.04
  Z"
/>
<ellipse fill="#1e1841" cx="0.00" cy="0.00" transform="translate(213.10,109.49) rotate(49.7)" rx="2.44" ry="0.38"/>
<path fill="#353536" fill-opacity="0.341" d="
  M 233.00 108.71
  Q 233.92 109.45 232.96 110.50
  L 232.72 110.61
  A 0.18 0.18 0.0 0 1 232.48 110.53
  L 232.21 110.00
  Q 232.35 109.49 232.02 109.18
  A 0.35 0.35 0.0 0 1 232.08 108.62
  Q 232.44 108.41 233.00 108.71
  Z"
/>
<ellipse fill="#5919ec" cx="0.00" cy="0.00" transform="translate(230.19,111.95) rotate(27.4)" rx="2.12" ry="1.06"/>
<ellipse fill="#5919ec" cx="0.00" cy="0.00" transform="translate(255.68,112.04) rotate(-32.3)" rx="2.20" ry="0.86"/>
<path fill="#1e1841" d="
  M 236.96 120.25
  L 237.25 121.46
  Q 232.82 120.84 229.19 118.21
  A 0.28 0.28 0.0 0 1 229.22 117.74
  Q 229.43 117.64 229.68 117.81
  Q 232.99 120.05 236.96 120.25
  Z"
/>
<path fill="#000001" d="
  M 249.00 121.21
  L 249.00 120.54
  L 253.47 119.23
  Q 253.93 119.10 253.64 119.47
  Q 251.97 121.56 249.00 121.21
  Z"
/>
<path fill="#6fffff" d="
  M 211.75 149.79
  Q 211.27 156.53 211.75 163.25
  Q 212.12 168.45 210.64 173.52
  Q 210.43 162.14 210.41 150.79
  C 210.41 149.85 210.84 149.57 211.75 149.79
  Z"
/>
<path fill="#5919ec" d="
  M 211.75 149.79
  Q 218.03 149.66 231.75 150.01
  Q 235.01 150.10 237.27 150.80
  A 0.90 0.90 0.0 0 1 237.90 151.63
  L 238.04 156.09
  A 0.65 0.64 89.6 0 1 237.40 156.75
  L 219.84 156.76
  A 0.72 0.71 0.8 0 0 219.12 157.45
  L 219.07 159.04
  A 0.67 0.67 0.0 0 0 219.73 159.73
  L 235.70 159.80
  Q 238.36 159.82 238.28 162.48
  L 238.18 165.71
  A 1.09 1.09 0.0 0 1 237.07 166.77
  L 221.08 166.46
  Q 219.21 166.42 219.04 168.28
  L 218.99 168.81
  A 0.54 0.53 -87.1 0 0 219.52 169.40
  L 235.76 169.62
  Q 238.32 169.65 238.28 172.21
  L 238.22 175.37
  A 0.62 0.62 0.0 0 1 237.60 175.98
  Q 225.30 176.04 213.06 175.97
  Q 211.20 175.96 210.64 173.52
  Q 212.12 168.45 211.75 163.25
  Q 211.27 156.53 211.75 149.79
  Z"
/>
<path fill="#5919ec" d="
  M 288.54 151.50
  Q 287.98 162.17 289.20 172.79
  C 291.06 176.47 286.29 176.02 284.47 176.15
  A 1.05 1.05 0.0 0 0 283.61 176.74
  L 282.58 178.94
  A 1.18 1.17 6.7 0 1 281.76 179.58
  Q 279.44 180.03 277.18 179.31
  A 1.21 1.20 82.3 0 1 276.51 178.80
  L 275.12 176.62
  A 1.07 1.06 -15.2 0 0 274.26 176.13
  L 263.13 175.71
  A 1.13 1.13 0.0 0 1 262.04 174.58
  L 261.93 151.00
  A 1.24 1.24 0.0 0 1 263.17 149.76
  Q 274.03 149.73 285.74 149.76
  Q 287.49 149.76 288.54 151.50
  Z
  M 281.1902 157.4315
  A 0.65 0.65 0.0 0 0 280.5346 156.7872
  L 270.6749 156.8733
  A 0.65 0.65 0.0 0 0 270.0306 157.5289
  L 270.1298 168.8885
  A 0.65 0.65 0.0 0 0 270.7854 169.5328
  L 280.6451 169.4467
  A 0.65 0.65 0.0 0 0 281.2894 168.7911
  L 281.1902 157.4315
  Z"
/>
<path fill="#5919ec" d="
  M 309.00 169.21
  Q 309.54 169.16 309.82 169.51
  A 0.36 0.36 0.0 0 0 310.38 169.52
  C 310.71 169.11 310.30 168.48 310.00 168.21
  Q 310.11 167.74 309.92 167.34
  A 0.91 0.90 -8.8 0 0 309.24 166.85
  Q 303.88 166.01 305.80 160.41
  A 0.93 0.92 10.4 0 1 306.72 159.78
  L 316.75 160.29
  L 317.14 173.74
  A 1.62 1.57 61.9 0 1 316.88 174.65
  L 316.00 175.96
  L 294.02 175.98
  Q 291.03 175.99 291.17 172.99
  Q 291.69 161.94 290.51 150.95
  A 1.08 1.08 0.0 0 1 291.63 149.75
  Q 302.02 150.17 312.50 150.01
  Q 315.37 149.96 318.02 150.91
  A 0.75 0.73 10.5 0 1 318.52 151.62
  L 318.45 156.21
  A 0.60 0.59 -0.0 0 1 317.86 156.79
  L 299.77 156.95
  A 0.78 0.78 0.0 0 0 299.00 157.73
  L 298.99 168.25
  A 1.56 1.56 0.0 0 0 300.66 169.81
  L 309.00 169.21
  Z"
/>
<path fill="#5919ec" d="
  M 188.54 150.75
  C 188.55 157.18 188.20 163.08 189.34 169.45
  A 0.60 0.59 -6.5 0 0 189.96 169.94
  Q 190.52 169.92 190.79 169.25
  L 206.68 169.49
  Q 208.82 169.52 209.34 171.60
  L 210.01 174.28
  A 1.38 1.38 0.0 0 1 208.67 175.99
  L 183.77 176.00
  A 1.74 1.73 89.8 0 1 182.04 174.27
  L 181.92 150.72
  A 0.61 0.60 -5.6 0 1 182.42 150.12
  Q 185.66 149.59 188.54 150.75
  Z"
/>
<path fill="#a30178" fill-opacity="0.996" d="
  M 188.54 150.75
  Q 190.30 150.73 190.25 152.00
  Q 189.89 160.65 190.79 169.25
  Q 190.52 169.92 189.96 169.94
  A 0.60 0.59 -6.5 0 1 189.34 169.45
  C 188.20 163.08 188.55 157.18 188.54 150.75
  Z"
/>
<path fill="#a30178" fill-opacity="0.996" d="
  M 288.54 151.50
  Q 289.49 154.56 289.69 157.75
  Q 290.16 165.23 289.20 172.79
  Q 287.98 162.17 288.54 151.50
  Z"
/>
<path fill="#a30178" fill-opacity="0.996" d="
  M 316.75 160.29
  Q 318.40 159.98 318.43 161.82
  Q 318.54 168.40 318.50 175.06
  A 0.82 0.82 0.0 0 1 318.03 175.80
  Q 317.12 176.24 316.00 175.96
  L 316.88 174.65
  A 1.62 1.57 61.9 0 0 317.14 173.74
  L 316.75 160.29
  Z"
/>
<path fill="#a30178" fill-opacity="0.996" d="
  M 310.00 168.21
  C 310.30 168.48 310.71 169.11 310.38 169.52
  A 0.36 0.36 0.0 0 1 309.82 169.51
  Q 309.54 169.16 309.00 169.21
  L 310.00 168.21
  Z"
/>
</svg>
