<?xml version="1.0" encoding="UTF-8" standalone="no"?>
<!DOCTYPE svg PUBLIC "-//W3C//DTD SVG 1.1//EN" "http://www.w3.org/Graphics/SVG/1.1/DTD/svg11.dtd">
<svg xmlns="http://www.w3.org/2000/svg" version="1.1" viewBox="0 0 500 200">
<g stroke-width="2.00" fill="none" stroke-linecap="butt">
<path stroke="#403352" stroke-opacity="0.992" vector-effect="non-scaling-stroke" d="
  M 271.00 73.96
  C 267.64 73.68 273.83 78.58 274.33 79.05
  A 1.00 1.00 0.0 0 1 274.56 80.20
  Q 274.35 80.64 274.00 80.96"
/>
<path stroke="#a855a9" stroke-opacity="0.992" vector-effect="non-scaling-stroke" d="
  M 274.00 80.96
  L 273.75 80.29"
/>
<path stroke="#b5b0bf" stroke-opacity="0.992" vector-effect="non-scaling-stroke" d="
  M 250.82 57.81
  L 247.79 55.25"
/>
<path stroke="#7e287b" vector-effect="non-scaling-stroke" d="
  M 274.00 80.96
  L 263.50 84.29"
/>
<path stroke="#813188" vector-effect="non-scaling-stroke" d="
  M 263.50 84.29
  L 253.00 87.54"
/>
<path stroke="#8540a0" vector-effect="non-scaling-stroke" d="
  M 253.00 87.54
  Q 248.90 88.63 244.79 89.71
  C 241.55 90.57 238.63 89.23 235.50 88.46"
/>
<path stroke="#813188" vector-effect="non-scaling-stroke" d="
  M 235.50 88.46
  L 222.11 84.40"
/>
<path stroke="#7e287b" vector-effect="non-scaling-stroke" d="
  M 222.11 84.40
  Q 217.24 82.75 212.57 81.58
  C 211.94 81.42 211.12 80.81 212.50 80.54"
/>
<path stroke="#7f2364" vector-effect="non-scaling-stroke" d="
  M 273.84 93.02
  L 268.25 96.29"
/>
<path stroke="#403352" stroke-opacity="0.992" vector-effect="non-scaling-stroke" d="
  M 268.25 96.29
  Q 264.39 96.50 261.21 98.75"
/>
<path stroke="#1a0f31" vector-effect="non-scaling-stroke" d="
  M 261.21 98.75
  Q 258.89 99.45 257.04 101.00"
/>
<path stroke="#1d1e49" vector-effect="non-scaling-stroke" d="
  M 254.00 102.71
  L 254.17 101.49
  A 1.00 0.99 -10.3 0 1 254.69 100.75
  L 265.24 95.03
  A 0.82 0.77 83.0 0 0 265.63 94.50
  Q 265.87 93.48 264.50 94.29"
/>
<path stroke="#1a0f31" vector-effect="non-scaling-stroke" d="
  M 264.50 94.29
  Q 263.45 91.18 266.00 90.09
  A 0.99 0.99 0.0 0 0 266.49 89.66
  Q 268.51 86.01 264.92 85.69
  A 1.02 1.01 -7.3 0 1 264.06 85.03
  Q 263.89 84.55 263.50 84.29"
/>
<path stroke="#f2a4e8" vector-effect="non-scaling-stroke" d="
  M 252.45 61.04
  Q 247.64 57.86 243.69 53.61
  A 1.00 1.00 0.0 0 0 242.32 53.52
  Q 238.67 56.56 234.84 60.73
  C 234.11 61.53 233.52 61.54 232.54 61.25"
/>
<path stroke="#1a0f31" vector-effect="non-scaling-stroke" d="
  M 222.11 84.40
  Q 217.97 86.17 219.47 89.67
  A 1.00 0.99 81.3 0 0 220.28 90.27
  C 223.03 90.56 225.89 93.31 223.00 95.54"
/>
<path stroke="#1d1e49" vector-effect="non-scaling-stroke" d="
  M 223.00 95.54
  C 222.28 95.14 217.71 92.26 217.32 92.45
  Q 216.88 92.67 217.31 92.91
  L 225.75 97.71"
/>
<path stroke="#526b88" vector-effect="non-scaling-stroke" d="
  M 225.75 97.71
  Q 229.22 99.30 231.63 102.18"
/>
<path stroke="#845884" vector-effect="non-scaling-stroke" d="
  M 231.63 102.18
  L 211.75 92.96"
/>
<path stroke="#1a0f31" vector-effect="non-scaling-stroke" d="
  M 211.75 92.96
  Q 210.32 90.68 208.04 89.25"
/>
<path stroke="#212656" vector-effect="non-scaling-stroke" d="
  M 235.50 88.46
  Q 235.22 89.66 234.50 90.54"
/>
<path stroke="#3e1794" vector-effect="non-scaling-stroke" d="
  M 234.50 90.54
  L 232.37 89.24
  A 0.59 0.15 32.1 0 0 231.81 89.06
  L 231.60 89.32
  A 0.41 0.41 0.0 0 0 231.70 89.92
  L 233.25 90.96"
/>
<path stroke="#212656" vector-effect="non-scaling-stroke" d="
  M 233.25 90.96
  Q 231.25 93.11 232.32 95.97
  A 1.01 0.97 6.0 0 0 232.74 96.47
  Q 235.64 98.19 239.01 97.72
  A 1.01 1.00 66.7 0 1 239.94 98.10
  Q 243.52 102.74 246.67 97.85
  A 1.01 0.97 13.2 0 1 247.43 97.40
  L 253.02 96.94
  A 0.99 0.99 0.0 0 0 253.93 96.06
  Q 254.29 92.90 252.75 90.71"
/>
<path stroke="#3e1794" vector-effect="non-scaling-stroke" d="
  M 252.75 90.71
  Q 254.89 89.65 253.50 89.54"
/>
<path stroke="#212656" vector-effect="non-scaling-stroke" d="
  M 253.50 89.54
  L 253.00 87.54"
/>
<path stroke="#212656" vector-effect="non-scaling-stroke" d="
  M 264.50 94.29
  L 248.50 103.21"
/>
<path stroke="#557395" vector-effect="non-scaling-stroke" d="
  M 248.50 103.21
  Q 245.68 105.22 242.32 105.71
  A 1.09 1.05 -34.0 0 1 241.70 105.60
  L 225.79 97.00"
/>
<path stroke="#212656" vector-effect="non-scaling-stroke" d="
  M 225.79 97.00
  L 223.00 95.54"
/>
<path stroke="#4126ac" vector-effect="non-scaling-stroke" d="
  M 253.50 89.54
  L 243.31 95.06
  A 1.00 1.00 0.0 0 1 242.34 95.04
  L 234.50 90.54"
/>
<path stroke="#433c5f" stroke-opacity="0.992" vector-effect="non-scaling-stroke" d="
  M 261.50 99.04
  L 261.21 98.75"
/>
<path stroke="#5982ad" vector-effect="non-scaling-stroke" d="
  M 252.50 103.46
  Q 251.89 102.07 250.99 103.09
  A 1.02 1.00 14.2 0 1 250.44 103.41
  Q 249.47 103.61 248.50 103.21"
/>
<path stroke="#ed75c4" vector-effect="non-scaling-stroke" d="
  M 280.73 91.11
  L 286.72 92.27
  A 1.01 1.01 0.0 0 1 287.51 93.05
  L 287.75 94.21"
/>
<path stroke="#e745bb" vector-effect="non-scaling-stroke" d="
  M 266.00 102.46
  Q 264.15 101.55 263.25 99.71"
/>
<path stroke="#a95092" stroke-opacity="0.992" vector-effect="non-scaling-stroke" d="
  M 267.04 97.00
  L 268.25 96.29"
/>
<path stroke="#5982ad" vector-effect="non-scaling-stroke" d="
  M 225.79 97.00
  L 225.75 97.71"
/>
<path stroke="#7c99b7" stroke-opacity="0.992" vector-effect="non-scaling-stroke" d="
  M 248.50 106.04
  Q 244.97 109.14 249.21 106.50"
/>
<path stroke="#ba8ddf" vector-effect="non-scaling-stroke" d="
  M 250.50 105.96
  Q 250.71 105.95 250.82 105.99
  A 0.32 0.18 -55.5 0 1 250.79 106.40
  C 248.21 109.56 246.19 109.69 245.53 114.38
  Q 245.37 115.56 244.63 114.63
  Q 244.45 114.40 244.46 114.00"
/>
<path stroke="#5982ad" vector-effect="non-scaling-stroke" d="
  M 244.46 114.00
  Q 245.16 111.33 244.93 108.62
  A 1.00 1.00 0.0 0 0 243.68 107.74
  Q 242.42 108.06 241.25 107.21"
/>
<path stroke="#7c99b7" stroke-opacity="0.992" vector-effect="non-scaling-stroke" d="
  M 233.50 103.96
  L 232.00 102.96"
/>
<path stroke="#1a0f31" vector-effect="non-scaling-stroke" d="
  M 211.21 79.50
  L 209.50 79.21"
/>
<path stroke="#876091" vector-effect="non-scaling-stroke" d="
  M 211.75 92.96
  L 209.71 92.00"
/>
<path stroke="#c0bde9" stroke-opacity="0.996" vector-effect="non-scaling-stroke" d="
  M 231.63 102.18
  L 232.00 102.96"
/>
<path stroke="#ae86b3" stroke-opacity="0.992" vector-effect="non-scaling-stroke" d="
  M 232.00 102.96
  Q 231.09 103.81 232.71 104.25"
/>
<path stroke="#c0bde9" stroke-opacity="0.996" vector-effect="non-scaling-stroke" d="
  M 239.50 107.79
  Q 240.16 105.08 241.25 107.21"
/>
<path stroke="#8b6fa9" vector-effect="non-scaling-stroke" d="
  M 241.25 107.21
  Q 240.56 108.10 241.04 109.25"
/>
<path stroke="#845884" vector-effect="non-scaling-stroke" d="
  M 241.04 109.25
  L 241.21 113.00"
/>
<path stroke="#eb7adb" vector-effect="non-scaling-stroke" d="
  M 241.21 113.00
  Q 241.14 114.22 240.44 113.91
  A 0.55 0.53 -89.0 0 1 240.16 113.61
  C 238.60 109.25 236.14 108.72 233.47 105.72
  C 231.38 103.37 227.09 102.17 224.25 100.71"
/>
<path stroke="#4126ac" vector-effect="non-scaling-stroke" d="
  M 252.75 90.71
  L 243.22 96.25
  A 1.00 0.98 -44.5 0 1 242.21 96.25
  L 233.25 90.96"
/>
<path stroke="#7e287b" vector-effect="non-scaling-stroke" d="
  M 251.54 110.44
  L 250.75 114.21"
/>
<path stroke="#813188" vector-effect="non-scaling-stroke" d="
  M 250.75 114.21
  L 250.50 114.96"
/>
<path stroke="#a855a9" stroke-opacity="0.992" vector-effect="non-scaling-stroke" d="
  M 225.50 116.71
  L 224.54 115.75"
/>
<path stroke="#f2a4e8" vector-effect="non-scaling-stroke" d="
  M 224.54 115.75
  L 224.79 114.25"
/>
<path stroke="#7e287b" vector-effect="non-scaling-stroke" d="
  M 235.50 115.46
  L 234.46 112.75"
/>
<path stroke="#a855a9" stroke-opacity="0.992" vector-effect="non-scaling-stroke" d="
  M 234.46 112.75
  Q 234.69 110.68 232.96 109.50"
/>
<path stroke="#eb7adb" vector-effect="non-scaling-stroke" d="
  M 232.96 109.50
  Q 232.35 106.97 229.75 107.29"
/>
<path stroke="#a855a9" stroke-opacity="0.992" vector-effect="non-scaling-stroke" d="
  M 229.75 107.29
  L 228.04 106.50"
/>
<path stroke="#7e287b" vector-effect="non-scaling-stroke" d="
  M 241.21 113.00
  L 241.54 116.25"
/>
<path stroke="#a855a9" stroke-opacity="0.992" vector-effect="non-scaling-stroke" d="
  M 241.54 116.25
  L 242.00 117.79"
/>
<path stroke="#eb7adb" vector-effect="non-scaling-stroke" d="
  M 242.29 123.25
  Q 243.68 127.93 243.51 121.62"
/>
<path stroke="#a855a9" stroke-opacity="0.992" vector-effect="non-scaling-stroke" d="
  M 243.46 117.75
  L 243.50 116.54"
/>
<path stroke="#7e287b" vector-effect="non-scaling-stroke" d="
  M 243.50 116.54
  Q 244.42 115.58 244.21 114.25"
/>
<path stroke="#8540a0" vector-effect="non-scaling-stroke" d="
  M 244.21 114.25
  L 244.46 114.00"
/>
<path stroke="#1d1e49" vector-effect="non-scaling-stroke" d="
  M 244.21 114.25
  C 241.62 113.10 247.18 108.01 241.04 109.25"
/>
<path stroke="#433c5f" stroke-opacity="0.992" vector-effect="non-scaling-stroke" d="
  M 225.25 65.54
  L 224.71 64.50"
/>
<path stroke="#403352" stroke-opacity="0.992" vector-effect="non-scaling-stroke" d="
  M 243.50 116.54
  L 241.54 116.25"
/>
<path stroke="#ed75c4" vector-effect="non-scaling-stroke" d="
  M 209.29 92.00
  L 209.52 92.63
  A 1.00 0.99 4.2 0 0 209.99 93.17
  L 224.25 100.71"
/>
<path stroke="#e745bb" vector-effect="non-scaling-stroke" d="
  M 224.25 100.71
  Q 222.84 100.64 222.89 101.44
  A 0.51 0.50 4.8 0 1 222.27 101.96
  L 221.71 101.84
  Q 220.40 101.56 221.50 102.31
  L 225.04 104.74"
/>
<path stroke="#ae86b3" stroke-opacity="0.992" vector-effect="non-scaling-stroke" d="
  M 210.59 112.40
  L 212.54 115.25"
/>
<path stroke="#f8d4f2" vector-effect="non-scaling-stroke" d="
  M 212.54 115.25
  C 214.15 117.48 217.30 121.70 220.50 119.79"
/>
<path stroke="#ae86b3" stroke-opacity="0.992" vector-effect="non-scaling-stroke" d="
  M 220.50 119.79
  Q 218.77 121.08 220.71 122.25"
/>
<path stroke="#eb7adb" vector-effect="non-scaling-stroke" d="
  M 239.71 129.50
  L 239.75 130.54"
/>
<path stroke="#b5b0bf" stroke-opacity="0.992" vector-effect="non-scaling-stroke" d="
  M 219.50 108.21
  L 221.25 108.29"
/>
<path stroke="#b5b0bf" stroke-opacity="0.992" vector-effect="non-scaling-stroke" d="
  M 221.75 108.46
  L 223.46 109.75"
/>
<path stroke="#b5b0bf" stroke-opacity="0.992" vector-effect="non-scaling-stroke" d="
  M 224.54 115.75
  Q 223.36 118.62 220.50 119.79"
/>
<path stroke="#b5b0bf" stroke-opacity="0.992" vector-effect="non-scaling-stroke" d="
  M 212.54 115.25
  Q 212.20 114.19 212.67 113.56
  A 0.64 0.64 0.0 0 1 213.66 113.53
  Q 214.24 114.18 213.71 112.50"
/>
<path stroke="#1a0f31" vector-effect="non-scaling-stroke" d="
  M 235.00 115.46
  C 230.32 116.02 228.95 113.48 226.04 110.50"
/>
<path stroke="#ae86b3" stroke-opacity="0.992" vector-effect="non-scaling-stroke" d="
  M 229.75 107.29
  L 232.96 109.50"
/>
<path stroke="#403352" stroke-opacity="0.992" vector-effect="non-scaling-stroke" d="
  M 234.46 112.75
  Q 231.38 109.34 227.13 107.73
  A 0.99 0.97 -51.9 0 0 226.19 107.85
  Q 224.92 108.78 226.04 110.50"
/>
<path stroke="#433c5f" stroke-opacity="0.992" vector-effect="non-scaling-stroke" d="
  M 226.04 110.50
  L 225.50 110.79"
/>
<path stroke="#eb7adb" vector-effect="non-scaling-stroke" d="
  M 246.00 130.46
  L 246.04 129.75"
/>
<path stroke="#1a0f31" vector-effect="non-scaling-stroke" d="
  M 255.75 115.29
  Q 252.89 116.70 250.75 114.21"
/>
<path stroke="#ed75c4" vector-effect="non-scaling-stroke" d="
  M 198.00 91.04
  L 198.54 91.14
  Q 199.48 91.32 198.81 92.01
  Q 198.02 92.82 198.21 94.25"
/>
<path stroke="#7c99b7" stroke-opacity="0.992" vector-effect="non-scaling-stroke" d="
  M 223.79 107.25
  L 223.75 108.21"
/>
<path stroke="#7c99b7" stroke-opacity="0.992" vector-effect="non-scaling-stroke" d="
  M 223.21 108.50
  L 221.75 108.46"
/>
<path stroke="#c6e7f6" vector-effect="non-scaling-stroke" d="
  M 221.75 108.46
  L 221.25 108.29"
/>
<path stroke="#7c99b7" stroke-opacity="0.992" vector-effect="non-scaling-stroke" d="
  M 221.25 108.29
  C 220.74 107.71 218.02 106.76 219.50 108.21"
/>
<path stroke="#c6e7f6" vector-effect="non-scaling-stroke" d="
  M 219.50 108.21
  L 214.54 108.25"
/>
<path stroke="#433c5f" stroke-opacity="0.992" vector-effect="non-scaling-stroke" d="
  M 265.50 107.79
  Q 263.80 106.81 262.25 108.04"
/>
<path stroke="#403352" stroke-opacity="0.992" vector-effect="non-scaling-stroke" d="
  M 262.25 108.04
  L 257.46 107.75"
/>
<path stroke="#1a0f31" vector-effect="non-scaling-stroke" d="
  M 263.04 110.00
  L 262.25 108.04"
/>
<path stroke="#3280e7" vector-effect="non-scaling-stroke" d="
  M 112.79 152.53
  L 90.10 153.10
  A 1.00 1.00 0.0 0 0 89.13 154.08
  L 88.53 176.83"
/>
<path stroke="#ae0e77" vector-effect="non-scaling-stroke" d="
  M 114.54 154.00
  L 114.32 154.18
  A 0.81 0.79 71.6 0 0 114.03 154.78
  Q 113.83 162.62 114.26 170.53
  Q 114.45 173.95 111.04 173.13
  A 0.81 0.79 -62.2 0 0 110.26 173.38
  Q 109.53 174.19 111.25 174.29"
/>
<path stroke="#ae0e77" vector-effect="non-scaling-stroke" d="
  M 113.81 177.41
  L 107.75 178.29"
/>
<path stroke="#ae0e77" vector-effect="non-scaling-stroke" d="
  M 102.14 173.69
  Q 98.98 172.44 95.76 173.24
  A 1.00 1.00 0.0 0 0 95.00 174.21
  L 95.00 176.92
  A 1.00 0.99 2.1 0 1 93.93 177.91
  Q 92.03 177.77 90.50 178.54"
/>
<path stroke="#3280e7" vector-effect="non-scaling-stroke" d="
  M 142.03 152.52
  Q 128.60 153.57 119.56 152.94
  Q 117.28 152.78 117.71 155.00"
/>
<path stroke="#49dde8" vector-effect="non-scaling-stroke" d="
  M 117.71 155.00
  Q 116.92 155.94 117.21 157.25"
/>
<path stroke="#ae0e77" vector-effect="non-scaling-stroke" d="
  M 143.29 155.50
  L 143.06 177.01
  A 1.01 1.01 0.0 0 1 142.01 178.00
  Q 139.52 177.89 138.75 178.54"
/>
<path stroke="#7673eb" vector-effect="non-scaling-stroke" d="
  M 136.50 176.29
  Q 137.64 174.55 136.00 173.29"
/>
<path stroke="#ae0e77" vector-effect="non-scaling-stroke" d="
  M 136.00 173.29
  Q 130.37 172.57 124.60 173.39
  A 1.00 0.99 -6.6 0 0 123.74 174.47
  L 123.96 176.75
  A 1.00 0.99 82.6 0 1 123.13 177.83
  L 119.21 178.50"
/>
<path stroke="#7673eb" vector-effect="non-scaling-stroke" d="
  M 117.46 177.00
  L 117.77 176.60
  A 1.03 1.01 -26.6 0 0 117.99 175.97
  L 117.71 155.00"
/>
<path stroke="#c66b78" stroke-opacity="0.996" vector-effect="non-scaling-stroke" d="
  M 136.00 173.29
  L 135.96 174.00"
/>
<path stroke="#3280e7" vector-effect="non-scaling-stroke" d="
  M 151.25 152.71
  L 147.63 153.13
  A 1.01 1.00 -88.0 0 0 146.77 153.94
  L 146.30 156.40"
/>
<path stroke="#ae0e77" vector-effect="non-scaling-stroke" d="
  M 153.36 153.93
  Q 152.49 156.46 152.70 159.00
  C 152.77 159.89 152.44 160.79 153.50 161.29"
/>
<path stroke="#7673eb" vector-effect="non-scaling-stroke" d="
  M 153.44 161.70
  Q 152.64 161.97 153.18 162.43
  A 1.05 1.02 64.2 0 0 153.84 162.67
  L 165.12 162.59"
/>
<path stroke="#ae0e77" vector-effect="non-scaling-stroke" d="
  M 172.48 153.98
  Q 171.71 165.37 171.93 176.89
  A 1.00 1.00 0.0 0 1 170.95 177.91
  Q 156.75 178.17 148.85 177.95
  Q 148.22 177.93 148.00 178.29"
/>
<path stroke="#3280e7" vector-effect="non-scaling-stroke" d="
  M 163.50 171.71
  C 166.74 172.98 166.48 168.60 165.00 168.54"
/>
<path stroke="#ae0e77" vector-effect="non-scaling-stroke" d="
  M 164.50 168.54
  Q 160.01 168.27 148.94 168.19
  Q 148.11 168.18 147.75 168.54"
/>
<path stroke="#3280e7" vector-effect="non-scaling-stroke" d="
  M 170.25 152.71
  L 167.07 153.01
  A 0.99 0.99 0.0 0 0 166.17 154.06
  Q 166.45 158.45 165.12 162.59"
/>
<path stroke="#49dde8" vector-effect="non-scaling-stroke" d="
  M 165.12 162.59
  L 164.50 161.71"
/>
<path stroke="#3280e7" vector-effect="non-scaling-stroke" d="
  M 199.50 152.71
  L 176.53 152.91
  A 1.00 1.00 0.0 0 0 175.54 153.96
  Q 176.13 165.67 175.34 177.54"
/>
<path stroke="#ae0e77" vector-effect="non-scaling-stroke" d="
  M 201.04 153.75
  L 200.86 153.97
  A 0.49 0.48 -23.7 0 0 200.73 154.30
  L 200.76 176.86
  A 1.00 1.00 0.0 0 1 199.79 177.86
  C 195.75 177.97 177.31 177.82 177.00 178.29"
/>
<path stroke="#3280e7" vector-effect="non-scaling-stroke" d="
  M 209.04 152.50
  Q 207.49 153.31 205.68 152.96
  A 1.00 1.00 0.0 0 0 204.49 153.94
  L 204.46 160.25"
/>
<path stroke="#158fa9" vector-effect="non-scaling-stroke" d="
  M 204.46 160.25
  L 204.21 161.00"
/>
<path stroke="#ae0e77" vector-effect="non-scaling-stroke" d="
  M 210.79 153.75
  Q 209.99 156.05 211.71 157.50"
/>
<path stroke="#ae0e77" vector-effect="non-scaling-stroke" d="
  M 230.65 153.70
  Q 229.12 154.11 229.40 154.66
  Q 229.75 155.33 229.75 155.50
  L 229.75 176.83
  A 1.01 1.00 86.5 0 1 228.87 177.83
  L 225.00 178.29"
/>
<path stroke="#3280e7" vector-effect="non-scaling-stroke" d="
  M 223.46 177.00
  Q 224.82 174.31 222.50 173.29"
/>
<path stroke="#ae0e77" vector-effect="non-scaling-stroke" d="
  M 211.79 165.75
  Q 210.46 164.57 210.65 166.46
  Q 211.00 169.87 210.59 176.93
  A 1.00 1.00 0.0 0 1 209.77 177.85
  L 206.00 178.54"
/>
<path stroke="#4126ac" vector-effect="non-scaling-stroke" d="
  M 204.46 177.25
  L 204.46 160.25"
/>
<path stroke="#3280e7" vector-effect="non-scaling-stroke" d="
  M 228.25 152.71
  Q 226.77 153.23 224.90 152.93
  A 1.01 1.00 4.4 0 0 223.74 153.92
  L 223.77 165.34
  A 0.64 0.64 0.0 0 1 223.50 165.86
  Q 222.87 166.32 222.46 165.00"
/>
<path stroke="#3280e7" vector-effect="non-scaling-stroke" d="
  M 279.75 152.54
  C 277.64 153.88 260.56 153.03 256.73 153.12
  A 1.00 0.99 89.4 0 0 255.76 154.12
  L 255.75 176.33
  A 0.78 0.76 -28.2 0 1 255.61 176.77
  L 255.46 177.00"
/>
<path stroke="#ae0e77" vector-effect="non-scaling-stroke" d="
  M 281.50 154.04
  L 281.20 154.48
  A 1.02 0.97 63.2 0 0 281.03 155.04
  L 280.99 172.00
  A 1.01 1.00 -89.7 0 1 279.99 173.00
  L 277.80 173.01
  Q 277.56 173.01 277.34 173.12
  Q 276.11 173.78 277.75 174.29"
/>
<path stroke="#ae0e77" vector-effect="non-scaling-stroke" d="
  M 280.50 177.21
  C 278.65 178.37 275.94 177.47 275.00 178.54"
/>
<path stroke="#ae0e77" vector-effect="non-scaling-stroke" d="
  M 269.61 174.02
  Q 266.15 172.34 262.48 173.36
  A 1.01 1.01 0.0 0 0 261.75 174.33
  L 261.75 176.88
  A 1.00 1.00 0.0 0 1 260.94 177.86
  L 257.50 178.54"
/>
<path stroke="#3280e7" vector-effect="non-scaling-stroke" d="
  M 308.32 152.56
  L 285.73 153.07
  A 1.00 0.99 -81.4 0 0 284.80 153.76
  Q 284.34 155.21 284.46 156.75"
/>
<path stroke="#ae0e77" vector-effect="non-scaling-stroke" d="
  M 310.22 153.95
  L 309.68 157.88
  A 1.00 1.00 0.0 0 1 308.69 158.74
  L 292.05 158.70
  A 1.04 1.00 -69.4 0 0 291.27 159.07
  Q 290.34 160.21 291.04 161.75"
/>
<path stroke="#7673eb" vector-effect="non-scaling-stroke" d="
  M 291.04 161.75
  L 291.01 162.04
  A 0.65 0.64 -87.2 0 0 291.65 162.75
  L 308.79 162.75
  A 0.22 0.21 -88.6 0 0 309.00 162.54
  L 309.00 162.29"
/>
<path stroke="#ae0e77" vector-effect="non-scaling-stroke" d="
  M 310.50 163.29
  Q 309.70 165.09 310.02 167.09
  A 1.00 0.99 85.3 0 1 309.04 168.25
  L 291.85 168.25
  A 1.00 1.00 0.0 0 0 290.99 168.74
  Q 289.80 170.75 291.88 170.98"
/>
<path stroke="#ae0e77" vector-effect="non-scaling-stroke" d="
  M 310.39 172.90
  L 309.81 177.14
  A 1.00 1.00 0.0 0 1 308.82 178.00
  L 287.28 178.00
  A 1.00 0.99 -63.7 0 0 286.67 178.21
  L 286.25 178.54"
/>
<path stroke="#c66b78" stroke-opacity="0.996" vector-effect="non-scaling-stroke" d="
  M 291.50 161.29
  L 291.04 161.75"
/>
<path stroke="#3280e7" vector-effect="non-scaling-stroke" d="
  M 336.76 152.46
  Q 325.70 153.31 314.60 153.08
  A 0.99 0.99 0.0 0 0 313.59 154.00
  L 313.29 157.75"
/>
<path stroke="#ae0e77" vector-effect="non-scaling-stroke" d="
  M 339.25 153.71
  L 338.68 158.00
  A 1.01 1.00 -86.0 0 1 337.69 158.87
  L 330.18 158.88
  A 1.00 0.99 0.3 0 0 329.18 159.86
  L 328.95 176.87
  A 1.00 0.99 84.2 0 1 328.17 177.83
  L 325.00 178.54"
/>
<path stroke="#3280e7" vector-effect="non-scaling-stroke" d="
  M 322.77 177.29
  Q 323.81 168.38 322.96 159.56
  C 322.92 159.14 322.67 158.93 322.25 159.04"
/>
<path stroke="#ae0e77" vector-effect="non-scaling-stroke" d="
  M 322.25 159.04
  Q 318.54 158.30 314.96 159.25"
/>
<path stroke="#817774" vector-effect="non-scaling-stroke" d="
  M 322.25 159.04
  L 321.96 159.75"
/>
<path stroke="#3280e7" vector-effect="non-scaling-stroke" d="
  M 366.26 152.42
  L 343.59 153.12
  A 1.00 0.99 -1.2 0 0 342.62 154.12
  L 342.70 177.55"
/>
<path stroke="#ae0e77" vector-effect="non-scaling-stroke" d="
  M 368.13 153.69
  L 367.45 172.04
  A 1.00 0.99 0.9 0 1 366.45 173.00
  L 364.60 173.00
  A 0.96 0.96 0.0 0 0 364.10 173.14
  Q 362.48 174.08 365.00 174.29"
/>
<path stroke="#ae0e77" vector-effect="non-scaling-stroke" d="
  M 367.30 177.34
  L 361.25 178.54"
/>
<path stroke="#ae0e77" vector-effect="non-scaling-stroke" d="
  M 355.47 173.74
  Q 352.37 172.12 349.20 173.13
  A 1.00 0.99 -8.8 0 0 348.50 174.08
  L 348.50 176.70
  A 0.99 0.98 82.9 0 1 347.76 177.66
  L 344.43 178.55"
/>
<path stroke="#3280e7" vector-effect="non-scaling-stroke" d="
  M 394.27 152.44
  L 372.35 153.08
  A 1.01 1.00 89.4 0 0 371.38 154.08
  L 371.21 174.25"
/>
<path stroke="#ae0e77" vector-effect="non-scaling-stroke" d="
  M 397.16 153.41
  Q 396.02 165.27 396.49 176.96
  A 1.00 1.00 0.0 0 1 395.47 178.00
  Q 384.19 177.70 372.92 178.40"
/>
<path stroke="#813188" vector-effect="non-scaling-stroke" d="
  M 270.58 80.80
  A 0.49 0.49 0.0 0 0 270.76 79.96
  L 243.22 55.94
  A 0.49 0.49 0.0 0 0 242.58 55.94
  L 214.62 79.86
  A 0.49 0.49 0.0 0 0 214.80 80.70
  L 242.62 88.84
  A 0.49 0.49 0.0 0 0 242.90 88.84
  L 270.58 80.80"
/>
<path stroke="#3e1794" vector-effect="non-scaling-stroke" d="
  M 252.97 69.34
  C 249.60 66.83 246.77 63.85 243.48 61.21
  A 1.00 0.99 -46.7 0 0 242.19 61.25
  L 233.14 69.40
  Q 232.78 69.73 233.21 69.63
  C 234.87 69.25 240.63 63.74 242.15 62.36
  A 1.02 1.00 -45.4 0 1 243.47 62.34
  Q 247.79 66.01 252.17 69.58
  Q 253.23 70.44 253.13 69.62
  A 0.43 0.41 16.8 0 0 252.97 69.34"
/>
<path stroke="#118091" vector-effect="non-scaling-stroke" d="
  M 246.54 80.00
  L 246.46 79.75"
/>
<path stroke="#212656" vector-effect="non-scaling-stroke" d="
  M 246.46 79.75
  Q 245.93 76.83 242.09 76.81
  A 1.02 0.99 -65.2 0 0 241.42 77.07
  Q 236.90 81.08 237.94 84.02
  C 239.36 88.03 245.36 87.43 247.68 84.22
  A 1.03 1.02 52.6 0 0 247.80 83.27
  L 246.54 80.00"
/>
<path stroke="#158fa9" vector-effect="non-scaling-stroke" d="
  M 246.46 79.75
  Q 243.45 77.07 240.01 78.95
  A 1.05 1.03 87.5 0 0 239.57 79.44
  Q 238.11 82.84 240.72 85.41
  A 1.00 1.00 0.0 0 0 241.29 85.68
  Q 247.57 86.53 246.54 80.00"
/>
<path stroke="#118091" vector-effect="non-scaling-stroke" d="
  M 227.29 89.53
  C 229.44 89.33 223.62 86.83 223.22 86.59
  A 1.02 1.01 46.1 0 0 222.21 86.57
  L 221.24 87.10
  Q 219.30 88.18 221.39 88.92
  Q 222.66 89.37 224.27 89.00
  Q 225.39 88.74 226.74 89.43
  A 1.00 1.00 0.0 0 0 227.29 89.53"
/>
<path stroke="#557395" vector-effect="non-scaling-stroke" d="
  M 264.20 87.08
  Q 263.74 86.88 263.33 86.79
  Q 262.44 86.59 261.24 87.25
  Q 260.67 87.56 260.11 87.89
  Q 258.39 88.91 260.38 89.08
  Q 261.37 89.16 262.32 89.48
  A 0.99 0.98 41.5 0 0 263.06 89.44
  L 264.23 88.90
  Q 266.28 87.96 264.20 87.08"
/>
<path stroke="#158fa9" vector-effect="non-scaling-stroke" d="
  M 236.88 94.77
  Q 235.52 93.44 233.54 93.61
  Q 230.87 93.84 233.23 95.11
  Q 234.61 95.86 236.18 96.13
  Q 238.71 96.57 236.88 94.77"
/>
<path stroke="#158fa9" vector-effect="non-scaling-stroke" d="
  M 253.0979 94.2358
  A 1.96 1.11 -11.9 0 0 250.9511 93.5539
  A 1.96 1.11 -11.9 0 0 249.2621 95.0442
  A 1.96 1.11 -11.9 0 0 251.4089 95.7261
  A 1.96 1.11 -11.9 0 0 253.0979 94.2358"
/>
<path stroke="#158fa9" vector-effect="non-scaling-stroke" d="
  M 243.8182 98.0555
  A 1.04 0.98 -39.0 0 0 242.3933 97.9484
  A 1.04 0.98 -39.0 0 0 242.2018 99.3645
  A 1.04 0.98 -39.0 0 0 243.6267 99.4716
  A 1.04 0.98 -39.0 0 0 243.8182 98.0555"
/>
<path stroke="#526b88" vector-effect="non-scaling-stroke" d="
  M 232.1579 113.1171
  A 2.13 0.73 26.4 0 0 230.5746 111.5161
  A 2.13 0.73 26.4 0 0 228.3421 111.2229
  A 2.13 0.73 26.4 0 0 229.9254 112.8239
  A 2.13 0.73 26.4 0 0 232.1579 113.1171"
/>
<path stroke="#526b88" vector-effect="non-scaling-stroke" d="
  M 257.6379 111.0570
  A 2.22 0.70 -29.2 0 0 255.3585 111.5290
  A 2.22 0.70 -29.2 0 0 253.7621 113.2230
  A 2.22 0.70 -29.2 0 0 256.0415 112.7510
  A 2.22 0.70 -29.2 0 0 257.6379 111.0570"
/>
<path stroke="#3280e7" vector-effect="non-scaling-stroke" d="
  M 348.79 166.25
  L 348.76 166.54
  A 0.64 0.64 0.0 0 0 349.40 167.25
  L 360.70 167.25
  A 1.01 1.00 3.2 0 0 361.70 166.36
  Q 362.10 162.56 361.29 159.00"
/>
<path stroke="#ae0e77" vector-effect="non-scaling-stroke" d="
  M 360.50 159.04
  L 349.50 158.75
  A 1.00 1.00 0.0 0 0 348.47 159.80
  L 348.79 166.25"
/>
<path stroke="#817774" vector-effect="non-scaling-stroke" d="
  M 349.71 166.00
  L 348.79 166.25"
/>
<path stroke="#4126ac" vector-effect="non-scaling-stroke" d="
  M 377.54 171.00
  Q 377.63 172.73 379.25 171.71"
/>
<path stroke="#3280e7" vector-effect="non-scaling-stroke" d="
  M 387.25 171.71
  Q 388.46 172.08 389.70 171.90
  A 1.00 0.99 -2.1 0 0 390.56 170.98
  C 390.62 170.09 391.15 157.20 389.46 159.25"
/>
<path stroke="#ae0e77" vector-effect="non-scaling-stroke" d="
  M 389.46 159.25
  Q 383.91 158.49 378.34 158.99
  A 1.00 0.99 1.4 0 0 377.44 159.84
  Q 376.65 165.42 377.54 171.00"
/>
<path stroke="#817774" vector-effect="non-scaling-stroke" d="
  M 389.46 159.25
  L 389.46 159.50"
/>
<path stroke="#911d39" vector-effect="non-scaling-stroke" d="
  M 378.75 170.79
  L 377.54 171.00"
/>
<path stroke="#3280e7" vector-effect="non-scaling-stroke" d="
  M 95.50 166.21
  Q 95.27 166.40 95.22 166.63
  A 0.51 0.51 0.0 0 0 95.72 167.25
  L 107.25 167.25
  A 1.00 1.00 0.0 0 0 108.25 166.25
  L 108.25 159.69
  A 0.82 0.79 23.3 0 0 108.01 159.12
  Q 107.54 158.65 106.96 159.00"
/>
<path stroke="#ae0e77" vector-effect="non-scaling-stroke" d="
  M 106.96 159.00
  L 96.20 158.93
  A 1.00 1.00 0.0 0 0 95.23 159.69
  Q 94.42 162.97 95.50 166.21"
/>
<path stroke="#817774" vector-effect="non-scaling-stroke" d="
  M 106.96 159.00
  L 106.75 159.71"
/>
<path stroke="#817774" vector-effect="non-scaling-stroke" d="
  M 96.50 165.96
  L 95.50 166.21"
/>
<path stroke="#3280e7" vector-effect="non-scaling-stroke" d="
  M 262.04 166.00
  Q 261.66 167.16 262.77 167.18
  Q 268.19 167.31 273.83 167.19
  A 1.01 1.00 -86.6 0 0 274.80 166.32
  Q 275.18 163.46 274.94 160.02
  Q 274.87 159.04 274.00 159.04"
/>
<path stroke="#ae0e77" vector-effect="non-scaling-stroke" d="
  M 274.00 159.04
  L 262.85 158.93
  A 1.01 1.00 -85.8 0 0 261.85 159.80
  Q 261.43 162.80 262.04 166.00"
/>
<path stroke="#817774" vector-effect="non-scaling-stroke" d="
  M 274.00 159.04
  L 273.75 159.71"
/>
<path stroke="#817774" vector-effect="non-scaling-stroke" d="
  M 263.42 166.30
  L 262.04 166.00"
/>
<path stroke="#3280e7" vector-effect="non-scaling-stroke" d="
  M 124.25 166.21
  Q 123.52 166.60 124.05 167.08
  A 0.63 0.62 -23.0 0 0 124.48 167.25
  L 135.70 167.25
  A 1.00 1.00 0.0 0 0 136.68 166.46
  C 136.76 166.09 137.58 156.88 135.79 159.25"
/>
<path stroke="#ae0e77" vector-effect="non-scaling-stroke" d="
  M 135.79 159.25
  Q 134.76 158.62 133.75 159.29"
/>
<path stroke="#ae0e77" vector-effect="non-scaling-stroke" d="
  M 127.44 159.33
  Q 126.11 158.48 124.41 159.07
  A 1.01 1.01 0.0 0 0 123.74 159.91
  Q 123.41 163.12 124.25 166.21"
/>
<path stroke="#817774" vector-effect="non-scaling-stroke" d="
  M 125.46 166.00
  L 124.25 166.21"
/>
<path stroke="#817774" vector-effect="non-scaling-stroke" d="
  M 135.75 159.71
  L 135.79 159.25"
/>
<path stroke="#7673eb" vector-effect="non-scaling-stroke" d="
  M 181.54 170.75
  Q 181.07 172.53 183.25 171.96"
/>
<path stroke="#3280e7" vector-effect="non-scaling-stroke" d="
  M 183.25 171.96
  L 193.75 171.99
  A 1.00 1.00 0.0 0 0 194.75 170.99
  L 194.75 159.63
  A 0.65 0.64 15.9 0 0 194.44 159.08
  Q 193.94 158.79 193.50 159.21"
/>
<path stroke="#ae0e77" vector-effect="non-scaling-stroke" d="
  M 193.50 159.21
  L 182.53 158.99
  A 1.00 1.00 0.0 0 0 181.51 159.99
  L 181.54 170.75"
/>
<path stroke="#817774" vector-effect="non-scaling-stroke" d="
  M 193.50 159.21
  L 193.71 159.75"
/>
<path stroke="#c66b78" stroke-opacity="0.996" vector-effect="non-scaling-stroke" d="
  M 183.00 170.96
  L 181.54 170.75"
/>
<path stroke="#49dde8" vector-effect="non-scaling-stroke" d="
  M 183.25 171.96
  L 183.75 171.54"
/>
</g>
<path fill="#6a6180" fill-opacity="0.984" d="
  M 241.89 49.71
  Q 241.51 50.44 240.74 50.79
  Q 239.16 51.52 240.46 50.36
  L 242.61 48.43
  Q 243.59 47.55 243.46 48.86
  Q 243.41 49.42 242.75 49.29
  A 0.81 0.80 -70.6 0 0 241.89 49.71
  Z"
/>
<path fill="#6a6180" fill-opacity="0.984" d="
  M 271.00 73.96
  C 267.64 73.68 273.83 78.58 274.33 79.05
  A 1.00 1.00 0.0 0 1 274.56 80.20
  Q 274.35 80.64 274.00 80.96
  L 273.75 80.29
  Q 274.04 80.11 274.05 79.74
  A 0.51 0.51 0.0 0 0 273.88 79.34
  C 265.71 72.19 261.24 65.05 250.82 57.81
  L 247.79 55.25
  C 249.78 55.34 248.32 54.15 247.80 53.86
  Q 246.24 52.96 245.17 51.59
  Q 242.08 47.70 245.76 51.04
  L 271.00 73.96
  Z"
/>
<path fill="#fefefe" d="
  M 247.79 55.25
  L 250.82 57.81
  L 252.45 61.04
  Q 247.64 57.86 243.69 53.61
  A 1.00 1.00 0.0 0 0 242.32 53.52
  Q 238.67 56.56 234.84 60.73
  C 234.11 61.53 233.52 61.54 232.54 61.25
  L 242.19 52.15
  A 1.01 0.99 41.3 0 1 243.47 52.08
  L 247.79 55.25
  Z"
/>
<path fill="#6a6180" fill-opacity="0.984" d="
  M 225.25 65.54
  L 224.71 64.50
  Q 230.90 58.78 237.23 53.23
  Q 237.81 52.72 237.92 53.20
  A 0.40 0.39 61.3 0 1 237.81 53.59
  L 225.25 65.54
  Z"
/>
<path fill="#e54ad1" d="
  M 252.45 61.04
  C 259.10 67.38 266.06 75.33 273.75 80.29
  L 274.00 80.96
  L 263.50 84.29
  L 253.00 87.54
  Q 248.90 88.63 244.79 89.71
  C 241.55 90.57 238.63 89.23 235.50 88.46
  L 222.11 84.40
  Q 217.24 82.75 212.57 81.58
  C 211.94 81.42 211.12 80.81 212.50 80.54
  Q 223.37 71.78 232.54 61.25
  C 233.52 61.54 234.11 61.53 234.84 60.73
  Q 238.67 56.56 242.32 53.52
  A 1.00 1.00 0.0 0 1 243.69 53.61
  Q 247.64 57.86 252.45 61.04
  Z
  M 270.58 80.80
  A 0.49 0.49 0.0 0 0 270.76 79.96
  L 243.22 55.94
  A 0.49 0.49 0.0 0 0 242.58 55.94
  L 214.62 79.86
  A 0.49 0.49 0.0 0 0 214.80 80.70
  L 242.62 88.84
  A 0.49 0.49 0.0 0 0 242.90 88.84
  L 270.58 80.80
  Z"
/>
<path fill="#1d173e" d="
  M 270.58 80.80
  L 242.90 88.84
  A 0.49 0.49 0.0 0 1 242.62 88.84
  L 214.80 80.70
  A 0.49 0.49 0.0 0 1 214.62 79.86
  L 242.58 55.94
  A 0.49 0.49 0.0 0 1 243.22 55.94
  L 270.76 79.96
  A 0.49 0.49 0.0 0 1 270.58 80.80
  Z
  M 252.97 69.34
  C 249.60 66.83 246.77 63.85 243.48 61.21
  A 1.00 0.99 -46.7 0 0 242.19 61.25
  L 233.14 69.40
  Q 232.78 69.73 233.21 69.63
  C 234.87 69.25 240.63 63.74 242.15 62.36
  A 1.02 1.00 -45.4 0 1 243.47 62.34
  Q 247.79 66.01 252.17 69.58
  Q 253.23 70.44 253.13 69.62
  A 0.43 0.41 16.8 0 0 252.97 69.34
  Z
  M 246.54 80.00
  L 246.46 79.75
  Q 245.93 76.83 242.09 76.81
  A 1.02 0.99 -65.2 0 0 241.42 77.07
  Q 236.90 81.08 237.94 84.02
  C 239.36 88.03 245.36 87.43 247.68 84.22
  A 1.03 1.02 52.6 0 0 247.80 83.27
  L 246.54 80.00
  Z"
/>
<path fill="#6a6180" fill-opacity="0.984" d="
  M 221.86 57.48
  C 221.64 57.85 220.01 60.17 219.46 59.59
  A 0.52 0.51 -44.2 0 1 219.48 58.87
  L 221.34 57.08
  Q 223.02 55.47 221.86 57.48
  Z"
/>
<path fill="#6a6180" fill-opacity="0.984" d="
  M 265.20 58.30
  Q 266.26 58.53 266.50 59.52
  Q 266.79 60.67 265.95 59.83
  L 263.57 57.44
  Q 262.97 56.84 263.82 56.75
  Q 264.34 56.69 264.41 57.43
  A 1.00 1.00 0.0 0 0 265.20 58.30
  Z"
/>
<path fill="#5e17ea" d="
  M 243.48 61.21
  C 246.77 63.85 249.60 66.83 252.97 69.34
  A 0.43 0.41 16.8 0 1 253.13 69.62
  Q 253.23 70.44 252.17 69.58
  Q 247.79 66.01 243.47 62.34
  A 1.02 1.00 -45.4 0 0 242.15 62.36
  C 240.63 63.74 234.87 69.25 233.21 69.63
  Q 232.78 69.73 233.14 69.40
  L 242.19 61.25
  A 1.00 0.99 -46.7 0 1 243.48 61.21
  Z"
/>
<path fill="#f2aae5" fill-opacity="0.996" d="
  M 216.89 64.40
  Q 217.05 64.24 217.27 64.18
  Q 218.77 63.71 217.65 64.91
  Q 213.56 69.26 209.82 73.92
  A 0.26 0.26 0.0 0 1 209.54 74.01
  L 209.30 73.94
  A 0.27 0.18 -61.5 0 1 209.27 73.58
  Q 212.49 68.50 216.89 64.40
  Z"
/>
<path fill="#f2aae5" fill-opacity="0.996" d="
  M 270.31 65.94
  Q 273.34 68.55 275.17 71.49
  Q 279.33 78.17 274.15 72.25
  L 267.55 64.72
  A 0.45 0.43 -56.9 0 1 267.47 64.31
  L 267.56 64.06
  A 0.31 0.19 28.6 0 1 267.95 64.04
  Q 268.57 64.43 270.31 65.94
  Z"
/>
<path fill="#1d173e" d="
  M 224.71 64.50
  L 225.25 65.54
  C 220.89 69.95 215.14 74.36 211.21 79.50
  L 209.50 79.21
  Q 216.62 71.36 224.71 64.50
  Z"
/>
<path fill="#160624" d="
  M 271.00 73.96
  L 279.27 82.19
  A 0.99 0.98 -59.4 0 1 279.52 83.19
  L 277.80 88.80
  Q 277.73 89.03 277.56 89.21
  L 273.84 93.02
  L 268.25 96.29
  Q 264.39 96.50 261.21 98.75
  Q 258.89 99.45 257.04 101.00
  L 254.00 102.71
  L 254.17 101.49
  A 1.00 0.99 -10.3 0 1 254.69 100.75
  L 265.24 95.03
  A 0.82 0.77 83.0 0 0 265.63 94.50
  Q 265.87 93.48 264.50 94.29
  Q 263.45 91.18 266.00 90.09
  A 0.99 0.99 0.0 0 0 266.49 89.66
  Q 268.51 86.01 264.92 85.69
  A 1.02 1.01 -7.3 0 1 264.06 85.03
  Q 263.89 84.55 263.50 84.29
  L 274.00 80.96
  Q 274.35 80.64 274.56 80.20
  A 1.00 1.00 0.0 0 0 274.33 79.05
  C 273.83 78.58 267.64 73.68 271.00 73.96
  Z"
/>
<path fill="#24356e" d="
  M 246.46 79.75
  Q 243.45 77.07 240.01 78.95
  A 1.05 1.03 87.5 0 0 239.57 79.44
  Q 238.11 82.84 240.72 85.41
  A 1.00 1.00 0.0 0 0 241.29 85.68
  Q 247.57 86.53 246.54 80.00
  L 247.80 83.27
  A 1.03 1.02 52.6 0 1 247.68 84.22
  C 245.36 87.43 239.36 88.03 237.94 84.02
  Q 236.90 81.08 241.42 77.07
  A 1.02 0.99 -65.2 0 1 242.09 76.81
  Q 245.93 76.83 246.46 79.75
  Z"
/>
<path fill="#05e9e4" d="
  M 246.46 79.75
  L 246.54 80.00
  Q 247.57 86.53 241.29 85.68
  A 1.00 1.00 0.0 0 1 240.72 85.41
  Q 238.11 82.84 239.57 79.44
  A 1.05 1.03 87.5 0 1 240.01 78.95
  Q 243.45 77.07 246.46 79.75
  Z"
/>
<path fill="#160624" d="
  M 209.50 79.21
  L 211.21 79.50
  Q 211.16 80.73 212.50 80.54
  C 211.12 80.81 211.94 81.42 212.57 81.58
  Q 217.24 82.75 222.11 84.40
  Q 217.97 86.17 219.47 89.67
  A 1.00 0.99 81.3 0 0 220.28 90.27
  C 223.03 90.56 225.89 93.31 223.00 95.54
  C 222.28 95.14 217.71 92.26 217.32 92.45
  Q 216.88 92.67 217.31 92.91
  L 225.75 97.71
  Q 229.22 99.30 231.63 102.18
  L 211.75 92.96
  Q 210.32 90.68 208.04 89.25
  L 206.12 83.32
  A 1.00 0.99 59.0 0 1 206.37 82.30
  L 209.50 79.21
  Z"
/>
<path fill="#1d173e" d="
  M 222.11 84.40
  L 235.50 88.46
  Q 235.22 89.66 234.50 90.54
  L 232.37 89.24
  A 0.59 0.15 32.1 0 0 231.81 89.06
  L 231.60 89.32
  A 0.41 0.41 0.0 0 0 231.70 89.92
  L 233.25 90.96
  Q 231.25 93.11 232.32 95.97
  A 1.01 0.97 6.0 0 0 232.74 96.47
  Q 235.64 98.19 239.01 97.72
  A 1.01 1.00 66.7 0 1 239.94 98.10
  Q 243.52 102.74 246.67 97.85
  A 1.01 0.97 13.2 0 1 247.43 97.40
  L 253.02 96.94
  A 0.99 0.99 0.0 0 0 253.93 96.06
  Q 254.29 92.90 252.75 90.71
  Q 254.89 89.65 253.50 89.54
  L 253.00 87.54
  L 263.50 84.29
  Q 263.89 84.55 264.06 85.03
  A 1.02 1.01 -7.3 0 0 264.92 85.69
  Q 268.51 86.01 266.49 89.66
  A 0.99 0.99 0.0 0 1 266.00 90.09
  Q 263.45 91.18 264.50 94.29
  L 248.50 103.21
  Q 245.68 105.22 242.32 105.71
  A 1.09 1.05 -34.0 0 1 241.70 105.60
  L 225.79 97.00
  L 223.00 95.54
  C 225.89 93.31 223.03 90.56 220.28 90.27
  A 1.00 0.99 81.3 0 1 219.47 89.67
  Q 217.97 86.17 222.11 84.40
  Z
  M 227.29 89.53
  C 229.44 89.33 223.62 86.83 223.22 86.59
  A 1.02 1.01 46.1 0 0 222.21 86.57
  L 221.24 87.10
  Q 219.30 88.18 221.39 88.92
  Q 222.66 89.37 224.27 89.00
  Q 225.39 88.74 226.74 89.43
  A 1.00 1.00 0.0 0 0 227.29 89.53
  Z
  M 264.20 87.08
  Q 263.74 86.88 263.33 86.79
  Q 262.44 86.59 261.24 87.25
  Q 260.67 87.56 260.11 87.89
  Q 258.39 88.91 260.38 89.08
  Q 261.37 89.16 262.32 89.48
  A 0.99 0.98 41.5 0 0 263.06 89.44
  L 264.23 88.90
  Q 266.28 87.96 264.20 87.08
  Z"
/>
<path fill="#05e9e4" d="
  M 223.22 86.59
  C 223.62 86.83 229.44 89.33 227.29 89.53
  A 1.00 1.00 0.0 0 1 226.74 89.43
  Q 225.39 88.74 224.27 89.00
  Q 222.66 89.37 221.39 88.92
  Q 219.30 88.18 221.24 87.10
  L 222.21 86.57
  A 1.02 1.01 46.1 0 1 223.22 86.59
  Z"
/>
<path fill="#8ed0ed" fill-opacity="0.996" d="
  M 264.20 87.08
  Q 266.28 87.96 264.23 88.90
  L 263.06 89.44
  A 0.99 0.98 41.5 0 1 262.32 89.48
  Q 261.37 89.16 260.38 89.08
  Q 258.39 88.91 260.11 87.89
  Q 260.67 87.56 261.24 87.25
  Q 262.44 86.59 263.33 86.79
  Q 263.74 86.88 264.20 87.08
  Z"
/>
<path fill="#24356e" d="
  M 253.00 87.54
  L 253.50 89.54
  L 243.31 95.06
  A 1.00 1.00 0.0 0 1 242.34 95.04
  L 234.50 90.54
  Q 235.22 89.66 235.50 88.46
  C 238.63 89.23 241.55 90.57 244.79 89.71
  Q 248.90 88.63 253.00 87.54
  Z"
/>
<path fill="#5e17ea" d="
  M 234.50 90.54
  L 242.34 95.04
  A 1.00 1.00 0.0 0 0 243.31 95.06
  L 253.50 89.54
  Q 254.89 89.65 252.75 90.71
  L 243.22 96.25
  A 1.00 0.98 -44.5 0 1 242.21 96.25
  L 233.25 90.96
  L 231.70 89.92
  A 0.41 0.41 0.0 0 1 231.60 89.32
  L 231.81 89.06
  A 0.59 0.15 32.1 0 1 232.37 89.24
  L 234.50 90.54
  Z"
/>
<path fill="#1d173e" d="
  M 208.04 89.25
  Q 210.32 90.68 211.75 92.96
  L 209.71 92.00
  L 208.04 89.25
  Z"
/>
<path fill="#24356e" d="
  M 252.75 90.71
  Q 254.29 92.90 253.93 96.06
  A 0.99 0.99 0.0 0 1 253.02 96.94
  L 247.43 97.40
  A 1.01 0.97 13.2 0 0 246.67 97.85
  Q 243.52 102.74 239.94 98.10
  A 1.01 1.00 66.7 0 0 239.01 97.72
  Q 235.64 98.19 232.74 96.47
  A 1.01 0.97 6.0 0 1 232.32 95.97
  Q 231.25 93.11 233.25 90.96
  L 242.21 96.25
  A 1.00 0.98 -44.5 0 0 243.22 96.25
  L 252.75 90.71
  Z
  M 236.88 94.77
  Q 235.52 93.44 233.54 93.61
  Q 230.87 93.84 233.23 95.11
  Q 234.61 95.86 236.18 96.13
  Q 238.71 96.57 236.88 94.77
  Z
  M 253.0979 94.2358
  A 1.96 1.11 -11.9 0 0 250.9511 93.5539
  A 1.96 1.11 -11.9 0 0 249.2621 95.0442
  A 1.96 1.11 -11.9 0 0 251.4089 95.7261
  A 1.96 1.11 -11.9 0 0 253.0979 94.2358
  Z
  M 243.8182 98.0555
  A 1.04 0.98 -39.0 0 0 242.3933 97.9484
  A 1.04 0.98 -39.0 0 0 242.2018 99.3645
  A 1.04 0.98 -39.0 0 0 243.6267 99.4716
  A 1.04 0.98 -39.0 0 0 243.8182 98.0555
  Z"
/>
<path fill="#f2aae5" fill-opacity="0.996" d="
  M 198.00 91.04
  L 198.54 91.14
  Q 199.48 91.32 198.81 92.01
  Q 198.02 92.82 198.21 94.25
  L 193.29 92.77
  Q 188.66 91.38 193.49 91.21
  L 198.00 91.04
  Z"
/>
<path fill="#e840a4" d="
  M 198.00 91.04
  Q 203.78 90.32 209.29 92.00
  L 209.52 92.63
  A 1.00 0.99 4.2 0 0 209.99 93.17
  L 224.25 100.71
  Q 222.84 100.64 222.89 101.44
  A 0.51 0.50 4.8 0 1 222.27 101.96
  L 221.71 101.84
  Q 220.40 101.56 221.50 102.31
  L 225.04 104.74
  Q 211.87 98.82 198.21 94.25
  Q 198.02 92.82 198.81 92.01
  Q 199.48 91.32 198.54 91.14
  L 198.00 91.04
  Z"
/>
<path fill="#e840a4" d="
  M 280.73 91.11
  L 286.72 92.27
  A 1.01 1.01 0.0 0 1 287.51 93.05
  L 287.75 94.21
  L 266.00 102.46
  Q 264.15 101.55 263.25 99.71
  L 267.04 97.00
  L 268.25 96.29
  L 273.84 93.02
  Q 277.34 91.15 280.73 91.11
  Z"
/>
<path fill="#f2aae5" fill-opacity="0.996" d="
  M 280.73 91.11
  Q 291.54 90.75 294.68 91.06
  C 298.61 91.45 288.13 94.10 287.75 94.21
  L 287.51 93.05
  A 1.01 1.01 0.0 0 0 286.72 92.27
  L 280.73 91.11
  Z"
/>
<path fill="#f2aae5" fill-opacity="0.996" d="
  M 209.29 92.00
  L 209.71 92.00
  L 211.75 92.96
  L 231.63 102.18
  L 232.00 102.96
  Q 231.09 103.81 232.71 104.25
  Q 236.29 106.32 239.09 109.31
  A 0.51 0.51 0.0 0 0 239.95 109.13
  Q 240.17 108.49 239.50 107.79
  Q 240.16 105.08 241.25 107.21
  Q 240.56 108.10 241.04 109.25
  L 241.21 113.00
  Q 241.14 114.22 240.44 113.91
  A 0.55 0.53 -89.0 0 1 240.16 113.61
  C 238.60 109.25 236.14 108.72 233.47 105.72
  C 231.38 103.37 227.09 102.17 224.25 100.71
  L 209.99 93.17
  A 1.00 0.99 4.2 0 1 209.52 92.63
  L 209.29 92.00
  Z"
/>
<path fill="#24356e" d="
  M 223.00 95.54
  L 225.79 97.00
  L 225.75 97.71
  L 217.31 92.91
  Q 216.88 92.67 217.32 92.45
  C 217.71 92.26 222.28 95.14 223.00 95.54
  Z"
/>
<path fill="#05e9e4" d="
  M 236.88 94.77
  Q 238.71 96.57 236.18 96.13
  Q 234.61 95.86 233.23 95.11
  Q 230.87 93.84 233.54 93.61
  Q 235.52 93.44 236.88 94.77
  Z"
/>
<ellipse fill="#05e9e4" cx="0.00" cy="0.00" transform="translate(251.18,94.64) rotate(-11.9)" rx="1.96" ry="1.11"/>
<path fill="#24356e" d="
  M 254.00 102.71
  L 252.50 103.46
  Q 251.89 102.07 250.99 103.09
  A 1.02 1.00 14.2 0 1 250.44 103.41
  Q 249.47 103.61 248.50 103.21
  L 264.50 94.29
  Q 265.87 93.48 265.63 94.50
  A 0.82 0.77 83.0 0 1 265.24 95.03
  L 254.69 100.75
  A 1.00 0.99 -10.3 0 0 254.17 101.49
  L 254.00 102.71
  Z"
/>
<path fill="#6a6180" fill-opacity="0.984" d="
  M 268.25 96.29
  L 267.04 97.00
  C 266.74 96.36 262.18 98.76 261.50 99.04
  L 261.21 98.75
  Q 264.39 96.50 268.25 96.29
  Z"
/>
<path fill="#8ed0ed" fill-opacity="0.996" d="
  M 225.79 97.00
  L 241.70 105.60
  A 1.09 1.05 -34.0 0 0 242.32 105.71
  Q 245.68 105.22 248.50 103.21
  Q 249.47 103.61 250.44 103.41
  A 1.02 1.00 14.2 0 0 250.99 103.09
  Q 251.89 102.07 252.50 103.46
  L 248.50 106.04
  Q 244.97 109.14 249.21 106.50
  L 250.50 105.96
  Q 250.71 105.95 250.82 105.99
  A 0.32 0.18 -55.5 0 1 250.79 106.40
  C 248.21 109.56 246.19 109.69 245.53 114.38
  Q 245.37 115.56 244.63 114.63
  Q 244.45 114.40 244.46 114.00
  Q 245.16 111.33 244.93 108.62
  A 1.00 1.00 0.0 0 0 243.68 107.74
  Q 242.42 108.06 241.25 107.21
  Q 240.16 105.08 239.50 107.79
  L 233.50 103.96
  L 232.00 102.96
  L 231.63 102.18
  Q 229.22 99.30 225.75 97.71
  L 225.79 97.00
  Z"
/>
<ellipse fill="#05e9e4" cx="0.00" cy="0.00" transform="translate(243.01,98.71) rotate(-39.0)" rx="1.04" ry="0.98"/>
<path fill="#1d173e" d="
  M 261.21 98.75
  L 261.50 99.04
  L 257.04 101.00
  Q 258.89 99.45 261.21 98.75
  Z"
/>
<path fill="#f2aae5" fill-opacity="0.996" d="
  M 210.59 112.40
  L 212.54 115.25
  C 214.15 117.48 217.30 121.70 220.50 119.79
  Q 218.77 121.08 220.71 122.25
  Q 229.21 128.41 239.71 129.50
  L 239.75 130.54
  C 222.01 128.77 208.02 116.80 202.16 100.22
  A 0.51 0.50 -32.8 0 1 202.28 99.69
  C 202.78 99.18 203.45 99.91 203.64 100.41
  Q 206.27 106.92 210.59 112.40
  Z"
/>
<path fill="#f2aae5" fill-opacity="0.996" d="
  M 246.00 130.46
  L 246.04 129.75
  Q 272.79 124.99 282.35 99.79
  A 0.52 0.51 -79.1 0 1 282.83 99.46
  Q 283.70 99.47 283.28 100.56
  C 276.81 117.10 264.01 128.57 246.00 130.46
  Z"
/>
<path fill="#e54ad1" d="
  M 263.25 99.71
  Q 264.15 101.55 266.00 102.46
  Q 257.99 105.09 251.54 110.44
  L 250.75 114.21
  L 250.50 114.96
  Q 249.38 116.70 249.07 118.85
  A 1.00 1.00 0.0 0 0 250.36 119.94
  Q 255.00 118.48 259.14 116.25
  C 259.94 115.82 260.24 116.03 259.53 116.52
  Q 254.42 120.03 248.54 121.78
  A 0.98 0.97 5.0 0 0 247.94 122.28
  Q 246.14 125.80 246.04 129.75
  L 246.00 130.46
  Q 244.15 133.52 243.47 137.13
  A 0.64 0.64 0.0 0 1 242.71 137.64
  Q 242.28 137.55 242.18 137.02
  Q 241.46 133.15 239.75 130.54
  L 239.71 129.50
  Q 239.38 125.77 237.96 122.27
  A 1.02 0.99 83.7 0 0 237.22 121.66
  C 232.73 120.81 229.52 118.29 225.50 116.71
  L 224.54 115.75
  L 224.79 114.25
  Q 228.87 117.85 235.43 119.95
  Q 237.37 120.57 236.67 118.65
  L 235.50 115.46
  L 234.46 112.75
  Q 234.69 110.68 232.96 109.50
  Q 232.35 106.97 229.75 107.29
  L 228.04 106.50
  L 225.04 104.74
  L 221.50 102.31
  Q 220.40 101.56 221.71 101.84
  L 222.27 101.96
  A 0.51 0.50 4.8 0 0 222.89 101.44
  Q 222.84 100.64 224.25 100.71
  C 227.09 102.17 231.38 103.37 233.47 105.72
  C 236.14 108.72 238.60 109.25 240.16 113.61
  A 0.55 0.53 -89.0 0 0 240.44 113.91
  Q 241.14 114.22 241.21 113.00
  L 241.54 116.25
  L 242.00 117.79
  L 242.29 123.25
  Q 243.68 127.93 243.51 121.62
  Q 243.01 119.83 243.46 117.75
  L 243.50 116.54
  Q 244.42 115.58 244.21 114.25
  L 244.46 114.00
  Q 244.45 114.40 244.63 114.63
  Q 245.37 115.56 245.53 114.38
  C 246.19 109.69 248.21 109.56 250.79 106.40
  A 0.32 0.18 -55.5 0 0 250.82 105.99
  Q 250.71 105.95 250.50 105.96
  L 263.25 99.71
  Z"
/>
<path fill="#6a6180" fill-opacity="0.984" d="
  M 232.00 102.96
  L 233.50 103.96
  L 232.71 104.25
  Q 231.09 103.81 232.00 102.96
  Z"
/>
<path fill="#6a6180" fill-opacity="0.984" d="
  M 265.50 107.79
  Q 263.80 106.81 262.25 108.04
  L 257.46 107.75
  Q 261.55 107.33 265.31 105.80
  Q 267.42 104.94 266.31 106.93
  Q 266.05 107.40 265.50 107.79
  Z"
/>
<path fill="#8ed0ed" fill-opacity="0.996" d="
  M 223.79 107.25
  L 223.75 108.21
  L 223.21 108.50
  L 221.75 108.46
  L 221.25 108.29
  C 220.74 107.71 218.02 106.76 219.50 108.21
  L 214.54 108.25
  Q 215.69 106.91 217.51 107.26
  A 1.00 0.99 -63.1 0 0 218.44 106.95
  L 219.34 105.96
  A 0.99 0.98 -62.2 0 1 220.29 105.66
  Q 222.23 106.07 223.79 107.25
  Z"
/>
<path fill="#6a6180" fill-opacity="0.984" d="
  M 248.50 106.04
  L 249.21 106.50
  Q 244.97 109.14 248.50 106.04
  Z"
/>
<path fill="#6a6180" fill-opacity="0.984" d="
  M 228.04 106.50
  L 229.75 107.29
  L 232.96 109.50
  Q 234.69 110.68 234.46 112.75
  Q 231.38 109.34 227.13 107.73
  A 0.99 0.97 -51.9 0 0 226.19 107.85
  Q 224.92 108.78 226.04 110.50
  L 225.50 110.79
  Q 225.38 108.82 223.75 108.21
  L 223.79 107.25
  Q 226.04 107.89 228.04 106.50
  Z"
/>
<path fill="#fefefe" d="
  M 214.54 108.25
  L 219.50 108.21
  L 221.25 108.29
  L 221.75 108.46
  L 223.46 109.75
  L 224.79 114.25
  L 224.54 115.75
  Q 223.36 118.62 220.50 119.79
  C 217.30 121.70 214.15 117.48 212.54 115.25
  Q 212.20 114.19 212.67 113.56
  A 0.64 0.64 0.0 0 1 213.66 113.53
  Q 214.24 114.18 213.71 112.50
  C 213.53 111.88 209.80 106.67 211.75 107.44
  A 0.94 0.93 -6.0 0 1 212.22 107.82
  Q 213.19 109.32 214.54 108.25
  Z"
/>
<path fill="#6a6180" fill-opacity="0.984" d="
  M 221.25 108.29
  L 219.50 108.21
  C 218.02 106.76 220.74 107.71 221.25 108.29
  Z"
/>
<path fill="#f2aae5" fill-opacity="0.996" d="
  M 229.75 107.29
  Q 232.35 106.97 232.96 109.50
  L 229.75 107.29
  Z"
/>
<path fill="#24356e" d="
  M 241.25 107.21
  Q 242.42 108.06 243.68 107.74
  A 1.00 1.00 0.0 0 1 244.93 108.62
  Q 245.16 111.33 244.46 114.00
  L 244.21 114.25
  C 241.62 113.10 247.18 108.01 241.04 109.25
  Q 240.56 108.10 241.25 107.21
  Z"
/>
<path fill="#1d173e" d="
  M 265.50 107.79
  Q 264.66 109.31 263.04 110.00
  L 262.25 108.04
  Q 263.80 106.81 265.50 107.79
  Z"
/>
<path fill="#160624" d="
  M 234.46 112.75
  L 235.50 115.46
  L 235.00 115.46
  C 230.32 116.02 228.95 113.48 226.04 110.50
  Q 224.92 108.78 226.19 107.85
  A 0.99 0.97 -51.9 0 1 227.13 107.73
  Q 231.38 109.34 234.46 112.75
  Z
  M 232.1579 113.1171
  A 2.13 0.73 26.4 0 0 230.5746 111.5161
  A 2.13 0.73 26.4 0 0 228.3421 111.2229
  A 2.13 0.73 26.4 0 0 229.9254 112.8239
  A 2.13 0.73 26.4 0 0 232.1579 113.1171
  Z"
/>
<path fill="#6a6180" fill-opacity="0.984" d="
  M 271.17 110.83
  Q 272.34 109.20 273.42 108.18
  Q 275.45 106.28 273.92 108.60
  Q 272.96 110.07 271.66 111.26
  Q 269.30 113.43 271.17 110.83
  Z"
/>
<path fill="#160624" d="
  M 257.46 107.75
  L 262.25 108.04
  L 263.04 110.00
  Q 262.17 111.73 260.62 112.85
  A 0.96 0.96 0.0 0 1 259.99 113.04
  Q 257.33 112.92 255.75 115.29
  Q 252.89 116.70 250.75 114.21
  L 251.54 110.44
  Q 254.90 109.66 257.46 107.75
  Z
  M 257.6379 111.0570
  A 2.22 0.70 -29.2 0 0 255.3585 111.5290
  A 2.22 0.70 -29.2 0 0 253.7621 113.2230
  A 2.22 0.70 -29.2 0 0 256.0415 112.7510
  A 2.22 0.70 -29.2 0 0 257.6379 111.0570
  Z"
/>
<path fill="#6a6180" fill-opacity="0.984" d="
  M 223.21 108.50
  L 223.46 109.75
  L 221.75 108.46
  L 223.21 108.50
  Z"
/>
<path fill="#160624" d="
  M 244.21 114.25
  Q 244.42 115.58 243.50 116.54
  L 241.54 116.25
  L 241.21 113.00
  L 241.04 109.25
  C 247.18 108.01 241.62 113.10 244.21 114.25
  Z"
/>
<path fill="#1d173e" d="
  M 226.04 110.50
  C 228.95 113.48 230.32 116.02 235.00 115.46
  C 232.00 117.80 226.93 113.04 225.50 110.79
  L 226.04 110.50
  Z"
/>
<ellipse fill="#8ed0ed" fill-opacity="0.996" cx="0.00" cy="0.00" transform="translate(255.70,112.14) rotate(-29.2)" rx="2.22" ry="0.70"/>
<ellipse fill="#8ed0ed" fill-opacity="0.996" cx="0.00" cy="0.00" transform="translate(230.25,112.17) rotate(26.4)" rx="2.13" ry="0.73"/>
<path fill="#6a6180" fill-opacity="0.984" d="
  M 213.71 112.50
  Q 214.24 114.18 213.66 113.53
  A 0.64 0.64 0.0 0 0 212.67 113.56
  Q 212.20 114.19 212.54 115.25
  L 210.59 112.40
  Q 212.35 111.81 213.71 112.50
  Z"
/>
<path fill="#1d173e" d="
  M 250.75 114.21
  Q 252.89 116.70 255.75 115.29
  Q 253.03 118.00 250.50 114.96
  L 250.75 114.21
  Z"
/>
<path fill="#6a6180" fill-opacity="0.984" d="
  M 224.54 115.75
  L 225.50 116.71
  Q 224.58 116.49 224.50 117.25
  Q 222.62 119.76 220.71 122.25
  Q 218.77 121.08 220.50 119.79
  Q 223.36 118.62 224.54 115.75
  Z"
/>
<path fill="#6a6180" fill-opacity="0.984" d="
  M 241.54 116.25
  L 243.50 116.54
  L 243.46 117.75
  L 242.00 117.79
  L 241.54 116.25
  Z"
/>
<path fill="#f2aae5" fill-opacity="0.996" d="
  M 243.51 121.62
  Q 243.68 127.93 242.29 123.25
  Q 242.98 123.04 243.51 121.62
  Z"
/>
<path fill="#05e9e4" d="
  M 112.79 152.53
  L 90.10 153.10
  A 1.00 1.00 0.0 0 0 89.13 154.08
  L 88.53 176.83
  Q 87.52 164.91 87.80 153.04
  A 1.00 1.00 0.0 0 1 88.76 152.06
  Q 100.75 151.56 112.79 152.53
  Z"
/>
<path fill="#05e9e4" d="
  M 142.03 152.52
  Q 128.60 153.57 119.56 152.94
  Q 117.28 152.78 117.71 155.00
  Q 116.92 155.94 117.21 157.25
  L 116.93 153.09
  A 0.99 0.99 0.0 0 1 117.89 152.03
  Q 129.96 151.60 142.03 152.52
  Z"
/>
<path fill="#05e9e4" d="
  M 151.25 152.71
  L 147.63 153.13
  A 1.01 1.00 -88.0 0 0 146.77 153.94
  L 146.30 156.40
  Q 145.60 154.84 145.52 153.09
  A 1.02 1.01 -8.1 0 1 146.29 152.07
  Q 148.90 151.45 151.25 152.71
  Z"
/>
<path fill="#05e9e4" d="
  M 170.25 152.71
  L 167.07 153.01
  A 0.99 0.99 0.0 0 0 166.17 154.06
  Q 166.45 158.45 165.12 162.59
  L 164.50 161.71
  L 164.81 153.01
  A 1.00 0.99 84.2 0 1 165.56 152.08
  Q 168.01 151.45 170.25 152.71
  Z"
/>
<path fill="#05e9e4" d="
  M 199.50 152.71
  L 176.53 152.91
  A 1.00 1.00 0.0 0 0 175.54 153.96
  Q 176.13 165.67 175.34 177.54
  Q 174.34 165.28 174.72 153.00
  A 1.00 1.00 0.0 0 1 175.71 152.03
  Q 186.92 151.96 198.00 152.02
  C 198.56 152.03 199.07 152.41 199.50 152.71
  Z"
/>
<path fill="#05e9e4" d="
  M 209.04 152.50
  Q 207.49 153.31 205.68 152.96
  A 1.00 1.00 0.0 0 0 204.49 153.94
  L 204.46 160.25
  L 204.21 161.00
  Q 203.23 157.09 203.29 153.07
  A 1.00 0.99 84.2 0 1 204.07 152.11
  Q 206.59 151.54 209.04 152.50
  Z"
/>
<path fill="#05e9e4" d="
  M 228.25 152.71
  Q 226.77 153.23 224.90 152.93
  A 1.01 1.00 4.4 0 0 223.74 153.92
  L 223.77 165.34
  A 0.64 0.64 0.0 0 1 223.50 165.86
  Q 222.87 166.32 222.46 165.00
  L 222.50 153.01
  A 1.01 1.00 84.2 0 1 223.29 152.04
  Q 225.87 151.49 228.25 152.71
  Z"
/>
<path fill="#05e9e4" d="
  M 279.75 152.54
  C 277.64 153.88 260.56 153.03 256.73 153.12
  A 1.00 0.99 89.4 0 0 255.76 154.12
  L 255.75 176.33
  A 0.78 0.76 -28.2 0 1 255.61 176.77
  L 255.46 177.00
  L 255.20 176.84
  A 0.65 0.64 -75.8 0 1 254.88 176.30
  L 254.70 153.10
  A 1.00 1.00 0.0 0 1 255.68 152.09
  C 258.95 152.04 278.31 151.29 279.75 152.54
  Z"
/>
<path fill="#05e9e4" d="
  M 308.32 152.56
  L 285.73 153.07
  A 1.00 0.99 -81.4 0 0 284.80 153.76
  Q 284.34 155.21 284.46 156.75
  Q 283.49 154.95 283.67 152.90
  A 1.00 1.00 0.0 0 1 284.63 151.99
  Q 296.48 151.60 308.32 152.56
  Z"
/>
<path fill="#05e9e4" d="
  M 336.76 152.46
  Q 325.70 153.31 314.60 153.08
  A 0.99 0.99 0.0 0 0 313.59 154.00
  L 313.29 157.75
  Q 312.36 155.41 312.77 152.98
  A 0.99 0.99 0.0 0 1 313.70 152.15
  Q 325.22 151.55 336.76 152.46
  Z"
/>
<path fill="#05e9e4" d="
  M 366.26 152.42
  L 343.59 153.12
  A 1.00 0.99 -1.2 0 0 342.62 154.12
  L 342.70 177.55
  C 340.37 176.11 340.80 168.31 340.97 166.75
  Q 341.70 159.97 341.26 153.15
  A 1.00 0.99 -3.1 0 1 342.22 152.09
  Q 354.18 151.62 366.26 152.42
  Z"
/>
<path fill="#05e9e4" d="
  M 394.27 152.44
  L 372.35 153.08
  A 1.01 1.00 89.4 0 0 371.38 154.08
  L 371.21 174.25
  L 370.48 153.38
  A 1.00 1.00 0.0 0 1 371.40 152.35
  Q 382.80 151.40 394.27 152.44
  Z"
/>
<path fill="#5e17ea" d="
  M 336.76 152.46
  Q 338.37 152.40 339.25 153.71
  L 338.68 158.00
  A 1.01 1.00 -86.0 0 1 337.69 158.87
  L 330.18 158.88
  A 1.00 0.99 0.3 0 0 329.18 159.86
  L 328.95 176.87
  A 1.00 0.99 84.2 0 1 328.17 177.83
  L 325.00 178.54
  L 322.77 177.29
  Q 323.81 168.38 322.96 159.56
  C 322.92 159.14 322.67 158.93 322.25 159.04
  Q 318.54 158.30 314.96 159.25
  L 313.29 157.75
  L 313.59 154.00
  A 0.99 0.99 0.0 0 1 314.60 153.08
  Q 325.70 153.31 336.76 152.46
  Z"
/>
<path fill="#5e17ea" d="
  M 366.26 152.42
  Q 367.50 152.45 368.13 153.69
  L 367.45 172.04
  A 1.00 0.99 0.9 0 1 366.45 173.00
  L 364.60 173.00
  A 0.96 0.96 0.0 0 0 364.10 173.14
  Q 362.48 174.08 365.00 174.29
  Q 365.60 175.99 367.30 177.34
  L 361.25 178.54
  L 355.47 173.74
  Q 352.37 172.12 349.20 173.13
  A 1.00 0.99 -8.8 0 0 348.50 174.08
  L 348.50 176.70
  A 0.99 0.98 82.9 0 1 347.76 177.66
  L 344.43 178.55
  Q 343.35 178.33 342.70 177.55
  L 342.62 154.12
  A 1.00 0.99 -1.2 0 1 343.59 153.12
  L 366.26 152.42
  Z
  M 348.79 166.25
  L 348.76 166.54
  A 0.64 0.64 0.0 0 0 349.40 167.25
  L 360.70 167.25
  A 1.01 1.00 3.2 0 0 361.70 166.36
  Q 362.10 162.56 361.29 159.00
  L 360.50 159.04
  L 349.50 158.75
  A 1.00 1.00 0.0 0 0 348.47 159.80
  L 348.79 166.25
  Z"
/>
<path fill="#5e17ea" d="
  M 394.27 152.44
  Q 395.85 152.36 397.16 153.41
  Q 396.02 165.27 396.49 176.96
  A 1.00 1.00 0.0 0 1 395.47 178.00
  Q 384.19 177.70 372.92 178.40
  Q 370.51 177.52 371.21 174.25
  L 371.38 154.08
  A 1.01 1.00 89.4 0 1 372.35 153.08
  L 394.27 152.44
  Z
  M 377.54 171.00
  Q 377.63 172.73 379.25 171.71
  L 387.25 171.71
  Q 388.46 172.08 389.70 171.90
  A 1.00 0.99 -2.1 0 0 390.56 170.98
  C 390.62 170.09 391.15 157.20 389.46 159.25
  Q 383.91 158.49 378.34 158.99
  A 1.00 0.99 1.4 0 0 377.44 159.84
  Q 376.65 165.42 377.54 171.00
  Z"
/>
<path fill="#5e17ea" d="
  M 112.79 152.53
  Q 113.84 152.99 114.54 154.00
  L 114.32 154.18
  A 0.81 0.79 71.6 0 0 114.03 154.78
  Q 113.83 162.62 114.26 170.53
  Q 114.45 173.95 111.04 173.13
  A 0.81 0.79 -62.2 0 0 110.26 173.38
  Q 109.53 174.19 111.25 174.29
  Q 112.01 175.96 113.81 177.41
  L 107.75 178.29
  L 102.14 173.69
  Q 98.98 172.44 95.76 173.24
  A 1.00 1.00 0.0 0 0 95.00 174.21
  L 95.00 176.92
  A 1.00 0.99 2.1 0 1 93.93 177.91
  Q 92.03 177.77 90.50 178.54
  Q 89.27 177.86 88.53 176.83
  L 89.13 154.08
  A 1.00 1.00 0.0 0 1 90.10 153.10
  L 112.79 152.53
  Z
  M 95.50 166.21
  Q 95.27 166.40 95.22 166.63
  A 0.51 0.51 0.0 0 0 95.72 167.25
  L 107.25 167.25
  A 1.00 1.00 0.0 0 0 108.25 166.25
  L 108.25 159.69
  A 0.82 0.79 23.3 0 0 108.01 159.12
  Q 107.54 158.65 106.96 159.00
  L 96.20 158.93
  A 1.00 1.00 0.0 0 0 95.23 159.69
  Q 94.42 162.97 95.50 166.21
  Z"
/>
<path fill="#5e17ea" d="
  M 209.04 152.50
  L 210.79 153.75
  Q 209.99 156.05 211.71 157.50
  Q 216.78 161.68 222.46 165.00
  Q 222.87 166.32 223.50 165.86
  A 0.64 0.64 0.0 0 0 223.77 165.34
  L 223.74 153.92
  A 1.01 1.00 4.4 0 1 224.90 152.93
  Q 226.77 153.23 228.25 152.71
  L 230.65 153.70
  Q 229.12 154.11 229.40 154.66
  Q 229.75 155.33 229.75 155.50
  L 229.75 176.83
  A 1.01 1.00 86.5 0 1 228.87 177.83
  L 225.00 178.29
  L 223.46 177.00
  Q 224.82 174.31 222.50 173.29
  L 211.79 165.75
  Q 210.46 164.57 210.65 166.46
  Q 211.00 169.87 210.59 176.93
  A 1.00 1.00 0.0 0 1 209.77 177.85
  L 206.00 178.54
  L 204.46 177.25
  L 204.46 160.25
  L 204.49 153.94
  A 1.00 1.00 0.0 0 1 205.68 152.96
  Q 207.49 153.31 209.04 152.50
  Z"
/>
<path fill="#5e17ea" d="
  M 279.75 152.54
  L 281.50 154.04
  L 281.20 154.48
  A 1.02 0.97 63.2 0 0 281.03 155.04
  L 280.99 172.00
  A 1.01 1.00 -89.7 0 1 279.99 173.00
  L 277.80 173.01
  Q 277.56 173.01 277.34 173.12
  Q 276.11 173.78 277.75 174.29
  L 280.50 177.21
  C 278.65 178.37 275.94 177.47 275.00 178.54
  Q 271.97 176.82 269.61 174.02
  Q 266.15 172.34 262.48 173.36
  A 1.01 1.01 0.0 0 0 261.75 174.33
  L 261.75 176.88
  A 1.00 1.00 0.0 0 1 260.94 177.86
  L 257.50 178.54
  L 255.46 177.00
  L 255.61 176.77
  A 0.78 0.76 -28.2 0 0 255.75 176.33
  L 255.76 154.12
  A 1.00 0.99 89.4 0 1 256.73 153.12
  C 260.56 153.03 277.64 153.88 279.75 152.54
  Z
  M 262.04 166.00
  Q 261.66 167.16 262.77 167.18
  Q 268.19 167.31 273.83 167.19
  A 1.01 1.00 -86.6 0 0 274.80 166.32
  Q 275.18 163.46 274.94 160.02
  Q 274.87 159.04 274.00 159.04
  L 262.85 158.93
  A 1.01 1.00 -85.8 0 0 261.85 159.80
  Q 261.43 162.80 262.04 166.00
  Z"
/>
<path fill="#5e17ea" d="
  M 142.03 152.52
  Q 143.52 153.72 143.29 155.50
  L 143.06 177.01
  A 1.01 1.01 0.0 0 1 142.01 178.00
  Q 139.52 177.89 138.75 178.54
  Q 137.02 177.98 136.50 176.29
  Q 137.64 174.55 136.00 173.29
  Q 130.37 172.57 124.60 173.39
  A 1.00 0.99 -6.6 0 0 123.74 174.47
  L 123.96 176.75
  A 1.00 0.99 82.6 0 1 123.13 177.83
  L 119.21 178.50
  L 117.46 177.00
  L 117.77 176.60
  A 1.03 1.01 -26.6 0 0 117.99 175.97
  L 117.71 155.00
  Q 117.28 152.78 119.56 152.94
  Q 128.60 153.57 142.03 152.52
  Z
  M 124.25 166.21
  Q 123.52 166.60 124.05 167.08
  A 0.63 0.62 -23.0 0 0 124.48 167.25
  L 135.70 167.25
  A 1.00 1.00 0.0 0 0 136.68 166.46
  C 136.76 166.09 137.58 156.88 135.79 159.25
  Q 134.76 158.62 133.75 159.29
  L 127.44 159.33
  Q 126.11 158.48 124.41 159.07
  A 1.01 1.01 0.0 0 0 123.74 159.91
  Q 123.41 163.12 124.25 166.21
  Z"
/>
<path fill="#5e17ea" d="
  M 151.25 152.71
  Q 152.55 152.80 153.36 153.93
  Q 152.49 156.46 152.70 159.00
  C 152.77 159.89 152.44 160.79 153.50 161.29
  L 153.44 161.70
  Q 152.64 161.97 153.18 162.43
  A 1.05 1.02 64.2 0 0 153.84 162.67
  L 165.12 162.59
  Q 166.45 158.45 166.17 154.06
  A 0.99 0.99 0.0 0 1 167.07 153.01
  L 170.25 152.71
  Q 171.52 152.68 172.48 153.98
  Q 171.71 165.37 171.93 176.89
  A 1.00 1.00 0.0 0 1 170.95 177.91
  Q 156.75 178.17 148.85 177.95
  Q 148.22 177.93 148.00 178.29
  Q 147.08 177.85 146.57 177.05
  A 0.99 0.98 29.4 0 1 146.41 176.48
  L 146.52 172.71
  A 1.00 1.00 0.0 0 1 147.52 171.74
  L 163.50 171.71
  C 166.74 172.98 166.48 168.60 165.00 168.54
  L 164.50 168.54
  Q 160.01 168.27 148.94 168.19
  Q 148.11 168.18 147.75 168.54
  L 146.82 167.48
  A 0.99 0.99 0.0 0 1 146.57 166.85
  L 146.30 156.40
  L 146.77 153.94
  A 1.01 1.00 -88.0 0 1 147.63 153.13
  L 151.25 152.71
  Z"
/>
<path fill="#5e17ea" d="
  M 199.50 152.71
  L 201.04 153.75
  L 200.86 153.97
  A 0.49 0.48 -23.7 0 0 200.73 154.30
  L 200.76 176.86
  A 1.00 1.00 0.0 0 1 199.79 177.86
  C 195.75 177.97 177.31 177.82 177.00 178.29
  L 175.34 177.54
  Q 176.13 165.67 175.54 153.96
  A 1.00 1.00 0.0 0 1 176.53 152.91
  L 199.50 152.71
  Z
  M 181.54 170.75
  Q 181.07 172.53 183.25 171.96
  L 193.75 171.99
  A 1.00 1.00 0.0 0 0 194.75 170.99
  L 194.75 159.63
  A 0.65 0.64 15.9 0 0 194.44 159.08
  Q 193.94 158.79 193.50 159.21
  L 182.53 158.99
  A 1.00 1.00 0.0 0 0 181.51 159.99
  L 181.54 170.75
  Z"
/>
<path fill="#5e17ea" d="
  M 308.32 152.56
  Q 309.72 152.69 310.22 153.95
  L 309.68 157.88
  A 1.00 1.00 0.0 0 1 308.69 158.74
  L 292.05 158.70
  A 1.04 1.00 -69.4 0 0 291.27 159.07
  Q 290.34 160.21 291.04 161.75
  L 291.01 162.04
  A 0.65 0.64 -87.2 0 0 291.65 162.75
  L 308.79 162.75
  A 0.22 0.21 -88.6 0 0 309.00 162.54
  L 309.00 162.29
  L 310.50 163.29
  Q 309.70 165.09 310.02 167.09
  A 1.00 0.99 85.3 0 1 309.04 168.25
  L 291.85 168.25
  A 1.00 1.00 0.0 0 0 290.99 168.74
  Q 289.80 170.75 291.88 170.98
  C 292.42 172.66 307.42 170.21 310.39 172.90
  L 309.81 177.14
  A 1.00 1.00 0.0 0 1 308.82 178.00
  L 287.28 178.00
  A 1.00 0.99 -63.7 0 0 286.67 178.21
  L 286.25 178.54
  Q 284.79 177.85 284.81 176.25
  Q 284.92 166.49 284.46 156.75
  Q 284.34 155.21 284.80 153.76
  A 1.00 0.99 -81.4 0 1 285.73 153.07
  L 308.32 152.56
  Z"
/>
<path fill="#fe0503" fill-opacity="0.996" d="
  M 397.16 153.41
  Q 398.66 165.65 397.95 177.94
  A 1.01 1.00 -89.3 0 1 397.00 178.88
  Q 384.94 179.48 372.92 178.40
  Q 384.19 177.70 395.47 178.00
  A 1.00 1.00 0.0 0 0 396.49 176.96
  Q 396.02 165.27 397.16 153.41
  Z"
/>
<path fill="#fe0503" fill-opacity="0.996" d="
  M 201.04 153.75
  Q 201.43 153.88 201.72 154.21
  A 0.97 0.97 0.0 0 1 201.98 154.87
  L 202.05 177.88
  A 1.00 1.00 0.0 0 1 201.07 178.88
  Q 189.49 179.15 178.00 178.93
  C 177.61 178.92 177.17 178.61 177.00 178.29
  C 177.31 177.82 195.75 177.97 199.79 177.86
  A 1.00 1.00 0.0 0 0 200.76 176.86
  L 200.73 154.30
  A 0.49 0.48 -23.7 0 1 200.86 153.97
  L 201.04 153.75
  Z"
/>
<path fill="#fe0503" fill-opacity="0.996" d="
  M 210.79 153.75
  Q 212.44 155.11 211.71 157.50
  Q 209.99 156.05 210.79 153.75
  Z"
/>
<path fill="#fe0503" fill-opacity="0.996" d="
  M 230.65 153.70
  L 231.00 177.93
  A 1.00 1.00 0.0 0 1 230.24 178.91
  Q 227.46 179.59 225.00 178.29
  L 228.87 177.83
  A 1.01 1.00 86.5 0 0 229.75 176.83
  L 229.75 155.50
  Q 229.75 155.33 229.40 154.66
  Q 229.12 154.11 230.65 153.70
  Z"
/>
<path fill="#fe0503" fill-opacity="0.996" d="
  M 339.25 153.71
  Q 340.60 156.16 339.93 158.93
  A 1.01 1.00 5.7 0 1 338.99 159.69
  L 331.71 159.98
  A 1.00 1.00 0.0 0 0 330.75 160.98
  L 330.75 177.93
  A 1.00 1.00 0.0 0 1 329.95 178.91
  Q 327.39 179.42 325.00 178.54
  L 328.17 177.83
  A 1.00 0.99 84.2 0 0 328.95 176.87
  L 329.18 159.86
  A 1.00 0.99 0.3 0 1 330.18 158.88
  L 337.69 158.87
  A 1.01 1.00 -86.0 0 0 338.68 158.00
  L 339.25 153.71
  Z"
/>
<path fill="#fe0503" fill-opacity="0.996" d="
  M 368.13 153.69
  Q 369.57 163.24 368.96 172.88
  A 1.01 0.99 87.5 0 1 368.12 173.81
  L 365.00 174.29
  Q 362.48 174.08 364.10 173.14
  A 0.96 0.96 0.0 0 1 364.60 173.00
  L 366.45 173.00
  A 1.00 0.99 0.9 0 0 367.45 172.04
  L 368.13 153.69
  Z"
/>
<path fill="#fe0503" fill-opacity="0.996" d="
  M 114.54 154.00
  L 114.75 154.15
  A 0.82 0.82 0.0 0 1 115.10 154.78
  L 115.75 172.97
  A 1.00 1.00 0.0 0 1 114.83 174.00
  L 111.25 174.29
  Q 109.53 174.19 110.26 173.38
  A 0.81 0.79 -62.2 0 1 111.04 173.13
  Q 114.45 173.95 114.26 170.53
  Q 113.83 162.62 114.03 154.78
  A 0.81 0.79 71.6 0 1 114.32 154.18
  L 114.54 154.00
  Z"
/>
<path fill="#fe0503" fill-opacity="0.996" d="
  M 153.36 153.93
  Q 154.86 157.63 153.50 161.29
  C 152.44 160.79 152.77 159.89 152.70 159.00
  Q 152.49 156.46 153.36 153.93
  Z"
/>
<path fill="#fe0503" fill-opacity="0.996" d="
  M 172.48 153.98
  L 173.18 177.96
  A 1.00 1.00 0.0 0 1 172.18 178.99
  C 169.54 178.99 148.63 179.49 148.00 178.29
  Q 148.22 177.93 148.85 177.95
  Q 156.75 178.17 170.95 177.91
  A 1.00 1.00 0.0 0 0 171.93 176.89
  Q 171.71 165.37 172.48 153.98
  Z"
/>
<path fill="#fe0503" fill-opacity="0.996" d="
  M 281.50 154.04
  Q 282.36 154.35 282.25 155.06
  Q 282.24 155.13 282.24 155.20
  L 282.59 173.08
  A 1.00 0.99 -2.1 0 1 281.64 174.09
  L 277.75 174.29
  Q 276.11 173.78 277.34 173.12
  Q 277.56 173.01 277.80 173.01
  L 279.99 173.00
  A 1.01 1.00 -89.7 0 0 280.99 172.00
  L 281.03 155.04
  A 1.02 0.97 63.2 0 1 281.20 154.48
  L 281.50 154.04
  Z"
/>
<path fill="#fe0503" fill-opacity="0.996" d="
  M 310.22 153.95
  Q 311.62 156.33 310.93 158.99
  A 1.00 0.99 -83.1 0 1 309.98 159.74
  C 303.51 159.87 298.62 158.99 292.98 159.65
  A 0.98 0.97 12.6 0 0 292.25 160.11
  L 291.50 161.29
  L 291.04 161.75
  Q 290.34 160.21 291.27 159.07
  A 1.04 1.00 -69.4 0 1 292.05 158.70
  L 308.69 158.74
  A 1.00 1.00 0.0 0 0 309.68 157.88
  L 310.22 153.95
  Z"
/>
<path fill="#8ed0ed" fill-opacity="0.996" d="
  M 117.71 155.00
  L 117.99 175.97
  A 1.03 1.01 -26.6 0 1 117.77 176.60
  L 117.46 177.00
  C 116.58 176.67 117.10 161.12 117.21 157.25
  Q 116.92 155.94 117.71 155.00
  Z"
/>
<path fill="#fe0503" fill-opacity="0.996" d="
  M 143.29 155.50
  Q 145.17 166.69 144.25 177.99
  A 1.00 0.99 -4.0 0 1 143.47 178.88
  Q 141.09 179.42 138.75 178.54
  Q 139.52 177.89 142.01 178.00
  A 1.01 1.01 0.0 0 0 143.06 177.01
  L 143.29 155.50
  Z"
/>
<path fill="#fe0503" fill-opacity="0.996" d="
  M 106.96 159.00
  L 106.75 159.71
  Q 102.02 159.17 97.31 159.84
  A 1.01 0.99 -85.9 0 0 96.49 160.56
  Q 95.73 163.21 96.50 165.96
  L 95.50 166.21
  Q 94.42 162.97 95.23 159.69
  A 1.00 1.00 0.0 0 1 96.20 158.93
  L 106.96 159.00
  Z"
/>
<path fill="#05e9e4" d="
  M 95.50 166.21
  L 96.50 165.96
  L 105.84 166.21
  A 1.00 1.00 0.0 0 0 106.85 165.38
  Q 107.34 162.55 106.75 159.71
  L 106.96 159.00
  Q 107.54 158.65 108.01 159.12
  A 0.82 0.79 23.3 0 1 108.25 159.69
  L 108.25 166.25
  A 1.00 1.00 0.0 0 1 107.25 167.25
  L 95.72 167.25
  A 0.51 0.51 0.0 0 1 95.22 166.63
  Q 95.27 166.40 95.50 166.21
  Z"
/>
<path fill="#fe0503" fill-opacity="0.996" d="
  M 127.44 159.33
  Q 123.60 161.37 125.46 166.00
  L 124.25 166.21
  Q 123.41 163.12 123.74 159.91
  A 1.01 1.01 0.0 0 1 124.41 159.07
  Q 126.11 158.48 127.44 159.33
  Z"
/>
<path fill="#05e9e4" d="
  M 124.25 166.21
  L 125.46 166.00
  Q 130.17 166.75 134.93 166.48
  A 1.00 0.99 4.1 0 0 135.86 165.68
  Q 136.45 162.69 135.75 159.71
  L 135.79 159.25
  C 137.58 156.88 136.76 166.09 136.68 166.46
  A 1.00 1.00 0.0 0 1 135.70 167.25
  L 124.48 167.25
  A 0.63 0.62 -23.0 0 1 124.05 167.08
  Q 123.52 166.60 124.25 166.21
  Z"
/>
<path fill="#fe0503" fill-opacity="0.996" d="
  M 193.50 159.21
  L 193.71 159.75
  Q 188.79 159.06 183.96 160.02
  A 1.02 1.01 85.0 0 0 183.15 160.99
  L 183.00 170.96
  L 181.54 170.75
  L 181.51 159.99
  A 1.00 1.00 0.0 0 1 182.53 158.99
  L 193.50 159.21
  Z"
/>
<path fill="#fe0503" fill-opacity="0.996" d="
  M 274.00 159.04
  L 273.75 159.71
  L 264.42 160.00
  A 1.00 1.00 0.0 0 0 263.45 161.00
  L 263.42 166.30
  L 262.04 166.00
  Q 261.43 162.80 261.85 159.80
  A 1.01 1.00 -85.8 0 1 262.85 158.93
  L 274.00 159.04
  Z"
/>
<path fill="#fe0503" fill-opacity="0.996" d="
  M 322.25 159.04
  L 321.96 159.75
  Q 318.39 160.12 314.96 159.25
  Q 318.54 158.30 322.25 159.04
  Z"
/>
<path fill="#fe0503" fill-opacity="0.996" d="
  M 360.50 159.04
  Q 360.53 159.30 360.38 159.52
  A 0.52 0.51 16.2 0 1 359.95 159.75
  L 350.69 159.75
  A 1.00 1.00 0.0 0 0 349.69 160.76
  L 349.71 166.00
  L 348.79 166.25
  L 348.47 159.80
  A 1.00 1.00 0.0 0 1 349.50 158.75
  L 360.50 159.04
  Z"
/>
<path fill="#fe0503" fill-opacity="0.996" d="
  M 389.46 159.25
  L 389.46 159.50
  L 379.75 159.78
  A 1.01 1.00 86.5 0 0 378.78 160.88
  Q 379.24 165.84 378.75 170.79
  L 377.54 171.00
  Q 376.65 165.42 377.44 159.84
  A 1.00 0.99 1.4 0 1 378.34 158.99
  Q 383.91 158.49 389.46 159.25
  Z"
/>
<path fill="#05e9e4" d="
  M 387.25 171.71
  L 388.67 171.29
  A 1.01 1.00 84.8 0 0 389.38 170.43
  Q 389.91 164.97 389.46 159.50
  L 389.46 159.25
  C 391.15 157.20 390.62 170.09 390.56 170.98
  A 1.00 0.99 -2.1 0 1 389.70 171.90
  Q 388.46 172.08 387.25 171.71
  Z"
/>
<path fill="#fe0503" fill-opacity="0.996" d="
  M 135.79 159.25
  L 135.75 159.71
  L 133.75 159.29
  Q 134.76 158.62 135.79 159.25
  Z"
/>
<path fill="#05e9e4" d="
  M 183.25 171.96
  L 183.75 171.54
  L 192.63 171.26
  A 0.99 0.99 0.0 0 0 193.60 170.28
  L 193.71 159.75
  L 193.50 159.21
  Q 193.94 158.79 194.44 159.08
  A 0.65 0.64 15.9 0 1 194.75 159.63
  L 194.75 170.99
  A 1.00 1.00 0.0 0 1 193.75 171.99
  L 183.25 171.96
  Z"
/>
<path fill="#05e9e4" d="
  M 274.00 159.04
  Q 274.87 159.04 274.94 160.02
  Q 275.18 163.46 274.80 166.32
  A 1.01 1.00 -86.6 0 1 273.83 167.19
  Q 268.19 167.31 262.77 167.18
  Q 261.66 167.16 262.04 166.00
  L 263.42 166.30
  L 272.83 166.22
  A 1.02 1.01 -83.3 0 0 273.80 165.45
  Q 274.51 162.50 273.75 159.71
  L 274.00 159.04
  Z"
/>
<path fill="#05e9e4" d="
  M 322.25 159.04
  C 322.67 158.93 322.92 159.14 322.96 159.56
  Q 323.81 168.38 322.77 177.29
  Q 321.83 168.54 321.96 159.75
  L 322.25 159.04
  Z"
/>
<path fill="#05e9e4" d="
  M 361.29 159.00
  Q 362.10 162.56 361.70 166.36
  A 1.01 1.00 3.2 0 1 360.70 167.25
  L 349.40 167.25
  A 0.64 0.64 0.0 0 1 348.76 166.54
  L 348.79 166.25
  L 349.71 166.00
  L 349.75 166.25
  A 0.33 0.32 83.9 0 0 350.08 166.52
  L 359.51 166.20
  A 1.00 1.00 0.0 0 0 360.47 165.33
  L 361.29 159.00
  Z"
/>
<path fill="#24356e" d="
  M 204.46 160.25
  L 204.46 177.25
  C 202.52 173.21 204.36 165.69 204.21 161.00
  L 204.46 160.25
  Z"
/>
<path fill="#8ed0ed" fill-opacity="0.996" d="
  M 291.50 161.29
  Q 291.27 162.00 292.00 161.97
  Q 300.51 161.59 309.00 162.29
  L 309.00 162.54
  A 0.22 0.21 -88.6 0 1 308.79 162.75
  L 291.65 162.75
  A 0.65 0.64 -87.2 0 1 291.01 162.04
  L 291.04 161.75
  L 291.50 161.29
  Z"
/>
<path fill="#8ed0ed" fill-opacity="0.996" d="
  M 153.44 161.70
  L 164.50 161.71
  L 165.12 162.59
  L 153.84 162.67
  A 1.05 1.02 64.2 0 1 153.18 162.43
  Q 152.64 161.97 153.44 161.70
  Z"
/>
<path fill="#fe0503" fill-opacity="0.996" d="
  M 310.50 163.29
  Q 311.98 165.97 311.01 168.89
  A 1.01 0.99 9.4 0 1 310.04 169.57
  L 293.07 169.25
  A 1.00 1.00 0.0 0 0 292.07 170.05
  L 291.88 170.98
  Q 289.80 170.75 290.99 168.74
  A 1.00 1.00 0.0 0 1 291.85 168.25
  L 309.04 168.25
  A 1.00 0.99 85.3 0 0 310.02 167.09
  Q 309.70 165.09 310.50 163.29
  Z"
/>
<path fill="#fe0503" fill-opacity="0.996" d="
  M 211.79 165.75
  L 211.85 177.83
  A 1.01 1.00 -8.1 0 1 211.12 178.79
  Q 208.56 179.53 206.00 178.54
  L 209.77 177.85
  A 1.00 1.00 0.0 0 0 210.59 176.93
  Q 211.00 169.87 210.65 166.46
  Q 210.46 164.57 211.79 165.75
  Z"
/>
<path fill="#fe0503" fill-opacity="0.996" d="
  M 164.50 168.54
  L 164.51 168.83
  A 0.34 0.33 -2.7 0 1 164.19 169.17
  C 161.81 169.27 148.88 170.06 147.75 168.54
  Q 148.11 168.18 148.94 168.19
  Q 160.01 168.27 164.50 168.54
  Z"
/>
<path fill="#05e9e4" d="
  M 165.00 168.54
  C 166.48 168.60 166.74 172.98 163.50 171.71
  Q 164.02 171.66 164.44 171.46
  A 1.00 1.00 0.0 0 0 165.00 170.33
  Q 164.79 169.45 165.00 168.54
  Z"
/>
<path fill="#8ed0ed" fill-opacity="0.996" d="
  M 181.54 170.75
  L 183.00 170.96
  L 183.75 171.54
  L 183.25 171.96
  Q 181.07 172.53 181.54 170.75
  Z"
/>
<path fill="#24356e" d="
  M 378.75 170.79
  L 379.25 171.71
  Q 377.63 172.73 377.54 171.00
  L 378.75 170.79
  Z"
/>
<path fill="#fe0503" fill-opacity="0.996" d="
  M 355.47 173.74
  L 350.89 174.34
  A 1.00 0.99 88.6 0 0 350.02 175.26
  L 349.83 177.99
  A 1.01 0.99 -4.8 0 1 349.05 178.89
  Q 346.80 179.41 344.43 178.55
  L 347.76 177.66
  A 0.99 0.98 82.9 0 0 348.50 176.70
  L 348.50 174.08
  A 1.00 0.99 -8.8 0 1 349.20 173.13
  Q 352.37 172.12 355.47 173.74
  Z"
/>
<path fill="#fe0503" fill-opacity="0.996" d="
  M 102.14 173.69
  Q 99.81 174.76 97.52 174.07
  A 1.00 1.00 0.0 0 0 96.23 175.03
  L 96.25 177.97
  A 1.00 0.99 -4.7 0 1 95.40 178.96
  Q 92.87 179.33 90.50 178.54
  Q 92.03 177.77 93.93 177.91
  A 1.00 0.99 2.1 0 0 95.00 176.92
  L 95.00 174.21
  A 1.00 1.00 0.0 0 1 95.76 173.24
  Q 98.98 172.44 102.14 173.69
  Z"
/>
<path fill="#fe0503" fill-opacity="0.996" d="
  M 136.00 173.29
  L 135.96 174.00
  L 126.22 174.32
  A 1.00 1.00 0.0 0 0 125.25 175.32
  L 125.25 177.97
  A 1.00 0.99 -4.4 0 1 124.40 178.95
  Q 121.68 179.37 119.21 178.50
  L 123.13 177.83
  A 1.00 0.99 82.6 0 0 123.96 176.75
  L 123.74 174.47
  A 1.00 0.99 -6.6 0 1 124.60 173.39
  Q 130.37 172.57 136.00 173.29
  Z"
/>
<path fill="#fe0503" fill-opacity="0.996" d="
  M 269.61 174.02
  L 264.19 174.33
  A 1.00 1.00 0.0 0 0 263.25 175.33
  L 263.25 177.97
  A 1.00 1.00 0.0 0 1 262.40 178.96
  Q 259.84 179.34 257.50 178.54
  L 260.94 177.86
  A 1.00 1.00 0.0 0 0 261.75 176.88
  L 261.75 174.33
  A 1.01 1.01 0.0 0 1 262.48 173.36
  Q 266.15 172.34 269.61 174.02
  Z"
/>
<path fill="#fe0503" fill-opacity="0.996" d="
  M 310.39 172.90
  Q 311.98 175.49 311.13 178.25
  A 1.01 1.01 0.0 0 1 310.18 178.96
  C 304.54 179.00 286.50 179.31 286.25 178.54
  L 286.67 178.21
  A 1.00 0.99 -63.7 0 1 287.28 178.00
  L 308.82 178.00
  A 1.00 1.00 0.0 0 0 309.81 177.14
  L 310.39 172.90
  Z"
/>
<path fill="#8ed0ed" fill-opacity="0.996" d="
  M 136.00 173.29
  Q 137.64 174.55 136.50 176.29
  L 135.96 174.00
  L 136.00 173.29
  Z"
/>
<path fill="#05e9e4" d="
  M 222.50 173.29
  Q 224.82 174.31 223.46 177.00
  Q 222.27 175.40 222.50 173.29
  Z"
/>
<path fill="#fe0503" fill-opacity="0.996" d="
  M 113.81 177.41
  Q 114.26 177.51 114.58 177.90
  A 0.64 0.64 0.0 0 1 114.20 178.93
  Q 110.89 179.56 107.75 178.29
  L 113.81 177.41
  Z"
/>
<path fill="#fe0503" fill-opacity="0.996" d="
  M 280.50 177.21
  Q 280.86 177.32 281.14 177.50
  Q 282.90 178.68 280.81 178.96
  Q 277.88 179.36 275.00 178.54
  C 275.94 177.47 278.65 178.37 280.50 177.21
  Z"
/>
<path fill="#fe0503" fill-opacity="0.996" d="
  M 367.30 177.34
  Q 367.46 177.39 367.59 177.48
  Q 369.56 178.66 367.28 178.95
  Q 364.24 179.34 361.25 178.54
  L 367.30 177.34
  Z"
/>
</svg>
