<?xml version="1.0" encoding="UTF-8" standalone="no"?>
<!DOCTYPE svg PUBLIC "-//W3C//DTD SVG 1.1//EN" "http://www.w3.org/Graphics/SVG/1.1/DTD/svg11.dtd">
<svg xmlns="http://www.w3.org/2000/svg" version="1.1" viewBox="0 0 500 281">
<g stroke-width="2.00" fill="none" stroke-linecap="butt">
<path stroke="#162771" vector-effect="non-scaling-stroke" d="
  M 343.96 136.50
  Q 343.74 137.02 343.26 137.06
  Q 343.11 137.08 343.06 136.93
  Q 343.03 136.83 343.00 136.66
  A 0.41 0.41 0.0 0 0 342.26 136.50
  Q 334.68 147.88 329.02 157.84
  Q 328.44 158.85 327.69 158.31
  A 0.56 0.55 -55.1 0 1 327.56 157.56
  Q 335.95 144.86 342.69 131.44
  Q 344.12 128.60 344.13 124.51
  C 344.13 122.87 344.86 121.75 344.75 120.02
  Q 344.73 119.69 344.48 119.90
  Q 344.37 120.00 344.19 120.00
  Q 344.10 120.00 344.08 120.09
  L 343.52 122.61
  Q 343.36 123.32 342.93 122.74
  Q 342.24 121.82 342.59 120.78
  Q 342.80 120.13 342.35 120.64
  L 341.11 122.05
  Q 340.80 122.41 340.65 122.87
  L 338.98 128.22
  Q 338.82 128.72 338.30 128.65
  L 337.63 128.56
  Q 337.20 128.51 337.00 128.88
  C 335.61 131.46 333.59 133.04 332.27 135.60
  Q 330.39 139.25 327.76 142.43
  Q 327.71 142.49 325.33 145.66
  Q 323.45 148.16 320.50 149.69
  Q 320.26 149.81 320.25 149.54
  Q 320.25 149.34 320.29 149.14
  Q 320.42 148.49 319.90 148.90
  Q 317.01 151.19 314.52 153.89
  C 311.70 156.94 310.98 160.67 306.12 162.72
  Q 303.97 163.63 302.58 164.76
  C 300.17 166.70 296.48 170.04 293.07 168.51
  Q 292.59 168.29 292.40 167.81
  Q 290.79 163.72 291.24 161.50
  Q 293.07 152.47 298.62 137.38
  C 299.57 134.81 298.90 132.10 298.97 129.38
  Q 298.98 128.72 298.32 128.73
  C 295.17 128.79 292.50 133.96 289.86 135.97
  Q 285.30 139.43 281.45 143.03
  A 2.12 2.12 0.0 0 1 278.19 142.58
  Q 275.55 138.21 271.39 135.81
  C 270.49 135.29 269.64 135.48 268.74 134.58
  C 265.92 131.80 262.87 131.11 259.16 132.92
  Q 258.70 133.15 258.30 132.83
  Q 256.72 131.57 255.26 133.03
  C 253.26 135.03 253.79 137.37 255.09 139.81
  Q 258.94 147.09 262.28 154.61
  C 263.35 157.02 265.49 160.82 266.49 164.41
  C 267.56 168.23 268.56 171.04 269.35 174.39
  C 269.94 176.93 271.31 178.22 273.32 179.52
  A 1.50 1.50 0.0 0 1 273.08 182.17
  Q 268.64 183.97 263.84 183.42
  Q 263.81 183.41 263.81 183.44
  Q 263.81 183.61 263.82 183.78
  Q 263.86 184.06 263.57 184.02
  C 258.14 183.15 259.65 179.20 256.41 176.83
  Q 255.98 176.51 255.85 175.99
  Q 254.96 172.37 251.26 171.86
  A 1.31 1.31 0.0 0 1 250.12 170.54
  C 250.24 165.10 250.12 158.59 247.43 153.64
  Q 245.83 150.68 245.22 147.33
  Q 245.13 146.83 244.72 146.53
  Q 242.93 145.17 240.89 144.23
  C 237.67 142.76 236.85 146.76 233.71 145.38
  A 2.60 2.60 0.0 0 1 232.16 142.83
  C 232.46 138.28 233.46 131.60 232.58 127.09
  C 231.46 121.32 228.90 116.72 226.89 111.23
  Q 226.83 111.08 226.97 111.15
  L 227.40 111.37
  Q 228.07 111.73 227.87 110.99
  Q 226.50 106.15 221.68 104.72
  Q 221.10 104.55 220.88 105.11
  Q 220.61 105.77 220.04 105.50"
/>
<path stroke="#162771" vector-effect="non-scaling-stroke" d="
  M 248.29 82.50
  Q 247.89 82.74 247.48 82.52
  Q 246.96 82.24 246.82 82.82
  L 244.51 92.28
  Q 244.37 92.83 244.64 93.34
  C 245.23 94.44 244.68 95.55 244.82 96.43
  Q 245.33 99.56 247.99 101.38
  Q 248.39 101.65 248.86 101.57
  C 254.38 100.59 254.94 95.77 255.78 91.14
  Q 255.86 90.74 256.23 90.55
  L 256.75 90.29"
/>
<path stroke="#677071" vector-effect="non-scaling-stroke" d="
  M 342.75 145.46
  Q 341.41 146.48 341.10 148.12
  Q 341.02 148.56 341.43 148.75
  Q 344.67 150.26 348.29 150.06"
/>
<path stroke="#89929c" vector-effect="non-scaling-stroke" d="
  M 350.75 151.96
  Q 350.16 152.89 350.56 155.22"
/>
<path stroke="#677071" vector-effect="non-scaling-stroke" d="
  M 350.56 155.22
  L 341.23 151.25
  Q 340.74 151.04 340.32 151.36
  Q 337.47 153.57 335.71 156.50"
/>
<path stroke="#46575a" vector-effect="non-scaling-stroke" d="
  M 335.71 156.50
  L 332.83 160.75
  Q 332.68 160.96 332.82 161.19
  L 333.00 161.46"
/>
<path stroke="#162771" vector-effect="non-scaling-stroke" d="
  M 328.48 177.37
  Q 319.19 183.84 311.87 192.44
  Q 311.51 192.85 312.00 193.09
  L 320.57 197.40
  Q 320.91 197.57 320.96 197.96
  L 321.21 200.00"
/>
<path stroke="#80734f" vector-effect="non-scaling-stroke" d="
  M 229.79 188.75
  L 234.13 191.53
  Q 234.70 191.89 234.73 191.22
  Q 234.78 190.26 233.96 189.50"
/>
<path stroke="#424240" vector-effect="non-scaling-stroke" d="
  M 233.96 189.50
  C 235.01 185.44 231.65 181.70 229.54 178.50"
/>
<path stroke="#80734f" vector-effect="non-scaling-stroke" d="
  M 229.54 178.50
  C 224.82 169.19 228.88 158.13 226.86 147.45
  Q 226.77 147.00 226.46 147.34
  C 220.31 153.94 221.67 163.83 222.36 173.37"
/>
<path stroke="#80734f" vector-effect="non-scaling-stroke" d="
  M 208.67 174.90
  Q 209.80 171.53 213.04 169.50"
/>
<path stroke="#685835" vector-effect="non-scaling-stroke" d="
  M 213.04 169.50
  C 214.82 167.64 219.61 162.45 220.71 158.80
  Q 220.87 158.28 220.51 157.87
  C 218.00 154.91 215.34 156.12 213.04 158.60
  Q 207.52 164.53 201.54 170.00"
/>
<path stroke="#424240" vector-effect="non-scaling-stroke" d="
  M 143.25 142.71
  Q 138.12 138.98 132.01 136.83"
/>
<path stroke="#677071" vector-effect="non-scaling-stroke" d="
  M 132.01 136.83
  Q 134.41 133.43 139.34 128.08
  C 143.29 123.79 148.30 129.49 152.38 131.22"
/>
<path stroke="#7e4d2f" vector-effect="non-scaling-stroke" d="
  M 186.54 76.00
  C 181.87 81.75 178.72 86.12 172.44 88.29
  C 167.37 90.04 159.11 89.95 152.60 91.45
  Q 152.11 91.56 151.91 92.03
  Q 150.60 95.17 151.91 97.59
  Q 156.09 105.29 164.36 112.46
  Q 164.73 112.78 165.22 112.71
  L 166.25 112.54"
/>
<path stroke="#bcc599" vector-effect="non-scaling-stroke" d="
  M 166.25 112.54
  Q 165.27 114.49 167.03 115.61
  Q 167.41 115.85 167.85 115.72
  Q 169.33 115.29 170.06 113.99
  Q 170.33 113.52 170.83 113.31
  L 174.37 111.87
  Q 175.03 111.61 174.71 112.24
  L 172.11 117.27
  Q 171.86 117.76 172.12 118.24
  Q 172.54 119.01 172.77 119.96
  A 1.89 1.88 63.6 0 0 175.80 120.98
  Q 182.68 115.29 190.04 111.50"
/>
<path stroke="#46575a" vector-effect="non-scaling-stroke" d="
  M 190.04 111.50
  Q 197.76 120.97 201.69 132.59
  Q 201.70 132.63 201.68 132.67
  L 201.51 132.96
  Q 201.32 133.27 201.15 132.95
  Q 196.91 124.75 192.78 116.48
  Q 192.34 115.59 190.86 114.19
  Q 190.49 113.84 190.00 114.01
  Q 183.76 116.11 180.57 121.87
  Q 180.27 122.41 180.59 122.95
  L 183.80 128.35"
/>
<path stroke="#99a36e" vector-effect="non-scaling-stroke" d="
  M 152.96 83.00
  Q 153.48 83.82 154.45 83.75
  Q 155.01 83.71 155.26 84.21
  L 156.60 86.80
  Q 156.84 87.26 157.36 87.26
  Q 158.85 87.27 160.06 88.01
  Q 160.52 88.29 161.05 88.19
  C 163.99 87.67 166.84 88.08 169.53 87.00
  C 171.50 86.21 184.75 79.94 181.50 77.46"
/>
<path stroke="#455030" vector-effect="non-scaling-stroke" d="
  M 181.50 77.46
  Q 181.53 77.30 181.63 77.17
  Q 182.03 76.61 181.36 76.51
  Q 181.18 76.49 181.00 76.46"
/>
<path stroke="#99a36e" vector-effect="non-scaling-stroke" d="
  M 181.00 76.46
  Q 181.17 75.26 179.96 75.00"
/>
<path stroke="#455030" vector-effect="non-scaling-stroke" d="
  M 179.96 75.00
  Q 179.47 73.79 178.00 74.21"
/>
<path stroke="#99a36e" vector-effect="non-scaling-stroke" d="
  M 178.00 74.21
  Q 178.78 72.91 177.46 72.25"
/>
<path stroke="#ae9132" vector-effect="non-scaling-stroke" d="
  M 229.54 178.50
  Q 230.09 184.70 233.96 189.50"
/>
<path stroke="#ddddaf" vector-effect="non-scaling-stroke" d="
  M 350.56 155.22
  Q 350.96 155.92 350.35 157.45
  Q 350.15 157.97 350.55 158.35
  Q 351.48 159.24 353.00 159.04"
/>
<path stroke="#99a36e" vector-effect="non-scaling-stroke" d="
  M 341.25 165.96
  Q 341.64 165.67 341.73 165.32
  Q 341.83 164.88 341.44 164.65
  L 334.47 160.58
  A 0.75 0.75 0.0 0 1 334.54 159.25
  Q 336.17 158.49 335.71 156.50"
/>
<path stroke="#d5a727" vector-effect="non-scaling-stroke" d="
  M 213.04 169.50
  L 214.58 164.45
  Q 214.76 163.87 214.16 163.77
  C 212.98 163.58 212.18 163.63 211.25 164.52
  C 207.99 167.64 205.29 172.02 201.60 174.44
  Q 201.16 174.74 201.01 175.25
  Q 199.92 178.98 197.85 182.30"
/>
<path stroke="#f6e18e" vector-effect="non-scaling-stroke" d="
  M 207.50 185.71
  Q 202.02 183.35 196.00 183.46"
/>
<path stroke="#89929c" vector-effect="non-scaling-stroke" d="
  M 196.29 108.50
  L 188.08 107.53
  Q 187.44 107.45 187.79 107.99
  L 190.04 111.50"
/>
<path stroke="#958e54" vector-effect="non-scaling-stroke" d="
  M 132.01 136.83
  Q 130.75 136.42 130.73 137.81
  C 130.70 139.59 129.69 140.78 128.23 141.68
  Q 127.87 141.90 127.73 142.32
  L 126.97 144.67
  Q 126.81 145.16 126.94 145.66
  Q 127.24 146.76 126.21 147.50"
/>
<path stroke="#99a36e" vector-effect="non-scaling-stroke" d="
  M 115.21 136.75
  L 115.21 131.75"
/>
<path stroke="#666946" vector-effect="non-scaling-stroke" d="
  M 179.96 75.00
  C 176.80 74.89 162.91 81.01 160.96 83.48
  Q 159.94 84.76 161.56 84.96
  C 164.40 85.30 177.42 78.01 181.00 76.46"
/>
<path stroke="#990e09" vector-effect="non-scaling-stroke" d="
  M 187.71 78.00
  C 184.31 80.54 181.81 84.31 178.84 86.36
  Q 175.89 88.41 172.62 89.57"
/>
<path stroke="#ad100c" vector-effect="non-scaling-stroke" d="
  M 172.62 89.57
  L 169.06 91.25"
/>
<path stroke="#990e09" vector-effect="non-scaling-stroke" d="
  M 169.06 91.25
  L 161.14 92.17
  Q 160.63 92.23 160.36 92.66
  C 158.56 95.45 161.97 100.74 165.07 101.39
  Q 165.58 101.50 165.86 101.93
  Q 168.45 105.79 173.08 104.78
  C 173.78 104.63 173.98 104.72 174.50 105.11
  Q 174.94 105.42 175.43 105.20
  C 179.46 103.40 183.59 100.88 187.99 100.26
  Q 189.13 100.10 188.95 98.75
  Q 188.89 98.24 189.24 97.87
  Q 190.04 97.03 191.21 96.75"
/>
<path stroke="#9f6546" vector-effect="non-scaling-stroke" d="
  M 190.96 101.25
  L 189.75 101.46"
/>
<path stroke="#c18771" vector-effect="non-scaling-stroke" d="
  M 189.75 101.46
  C 183.78 103.11 170.60 107.35 166.25 112.54"
/>
<path stroke="#666946" vector-effect="non-scaling-stroke" d="
  M 178.00 74.21
  Q 170.13 77.22 162.63 81.09
  Q 159.33 82.79 161.36 85.50
  A 1.48 1.47 59.1 0 0 163.16 85.96
  L 181.50 77.46"
/>
<path stroke="#b8b07f" vector-effect="non-scaling-stroke" d="
  M 210.71 199.50
  C 200.58 197.37 193.73 193.67 184.81 200.52
  Q 184.28 200.92 184.53 201.50
  Q 184.73 201.94 185.13 201.67
  C 191.88 197.08 201.46 196.70 208.87 200.16
  Q 209.70 200.54 210.71 200.25"
/>
<path stroke="#b8b07f" vector-effect="non-scaling-stroke" d="
  M 224.75 207.04
  L 231.75 211.25"
/>
<path stroke="#ddddaf" vector-effect="non-scaling-stroke" d="
  M 231.75 211.25
  L 232.57 212.23
  Q 232.89 212.62 233.38 212.77
  C 237.05 213.89 240.12 214.87 242.43 217.64
  Q 242.76 218.03 242.76 218.54
  C 242.82 223.51 239.78 222.98 236.05 223.28
  Q 235.51 223.32 235.06 223.02
  L 228.64 218.64
  Q 228.23 218.36 227.75 218.23
  Q 226.80 217.98 226.53 217.05
  Q 226.37 216.50 225.79 216.42
  Q 222.42 215.97 219.21 214.94
  C 216.06 213.94 213.55 214.29 213.23 209.92
  Q 213.21 209.58 212.87 209.54
  L 212.54 209.50
  Q 211.95 209.42 212.07 210.00
  L 212.79 213.75"
/>
<path stroke="#ddddaf" vector-effect="non-scaling-stroke" d="
  M 208.96 230.25
  Q 209.35 227.66 207.54 225.75"
/>
<path stroke="#bcc599" vector-effect="non-scaling-stroke" d="
  M 207.54 225.75
  Q 207.58 223.63 205.79 222.75"
/>
<path stroke="#bcc599" vector-effect="non-scaling-stroke" d="
  M 205.71 222.50
  Q 205.74 220.33 203.79 220.50"
/>
<path stroke="#ddddaf" vector-effect="non-scaling-stroke" d="
  M 203.79 220.50
  C 199.00 218.90 201.28 226.30 202.00 227.96"
/>
<path stroke="#ddddaf" vector-effect="non-scaling-stroke" d="
  M 192.71 226.25
  Q 192.52 224.40 193.27 222.68
  A 0.71 0.71 0.0 0 0 192.49 221.70
  L 189.24 222.31
  Q 188.70 222.41 188.51 222.92
  Q 184.65 232.86 185.04 243.50"
/>
<path stroke="#ddddaf" vector-effect="non-scaling-stroke" d="
  M 193.25 105.71
  C 188.21 106.28 191.93 101.42 189.75 101.46"
/>
<path stroke="#c18771" vector-effect="non-scaling-stroke" d="
  M 140.00 114.21
  C 129.44 113.34 120.43 120.57 116.21 129.75"
/>
<path stroke="#9f6546" vector-effect="non-scaling-stroke" d="
  M 116.21 129.75
  L 115.21 131.75"
/>
<path stroke="#7e4d2f" vector-effect="non-scaling-stroke" d="
  M 115.21 131.75
  L 114.85 131.75
  Q 114.38 131.75 113.99 131.49
  L 109.79 128.75"
/>
<path stroke="#c18771" vector-effect="non-scaling-stroke" d="
  M 109.79 128.75
  L 99.61 119.28
  Q 99.17 118.87 98.74 119.29
  L 86.32 131.48
  Q 85.98 131.81 86.31 132.15
  L 89.69 135.66"
/>
<path stroke="#7e4d2f" vector-effect="non-scaling-stroke" d="
  M 89.69 135.66
  L 95.21 140.75
  Q 95.68 141.19 95.06 141.33
  Q 81.98 144.41 69.25 140.21"
/>
<path stroke="#990e09" vector-effect="non-scaling-stroke" d="
  M 69.25 140.21
  L 70.81 138.74
  Q 71.16 138.42 71.63 138.46
  Q 79.80 139.22 87.85 137.45
  A 0.59 0.58 -22.3 0 0 88.22 136.57
  Q 86.79 134.30 84.97 132.99
  C 80.93 130.11 77.45 126.80 73.89 123.35
  Q 73.54 123.02 73.48 122.54
  Q 73.37 121.63 72.25 121.71"
/>
<path stroke="#ddddaf" vector-effect="non-scaling-stroke" d="
  M 145.79 117.50
  Q 142.05 120.76 138.40 124.12
  C 132.81 129.25 128.74 135.13 124.75 141.43
  A 1.55 1.55 0.0 0 1 121.90 140.71
  Q 121.76 138.76 122.71 137.17
  Q 122.92 136.81 122.94 136.39
  C 123.17 129.12 128.47 123.74 134.28 119.97
  A 0.40 0.40 0.0 0 0 134.09 119.23
  C 130.95 119.02 122.07 129.29 119.74 131.62
  Q 119.42 131.95 118.96 132.00
  Q 117.95 132.13 117.69 131.17
  Q 117.56 130.68 117.09 130.50
  Q 116.50 130.27 116.21 129.75"
/>
<path stroke="#c30f0d" vector-effect="non-scaling-stroke" d="
  M 169.06 91.25
  Q 172.89 94.40 172.62 89.57"
/>
<path stroke="#99a36e" vector-effect="non-scaling-stroke" d="
  M 203.79 220.50
  L 203.50 221.21"
/>
<path stroke="#99a36e" vector-effect="non-scaling-stroke" d="
  M 207.54 225.75
  L 207.46 227.00"
/>
<path stroke="#bcc599" vector-effect="non-scaling-stroke" d="
  M 109.79 128.75
  Q 108.95 129.98 107.58 130.34
  C 104.92 131.04 102.61 132.09 100.10 133.16
  Q 95.17 135.28 89.69 135.66"
/>
<path stroke="#99a36e" vector-effect="non-scaling-stroke" d="
  M 125.50 85.29
  Q 125.34 86.33 126.14 87.13
  Q 126.53 87.53 126.01 87.74
  L 124.05 88.52
  Q 123.50 88.74 123.64 89.31
  C 123.74 89.70 129.15 90.16 130.47 90.85
  A 0.49 0.49 0.0 0 1 130.36 91.76
  L 123.75 93.29"
/>
<path stroke="#9f6546" vector-effect="non-scaling-stroke" d="
  M 123.75 93.29
  C 120.17 93.05 116.86 91.91 113.42 92.67
  C 105.20 94.49 99.63 98.98 91.63 104.52
  Q 91.21 104.81 90.70 104.74
  C 85.49 104.07 74.95 118.01 72.25 121.71"
/>
<path stroke="#b46447" vector-effect="non-scaling-stroke" d="
  M 72.25 121.71
  Q 66.18 125.68 61.21 131.00"
/>
<path stroke="#7e4d2f" vector-effect="non-scaling-stroke" d="
  M 134.71 96.25
  L 123.75 93.29"
/>
<path stroke="#934c31" vector-effect="non-scaling-stroke" d="
  M 69.25 140.21
  Q 66.85 138.98 64.29 140.00"
/>
<path stroke="#990e09" vector-effect="non-scaling-stroke" d="
  M 108.00 125.54
  C 110.30 128.93 112.61 127.89 114.69 125.10
  Q 117.48 121.34 120.45 117.74"
/>
<path stroke="#ad100c" vector-effect="non-scaling-stroke" d="
  M 120.45 117.74
  Q 124.06 114.40 128.80 112.68
  Q 129.43 112.45 129.39 111.78
  L 128.89 103.20
  Q 128.84 102.47 128.20 102.12
  Q 125.38 100.60 123.26 98.20
  Q 122.91 97.81 122.41 97.69
  C 118.17 96.65 111.76 94.96 107.57 96.71
  C 104.52 97.99 101.89 100.40 99.12 101.26
  Q 98.65 101.41 98.33 101.79
  Q 96.36 104.09 93.77 105.77
  A 1.51 1.51 0.0 0 0 93.48 108.07
  C 95.68 110.45 100.61 114.47 100.73 117.71
  Q 100.75 118.22 101.05 118.62
  Q 103.94 122.63 108.00 125.54"
/>
<path stroke="#c30f0d" vector-effect="non-scaling-stroke" d="
  M 120.45 117.74
  L 117.93 118.65
  Q 117.43 118.83 117.11 119.25
  Q 115.54 121.33 113.27 122.50
  Q 112.82 122.73 112.52 123.13
  Q 110.87 125.29 108.00 125.54"
/>
<path stroke="#b86924" vector-effect="non-scaling-stroke" d="
  M 87.25 106.96
  Q 85.98 106.81 85.71 108.00"
/>
<path stroke="#a04d0a" vector-effect="non-scaling-stroke" d="
  M 85.71 108.00
  Q 79.84 112.89 74.76 119.33
  Q 73.92 120.40 74.85 121.40
  L 82.73 129.94
  A 2.17 2.17 0.0 0 0 85.84 130.01
  L 96.29 119.75"
/>
<path stroke="#7a3815" vector-effect="non-scaling-stroke" d="
  M 96.29 119.75
  L 99.31 117.34
  Q 99.90 116.87 99.39 116.30
  L 90.30 106.25
  Q 89.94 105.85 89.42 105.93
  Q 88.14 106.12 87.25 106.96"
/>
<path stroke="#977618" vector-effect="non-scaling-stroke" d="
  M 96.29 119.75
  Q 96.68 118.00 95.79 116.50"
/>
<path stroke="#ae9132" vector-effect="non-scaling-stroke" d="
  M 95.79 116.50
  Q 91.95 111.35 87.25 106.96"
/>
<path stroke="#d5a727" vector-effect="non-scaling-stroke" d="
  M 95.79 116.50
  Q 96.07 116.95 95.95 117.48
  A 0.47 0.47 0.0 0 1 95.16 117.70
  L 85.71 108.00"
/>
<path stroke="#424240" vector-effect="non-scaling-stroke" d="
  M 277.48 156.97
  Q 278.96 151.33 278.33 145.51
  Q 278.27 144.98 277.94 144.57
  Q 273.78 139.44 268.03 136.16
  A 0.40 0.40 0.0 0 0 267.52 136.76
  Q 274.61 145.68 276.77 156.95
  A 0.37 0.36 -43.2 0 0 277.48 156.97"
/>
<path stroke="#68510b" vector-effect="non-scaling-stroke" d="
  M 90.6684 119.1356
  A 1.41 1.41 0.0 0 0 90.6579 117.1416
  L 87.0755 113.5964
  A 1.41 1.41 0.0 0 0 85.0815 113.6069
  L 80.5516 118.1844
  A 1.41 1.41 0.0 0 0 80.5621 120.1784
  L 84.1445 123.7236
  A 1.41 1.41 0.0 0 0 86.1385 123.7131
  L 90.6684 119.1356"
/>
<path stroke="#666946" vector-effect="non-scaling-stroke" d="
  M 87.10 114.22
  A 0.45 0.44 -42.1 0 0 86.44 114.19
  L 81.72 118.91
  Q 81.31 119.32 81.70 119.75
  L 84.54 122.88
  Q 85.35 123.77 86.30 123.04
  Q 88.72 121.19 89.78 118.24
  Q 89.97 117.69 89.60 117.24
  L 87.10 114.22"
/>
</g>
<path fill="#182985" d="
  M 343.96 136.50
  Q 343.74 137.02 343.26 137.06
  Q 343.11 137.08 343.06 136.93
  Q 343.03 136.83 343.00 136.66
  A 0.41 0.41 0.0 0 0 342.26 136.50
  Q 334.68 147.88 329.02 157.84
  Q 328.44 158.85 327.69 158.31
  A 0.56 0.55 -55.1 0 1 327.56 157.56
  Q 335.95 144.86 342.69 131.44
  Q 344.12 128.60 344.13 124.51
  C 344.13 122.87 344.86 121.75 344.75 120.02
  Q 344.73 119.69 344.48 119.90
  Q 344.37 120.00 344.19 120.00
  Q 344.10 120.00 344.08 120.09
  L 343.52 122.61
  Q 343.36 123.32 342.93 122.74
  Q 342.24 121.82 342.59 120.78
  Q 342.80 120.13 342.35 120.64
  L 341.11 122.05
  Q 340.80 122.41 340.65 122.87
  L 338.98 128.22
  Q 338.82 128.72 338.30 128.65
  L 337.63 128.56
  Q 337.20 128.51 337.00 128.88
  C 335.61 131.46 333.59 133.04 332.27 135.60
  Q 330.39 139.25 327.76 142.43
  Q 327.71 142.49 325.33 145.66
  Q 323.45 148.16 320.50 149.69
  Q 320.26 149.81 320.25 149.54
  Q 320.25 149.34 320.29 149.14
  Q 320.42 148.49 319.90 148.90
  Q 317.01 151.19 314.52 153.89
  C 311.70 156.94 310.98 160.67 306.12 162.72
  Q 303.97 163.63 302.58 164.76
  C 300.17 166.70 296.48 170.04 293.07 168.51
  Q 292.59 168.29 292.40 167.81
  Q 290.79 163.72 291.24 161.50
  Q 293.07 152.47 298.62 137.38
  C 299.57 134.81 298.90 132.10 298.97 129.38
  Q 298.98 128.72 298.32 128.73
  C 295.17 128.79 292.50 133.96 289.86 135.97
  Q 285.30 139.43 281.45 143.03
  A 2.12 2.12 0.0 0 1 278.19 142.58
  Q 275.55 138.21 271.39 135.81
  C 270.49 135.29 269.64 135.48 268.74 134.58
  C 265.92 131.80 262.87 131.11 259.16 132.92
  Q 258.70 133.15 258.30 132.83
  Q 256.72 131.57 255.26 133.03
  C 253.26 135.03 253.79 137.37 255.09 139.81
  Q 258.94 147.09 262.28 154.61
  C 263.35 157.02 265.49 160.82 266.49 164.41
  C 267.56 168.23 268.56 171.04 269.35 174.39
  C 269.94 176.93 271.31 178.22 273.32 179.52
  A 1.50 1.50 0.0 0 1 273.08 182.17
  Q 268.64 183.97 263.84 183.42
  Q 263.81 183.41 263.81 183.44
  Q 263.81 183.61 263.82 183.78
  Q 263.86 184.06 263.57 184.02
  C 258.14 183.15 259.65 179.20 256.41 176.83
  Q 255.98 176.51 255.85 175.99
  Q 254.96 172.37 251.26 171.86
  A 1.31 1.31 0.0 0 1 250.12 170.54
  C 250.24 165.10 250.12 158.59 247.43 153.64
  Q 245.83 150.68 245.22 147.33
  Q 245.13 146.83 244.72 146.53
  Q 242.93 145.17 240.89 144.23
  C 237.67 142.76 236.85 146.76 233.71 145.38
  A 2.60 2.60 0.0 0 1 232.16 142.83
  C 232.46 138.28 233.46 131.60 232.58 127.09
  C 231.46 121.32 228.90 116.72 226.89 111.23
  Q 226.83 111.08 226.97 111.15
  L 227.40 111.37
  Q 228.07 111.73 227.87 110.99
  Q 226.50 106.15 221.68 104.72
  Q 221.10 104.55 220.88 105.11
  Q 220.61 105.77 220.04 105.50
  C 217.90 93.58 213.66 82.09 228.52 77.87
  Q 239.10 74.87 248.29 82.50
  Q 247.89 82.74 247.48 82.52
  Q 246.96 82.24 246.82 82.82
  L 244.51 92.28
  Q 244.37 92.83 244.64 93.34
  C 245.23 94.44 244.68 95.55 244.82 96.43
  Q 245.33 99.56 247.99 101.38
  Q 248.39 101.65 248.86 101.57
  C 254.38 100.59 254.94 95.77 255.78 91.14
  Q 255.86 90.74 256.23 90.55
  L 256.75 90.29
  Q 257.54 89.80 257.68 89.18
  C 261.02 73.84 264.69 58.19 273.80 44.82
  C 276.80 40.41 280.58 39.45 285.63 41.49
  C 299.34 47.02 304.11 59.61 305.42 73.43
  Q 306.37 83.52 307.77 94.49
  A 0.70 0.70 0.0 0 0 308.89 94.96
  C 312.32 92.32 315.04 88.44 318.02 86.01
  Q 332.37 74.28 347.79 68.01
  C 357.48 64.07 357.15 86.19 356.46 90.76
  C 354.61 103.07 351.14 112.91 346.57 125.04
  C 345.16 128.78 344.68 132.60 343.96 136.50
  Z"
/>
<path fill="#788a57" d="
  M 186.54 76.00
  C 181.87 81.75 178.72 86.12 172.44 88.29
  C 167.37 90.04 159.11 89.95 152.60 91.45
  Q 152.11 91.56 151.91 92.03
  Q 150.60 95.17 151.91 97.59
  Q 156.09 105.29 164.36 112.46
  Q 164.73 112.78 165.22 112.71
  L 166.25 112.54
  Q 165.27 114.49 167.03 115.61
  Q 167.41 115.85 167.85 115.72
  Q 169.33 115.29 170.06 113.99
  Q 170.33 113.52 170.83 113.31
  L 174.37 111.87
  Q 175.03 111.61 174.71 112.24
  L 172.11 117.27
  Q 171.86 117.76 172.12 118.24
  Q 172.54 119.01 172.77 119.96
  A 1.89 1.88 63.6 0 0 175.80 120.98
  Q 182.68 115.29 190.04 111.50
  Q 197.76 120.97 201.69 132.59
  Q 201.70 132.63 201.68 132.67
  L 201.51 132.96
  Q 201.32 133.27 201.15 132.95
  Q 196.91 124.75 192.78 116.48
  Q 192.34 115.59 190.86 114.19
  Q 190.49 113.84 190.00 114.01
  Q 183.76 116.11 180.57 121.87
  Q 180.27 122.41 180.59 122.95
  L 183.80 128.35
  Q 181.01 130.25 178.28 131.12
  C 173.18 132.76 172.62 125.43 170.15 122.65
  Q 166.69 118.74 164.49 113.99
  Q 164.28 113.54 163.88 113.25
  Q 158.30 109.15 153.33 102.40
  Q 147.47 94.43 150.89 85.42
  C 151.29 84.35 152.11 83.73 152.96 83.00
  Q 153.48 83.82 154.45 83.75
  Q 155.01 83.71 155.26 84.21
  L 156.60 86.80
  Q 156.84 87.26 157.36 87.26
  Q 158.85 87.27 160.06 88.01
  Q 160.52 88.29 161.05 88.19
  C 163.99 87.67 166.84 88.08 169.53 87.00
  C 171.50 86.21 184.75 79.94 181.50 77.46
  Q 181.53 77.30 181.63 77.17
  Q 182.03 76.61 181.36 76.51
  Q 181.18 76.49 181.00 76.46
  Q 181.17 75.26 179.96 75.00
  Q 179.47 73.79 178.00 74.21
  Q 178.78 72.91 177.46 72.25
  Q 183.44 70.61 186.54 76.00
  Z"
/>
<path fill="#babb84" d="
  M 177.46 72.25
  Q 178.78 72.91 178.00 74.21
  Q 170.13 77.22 162.63 81.09
  Q 159.33 82.79 161.36 85.50
  A 1.48 1.47 59.1 0 0 163.16 85.96
  L 181.50 77.46
  C 184.75 79.94 171.50 86.21 169.53 87.00
  C 166.84 88.08 163.99 87.67 161.05 88.19
  Q 160.52 88.29 160.06 88.01
  Q 158.85 87.27 157.36 87.26
  Q 156.84 87.26 156.60 86.80
  L 155.26 84.21
  Q 155.01 83.71 154.45 83.75
  Q 153.48 83.82 152.96 83.00
  Q 154.32 81.77 156.69 80.69
  Q 167.94 75.52 177.46 72.25
  Z"
/>
<path fill="#121608" fill-opacity="0.996" d="
  M 178.00 74.21
  Q 179.47 73.79 179.96 75.00
  C 176.80 74.89 162.91 81.01 160.96 83.48
  Q 159.94 84.76 161.56 84.96
  C 164.40 85.30 177.42 78.01 181.00 76.46
  Q 181.18 76.49 181.36 76.51
  Q 182.03 76.61 181.63 77.17
  Q 181.53 77.30 181.50 77.46
  L 163.16 85.96
  A 1.48 1.47 59.1 0 1 161.36 85.50
  Q 159.33 82.79 162.63 81.09
  Q 170.13 77.22 178.00 74.21
  Z"
/>
<path fill="#babb84" d="
  M 179.96 75.00
  Q 181.17 75.26 181.00 76.46
  C 177.42 78.01 164.40 85.30 161.56 84.96
  Q 159.94 84.76 160.96 83.48
  C 162.91 81.01 176.80 74.89 179.96 75.00
  Z"
/>
<path fill="#830f07" d="
  M 186.54 76.00
  L 187.71 78.00
  C 184.31 80.54 181.81 84.31 178.84 86.36
  Q 175.89 88.41 172.62 89.57
  L 169.06 91.25
  L 161.14 92.17
  Q 160.63 92.23 160.36 92.66
  C 158.56 95.45 161.97 100.74 165.07 101.39
  Q 165.58 101.50 165.86 101.93
  Q 168.45 105.79 173.08 104.78
  C 173.78 104.63 173.98 104.72 174.50 105.11
  Q 174.94 105.42 175.43 105.20
  C 179.46 103.40 183.59 100.88 187.99 100.26
  Q 189.13 100.10 188.95 98.75
  Q 188.89 98.24 189.24 97.87
  Q 190.04 97.03 191.21 96.75
  L 190.96 101.25
  L 189.75 101.46
  C 183.78 103.11 170.60 107.35 166.25 112.54
  L 165.22 112.71
  Q 164.73 112.78 164.36 112.46
  Q 156.09 105.29 151.91 97.59
  Q 150.60 95.17 151.91 92.03
  Q 152.11 91.56 152.60 91.45
  C 159.11 89.95 167.37 90.04 172.44 88.29
  C 178.72 86.12 181.87 81.75 186.54 76.00
  Z"
/>
<path fill="#ae0d0a" d="
  M 187.71 78.00
  Q 191.83 86.89 191.21 96.75
  Q 190.04 97.03 189.24 97.87
  Q 188.89 98.24 188.95 98.75
  Q 189.13 100.10 187.99 100.26
  C 183.59 100.88 179.46 103.40 175.43 105.20
  Q 174.94 105.42 174.50 105.11
  C 173.98 104.72 173.78 104.63 173.08 104.78
  Q 168.45 105.79 165.86 101.93
  Q 165.58 101.50 165.07 101.39
  C 161.97 100.74 158.56 95.45 160.36 92.66
  Q 160.63 92.23 161.14 92.17
  L 169.06 91.25
  Q 172.89 94.40 172.62 89.57
  Q 175.89 88.41 178.84 86.36
  C 181.81 84.31 184.31 80.54 187.71 78.00
  Z"
/>
<path fill="#13245d" d="
  M 248.29 82.50
  Q 252.41 85.71 255.59 89.85
  Q 255.86 90.21 256.31 90.25
  L 256.75 90.29
  L 256.23 90.55
  Q 255.86 90.74 255.78 91.14
  C 254.94 95.77 254.38 100.59 248.86 101.57
  Q 248.39 101.65 247.99 101.38
  Q 245.33 99.56 244.82 96.43
  C 244.68 95.55 245.23 94.44 244.64 93.34
  Q 244.37 92.83 244.51 92.28
  L 246.82 82.82
  Q 246.96 82.24 247.48 82.52
  Q 247.89 82.74 248.29 82.50
  Z"
/>
<path fill="#babb84" d="
  M 125.50 85.29
  Q 125.34 86.33 126.14 87.13
  Q 126.53 87.53 126.01 87.74
  L 124.05 88.52
  Q 123.50 88.74 123.64 89.31
  C 123.74 89.70 129.15 90.16 130.47 90.85
  A 0.49 0.49 0.0 0 1 130.36 91.76
  L 123.75 93.29
  C 120.17 93.05 116.86 91.91 113.42 92.67
  C 105.20 94.49 99.63 98.98 91.63 104.52
  Q 91.21 104.81 90.70 104.74
  C 85.49 104.07 74.95 118.01 72.25 121.71
  Q 66.18 125.68 61.21 131.00
  C 62.60 123.72 75.88 114.72 80.80 109.55
  C 91.81 97.97 108.23 80.95 125.50 85.29
  Z"
/>
<path fill="#788a57" d="
  M 125.50 85.29
  Q 132.88 88.39 134.71 96.25
  L 123.75 93.29
  L 130.36 91.76
  A 0.49 0.49 0.0 0 0 130.47 90.85
  C 129.15 90.16 123.74 89.70 123.64 89.31
  Q 123.50 88.74 124.05 88.52
  L 126.01 87.74
  Q 126.53 87.53 126.14 87.13
  Q 125.34 86.33 125.50 85.29
  Z"
/>
<path fill="#d71110" d="
  M 172.62 89.57
  Q 172.89 94.40 169.06 91.25
  L 172.62 89.57
  Z"
/>
<path fill="#830f07" d="
  M 123.75 93.29
  L 134.71 96.25
  C 136.15 100.64 138.66 105.20 139.21 109.75
  Q 139.48 112.00 140.00 114.21
  C 129.44 113.34 120.43 120.57 116.21 129.75
  L 115.21 131.75
  L 114.85 131.75
  Q 114.38 131.75 113.99 131.49
  L 109.79 128.75
  L 99.61 119.28
  Q 99.17 118.87 98.74 119.29
  L 86.32 131.48
  Q 85.98 131.81 86.31 132.15
  L 89.69 135.66
  L 95.21 140.75
  Q 95.68 141.19 95.06 141.33
  Q 81.98 144.41 69.25 140.21
  L 70.81 138.74
  Q 71.16 138.42 71.63 138.46
  Q 79.80 139.22 87.85 137.45
  A 0.59 0.58 -22.3 0 0 88.22 136.57
  Q 86.79 134.30 84.97 132.99
  C 80.93 130.11 77.45 126.80 73.89 123.35
  Q 73.54 123.02 73.48 122.54
  Q 73.37 121.63 72.25 121.71
  C 74.95 118.01 85.49 104.07 90.70 104.74
  Q 91.21 104.81 91.63 104.52
  C 99.63 98.98 105.20 94.49 113.42 92.67
  C 116.86 91.91 120.17 93.05 123.75 93.29
  Z
  M 108.00 125.54
  C 110.30 128.93 112.61 127.89 114.69 125.10
  Q 117.48 121.34 120.45 117.74
  Q 124.06 114.40 128.80 112.68
  Q 129.43 112.45 129.39 111.78
  L 128.89 103.20
  Q 128.84 102.47 128.20 102.12
  Q 125.38 100.60 123.26 98.20
  Q 122.91 97.81 122.41 97.69
  C 118.17 96.65 111.76 94.96 107.57 96.71
  C 104.52 97.99 101.89 100.40 99.12 101.26
  Q 98.65 101.41 98.33 101.79
  Q 96.36 104.09 93.77 105.77
  A 1.51 1.51 0.0 0 0 93.48 108.07
  C 95.68 110.45 100.61 114.47 100.73 117.71
  Q 100.75 118.22 101.05 118.62
  Q 103.94 122.63 108.00 125.54
  Z
  M 87.25 106.96
  Q 85.98 106.81 85.71 108.00
  Q 79.84 112.89 74.76 119.33
  Q 73.92 120.40 74.85 121.40
  L 82.73 129.94
  A 2.17 2.17 0.0 0 0 85.84 130.01
  L 96.29 119.75
  L 99.31 117.34
  Q 99.90 116.87 99.39 116.30
  L 90.30 106.25
  Q 89.94 105.85 89.42 105.93
  Q 88.14 106.12 87.25 106.96
  Z"
/>
<path fill="#d71110" d="
  M 120.45 117.74
  L 117.93 118.65
  Q 117.43 118.83 117.11 119.25
  Q 115.54 121.33 113.27 122.50
  Q 112.82 122.73 112.52 123.13
  Q 110.87 125.29 108.00 125.54
  Q 103.94 122.63 101.05 118.62
  Q 100.75 118.22 100.73 117.71
  C 100.61 114.47 95.68 110.45 93.48 108.07
  A 1.51 1.51 0.0 0 1 93.77 105.77
  Q 96.36 104.09 98.33 101.79
  Q 98.65 101.41 99.12 101.26
  C 101.89 100.40 104.52 97.99 107.57 96.71
  C 111.76 94.96 118.17 96.65 122.41 97.69
  Q 122.91 97.81 123.26 98.20
  Q 125.38 100.60 128.20 102.12
  Q 128.84 102.47 128.89 103.20
  L 129.39 111.78
  Q 129.43 112.45 128.80 112.68
  Q 124.06 114.40 120.45 117.74
  Z"
/>
<path fill="#babb84" d="
  M 190.96 101.25
  Q 191.64 103.71 193.25 105.71
  C 188.21 106.28 191.93 101.42 189.75 101.46
  L 190.96 101.25
  Z"
/>
<path fill="#ffffda" d="
  M 189.75 101.46
  C 191.93 101.42 188.21 106.28 193.25 105.71
  L 196.29 108.50
  L 188.08 107.53
  Q 187.44 107.45 187.79 107.99
  L 190.04 111.50
  Q 182.68 115.29 175.80 120.98
  A 1.89 1.88 63.6 0 1 172.77 119.96
  Q 172.54 119.01 172.12 118.24
  Q 171.86 117.76 172.11 117.27
  L 174.71 112.24
  Q 175.03 111.61 174.37 111.87
  L 170.83 113.31
  Q 170.33 113.52 170.06 113.99
  Q 169.33 115.29 167.85 115.72
  Q 167.41 115.85 167.03 115.61
  Q 165.27 114.49 166.25 112.54
  C 170.60 107.35 183.78 103.11 189.75 101.46
  Z"
/>
<path fill="#13245d" d="
  M 343.96 136.50
  Q 342.75 140.91 342.75 145.46
  Q 341.41 146.48 341.10 148.12
  Q 341.02 148.56 341.43 148.75
  Q 344.67 150.26 348.29 150.06
  L 350.75 151.96
  Q 350.16 152.89 350.56 155.22
  L 341.23 151.25
  Q 340.74 151.04 340.32 151.36
  Q 337.47 153.57 335.71 156.50
  L 332.83 160.75
  Q 332.68 160.96 332.82 161.19
  L 333.00 161.46
  C 328.76 163.94 328.17 167.24 328.49 172.11
  Q 328.68 174.96 328.48 177.37
  Q 319.19 183.84 311.87 192.44
  Q 311.51 192.85 312.00 193.09
  L 320.57 197.40
  Q 320.91 197.57 320.96 197.96
  L 321.21 200.00
  Q 311.69 195.60 308.07 193.43
  C 305.12 191.67 300.64 189.06 297.48 191.92
  C 288.22 200.30 279.74 204.30 266.92 203.60
  Q 252.37 202.80 239.65 195.20
  Q 238.37 194.44 235.90 193.78
  Q 231.87 192.70 229.79 188.75
  L 234.13 191.53
  Q 234.70 191.89 234.73 191.22
  Q 234.78 190.26 233.96 189.50
  C 235.01 185.44 231.65 181.70 229.54 178.50
  C 224.82 169.19 228.88 158.13 226.86 147.45
  Q 226.77 147.00 226.46 147.34
  C 220.31 153.94 221.67 163.83 222.36 173.37
  L 212.11 172.41
  Q 211.62 172.36 211.25 172.69
  L 208.67 174.90
  Q 209.80 171.53 213.04 169.50
  C 214.82 167.64 219.61 162.45 220.71 158.80
  Q 220.87 158.28 220.51 157.87
  C 218.00 154.91 215.34 156.12 213.04 158.60
  Q 207.52 164.53 201.54 170.00
  L 201.50 169.41
  Q 201.47 168.90 201.09 168.57
  Q 198.05 165.92 194.34 167.76
  A 0.56 0.56 0.0 0 1 193.55 167.12
  C 194.42 163.66 185.62 160.83 183.17 159.94
  Q 164.42 153.10 146.83 143.64
  C 145.87 143.12 144.31 142.87 143.25 142.71
  Q 138.12 138.98 132.01 136.83
  Q 134.41 133.43 139.34 128.08
  C 143.29 123.79 148.30 129.49 152.38 131.22
  C 163.41 141.89 179.36 146.04 193.28 150.55
  A 2.86 1.01 -44.4 0 0 195.47 149.53
  Q 195.91 149.14 195.25 147.88
  C 192.24 142.09 188.75 132.44 183.80 128.35
  L 180.59 122.95
  Q 180.27 122.41 180.57 121.87
  Q 183.76 116.11 190.00 114.01
  Q 190.49 113.84 190.86 114.19
  Q 192.34 115.59 192.78 116.48
  Q 196.91 124.75 201.15 132.95
  Q 201.32 133.27 201.51 132.96
  L 201.68 132.67
  Q 201.70 132.63 201.69 132.59
  Q 197.76 120.97 190.04 111.50
  L 187.79 107.99
  Q 187.44 107.45 188.08 107.53
  L 196.29 108.50
  Q 204.41 111.92 211.81 116.59
  C 214.50 118.28 216.97 121.03 219.81 123.01
  A 0.73 0.73 0.0 0 0 220.96 122.44
  Q 221.28 114.05 220.04 105.50
  Q 220.61 105.77 220.88 105.11
  Q 221.10 104.55 221.68 104.72
  Q 226.50 106.15 227.87 110.99
  Q 228.07 111.73 227.40 111.37
  L 226.97 111.15
  Q 226.83 111.08 226.89 111.23
  C 228.90 116.72 231.46 121.32 232.58 127.09
  C 233.46 131.60 232.46 138.28 232.16 142.83
  A 2.60 2.60 0.0 0 0 233.71 145.38
  C 236.85 146.76 237.67 142.76 240.89 144.23
  Q 242.93 145.17 244.72 146.53
  Q 245.13 146.83 245.22 147.33
  Q 245.83 150.68 247.43 153.64
  C 250.12 158.59 250.24 165.10 250.12 170.54
  A 1.31 1.31 0.0 0 0 251.26 171.86
  Q 254.96 172.37 255.85 175.99
  Q 255.98 176.51 256.41 176.83
  C 259.65 179.20 258.14 183.15 263.57 184.02
  Q 263.86 184.06 263.82 183.78
  Q 263.81 183.61 263.81 183.44
  Q 263.81 183.41 263.84 183.42
  Q 268.64 183.97 273.08 182.17
  A 1.50 1.50 0.0 0 0 273.32 179.52
  C 271.31 178.22 269.94 176.93 269.35 174.39
  C 268.56 171.04 267.56 168.23 266.49 164.41
  C 265.49 160.82 263.35 157.02 262.28 154.61
  Q 258.94 147.09 255.09 139.81
  C 253.79 137.37 253.26 135.03 255.26 133.03
  Q 256.72 131.57 258.30 132.83
  Q 258.70 133.15 259.16 132.92
  C 262.87 131.11 265.92 131.80 268.74 134.58
  C 269.64 135.48 270.49 135.29 271.39 135.81
  Q 275.55 138.21 278.19 142.58
  A 2.12 2.12 0.0 0 0 281.45 143.03
  Q 285.30 139.43 289.86 135.97
  C 292.50 133.96 295.17 128.79 298.32 128.73
  Q 298.98 128.72 298.97 129.38
  C 298.90 132.10 299.57 134.81 298.62 137.38
  Q 293.07 152.47 291.24 161.50
  Q 290.79 163.72 292.40 167.81
  Q 292.59 168.29 293.07 168.51
  C 296.48 170.04 300.17 166.70 302.58 164.76
  Q 303.97 163.63 306.12 162.72
  C 310.98 160.67 311.70 156.94 314.52 153.89
  Q 317.01 151.19 319.90 148.90
  Q 320.42 148.49 320.29 149.14
  Q 320.25 149.34 320.25 149.54
  Q 320.26 149.81 320.50 149.69
  Q 323.45 148.16 325.33 145.66
  Q 327.71 142.49 327.76 142.43
  Q 330.39 139.25 332.27 135.60
  C 333.59 133.04 335.61 131.46 337.00 128.88
  Q 337.20 128.51 337.63 128.56
  L 338.30 128.65
  Q 338.82 128.72 338.98 128.22
  L 340.65 122.87
  Q 340.80 122.41 341.11 122.05
  L 342.35 120.64
  Q 342.80 120.13 342.59 120.78
  Q 342.24 121.82 342.93 122.74
  Q 343.36 123.32 343.52 122.61
  L 344.08 120.09
  Q 344.10 120.00 344.19 120.00
  Q 344.37 120.00 344.48 119.90
  Q 344.73 119.69 344.75 120.02
  C 344.86 121.75 344.13 122.87 344.13 124.51
  Q 344.12 128.60 342.69 131.44
  Q 335.95 144.86 327.56 157.56
  A 0.56 0.55 -55.1 0 0 327.69 158.31
  Q 328.44 158.85 329.02 157.84
  Q 334.68 147.88 342.26 136.50
  A 0.41 0.41 0.0 0 1 343.00 136.66
  Q 343.03 136.83 343.06 136.93
  Q 343.11 137.08 343.26 137.06
  Q 343.74 137.02 343.96 136.50
  Z
  M 277.48 156.97
  Q 278.96 151.33 278.33 145.51
  Q 278.27 144.98 277.94 144.57
  Q 273.78 139.44 268.03 136.16
  A 0.40 0.40 0.0 0 0 267.52 136.76
  Q 274.61 145.68 276.77 156.95
  A 0.37 0.36 -43.2 0 0 277.48 156.97
  Z"
/>
<path fill="#706023" d="
  M 96.29 119.75
  Q 96.68 118.00 95.79 116.50
  Q 91.95 111.35 87.25 106.96
  Q 88.14 106.12 89.42 105.93
  Q 89.94 105.85 90.30 106.25
  L 99.39 116.30
  Q 99.90 116.87 99.31 117.34
  L 96.29 119.75
  Z"
/>
<path fill="#ecc241" d="
  M 87.25 106.96
  Q 91.95 111.35 95.79 116.50
  Q 96.07 116.95 95.95 117.48
  A 0.47 0.47 0.0 0 1 95.16 117.70
  L 85.71 108.00
  Q 85.98 106.81 87.25 106.96
  Z"
/>
<path fill="#bd8b0d" d="
  M 85.71 108.00
  L 95.16 117.70
  A 0.47 0.47 0.0 0 0 95.95 117.48
  Q 96.07 116.95 95.79 116.50
  Q 96.68 118.00 96.29 119.75
  L 85.84 130.01
  A 2.17 2.17 0.0 0 1 82.73 129.94
  L 74.85 121.40
  Q 73.92 120.40 74.76 119.33
  Q 79.84 112.89 85.71 108.00
  Z
  M 90.6684 119.1356
  A 1.41 1.41 0.0 0 0 90.6579 117.1416
  L 87.0755 113.5964
  A 1.41 1.41 0.0 0 0 85.0815 113.6069
  L 80.5516 118.1844
  A 1.41 1.41 0.0 0 0 80.5621 120.1784
  L 84.1445 123.7236
  A 1.41 1.41 0.0 0 0 86.1385 123.7131
  L 90.6684 119.1356
  Z"
/>
<path fill="#121608" fill-opacity="0.996" d="
  M 86.1385 123.7131
  A 1.41 1.41 0.0 0 1 84.1445 123.7236
  L 80.5621 120.1784
  A 1.41 1.41 0.0 0 1 80.5516 118.1844
  L 85.0815 113.6069
  A 1.41 1.41 0.0 0 1 87.0755 113.5964
  L 90.6579 117.1416
  A 1.41 1.41 0.0 0 1 90.6684 119.1356
  L 86.1385 123.7131
  Z
  M 87.10 114.22
  A 0.45 0.44 -42.1 0 0 86.44 114.19
  L 81.72 118.91
  Q 81.31 119.32 81.70 119.75
  L 84.54 122.88
  Q 85.35 123.77 86.30 123.04
  Q 88.72 121.19 89.78 118.24
  Q 89.97 117.69 89.60 117.24
  L 87.10 114.22
  Z"
/>
<path fill="#ffffda" d="
  M 140.00 114.21
  Q 143.15 115.42 145.79 117.50
  Q 142.05 120.76 138.40 124.12
  C 132.81 129.25 128.74 135.13 124.75 141.43
  A 1.55 1.55 0.0 0 1 121.90 140.71
  Q 121.76 138.76 122.71 137.17
  Q 122.92 136.81 122.94 136.39
  C 123.17 129.12 128.47 123.74 134.28 119.97
  A 0.40 0.40 0.0 0 0 134.09 119.23
  C 130.95 119.02 122.07 129.29 119.74 131.62
  Q 119.42 131.95 118.96 132.00
  Q 117.95 132.13 117.69 131.17
  Q 117.56 130.68 117.09 130.50
  Q 116.50 130.27 116.21 129.75
  C 120.43 120.57 129.44 113.34 140.00 114.21
  Z"
/>
<path fill="#babb84" d="
  M 87.10 114.22
  L 89.60 117.24
  Q 89.97 117.69 89.78 118.24
  Q 88.72 121.19 86.30 123.04
  Q 85.35 123.77 84.54 122.88
  L 81.70 119.75
  Q 81.31 119.32 81.72 118.91
  L 86.44 114.19
  A 0.45 0.44 -42.1 0 1 87.10 114.22
  Z"
/>
<path fill="#babb84" d="
  M 145.79 117.50
  Q 151.51 120.12 152.38 126.27
  C 152.57 127.62 152.08 129.44 152.38 131.22
  C 148.30 129.49 143.29 123.79 139.34 128.08
  Q 134.41 133.43 132.01 136.83
  Q 130.75 136.42 130.73 137.81
  C 130.70 139.59 129.69 140.78 128.23 141.68
  Q 127.87 141.90 127.73 142.32
  L 126.97 144.67
  Q 126.81 145.16 126.94 145.66
  Q 127.24 146.76 126.21 147.50
  Q 123.66 146.53 123.06 145.19
  Q 120.60 139.63 115.21 136.75
  L 115.21 131.75
  L 116.21 129.75
  Q 116.50 130.27 117.09 130.50
  Q 117.56 130.68 117.69 131.17
  Q 117.95 132.13 118.96 132.00
  Q 119.42 131.95 119.74 131.62
  C 122.07 129.29 130.95 119.02 134.09 119.23
  A 0.40 0.40 0.0 0 1 134.28 119.97
  C 128.47 123.74 123.17 129.12 122.94 136.39
  Q 122.92 136.81 122.71 137.17
  Q 121.76 138.76 121.90 140.71
  A 1.55 1.55 0.0 0 0 124.75 141.43
  C 128.74 135.13 132.81 129.25 138.40 124.12
  Q 142.05 120.76 145.79 117.50
  Z"
/>
<path fill="#ae0d0a" d="
  M 120.45 117.74
  Q 117.48 121.34 114.69 125.10
  C 112.61 127.89 110.30 128.93 108.00 125.54
  Q 110.87 125.29 112.52 123.13
  Q 112.82 122.73 113.27 122.50
  Q 115.54 121.33 117.11 119.25
  Q 117.43 118.83 117.93 118.65
  L 120.45 117.74
  Z"
/>
<path fill="#ffffda" d="
  M 109.79 128.75
  Q 108.95 129.98 107.58 130.34
  C 104.92 131.04 102.61 132.09 100.10 133.16
  Q 95.17 135.28 89.69 135.66
  L 86.31 132.15
  Q 85.98 131.81 86.32 131.48
  L 98.74 119.29
  Q 99.17 118.87 99.61 119.28
  L 109.79 128.75
  Z"
/>
<path fill="#ae0d0a" d="
  M 72.25 121.71
  Q 73.37 121.63 73.48 122.54
  Q 73.54 123.02 73.89 123.35
  C 77.45 126.80 80.93 130.11 84.97 132.99
  Q 86.79 134.30 88.22 136.57
  A 0.59 0.58 -22.3 0 1 87.85 137.45
  Q 79.80 139.22 71.63 138.46
  Q 71.16 138.42 70.81 138.74
  L 69.25 140.21
  Q 66.85 138.98 64.29 140.00
  C 62.30 137.19 59.58 135.10 61.21 131.00
  Q 66.18 125.68 72.25 121.71
  Z"
/>
<path fill="#788a57" d="
  M 109.79 128.75
  L 113.99 131.49
  Q 114.38 131.75 114.85 131.75
  L 115.21 131.75
  L 115.21 136.75
  L 114.72 136.75
  Q 114.27 136.75 113.89 136.98
  C 107.37 140.76 101.01 141.21 94.25 143.01
  C 86.56 145.06 78.53 144.53 70.83 144.51
  C 67.22 144.50 65.21 143.49 64.29 140.00
  Q 66.85 138.98 69.25 140.21
  Q 81.98 144.41 95.06 141.33
  Q 95.68 141.19 95.21 140.75
  L 89.69 135.66
  Q 95.17 135.28 100.10 133.16
  C 102.61 132.09 104.92 131.04 107.58 130.34
  Q 108.95 129.98 109.79 128.75
  Z"
/>
<path fill="#706023" d="
  M 277.48 156.97
  A 0.37 0.36 -43.2 0 1 276.77 156.95
  Q 274.61 145.68 267.52 136.76
  A 0.40 0.40 0.0 0 1 268.03 136.16
  Q 273.78 139.44 277.94 144.57
  Q 278.27 144.98 278.33 145.51
  Q 278.96 151.33 277.48 156.97
  Z"
/>
<path fill="#706023" d="
  M 132.01 136.83
  Q 138.12 138.98 143.25 142.71
  C 139.05 145.03 131.00 150.35 126.21 147.50
  Q 127.24 146.76 126.94 145.66
  Q 126.81 145.16 126.97 144.67
  L 127.73 142.32
  Q 127.87 141.90 128.23 141.68
  C 129.69 140.78 130.70 139.59 130.73 137.81
  Q 130.75 136.42 132.01 136.83
  Z"
/>
<path fill="#babb84" d="
  M 342.75 145.46
  L 348.29 150.06
  Q 344.67 150.26 341.43 148.75
  Q 341.02 148.56 341.10 148.12
  Q 341.41 146.48 342.75 145.46
  Z"
/>
<path fill="#ecc241" d="
  M 229.54 178.50
  Q 230.09 184.70 233.96 189.50
  Q 234.78 190.26 234.73 191.22
  Q 234.70 191.89 234.13 191.53
  L 229.79 188.75
  Q 225.08 181.65 222.36 173.37
  C 221.67 163.83 220.31 153.94 226.46 147.34
  Q 226.77 147.00 226.86 147.45
  C 228.88 158.13 224.82 169.19 229.54 178.50
  Z"
/>
<path fill="#babb84" d="
  M 350.56 155.22
  Q 350.96 155.92 350.35 157.45
  Q 350.15 157.97 350.55 158.35
  Q 351.48 159.24 353.00 159.04
  Q 351.23 160.81 351.25 164.48
  C 351.27 169.62 343.69 167.70 341.25 165.96
  Q 341.64 165.67 341.73 165.32
  Q 341.83 164.88 341.44 164.65
  L 334.47 160.58
  A 0.75 0.75 0.0 0 1 334.54 159.25
  Q 336.17 158.49 335.71 156.50
  Q 337.47 153.57 340.32 151.36
  Q 340.74 151.04 341.23 151.25
  L 350.56 155.22
  Z"
/>
<path fill="#ffffda" d="
  M 350.75 151.96
  C 352.57 153.81 355.94 156.06 353.00 159.04
  Q 351.48 159.24 350.55 158.35
  Q 350.15 157.97 350.35 157.45
  Q 350.96 155.92 350.56 155.22
  Q 350.16 152.89 350.75 151.96
  Z"
/>
<path fill="#bd8b0d" d="
  M 213.04 169.50
  L 214.58 164.45
  Q 214.76 163.87 214.16 163.77
  C 212.98 163.58 212.18 163.63 211.25 164.52
  C 207.99 167.64 205.29 172.02 201.60 174.44
  Q 201.16 174.74 201.01 175.25
  Q 199.92 178.98 197.85 182.30
  Q 198.82 175.83 201.54 170.00
  Q 207.52 164.53 213.04 158.60
  C 215.34 156.12 218.00 154.91 220.51 157.87
  Q 220.87 158.28 220.71 158.80
  C 219.61 162.45 214.82 167.64 213.04 169.50
  Z"
/>
<path fill="#788a57" d="
  M 335.71 156.50
  Q 336.17 158.49 334.54 159.25
  A 0.75 0.75 0.0 0 0 334.47 160.58
  L 341.44 164.65
  Q 341.83 164.88 341.73 165.32
  Q 341.64 165.67 341.25 165.96
  L 333.00 161.46
  L 332.82 161.19
  Q 332.68 160.96 332.83 160.75
  L 335.71 156.50
  Z"
/>
<path fill="#ecc241" d="
  M 213.04 169.50
  Q 209.80 171.53 208.67 174.90
  Q 205.67 180.18 207.50 185.71
  Q 202.02 183.35 196.00 183.46
  L 197.85 182.30
  Q 199.92 178.98 201.01 175.25
  Q 201.16 174.74 201.60 174.44
  C 205.29 172.02 207.99 167.64 211.25 164.52
  C 212.18 163.63 212.98 163.58 214.16 163.77
  Q 214.76 163.87 214.58 164.45
  L 213.04 169.50
  Z"
/>
<path fill="#182985" d="
  M 328.48 177.37
  Q 330.26 190.10 333.15 202.27
  A 1.57 1.57 0.0 0 1 331.02 204.08
  L 321.21 200.00
  L 320.96 197.96
  Q 320.91 197.57 320.57 197.40
  L 312.00 193.09
  Q 311.51 192.85 311.87 192.44
  Q 319.19 183.84 328.48 177.37
  Z"
/>
<path fill="#706023" d="
  M 229.54 178.50
  C 231.65 181.70 235.01 185.44 233.96 189.50
  Q 230.09 184.70 229.54 178.50
  Z"
/>
<path fill="#ffffda" d="
  M 196.00 183.46
  Q 202.02 183.35 207.50 185.71
  C 212.50 189.15 212.03 193.77 210.71 199.50
  C 200.58 197.37 193.73 193.67 184.81 200.52
  Q 184.28 200.92 184.53 201.50
  Q 184.73 201.94 185.13 201.67
  C 191.88 197.08 201.46 196.70 208.87 200.16
  Q 209.70 200.54 210.71 200.25
  C 211.81 204.11 221.87 206.24 224.75 207.04
  L 231.75 211.25
  L 232.57 212.23
  Q 232.89 212.62 233.38 212.77
  C 237.05 213.89 240.12 214.87 242.43 217.64
  Q 242.76 218.03 242.76 218.54
  C 242.82 223.51 239.78 222.98 236.05 223.28
  Q 235.51 223.32 235.06 223.02
  L 228.64 218.64
  Q 228.23 218.36 227.75 218.23
  Q 226.80 217.98 226.53 217.05
  Q 226.37 216.50 225.79 216.42
  Q 222.42 215.97 219.21 214.94
  C 216.06 213.94 213.55 214.29 213.23 209.92
  Q 213.21 209.58 212.87 209.54
  L 212.54 209.50
  Q 211.95 209.42 212.07 210.00
  L 212.79 213.75
  C 214.53 222.61 218.76 230.86 222.95 238.80
  C 228.24 248.84 216.33 252.78 213.50 244.04
  Q 211.26 237.14 208.96 230.25
  Q 209.35 227.66 207.54 225.75
  Q 207.58 223.63 205.79 222.75
  Q 205.75 222.63 205.71 222.50
  Q 205.74 220.33 203.79 220.50
  C 199.00 218.90 201.28 226.30 202.00 227.96
  Q 203.50 236.68 205.78 245.24
  C 208.63 255.91 195.94 260.52 194.31 249.74
  C 193.12 241.92 193.31 234.14 192.71 226.25
  Q 192.52 224.40 193.27 222.68
  A 0.71 0.71 0.0 0 0 192.49 221.70
  L 189.24 222.31
  Q 188.70 222.41 188.51 222.92
  Q 184.65 232.86 185.04 243.50
  C 184.55 248.58 182.60 255.67 176.31 253.20
  C 169.90 250.69 178.80 229.38 180.01 224.82
  A 1.05 1.04 -20.2 0 0 178.14 223.96
  Q 172.19 232.49 168.21 241.32
  C 166.84 244.36 160.70 247.58 160.25 242.50
  C 159.84 237.85 165.13 231.48 169.14 226.40
  C 172.33 222.36 173.74 216.12 177.33 211.78
  C 179.15 209.56 182.90 206.35 182.96 203.25
  C 183.18 191.43 183.43 186.51 196.00 183.46
  Z"
/>
<path fill="#121608" fill-opacity="0.996" d="
  M 234.36 194.47
  Q 234.83 194.72 234.75 195.25
  L 233.26 205.50
  A 1.66 1.64 88.2 0 1 231.98 206.87
  C 223.25 208.70 229.32 191.82 234.36 194.47
  Z"
/>
<path fill="#706023" d="
  M 210.71 199.50
  L 210.71 200.25
  Q 209.70 200.54 208.87 200.16
  C 201.46 196.70 191.88 197.08 185.13 201.67
  Q 184.73 201.94 184.53 201.50
  Q 184.28 200.92 184.81 200.52
  C 193.73 193.67 200.58 197.37 210.71 199.50
  Z"
/>
<path fill="#706023" d="
  M 224.75 207.04
  Q 228.92 207.97 231.75 211.25
  L 224.75 207.04
  Z"
/>
<path fill="#babb84" d="
  M 231.75 211.25
  Q 238.34 211.88 243.15 216.12
  Q 243.49 216.42 243.56 216.87
  Q 244.49 222.61 240.23 224.48
  C 236.16 226.27 228.21 220.81 224.58 218.65
  C 221.83 217.01 218.95 216.59 215.91 216.17
  Q 215.42 216.10 215.05 215.77
  L 212.79 213.75
  L 212.07 210.00
  Q 211.95 209.42 212.54 209.50
  L 212.87 209.54
  Q 213.21 209.58 213.23 209.92
  C 213.55 214.29 216.06 213.94 219.21 214.94
  Q 222.42 215.97 225.79 216.42
  Q 226.37 216.50 226.53 217.05
  Q 226.80 217.98 227.75 218.23
  Q 228.23 218.36 228.64 218.64
  L 235.06 223.02
  Q 235.51 223.32 236.05 223.28
  C 239.78 222.98 242.82 223.51 242.76 218.54
  Q 242.76 218.03 242.43 217.64
  C 240.12 214.87 237.05 213.89 233.38 212.77
  Q 232.89 212.62 232.57 212.23
  L 231.75 211.25
  Z"
/>
<path fill="#babb84" d="
  M 203.79 220.50
  L 203.50 221.21
  C 200.58 222.08 202.00 226.08 202.00 227.96
  C 201.28 226.30 199.00 218.90 203.79 220.50
  Z"
/>
<path fill="#788a57" d="
  M 205.71 222.50
  Q 204.83 221.44 203.50 221.21
  L 203.79 220.50
  Q 205.74 220.33 205.71 222.50
  Z"
/>
<path fill="#babb84" d="
  M 192.71 226.25
  Q 192.72 223.67 190.81 223.14
  A 1.62 1.62 0.0 0 0 188.79 224.39
  L 185.04 243.50
  Q 184.65 232.86 188.51 222.92
  Q 188.70 222.41 189.24 222.31
  L 192.49 221.70
  A 0.71 0.71 0.0 0 1 193.27 222.68
  Q 192.52 224.40 192.71 226.25
  Z"
/>
<path fill="#788a57" d="
  M 205.79 222.75
  Q 207.58 223.63 207.54 225.75
  L 207.46 227.00
  L 205.79 222.75
  Z"
/>
<path fill="#babb84" d="
  M 207.54 225.75
  Q 209.35 227.66 208.96 230.25
  L 207.46 227.00
  L 207.54 225.75
  Z"
/>
</svg>
